<svg id="Layer_1" data-name="Layer 1" xmlns="http://www.w3.org/2000/svg" viewBox="0 0 1000 1000"><defs><style>.cls-1{fill:#fff;}</style></defs><path class="cls-1" d="M0,0V1000H1000V0ZM500,98.47l352.86,165L500,425.68,147.16,263.44ZM770.5,416.66l82.35,37.39L500,616.28,147.15,454.05l81.15-38.91,271.7,134ZM144.89,270.57l351.65,161v84.14l-352.86-165Zm0,190.91,351.65,161v84.14l-352.86-165ZM496.54,901.53l-352.86-165,1.21-80.17,351.65,161ZM147.15,649l81.15-38.9L500,744,770.5,611.57,852.85,649,500,811.19ZM503.46,901.53V817.39l351.65-161,1.21,80.17Zm0-194.91V622.48l351.65-161,1.21,80.17Zm0-190.91V431.57l351.65-161,1.21,80.18Z"/></svg>