<svg id="Layer_1" data-name="Layer 1" xmlns="http://www.w3.org/2000/svg" xmlns:xlink="http://www.w3.org/1999/xlink" viewBox="0 0 380.45 224.7"><defs><style>.cls-1{fill:url(#linear-gradient);}.cls-2{fill:url(#linear-gradient-2);}.cls-3{fill:url(#linear-gradient-3);}.cls-4{fill:url(#linear-gradient-4);}.cls-5{fill:url(#radial-gradient);}.cls-6{isolation:isolate;}.cls-7{fill:#623efd;}.cls-8{fill:#8e8e8e;}.cls-9{fill:url(#linear-gradient-5);}.cls-10{fill:url(#linear-gradient-6);}</style><linearGradient id="linear-gradient" x1="129.43" y1="97.39" x2="129.43" y2="190.96" gradientUnits="userSpaceOnUse"><stop offset="0" stop-color="#623efd"/><stop offset="1" stop-color="#2bc4f7"/></linearGradient><linearGradient id="linear-gradient-2" x1="251.03" y1="97.39" x2="251.03" y2="190.95" xlink:href="#linear-gradient"/><linearGradient id="linear-gradient-3" x1="251.03" y1="127.32" x2="251.03" y2="220.88" xlink:href="#linear-gradient"/><linearGradient id="linear-gradient-4" x1="129.43" y1="127.32" x2="129.43" y2="220.89" xlink:href="#linear-gradient"/><radialGradient id="radial-gradient" cx="189.43" cy="117.62" r="125.19" gradientUnits="userSpaceOnUse"><stop offset="0" stop-color="#2bc4f7"/><stop offset="1" stop-color="#623efd"/></radialGradient><linearGradient id="linear-gradient-5" x1="318.17" y1="112.35" x2="380.45" y2="112.35" xlink:href="#linear-gradient"/><linearGradient id="linear-gradient-6" x1="5208.8" y1="112.35" x2="5271.08" y2="112.35" gradientTransform="matrix(-1, 0, 0, 1, 5271.08, 0)" xlink:href="#linear-gradient"/></defs><polygon class="cls-1" points="190.23 161.02 190.23 190.96 190.22 190.96 91.77 127.32 68.63 112.36 91.77 97.39 190.22 161.03 190.23 161.02"/><polygon class="cls-2" points="311.82 112.36 288.68 127.32 288.67 127.32 190.23 190.96 190.23 161.02 288.68 97.39 311.82 112.36"/><polygon class="cls-3" points="311.82 142.29 190.23 220.88 190.23 190.96 288.67 127.32 288.68 127.32 311.82 142.29"/><polygon class="cls-4" points="190.23 190.96 190.23 220.88 190.22 220.89 68.63 142.29 91.77 127.32 190.22 190.96 190.23 190.96"/><polygon class="cls-5" points="190.22 3.81 68.63 82.41 68.64 82.42 190.22 161.02 190.23 161.02 190.23 161.02 311.81 82.42 311.82 82.41 190.22 3.81"/><g class="cls-6"><rect class="cls-7" x="353.61" y="111.65" width="6.35" height="0.56"/><path class="cls-7" d="M317.75,209.18l.92,0,.54,0,1-.08.43-.05.48-.06.72-.11c.17,0,.33-.06.5-.09l.67-.13.36-.08.71-.17.36-.1.75-.22.22-.07c.31-.1.61-.21.91-.33s.83-.34,1.23-.53l.3-.16c.32-.15.62-.32.92-.49l.35-.2.24-.15.57-.39.2-.14.64-.49.12-.09c.24-.2.47-.4.69-.61s.52-.5.77-.76l.06-.07c.22-.24.44-.49.65-.74s.21-.27.31-.41l.3-.39.3-.44c.09-.13.19-.27.27-.41s.19-.31.28-.46.17-.28.25-.43l.26-.49c.08-.15.16-.3.23-.45l.24-.51.21-.47.21-.54c.07-.16.13-.32.19-.49s.13-.37.2-.56.11-.34.17-.51.11-.39.17-.59.11-.35.15-.52c.1-.35.18-.7.26-1.06a.64.64,0,0,1,0-.07c.09-.38.16-.77.24-1.16,0-.13,0-.27.07-.4s.09-.53.13-.81,0-.33.07-.49.07-.5.1-.76,0-.32.05-.47,0-.53.07-.79,0-.35,0-.52l.06-.79,0-.54,0-.81c0-.18,0-.36,0-.55,0-.41,0-.82,0-1.24,0-.75,0-1.5,0-2.25,0-.18,0-.37,0-.56,0-.74-.05-1.48-.1-2.22v0c0-.74-.09-1.47-.15-2.21,0-.19,0-.38,0-.56-.06-.74-.13-1.48-.2-2.22v0c-.08-.74-.16-1.48-.25-2.23,0-.19,0-.38-.07-.57-.09-.74-.18-1.49-.28-2.24v0c-.1-.76-.21-1.52-.32-2.29l-.09-.59c-.11-.76-.22-1.52-.34-2.3l-.12-.74-.06-.39c0-.18-.05-.37-.08-.56-.09-.58-.17-1.15-.25-1.73-.06-.37-.11-.74-.16-1.11-.08-.6-.15-1.2-.23-1.81,0-.35-.09-.7-.13-1.05-.08-.71-.16-1.44-.23-2.16,0-.24-.05-.48-.08-.72-.09-1-.17-1.94-.24-2.92a.41.41,0,0,1,0-.11c-.06-.76-.1-1.53-.14-2.3l0-.64c0-.64-.06-1.27-.08-1.92,0-.24,0-.48,0-.72,0-.84,0-1.69,0-2.54,0-.53,0-1,0-1.56v0c0-.16,0-.31,0-.46,0-.37,0-.73,0-1.09,0-.2,0-.39,0-.58s0-.62.05-.93,0-.4,0-.6.05-.58.08-.86l.06-.6c0-.16,0-.31.05-.46s0-.22.05-.33l.09-.7c0-.25.07-.49.11-.73l.12-.68c0-.23.09-.46.13-.7s.09-.44.14-.65l.15-.68c.05-.21.1-.42.16-.63s.05-.22.08-.33a2.76,2.76,0,0,1,.08-.27c.08-.3.16-.59.25-.87s.11-.35.16-.51.21-.61.31-.92l.15-.4c.16-.43.33-.85.5-1.26l.06-.12c.16-.37.32-.73.49-1.08.07-.13.14-.26.2-.39s.27-.51.41-.76l.24-.43c.13-.23.27-.46.41-.68s.17-.28.26-.41.3-.45.45-.66.17-.25.26-.37.36-.48.55-.72l.16-.21,0,0c.31-.37.63-.74.95-1.09l.25-.26c.29-.3.59-.6.9-.88l.11-.11.05,0c.25-.23.51-.45.78-.67l.09-.08c.29-.24.59-.48.9-.7l0,0,.4-.28.45-.32.46-.29c.15-.1.3-.2.46-.29l.05,0,.52-.3.37-.21.64-.33.32-.16h0l.69-.32.29-.13c.34-.15.68-.29,1-.42h0l1.09-.4.34-.11.78-.24h0l1.05-.29H360c-.37.09-.73.19-1.09.3l-.77.24-.34.11-1.09.4c-.35.13-.69.27-1,.42l-.29.13c-.24.11-.48.21-.71.33l-.33.16-.64.33-.37.21-.56.33-.47.29-.45.29c-.16.1-.3.21-.45.32s-.3.2-.44.31c-.31.22-.61.46-.91.7a.3.3,0,0,0-.08.08l-.79.67s-.1.11-.16.16c-.3.28-.6.58-.89.88l-.25.26c-.33.35-.65.72-1,1.09l-.2.25c-.18.24-.37.47-.55.72l-.26.37c-.15.21-.3.43-.44.66l-.27.41-.41.68-.24.43c-.13.25-.27.5-.4.76l-.2.39c-.17.35-.34.71-.5,1.08a.61.61,0,0,1-.05.12q-.27.61-.51,1.26c-.05.13-.09.27-.14.4-.11.3-.21.61-.31.92s-.11.34-.16.51-.17.57-.26.87-.1.4-.16.6l-.15.63c-.05.23-.11.45-.16.68s-.09.43-.13.65-.09.47-.13.7l-.12.68c0,.24-.08.48-.11.73s-.07.46-.1.7l-.09.79c0,.2-.05.4-.07.6s0,.57-.07.86,0,.4,0,.6,0,.62-.05.93l0,.58,0,1.09c0,.15,0,.3,0,.46,0,.53,0,1.06,0,1.61,0,.85,0,1.7,0,2.54,0,.24,0,.48,0,.73,0,.64,0,1.27.07,1.91l0,.64q.07,1.22.15,2.4c.07,1,.16,2,.25,2.93,0,.24,0,.48.07.72.08.72.15,1.45.24,2.16,0,.35.08.7.13,1.05.07.6.15,1.21.23,1.81l.15,1.11c.09.58.17,1.15.26,1.73s.17,1.13.26,1.69c.12.78.23,1.54.34,2.3,0,.2.06.39.08.59.11.77.22,1.53.32,2.29v0c.1.75.19,1.5.28,2.24,0,.19,0,.38.07.57.08.75.17,1.49.24,2.23v0c.08.74.14,1.48.21,2.22,0,.18,0,.37,0,.56s0,.38.05.57c0,.55.07,1.09.1,1.64v0c0,.74.07,1.48.1,2.22,0,.19,0,.38,0,.56q0,1.13,0,2.25v1c0,.09,0,.17,0,.26s0,.37,0,.56,0,.53,0,.8l0,.55c0,.26,0,.52-.05.77s0,.36,0,.53-.05.53-.08.79,0,.31-.05.47,0,.1,0,.15l-.09.61-.06.49c0,.28-.09.54-.14.81s0,.27-.07.4c-.07.39-.15.78-.23,1.16a.64.64,0,0,0,0,.07c-.08.34-.16.68-.25,1v0l-.15.52c-.06.2-.11.4-.17.59l-.18.51c-.06.19-.12.38-.19.56s-.13.33-.19.49l-.21.54c-.07.16-.14.31-.22.47s-.15.34-.23.51-.16.3-.23.45l-.26.49c-.08.15-.17.29-.25.43s-.18.31-.28.46l-.27.41-.3.44-.3.39-.27.36-.05,0c-.21.25-.42.5-.65.74a.2.2,0,0,1-.06.07c-.24.26-.5.51-.76.76l0,0-.66.57-.12.09c-.17.15-.35.29-.53.42l-.1.07-.2.14-.58.39-.23.15-.16.09-.19.11-.92.5-.19.1-.11.05c-.4.19-.81.37-1.24.53l-.05,0-.85.31-.22.07-.49.15-.26.07-.37.1-.7.17-.36.08-.15,0-.52.09c-.17,0-.33.07-.5.09l-.72.11L327,209h-.07l-.35,0-1,.08-.55,0-.92,0h-6.34Z"/><path class="cls-7" d="M334.2,81.2c0-.62,0-1.22,0-1.83,0-.24,0-.49,0-.74s0-.3,0-.46c0-.8.06-1.59.1-2.38,0-.14,0-.29,0-.43,0-.81.09-1.62.15-2.42v0c.06-.8.13-1.59.2-2.39,0-.13,0-.26,0-.39.07-.77.15-1.53.24-2.29,0-.15,0-.3.05-.45s.05-.42.07-.64.06-.41.08-.62c.1-.77.2-1.55.31-2.32l.12-.92c.15-1,.3-2.07.46-3.11s.34-2.17.49-3.25l.12-.87c.14-1,.27-1.95.39-2.92l.06-.44c.1-.9.2-1.8.29-2.69,0-.18,0-.35.05-.52.07-.72.13-1.44.19-2.16l.06-.93c0-.58.08-1.15.11-1.73,0-.35,0-.69,0-1,0-.54,0-1.07.05-1.6s0-1.25,0-1.87,0-1.19,0-1.78c0-.16,0-.31,0-.47,0-.49,0-1-.07-1.44,0-.1,0-.21,0-.31,0-.52-.09-1-.14-1.53,0-.12,0-.24,0-.36l-.15-1.13c0-.18-.05-.35-.08-.53l-.12-.66c0-.19-.07-.38-.1-.56s-.09-.43-.14-.64-.09-.39-.13-.58l-.12-.45c-.05-.21-.11-.41-.17-.61l-.12-.44c-.07-.22-.14-.44-.22-.66s-.06-.2-.1-.3c-.11-.31-.23-.62-.35-.93l0-.05-.36-.83c0-.09-.09-.17-.13-.26s-.2-.41-.31-.61l-.13-.26c-.14-.25-.28-.51-.43-.75l0-.05c-.16-.26-.34-.52-.51-.77-.05-.08-.11-.15-.17-.23l-.37-.5c-.09-.11-.18-.23-.28-.34s-.23-.27-.34-.4l-.3-.33-.38-.38-.3-.29-.41-.37-.31-.26c-.14-.12-.3-.24-.45-.35l-.31-.24-.51-.35-.3-.19q-.33-.21-.66-.39l-.2-.12c-.3-.16-.6-.31-.91-.45l-.24-.11-.71-.31-.37-.14-.64-.23-.42-.13-.64-.19-.46-.12-.65-.16-.49-.1-.67-.13-.51-.09-.72-.1-.52-.07-.78-.07-.51-.05-.89,0-.45,0c-.45,0-.92,0-1.39,0H323c.48,0,.94,0,1.4,0l.45,0,.89,0,.51.05.78.07.52.07.72.1.5.09.68.13.49.1.65.16.46.12.63.19.43.13.63.23.37.14.71.31.25.11c.31.14.61.29.91.45l.2.12c.22.12.44.25.65.39l.3.19c.17.12.35.23.51.35l.32.24.45.35.31.26.41.37.3.29.19.18.18.2.3.33c.12.13.24.26.35.4l.28.34.12.15.25.35.17.23c.17.25.34.5.5.76h0l0,.05c.15.25.3.5.44.75,0,.09.09.17.13.26s.11.19.16.3l.15.31.12.26c.13.27.25.55.37.83,0,0,0,0,0,.05h0c.12.3.24.61.35.92,0,.1.07.2.1.3l.15.44.06.22c.05.15.09.29.13.44s.12.4.17.61.08.3.11.45a2.5,2.5,0,0,1,.07.26c0,.1,0,.21.07.32s.09.42.13.64.08.37.11.56.08.44.11.66l.06.3a2.08,2.08,0,0,0,0,.23c.05.37.1.75.14,1.13,0,.12,0,.24.05.36.05.5.1,1,.14,1.53v.08a1.69,1.69,0,0,1,0,.23c0,.47.06.95.08,1.44,0,.16,0,.31,0,.47,0,.59,0,1.18,0,1.78s0,.91,0,1.37c0,.16,0,.33,0,.5,0,.53,0,1.06-.06,1.6,0,.35,0,.69,0,1,0,.58-.07,1.15-.11,1.73l-.06.93c-.06.72-.12,1.44-.19,2.16,0,.17,0,.34,0,.52-.09.89-.19,1.79-.3,2.69a.34.34,0,0,1,0,.1c0,.11,0,.23,0,.34-.12,1-.25,1.94-.39,2.92l-.12.87c-.16,1.08-.32,2.16-.49,3.25s-.31,2.08-.46,3.11c0,.31-.08.61-.13.92l-.3,2.32-.15,1.26-.06.45-.24,2.29,0,.39c-.08.79-.15,1.59-.21,2.39v0c-.06.8-.11,1.61-.15,2.42l0,.43c0,.78-.07,1.58-.09,2.38,0,.16,0,.31,0,.47,0,.84,0,1.69,0,2.56,0,.5,0,1,0,1.5,0,.14,0,.29,0,.43l0,1.08c0,.14,0,.28,0,.42,0,.47,0,.94.07,1.39v0q.06.85.15,1.68l.06.53L341,89.4c0,.21.06.42.1.62s.09.53.13.79.08.43.13.64.1.51.16.77.09.42.14.63.11.4.16.6.11.44.17.65l.18.58c.06.22.13.43.2.65s.11.33.17.49.15.43.23.65l.18.47c.09.22.17.43.26.63s.12.3.19.44.19.42.29.63.13.27.19.4.21.41.32.62l.2.37.41.7.15.26.25.38.37.58.28.38c.13.18.25.36.38.53s.11.13.16.19c.21.28.43.55.65.81.09.1.18.21.28.31s.39.43.59.65l.27.28c.35.34.7.68,1.07,1l.18.16c.33.28.67.55,1,.82l.24.18q.58.43,1.2.84l.26.16c.36.23.74.46,1.12.68l.22.12c.43.24.88.47,1.33.69l.31.14c.42.2.85.39,1.29.56l.15.07c.48.19,1,.37,1.46.54l.36.12,1.53.47h-6.35l-1.53-.47-.35-.12c-.5-.17-1-.35-1.46-.54l-.16-.07c-.44-.17-.86-.36-1.29-.56l-.31-.14c-.45-.22-.89-.45-1.33-.69l-.22-.12c-.38-.22-.75-.45-1.12-.68l-.26-.16c-.41-.27-.81-.55-1.19-.84l-.25-.18c-.34-.27-.68-.54-1-.82l-.19-.16c-.37-.32-.72-.66-1.06-1l-.11-.1-.16-.18c-.21-.22-.41-.43-.6-.65l-.28-.31c-.22-.26-.44-.53-.65-.81l-.13-.15,0,0c-.13-.17-.26-.35-.38-.53s-.19-.25-.28-.38l-.38-.58c-.08-.12-.16-.24-.23-.36l0,0-.15-.26c-.13-.23-.27-.46-.4-.7l-.2-.37-.28-.52-.05-.1-.18-.4-.3-.63c-.06-.14-.12-.29-.19-.44s-.11-.26-.17-.39a2.34,2.34,0,0,0-.09-.24l-.18-.47-.23-.65c-.06-.16-.11-.33-.17-.49s-.06-.19-.1-.29-.06-.24-.1-.36-.12-.38-.17-.58l-.18-.65-.15-.61c0-.08-.05-.16-.07-.25s-.05-.25-.08-.37-.11-.51-.16-.77l-.12-.64c-.05-.26-.1-.52-.14-.79l-.06-.34,0-.28c-.06-.37-.11-.75-.15-1.13,0-.18-.05-.35-.07-.53q-.09-.83-.15-1.68v0h0v0c0-.45-.06-.92-.08-1.39,0-.14,0-.28,0-.42l0-1.08V82.7Q334.19,82,334.2,81.2Z"/><polygon class="cls-8" points="323.02 209.19 316.68 209.19 311.82 209.19 318.17 209.19 323.02 209.19"/><rect class="cls-7" x="311.82" y="209.19" width="6.35" height="15.51"/><rect class="cls-7" x="311.82" width="6.35" height="15.51"/><polygon class="cls-8" points="323.83 0 317.49 0 311.82 0 318.17 0 323.83 0"/><path class="cls-9" d="M318.17,0V15.51H323c15.91,0,21.3,9,21.3,24.24a129.87,129.87,0,0,1-1.88,20,137.2,137.2,0,0,0-1.89,21.43c-.27,18,7.28,27.06,19.41,30.45v.56c-12.13,3.1-19.68,12.69-19.41,30.73a134.09,134.09,0,0,0,1.89,21.42,133.55,133.55,0,0,1,1.88,20.3c0,15.79-6.2,24.53-21.3,24.53h-4.85V224.7h5.66c22.38,0,39.1-10.15,39.1-38.63,0-7.61-1.08-15.5-2.16-23.11s-2.16-15.23-2.16-22.84c0-8.74,2.7-20.86,21.84-20.86V104.88c-19.14,0-21.84-11-21.84-20.86,0-7.9,1.08-15.79,2.16-23.69s2.16-15.5,2.16-23.4C362.93,11,346.75,0,323.83,0Z"/></g><g class="cls-6"><rect class="cls-7" x="20.49" y="111.65" width="6.35" height="0.56"/><path class="cls-7" d="M62.7,209.18l-.92,0-.54,0-1-.08-.43-.05-.48-.06-.72-.11c-.17,0-.34-.06-.5-.09l-.67-.13-.36-.08-.71-.17-.37-.1-.74-.22-.22-.07c-.31-.1-.61-.21-.91-.33s-.83-.34-1.23-.53l-.3-.16c-.32-.15-.62-.32-.92-.49l-.35-.2-.24-.15-.57-.39-.21-.14-.63-.49-.12-.09-.7-.61c-.26-.25-.51-.5-.76-.76l-.06-.07c-.22-.24-.44-.49-.65-.74s-.21-.27-.32-.41L46.8,202c-.11-.14-.2-.29-.3-.44l-.28-.41-.27-.46c-.09-.14-.18-.28-.26-.43l-.25-.49c-.08-.15-.16-.3-.23-.45s-.16-.34-.24-.51l-.21-.47c-.08-.18-.14-.36-.21-.54s-.14-.32-.2-.49-.13-.37-.19-.56-.12-.34-.17-.51-.12-.39-.17-.59-.11-.35-.15-.52c-.1-.35-.18-.7-.27-1.06,0,0,0-.05,0-.07-.09-.38-.17-.77-.24-1.16,0-.13,0-.27-.07-.4s-.09-.53-.13-.81-.05-.33-.07-.49-.07-.5-.1-.76,0-.32-.05-.47,0-.53-.07-.79,0-.35,0-.52,0-.52,0-.79l0-.54,0-.81c0-.18,0-.36,0-.55,0-.41,0-.82,0-1.24q0-1.12,0-2.25c0-.18,0-.37,0-.56q0-1.11.09-2.22v0c0-.74.09-1.47.15-2.21,0-.19,0-.38,0-.56.06-.74.13-1.48.2-2.22v0c.08-.74.16-1.48.25-2.23,0-.19,0-.38.07-.57.09-.74.18-1.49.28-2.24v0c.1-.76.21-1.52.32-2.29l.09-.59c.11-.76.22-1.52.34-2.3l.12-.74.06-.39c0-.18.05-.37.08-.56.08-.58.17-1.15.25-1.73.05-.37.11-.74.16-1.11.08-.6.15-1.2.23-1.81,0-.35.09-.7.13-1.05.08-.71.16-1.44.23-2.16,0-.24.05-.48.08-.72.09-1,.17-1.94.24-2.92,0,0,0-.07,0-.11.06-.76.1-1.53.14-2.3l0-.64c0-.64.06-1.27.07-1.92l0-.72c0-.84,0-1.69,0-2.54,0-.53,0-1,0-1.56v0c0-.16,0-.31,0-.46,0-.37,0-.73,0-1.09l0-.58c0-.31,0-.62,0-.93s0-.4-.05-.6,0-.58-.07-.86l-.06-.6c0-.16,0-.31-.05-.46s0-.22,0-.33l-.09-.7c0-.25-.08-.49-.11-.73l-.12-.68c0-.23-.09-.46-.13-.7s-.09-.44-.14-.65l-.15-.68c0-.21-.11-.42-.16-.63s-.05-.22-.08-.33a2.76,2.76,0,0,0-.08-.27c-.08-.3-.17-.59-.25-.87s-.11-.35-.16-.51-.21-.61-.32-.92c0-.13-.09-.27-.14-.4-.16-.43-.33-.85-.5-1.26l-.06-.12c-.16-.37-.32-.73-.5-1.08-.06-.13-.13-.26-.2-.39s-.26-.51-.4-.76l-.24-.43c-.13-.23-.27-.46-.41-.68s-.17-.28-.26-.41-.3-.45-.45-.66l-.26-.37c-.18-.25-.36-.48-.55-.72l-.16-.21,0,0c-.31-.37-.63-.74-.95-1.09l-.25-.26c-.29-.3-.59-.6-.9-.88l-.11-.11,0,0c-.25-.23-.52-.45-.78-.67l-.09-.08c-.29-.24-.6-.48-.9-.7l0,0-.4-.28-.45-.32-.46-.29-.46-.29-.05,0-.52-.3-.37-.21-.64-.33-.32-.16h0l-.7-.32-.28-.13c-.34-.15-.68-.29-1-.42h0l-1.09-.4-.35-.11-.77-.24h0l-1-.29H20.49c.36.09.73.19,1.08.3l.78.24.34.11,1.09.4c.35.13.69.27,1,.42l.29.13c.24.11.48.21.71.33l.32.16.65.33.37.21.56.33.47.29.45.29.45.32c.15.1.3.2.44.31.31.22.61.46.91.7a.6.6,0,0,1,.08.08c.27.22.53.44.78.67.06,0,.11.11.16.16.31.28.61.58.9.88l.25.26c.33.35.65.72.95,1.09l.2.25c.18.24.37.47.54.72s.18.24.26.37a7.66,7.66,0,0,1,.45.66c.09.13.18.27.26.41s.28.45.41.68.17.28.24.43.28.5.41.76.13.26.2.39c.17.35.34.71.5,1.08a.61.61,0,0,0,0,.12c.18.41.34.83.5,1.26l.15.4c.11.3.21.61.31.92s.11.34.16.51.17.57.25.87.11.4.16.6.11.42.16.63l.15.68c.05.21.1.43.14.65s.09.47.13.7l.12.68c0,.24.07.48.11.73s.07.46.1.7l.09.79.06.6c0,.28.05.57.08.86s0,.4,0,.6l.06.93c0,.19,0,.38,0,.58,0,.36,0,.72,0,1.09,0,.15,0,.3,0,.46,0,.53,0,1.06,0,1.61,0,.85,0,1.7,0,2.54,0,.24,0,.48,0,.73,0,.64-.05,1.27-.08,1.91,0,.21,0,.43,0,.64,0,.81-.09,1.61-.14,2.4-.08,1-.16,2-.25,2.93,0,.24-.05.48-.08.72-.07.72-.15,1.45-.23,2.16,0,.35-.09.7-.13,1.05-.07.6-.15,1.21-.23,1.81,0,.37-.1.74-.16,1.11-.08.58-.16,1.15-.25,1.73s-.17,1.13-.26,1.69c-.12.78-.23,1.54-.34,2.3l-.09.59c-.11.77-.21,1.53-.32,2.29v0c-.1.75-.19,1.5-.28,2.24,0,.19,0,.38-.07.57-.09.75-.17,1.49-.24,2.23v0c-.07.74-.14,1.48-.2,2.22,0,.18,0,.37,0,.56s0,.38-.05.57c0,.55-.07,1.09-.1,1.64v0c0,.74-.07,1.48-.1,2.22,0,.19,0,.38,0,.56,0,.75,0,1.5,0,2.25,0,.33,0,.66,0,1,0,.09,0,.17,0,.26s0,.37,0,.56,0,.53,0,.8,0,.36,0,.55l.06.77c0,.18,0,.36,0,.53s0,.53.08.79,0,.31,0,.47,0,.1,0,.15.06.41.08.61,0,.33.07.49.09.54.14.81l.06.4L37,194a.64.64,0,0,1,0,.07c.08.34.16.68.25,1v0l.15.52c.06.2.11.4.17.59l.18.51c.06.19.12.38.19.56s.12.33.19.49l.21.54.21.47.24.51c.07.15.15.3.23.45l.26.49c.08.15.17.29.25.43s.18.31.28.46l.27.41.3.44.3.39.27.36,0,0c.21.25.43.5.65.74l.06.07c.25.26.5.51.77.76l0,0,.65.57.12.09q.27.23.54.42l.1.07.2.14.58.39.23.15.16.09.19.11.92.5.19.1.11.05c.4.19.81.37,1.24.53l0,0,.85.31.22.07.49.15.26.07.37.1.7.17.36.08.15,0,.52.09c.17,0,.33.07.5.09l.72.11.48.06h.08l.35,0,1,.08.55,0,.91,0H62.7Z"/><path class="cls-7" d="M46.25,81.2c0-.62,0-1.22,0-1.83,0-.24,0-.49,0-.74s0-.3,0-.46c0-.8-.05-1.59-.09-2.38,0-.14,0-.29,0-.43-.05-.81-.09-1.62-.15-2.42v0c-.06-.8-.13-1.59-.2-2.39,0-.13,0-.26,0-.39-.07-.77-.15-1.53-.24-2.29,0-.15,0-.3-.05-.45s0-.42-.07-.64l-.09-.62c-.09-.77-.19-1.55-.3-2.32,0-.31-.08-.61-.13-.92-.14-1-.29-2.07-.45-3.11s-.34-2.17-.49-3.25c0-.29-.09-.58-.13-.87-.13-1-.26-1.95-.38-2.92l-.06-.44c-.1-.9-.2-1.8-.29-2.69,0-.18,0-.35,0-.52-.07-.72-.14-1.44-.19-2.16,0-.31,0-.62-.07-.93,0-.58-.07-1.15-.1-1.73,0-.35,0-.69-.05-1,0-.54,0-1.07,0-1.6s0-1.25,0-1.87,0-1.19,0-1.78c0-.16,0-.31,0-.47,0-.49,0-1,.07-1.44,0-.1,0-.21,0-.31,0-.52.08-1,.14-1.53,0-.12,0-.24,0-.36.05-.38.09-.76.15-1.13,0-.18.05-.35.08-.53l.12-.66c0-.19.06-.38.1-.56s.09-.43.14-.64.08-.39.13-.58l.12-.45c0-.21.11-.41.16-.61s.09-.29.13-.44.14-.44.22-.66.06-.2.1-.3c.11-.31.22-.62.35-.93,0,0,0,0,0-.05l.36-.83c0-.09.08-.17.13-.26l.3-.61.14-.26c.14-.25.28-.51.43-.75l0-.05c.16-.26.33-.52.51-.77l.16-.23.38-.5c.09-.11.18-.23.28-.34s.22-.27.34-.4L48,21c.13-.13.25-.26.38-.38l.29-.29.42-.37.31-.26a5.37,5.37,0,0,1,.45-.35l.31-.24.51-.35.3-.19q.33-.21.66-.39l.2-.12c.29-.16.6-.31.91-.45l.24-.11.71-.31L54,17l.64-.23.42-.13.64-.19.46-.12.64-.16.5-.1L58,16l.51-.09.72-.1.52-.07.78-.07.5-.05.9,0,.45,0c.45,0,.92,0,1.39,0H57.42c-.47,0-.94,0-1.39,0l-.45,0-.89,0-.51.05-.78.07-.52.07-.72.1-.51.09-.67.13-.49.1-.65.16-.46.12-.63.19-.43.13-.63.23-.37.14-.71.31-.25.11c-.31.14-.61.29-.91.45l-.2.12c-.22.12-.44.25-.65.39l-.3.19-.52.35-.31.24-.45.35-.31.26-.41.37-.3.29-.19.18-.18.2-.31.33c-.11.13-.23.26-.34.4l-.28.34-.12.15-.25.35-.17.23c-.17.25-.34.5-.5.76h0l0,.05c-.15.25-.29.5-.43.75l-.13.26a2.85,2.85,0,0,0-.16.3l-.15.31c0,.09-.09.17-.13.26l-.36.83s0,0,0,.05h0c-.13.3-.24.61-.35.92,0,.1-.07.2-.1.3l-.15.44a1.87,1.87,0,0,1-.07.22l-.12.44c-.06.2-.12.4-.17.61l-.12.45L37.1,30a3,3,0,0,0-.07.32c-.05.21-.09.42-.14.64s-.07.37-.1.56l-.12.66c0,.1,0,.2-.05.3l0,.23-.15,1.13c0,.12,0,.24,0,.36,0,.5-.1,1-.14,1.53v.08c0,.07,0,.15,0,.23,0,.47-.05.95-.07,1.44,0,.16,0,.31,0,.47,0,.59,0,1.18,0,1.78s0,.91,0,1.37c0,.16,0,.33,0,.5,0,.53,0,1.06.05,1.6,0,.35,0,.69,0,1,0,.58.07,1.15.11,1.73l.06.93c.06.72.12,1.44.19,2.16,0,.17,0,.34,0,.52.09.89.19,1.79.3,2.69a.34.34,0,0,0,0,.1c0,.11,0,.23,0,.34.12,1,.25,1.94.39,2.92l.12.87c.16,1.08.32,2.16.49,3.25s.31,2.08.46,3.11l.12.92c.11.77.21,1.55.31,2.32l.15,1.26c0,.15,0,.3.05.45.09.76.17,1.52.25,2.29l0,.39c.08.79.15,1.59.21,2.39v0c.06.8.11,1.61.15,2.42,0,.15,0,.29,0,.43,0,.78.07,1.58.1,2.38,0,.16,0,.31,0,.47,0,.84,0,1.69,0,2.56q0,.75,0,1.5v.43l0,1.08c0,.14,0,.28,0,.42,0,.47,0,.94-.08,1.39v0q-.06.85-.15,1.68l-.06.53-.15,1.13c0,.21-.07.42-.1.62s-.09.53-.14.79l-.12.64c0,.26-.1.51-.16.77l-.15.63-.15.6-.18.65c0,.2-.11.39-.17.58s-.13.43-.2.65-.11.33-.17.49-.15.43-.23.65l-.18.47c-.09.22-.17.43-.26.63s-.13.3-.19.44-.19.42-.29.63-.13.27-.19.4l-.33.62L36,100c-.13.24-.26.47-.4.7l-.15.26-.25.38-.38.58-.27.38-.39.53a1.39,1.39,0,0,1-.15.19c-.21.28-.43.55-.65.81l-.28.31c-.19.22-.39.43-.59.65l-.28.28c-.34.34-.69.68-1.06,1l-.18.16c-.33.28-.67.55-1,.82l-.24.18q-.59.43-1.2.84l-.26.16c-.36.23-.74.46-1.12.68l-.22.12c-.44.24-.88.47-1.33.69l-.31.14c-.42.2-.85.39-1.29.56l-.15.07c-.48.19-1,.37-1.46.54l-.36.12-1.53.47h6.35l1.53-.47.35-.12c.5-.17,1-.35,1.46-.54l.16-.07c.43-.17.86-.36,1.28-.56l.32-.14q.68-.33,1.32-.69l.23-.12c.38-.22.75-.45,1.12-.68l.26-.16c.4-.27.8-.55,1.19-.84l.24-.18c.35-.27.68-.54,1-.82l.19-.16c.36-.32.72-.66,1.06-1l.1-.1.17-.18.6-.65.27-.31q.34-.39.66-.81l.12-.15,0,0c.13-.17.26-.35.38-.53s.19-.25.28-.38l.38-.58c.08-.12.16-.24.23-.36v0a2.2,2.2,0,0,0,.15-.26c.14-.23.28-.46.41-.7l.2-.37.28-.52a.31.31,0,0,1,.05-.1l.18-.4.3-.63.18-.44c.06-.13.12-.26.17-.39a2.34,2.34,0,0,0,.09-.24c.07-.16.13-.31.19-.47s.15-.43.23-.65.11-.33.17-.49l.09-.29c0-.12.07-.24.11-.36s.12-.38.17-.58l.18-.65.15-.61c0-.08,0-.16.07-.25s.05-.25.08-.37.11-.51.16-.77l.12-.64c0-.26.09-.52.14-.79l.06-.34,0-.28c.06-.37.11-.75.15-1.13,0-.18.05-.35.07-.53.05-.55.11-1.11.15-1.68v0h0v0c0-.45.06-.92.08-1.39,0-.14,0-.28,0-.42,0-.36,0-.72,0-1.08,0-.14,0-.29,0-.43Q46.27,82,46.25,81.2Z"/><polygon class="cls-8" points="57.42 209.19 63.77 209.19 68.63 209.19 62.28 209.19 57.42 209.19"/><rect class="cls-7" x="62.28" y="209.19" width="6.35" height="15.51"/><rect class="cls-7" x="62.28" width="6.35" height="15.51"/><polygon class="cls-8" points="56.62 0 62.96 0 68.63 0 62.28 0 56.62 0"/><path class="cls-10" d="M62.28,0V15.51H57.42c-15.9,0-21.3,9-21.3,24.24a128.68,128.68,0,0,0,1.89,20A137.2,137.2,0,0,1,39.9,81.2c.27,18-7.28,27.06-19.41,30.45v.56c12.13,3.1,19.68,12.69,19.41,30.73A134.09,134.09,0,0,1,38,164.36a132.32,132.32,0,0,0-1.89,20.3c0,15.79,6.21,24.53,21.3,24.53h4.86V224.7H56.62c-22.38,0-39.1-10.15-39.1-38.63,0-7.61,1.08-15.5,2.16-23.11s2.16-15.23,2.16-22.84c0-8.74-2.7-20.86-21.84-20.86V104.88c19.14,0,21.84-11,21.84-20.86,0-7.9-1.08-15.79-2.16-23.69s-2.16-15.5-2.16-23.4C17.52,11,33.7,0,56.62,0Z"/></g></svg>