<svg width="130" height="130" viewBox="0 0 130 130" fill="none" xmlns="http://www.w3.org/2000/svg">
<path d="M0 20C0 8.9543 8.95431 0 20 0H110C121.046 0 130 8.95431 130 20V110C130 121.046 121.046 130 110 130H20C8.9543 130 0 121.046 0 110V20Z" fill="url(#paint0_radial_671_1087)"/>
<g clip-path="url(#clip0_671_1087)">
<path d="M99.9551 69.8515C100.001 69.6477 99.9899 69.4353 99.9241 69.2371C99.5366 63.6507 97.0606 58.4167 92.991 54.5811C88.9214 50.7456 83.558 48.591 77.9727 48.5481C76.8001 44.6048 74.658 41.0201 71.7431 38.1234C68.8283 35.2267 65.234 33.1108 61.2907 31.97C57.3474 30.8293 53.1813 30.7004 49.1753 31.595C45.1693 32.4897 41.4517 34.3793 38.3642 37.0902C35.2766 39.8011 32.918 43.2465 31.505 47.1098C30.0921 50.973 29.6701 55.1303 30.2778 59.1998C30.8855 63.2692 32.5035 67.1203 34.9831 70.3992C37.4626 73.6782 40.7243 76.2799 44.4684 77.9653C42.1682 79.1966 40.0311 80.7121 38.107 82.4764L34.7851 85.5378C34.4062 85.8861 34.1084 86.3139 33.9129 86.7907C33.7175 87.2675 33.6293 87.7816 33.6544 88.2964C33.6796 88.8113 33.8176 89.3142 34.0586 89.7696C34.2996 90.2249 34.6377 90.6214 35.0489 90.9309L38.8006 93.7527C44.2011 97.7966 50.7578 99.9878 57.4984 100.001H60.8373C67.5768 99.9871 74.1323 97.7959 79.532 93.7527L80.8524 92.7602C86.1599 92.0395 91.0262 89.4121 94.5475 85.3659C98.0688 81.3197 100.006 76.1298 99.9986 70.7599C100 70.4566 99.966 70.1548 99.9551 69.8515ZM93.8374 59.0621C95.9491 61.9461 97.2394 65.3512 97.5704 68.9135L96.5805 69.4097L90.8522 65.5799L92.714 59.0621H93.8374ZM85.9446 52.6346C88.1505 53.6252 90.1578 55.0105 91.8684 56.7226H91.8343C91.5806 56.7226 91.3339 56.8056 91.1315 56.9589C90.9291 57.1121 90.782 57.3273 90.7125 57.5719L88.5264 65.2424L84.7701 66.9768L78.9998 63.1144V58.5021L85.5024 53.9412C85.7045 53.7983 85.856 53.5948 85.9352 53.3599C86.0145 53.1251 86.0172 52.8711 85.943 52.6346H85.9446ZM59.5914 58.1677C59.4662 58.2703 59.3637 58.398 59.2904 58.5426C59.2767 58.5844 59.2653 58.627 59.2563 58.6701L56.1532 55.559L59.8598 51.8428C60.8449 52.739 61.9008 53.5537 63.0173 54.2788C61.7285 55.4373 60.5789 56.7424 59.5914 58.1677ZM58.0554 60.7732C56.7321 63.3978 55.946 66.2613 55.7436 69.1951C54.6641 66.1323 52.9844 63.317 50.8034 60.9148L54.4992 57.2032L58.0554 60.7732ZM60.8094 60.6177L61.7403 61.0844L63.627 65.7899L58.9351 70.5002L58.0352 70.0491C58.1502 66.7176 59.1051 63.4697 60.8109 60.6084L60.8094 60.6177ZM58.6372 72.9782C58.8562 73.0879 59.1042 73.1258 59.3459 73.0864C59.5876 73.0471 59.8108 72.9325 59.984 72.7588L65.2732 67.4575L69.8751 69.2868L72.0473 76.9215C72.0684 76.9809 72.0949 77.0381 72.1264 77.0926C68.0601 75.2284 63.6407 74.2649 59.1694 74.2677C58.8948 74.2677 58.6201 74.2802 58.344 74.2864C58.2509 73.7622 58.1624 73.2333 58.1112 72.7044L58.6372 72.9782ZM70.6897 67.1137L65.8907 65.1879L63.7434 59.8072C63.6374 59.5408 63.4375 59.3227 63.1817 59.1944L62.1313 58.6655C64.1271 56.0583 66.7337 53.9852 69.72 52.6299C69.646 52.866 69.6487 53.1196 69.7276 53.3541C69.8065 53.5886 69.9576 53.792 70.1591 53.935L76.6616 58.5021V63.1144L70.6897 67.1137ZM77.8269 65.1537L83.3504 68.8528C83.3597 68.8777 83.3504 68.9026 83.369 68.9275C83.3907 68.968 83.415 69.007 83.4419 69.0442L81.6204 75.4344H74.0473L72.1854 68.9166L77.8269 65.1537ZM83.1378 51.6297L83.4481 52.5319L77.8331 56.4675L72.218 52.5257L72.5283 51.6234C75.9977 50.6287 79.6756 50.6276 83.1456 51.6203L83.1378 51.6297ZM75.5647 48.6617C71.7299 49.0594 68.0665 50.46 64.9412 52.7232C63.7187 51.9898 62.5694 51.1402 61.5091 50.1861L70.9736 40.6972C73.0436 42.998 74.6101 45.7079 75.5724 48.6523L75.5647 48.6617ZM69.3073 39.053L59.8583 48.5232C56.5551 44.8514 54.572 40.1773 54.2246 35.2449L54.0896 33.3565C59.6998 33.2477 65.1409 35.2845 69.3073 39.053ZM51.7623 33.5307L51.8957 35.4145C52.2796 40.9119 54.5024 46.1187 58.2043 50.1923L54.5008 53.9054L39.6943 39.053C43.0555 36.0129 47.2693 34.0848 51.7623 33.5307ZM38.045 40.7065L52.8514 55.5528L49.1572 59.2566C45.0925 55.5488 39.8994 53.3237 34.4174 52.941L32.5385 52.8072C33.0904 48.3023 35.013 44.0771 38.045 40.7065ZM32.3663 55.1406L34.2498 55.2743C39.1714 55.6191 43.8366 57.604 47.5032 60.9132L38.0387 70.4022C34.2821 66.2225 32.2533 60.7658 32.3647 55.1406H32.3663ZM39.6772 72.0697L49.1556 62.5715C52.1618 65.9297 54.0718 70.1293 54.6295 74.6068C52.1408 74.9724 49.7056 75.64 47.3776 76.5949C44.532 75.6241 41.9123 74.0847 39.6772 72.0697ZM82.0486 88.9133C82.0014 88.9661 81.9494 89.0146 81.8935 89.058L78.1356 91.8798C73.1403 95.6194 67.0762 97.6458 60.842 97.6587H57.4984C51.2638 97.6466 45.1991 95.6207 40.2032 91.8814L36.4515 89.0596C36.3134 88.9566 36.1998 88.8243 36.1187 88.6721C36.0376 88.52 35.9911 88.3517 35.9825 88.1794C35.9739 88.0071 36.0034 87.835 36.0689 87.6755C36.1345 87.516 36.2344 87.3729 36.3615 87.2567L39.6834 84.1984C42.0596 82.0314 44.7809 80.2784 47.7344 79.0122C47.9114 78.9791 48.0782 78.9051 48.2216 78.796C53.2812 76.7009 58.8321 76.0972 64.2221 77.0559C69.6121 78.0145 74.6171 80.4957 78.6492 84.2078L81.9773 87.2567C82.0908 87.3606 82.1827 87.4859 82.2477 87.6255C82.3128 87.7651 82.3497 87.9162 82.3563 88.0701C82.3629 88.2241 82.3392 88.3778 82.2864 88.5225C82.2336 88.6672 82.1528 88.8 82.0486 88.9133ZM80.2225 82.478C78.2004 80.6216 75.9431 79.0404 73.5089 77.7755H82.0176L84.5839 80.35L82.4815 84.5609L80.2225 82.478ZM84.376 89.52C84.6079 89.0193 84.7123 88.4687 84.6798 87.9176C84.6473 87.3665 84.479 86.8321 84.1898 86.3622L86.7219 81.2849H93.4464L93.9661 82.3255C91.589 85.6619 88.2376 88.1762 84.3744 89.5216L84.376 89.52ZM95.4013 79.9782L95.2182 79.5924C95.1209 79.397 94.9709 79.2328 94.7852 79.1184C94.5996 79.004 94.3857 78.9441 94.1678 78.9453H86.4768L83.8034 76.2651L85.8608 69.0473L89.3906 67.4155L95.8466 71.7306C96.0175 71.8446 96.2154 71.9114 96.4202 71.9242C96.6251 71.9371 96.8297 71.8955 97.0134 71.8037L97.6232 71.4926C97.5238 74.4527 96.7641 77.3528 95.3998 79.9798L95.4013 79.9782Z" fill="white"/>
<path d="M69.666 85.9641H68.4992V84.7943C68.5109 84.6339 68.4895 84.4729 68.4363 84.3212C68.3831 84.1695 68.2993 84.0304 68.1901 83.9126C68.0809 83.7949 67.9486 83.7009 67.8016 83.6367C67.6546 83.5724 67.4959 83.5393 67.3355 83.5393C67.1751 83.5393 67.0165 83.5724 66.8694 83.6367C66.7224 83.7009 66.5902 83.7949 66.481 83.9126C66.3718 84.0304 66.288 84.1695 66.2348 84.3212C66.1816 84.4729 66.1602 84.6339 66.1719 84.7943V85.9641H63.8445V84.7943C63.8562 84.6339 63.8348 84.4729 63.7816 84.3212C63.7284 84.1695 63.6446 84.0304 63.5354 83.9126C63.4262 83.7949 63.294 83.7009 63.1469 83.6367C62.9999 83.5724 62.8412 83.5393 62.6809 83.5393C62.5205 83.5393 62.3618 83.5724 62.2148 83.6367C62.0677 83.7009 61.9355 83.7949 61.8263 83.9126C61.7171 84.0304 61.6333 84.1695 61.5801 84.3212C61.5269 84.4729 61.5055 84.6339 61.5172 84.7943V85.9641H59.1899V84.7943C59.2015 84.6339 59.1801 84.4729 59.127 84.3212C59.0738 84.1695 58.99 84.0304 58.8808 83.9126C58.7716 83.7949 58.6393 83.7009 58.4923 83.6367C58.3452 83.5724 58.1866 83.5393 58.0262 83.5393C57.8658 83.5393 57.7071 83.5724 57.5601 83.6367C57.4131 83.7009 57.2808 83.7949 57.1716 83.9126C57.0624 84.0304 56.9786 84.1695 56.9254 84.3212C56.8723 84.4729 56.8508 84.6339 56.8625 84.7943V85.9641H54.5352V84.7943C54.5469 84.6339 54.5255 84.4729 54.4723 84.3212C54.4191 84.1695 54.3353 84.0304 54.2261 83.9126C54.1169 83.7949 53.9846 83.7009 53.8376 83.6367C53.6906 83.5724 53.5319 83.5393 53.3715 83.5393C53.2111 83.5393 53.0525 83.5724 52.9054 83.6367C52.7584 83.7009 52.6262 83.7949 52.517 83.9126C52.4078 84.0304 52.324 84.1695 52.2708 84.3212C52.2176 84.4729 52.1962 84.6339 52.2079 84.7943V85.9641H49.8805V84.7943C49.8922 84.6339 49.8708 84.4729 49.8176 84.3212C49.7644 84.1695 49.6806 84.0304 49.5714 83.9126C49.4622 83.7949 49.33 83.7009 49.1829 83.6367C49.0359 83.5724 48.8772 83.5393 48.7169 83.5393C48.5565 83.5393 48.3978 83.5724 48.2508 83.6367C48.1037 83.7009 47.9715 83.7949 47.8623 83.9126C47.7531 84.0304 47.6693 84.1695 47.6161 84.3212C47.5629 84.4729 47.5415 84.6339 47.5532 84.7943V85.9641H46.3864C46.0925 85.9857 45.8176 86.1179 45.6169 86.3343C45.4162 86.5507 45.3047 86.8353 45.3047 87.1308C45.3047 87.4263 45.4162 87.7108 45.6169 87.9272C45.8176 88.1437 46.0925 88.2759 46.3864 88.2975H47.5532V89.4672C47.5415 89.6276 47.5629 89.7887 47.6161 89.9404C47.6693 90.0921 47.7531 90.2311 47.8623 90.3489C47.9715 90.4667 48.1037 90.5606 48.2508 90.6249C48.3978 90.6891 48.5565 90.7223 48.7169 90.7223C48.8772 90.7223 49.0359 90.6891 49.1829 90.6249C49.33 90.5606 49.4622 90.4667 49.5714 90.3489C49.6806 90.2311 49.7644 90.0921 49.8176 89.9404C49.8708 89.7887 49.8922 89.6276 49.8805 89.4672V88.2975H52.2079V89.4672C52.1962 89.6276 52.2176 89.7887 52.2708 89.9404C52.324 90.0921 52.4078 90.2311 52.517 90.3489C52.6262 90.4667 52.7584 90.5606 52.9054 90.6249C53.0525 90.6891 53.2111 90.7223 53.3715 90.7223C53.5319 90.7223 53.6906 90.6891 53.8376 90.6249C53.9846 90.5606 54.1169 90.4667 54.2261 90.3489C54.3353 90.2311 54.4191 90.0921 54.4723 89.9404C54.5255 89.7887 54.5469 89.6276 54.5352 89.4672V88.2975H56.8625V89.4672C56.8508 89.6276 56.8723 89.7887 56.9254 89.9404C56.9786 90.0921 57.0624 90.2311 57.1716 90.3489C57.2808 90.4667 57.4131 90.5606 57.5601 90.6249C57.7071 90.6891 57.8658 90.7223 58.0262 90.7223C58.1866 90.7223 58.3452 90.6891 58.4923 90.6249C58.6393 90.5606 58.7716 90.4667 58.8808 90.3489C58.99 90.2311 59.0738 90.0921 59.127 89.9404C59.1801 89.7887 59.2015 89.6276 59.1899 89.4672V88.2975H61.5172V89.4672C61.5055 89.6276 61.5269 89.7887 61.5801 89.9404C61.6333 90.0921 61.7171 90.2311 61.8263 90.3489C61.9355 90.4667 62.0677 90.5606 62.2148 90.6249C62.3618 90.6891 62.5205 90.7223 62.6809 90.7223C62.8412 90.7223 62.9999 90.6891 63.1469 90.6249C63.294 90.5606 63.4262 90.4667 63.5354 90.3489C63.6446 90.2311 63.7284 90.0921 63.7816 89.9404C63.8348 89.7887 63.8562 89.6276 63.8445 89.4672V88.2975H66.1719V89.4672C66.1602 89.6276 66.1816 89.7887 66.2348 89.9404C66.288 90.0921 66.3718 90.2311 66.481 90.3489C66.5902 90.4667 66.7224 90.5606 66.8694 90.6249C67.0165 90.6891 67.1751 90.7223 67.3355 90.7223C67.4959 90.7223 67.6546 90.6891 67.8016 90.6249C67.9486 90.5606 68.0809 90.4667 68.1901 90.3489C68.2993 90.2311 68.3831 90.0921 68.4363 89.9404C68.4895 89.7887 68.5109 89.6276 68.4992 89.4672V88.2975H69.666C69.9599 88.2759 70.2348 88.1437 70.4355 87.9272C70.6362 87.7108 70.7477 87.4263 70.7477 87.1308C70.7477 86.8353 70.6362 86.5507 70.4355 86.3343C70.2348 86.1179 69.9599 85.9857 69.666 85.9641Z" fill="white"/>
</g>
<defs>
<radialGradient id="paint0_radial_671_1087" cx="0" cy="0" r="1" gradientUnits="userSpaceOnUse" gradientTransform="translate(65 65) rotate(90) scale(106)">
<stop offset="0.125" stop-color="#170D39"/>
<stop offset="1" stop-color="#443B65"/>
</radialGradient>
<clipPath id="clip0_671_1087">
<rect width="70" height="69" fill="white" transform="translate(30 31)"/>
</clipPath>
</defs>
</svg>
