<svg width="130" height="130" viewBox="0 0 130 130" fill="none" xmlns="http://www.w3.org/2000/svg">
<path d="M0 20C0 8.9543 8.95431 0 20 0H110C121.046 0 130 8.95431 130 20V110C130 121.046 121.046 130 110 130H20C8.9543 130 0 121.046 0 110V20Z" fill="url(#paint0_radial_671_1089)"/>
<g clip-path="url(#clip0_671_1089)">
<path d="M64.9876 86.8761C60.437 86.8761 55.9887 85.5272 52.205 82.9999C48.4213 80.4727 45.4723 76.8806 43.7309 72.6779C41.9895 68.4753 41.5338 63.8508 42.4216 59.3893C43.3094 54.9277 45.5007 50.8295 48.7184 47.613C51.9362 44.3964 56.0358 42.2059 60.499 41.3184C64.9621 40.431 69.5883 40.8864 73.7925 42.6272C77.9966 44.368 81.59 47.316 84.1182 51.0983C86.6463 54.8806 87.9957 59.3274 87.9957 63.8763C87.9957 66.8967 87.4006 69.8875 86.2444 72.6779C85.0881 75.4684 83.3933 78.0039 81.2568 80.1396C79.1203 82.2754 76.5839 83.9695 73.7925 85.1254C71.001 86.2812 68.0091 86.8761 64.9876 86.8761ZM64.9876 42.876C60.8327 42.876 56.771 44.1076 53.3163 46.4152C49.8615 48.7227 47.1689 52.0025 45.5789 55.8398C43.9888 59.6771 43.5728 63.8996 44.3834 67.9733C45.194 72.0469 47.1948 75.7888 50.1328 78.7258C53.0708 81.6627 56.8141 83.6628 60.8892 84.4731C64.9643 85.2834 69.1883 84.8675 73.027 83.2781C76.8657 81.6886 80.1467 78.9969 82.455 75.5434C84.7634 72.09 85.9955 68.0298 85.9955 63.8763C85.9955 58.3067 83.7822 52.9652 79.8424 49.0268C75.9027 45.0885 70.5593 42.876 64.9876 42.876Z" fill="white"/>
<path d="M64.9877 86.8761C59.0059 86.8761 54.3203 76.776 54.3203 63.8763C54.3203 50.9766 58.9996 40.8765 64.9877 40.8765C70.9757 40.8765 75.655 50.9766 75.655 63.8763C75.655 76.776 70.9694 86.8761 64.9877 86.8761ZM64.9877 42.876C60.8025 42.876 56.3205 51.3143 56.3205 63.8763C56.3205 76.4383 60.8025 84.8766 64.9877 84.8766C69.1728 84.8766 73.6548 76.4383 73.6548 63.8763C73.6548 51.3143 69.1728 42.876 64.9877 42.876Z" fill="white"/>
<path d="M64.987 86.876C64.7216 86.876 64.467 86.7706 64.2793 86.583C64.0916 86.3954 63.9861 86.1409 63.9861 85.8755V41.8769C63.9808 41.7423 64.0027 41.608 64.0505 41.482C64.0984 41.3561 64.1712 41.2411 64.2646 41.1439C64.358 41.0468 64.4701 40.9695 64.5941 40.9167C64.7181 40.8639 64.8515 40.8367 64.9863 40.8367C65.121 40.8367 65.2544 40.8639 65.3784 40.9167C65.5025 40.9695 65.6145 41.0468 65.7079 41.1439C65.8013 41.2411 65.8741 41.3561 65.922 41.482C65.9698 41.608 65.9917 41.7423 65.9864 41.8769V85.8755C65.9864 86.1406 65.8811 86.3948 65.6938 86.5824C65.5064 86.77 65.2522 86.8756 64.987 86.876Z" fill="white"/>
<path d="M55.7927 65.2271C42.9151 65.2271 42.5457 64.861 42.2884 64.6085C42.091 64.4153 41.9776 64.1523 41.9727 63.8762C41.9727 63.7037 42.0174 63.534 42.1024 63.3838C42.1873 63.2337 42.3097 63.108 42.4577 63.019C42.6056 62.9301 42.774 62.8809 42.9465 62.8762C43.1191 62.8716 43.2899 62.9116 43.4424 62.9925C45.9321 63.4138 70.6815 63.1503 86.9706 62.8757C87.1049 62.8685 87.2392 62.8885 87.3656 62.9344C87.4919 62.9803 87.6078 63.0512 87.7061 63.1428C87.8045 63.2345 87.8834 63.345 87.9381 63.4678C87.9928 63.5905 88.0221 63.7231 88.0245 63.8574C88.0268 63.9918 88.002 64.1253 87.9516 64.2499C87.9012 64.3745 87.8262 64.4877 87.7311 64.5827C87.636 64.6776 87.5227 64.7525 87.398 64.8028C87.2733 64.853 87.1398 64.8776 87.0054 64.8752C72.2255 65.1308 62.3775 65.2255 55.7864 65.2255L55.7927 65.2271ZM43.9792 63.7768C43.9807 63.8062 43.9807 63.8357 43.9792 63.8652C43.9808 63.8352 43.9808 63.8052 43.9792 63.7752V63.7768Z" fill="white"/>
<path d="M83.4744 52.962H46.4963C46.2379 52.9517 45.9936 52.8419 45.8144 52.6555C45.6352 52.4691 45.5352 52.2207 45.5352 51.9622C45.5352 51.7037 45.6352 51.4553 45.8144 51.2689C45.9936 51.0825 46.2379 50.9727 46.4963 50.9625H83.4744C83.6091 50.9571 83.7435 50.979 83.8695 51.0268C83.9955 51.0747 84.1105 51.1474 84.2077 51.2408C84.3049 51.3342 84.3822 51.4462 84.435 51.5702C84.4879 51.6941 84.5151 51.8275 84.5151 51.9622C84.5151 52.0969 84.4879 52.2303 84.435 52.3543C84.3822 52.4782 84.3049 52.5902 84.2077 52.6836C84.1105 52.777 83.9955 52.8498 83.8695 52.8976C83.7435 52.9454 83.6091 52.9673 83.4744 52.962Z" fill="white"/>
<path d="M83.1081 77.3362H46.861C46.7263 77.3416 46.5919 77.3197 46.4659 77.2719C46.3399 77.224 46.2248 77.1512 46.1277 77.0579C46.0305 76.9645 45.9532 76.8525 45.9003 76.7285C45.8475 76.6046 45.8203 76.4712 45.8203 76.3365C45.8203 76.2017 45.8475 76.0684 45.9003 75.9444C45.9532 75.8205 46.0305 75.7084 46.1277 75.6151C46.2248 75.5217 46.3399 75.4489 46.4659 75.4011C46.5919 75.3533 46.7263 75.3314 46.861 75.3367H83.1081C83.3665 75.347 83.6109 75.4568 83.7901 75.6432C83.9692 75.8295 84.0693 76.078 84.0693 76.3365C84.0693 76.595 83.9692 76.8434 83.7901 77.0298C83.6109 77.2161 83.3665 77.326 83.1081 77.3362Z" fill="white"/>
<path d="M64.9871 99.9999C60.387 100.012 55.8302 99.1109 51.5805 97.3501C47.3309 95.5893 43.4729 93.0034 40.2298 89.742C40.1365 89.6487 40.0625 89.538 40.012 89.4162C39.9615 89.2943 39.9355 89.1637 39.9355 89.0318C39.9355 88.8999 39.9615 88.7693 40.012 88.6475C40.0625 88.5256 40.1365 88.4149 40.2298 88.3217C40.3231 88.2284 40.4339 88.1544 40.5558 88.104C40.6777 88.0535 40.8083 88.0275 40.9402 88.0275C41.0722 88.0275 41.2028 88.0535 41.3247 88.104C41.4466 88.1544 41.5574 88.2284 41.6507 88.3217C47.0679 93.7225 54.1934 97.0751 61.8093 97.8063C69.4252 98.5375 77.0588 96.6021 83.4054 92.3307C89.7521 88.0594 94.4177 81.7173 96.6051 74.3883C98.7925 67.0593 98.3657 59.1984 95.3978 52.1491C95.3003 51.9057 95.3023 51.6338 95.4033 51.3919C95.5042 51.15 95.6962 50.9573 95.9378 50.8554C96.1794 50.7534 96.4514 50.7503 96.6952 50.8468C96.9391 50.9432 97.1353 51.1315 97.2418 51.3711C99.4899 56.693 100.386 62.4883 99.8492 68.2403C99.3128 73.9923 97.3608 79.5222 94.1672 84.3369C90.9737 89.1517 86.6379 93.1016 81.5465 95.8345C76.455 98.5675 70.7662 99.9985 64.9871 99.9999Z" fill="white"/>
<path d="M32.8684 77.2084C32.6602 77.2088 32.457 77.1442 32.2872 77.0237C32.1175 76.9032 31.9895 76.7328 31.9212 76.5362C29.3075 69.0513 29.3129 60.9012 31.9366 53.4199C34.5603 45.9385 39.6468 39.5691 46.3637 35.3541C53.0805 31.1392 61.0297 29.3283 68.9103 30.218C76.7908 31.1077 84.1358 34.6452 89.743 40.2515C89.9314 40.4399 90.0373 40.6953 90.0373 40.9617C90.0373 41.2281 89.9314 41.4835 89.743 41.6719C89.5546 41.8602 89.299 41.966 89.0326 41.966C88.7661 41.966 88.5106 41.8602 88.3222 41.6719C83.0343 36.393 76.1114 33.0636 68.6851 32.228C61.2589 31.3924 53.7688 33.1001 47.4393 37.0718C41.1099 41.0435 36.3156 47.0442 33.8403 54.093C31.3651 61.1417 31.3552 68.8214 33.8125 75.8765C33.8652 76.0275 33.881 76.1889 33.8584 76.3472C33.8359 76.5056 33.7757 76.6562 33.683 76.7865C33.5902 76.9168 33.4675 77.023 33.3253 77.0961C33.183 77.1692 33.0252 77.2072 32.8652 77.2069L32.8684 77.2084Z" fill="white"/>
<path d="M80.5546 42.5208C80.4214 42.5282 80.288 42.5089 80.1623 42.464C80.0366 42.4192 79.9211 42.3496 79.8227 42.2595C79.7243 42.1693 79.645 42.0604 79.5893 41.9392C79.5336 41.8179 79.5028 41.6867 79.4985 41.5534C79.4943 41.42 79.5168 41.2872 79.5648 41.1626C79.6127 41.0381 79.685 40.9244 79.7775 40.8282C79.8701 40.7321 79.9809 40.6554 80.1035 40.6027C80.2261 40.55 80.358 40.5223 80.4915 40.5213L87.9746 40.0336L87.4868 32.5533C87.4755 32.4206 87.4908 32.287 87.5317 32.1603C87.5727 32.0335 87.6385 31.9163 87.7254 31.8153C87.8122 31.7143 87.9183 31.6316 88.0374 31.5721C88.1566 31.5125 88.2864 31.4773 88.4193 31.4685C88.5523 31.4597 88.6856 31.4775 88.8116 31.5208C88.9375 31.564 89.0536 31.632 89.153 31.7207C89.2524 31.8093 89.3332 31.9169 89.3905 32.0371C89.4478 32.1573 89.4806 32.2877 89.487 32.4207L90.0395 40.8985C90.0481 41.0297 90.0307 41.1613 89.9884 41.2857C89.946 41.4102 89.8796 41.5251 89.7928 41.6239C89.706 41.7227 89.6005 41.8034 89.4825 41.8615C89.3645 41.9195 89.2362 41.9537 89.1049 41.9621L80.6241 42.5145C80.6012 42.5184 80.5779 42.5205 80.5546 42.5208Z" fill="white"/>
<path d="M42.1514 99.6259C41.9083 99.6251 41.6738 99.536 41.4917 99.3751C41.3095 99.2142 41.1922 98.9926 41.1615 98.7516L39.9443 89.1675C39.9113 88.9043 39.9842 88.6387 40.147 88.4291C40.3098 88.2196 40.5493 88.0833 40.8126 88.0502L50.3796 86.8508C50.5128 86.8282 50.6493 86.8327 50.7807 86.8643C50.9121 86.8958 51.0358 86.9536 51.1443 87.0341C51.2528 87.1147 51.3438 87.2164 51.4119 87.3331C51.48 87.4499 51.5237 87.5791 51.5405 87.7132C51.5572 87.8473 51.5467 87.9833 51.5094 88.1132C51.4721 88.2431 51.4089 88.364 51.3236 88.4688C51.2382 88.5736 51.1326 88.66 51.0129 88.7229C50.8933 88.7857 50.7622 88.8237 50.6274 88.8345L42.0551 89.9061L43.1459 98.4975C43.179 98.7605 43.1063 99.0259 42.9438 99.2354C42.7813 99.4449 42.5423 99.5813 42.2792 99.6148C42.2369 99.6215 42.1942 99.6257 42.1514 99.6274V99.6259Z" fill="white"/>
</g>
<defs>
<radialGradient id="paint0_radial_671_1089" cx="0" cy="0" r="1" gradientUnits="userSpaceOnUse" gradientTransform="translate(65 65) rotate(90) scale(106)">
<stop offset="0.125" stop-color="#170D39"/>
<stop offset="1" stop-color="#443B65"/>
</radialGradient>
<clipPath id="clip0_671_1089">
<rect width="70" height="70" fill="white" transform="translate(30 30)"/>
</clipPath>
</defs>
</svg>
