<svg width="130" height="130" viewBox="0 0 130 130" fill="none" xmlns="http://www.w3.org/2000/svg">
<path d="M0 20C0 8.9543 8.95431 0 20 0H110C121.046 0 130 8.95431 130 20V110C130 121.046 121.046 130 110 130H20C8.9543 130 0 121.046 0 110V20Z" fill="url(#paint0_radial_671_1086)"/>
<path d="M107.202 74.7476H69.7427C69.3904 74.7476 69.0526 74.6106 68.8035 74.3668C68.5544 74.123 68.4144 73.7924 68.4144 73.4476C68.4144 73.1029 68.5544 72.7722 68.8035 72.5284C69.0526 72.2847 69.3904 72.1477 69.7427 72.1477H107.202C107.55 72.1497 107.893 72.0677 108.201 71.9089C108.509 71.7501 108.772 71.5194 108.967 71.2373C109.17 70.9538 109.298 70.6257 109.34 70.2821C109.382 69.9385 109.336 69.5901 109.208 69.2678C107.224 64.9176 103.228 61.6427 97.0079 59.3188C94.0186 58.2254 90.8479 57.6842 87.6569 57.7226H41.9192L27.4358 60.4956V61.782C27.4356 62.0533 27.5094 62.3197 27.6496 62.5537C27.7899 62.7877 27.9914 62.9808 28.2334 63.1131L44.2787 71.8366C44.6605 72.0406 45.0877 72.1498 45.5227 72.1545H49.0613C49.4136 72.1545 49.7515 72.2914 50.0006 72.5352C50.2497 72.779 50.3897 73.1096 50.3897 73.4544C50.3897 73.7992 50.2497 74.1298 50.0006 74.3736C49.7515 74.6174 49.4136 74.7543 49.0613 74.7543H45.5227C44.6377 74.7513 43.7676 74.5314 42.9918 74.1145L26.9438 65.3815C26.2868 65.0241 25.7394 64.5013 25.3583 63.8672C24.9772 63.2331 24.7763 62.5109 24.7764 61.7753V59.4189C24.7764 59.1174 24.8836 58.8252 25.0795 58.5925C25.2755 58.3598 25.548 58.201 25.8504 58.1433L41.5349 55.139C41.6192 55.123 41.7048 55.1149 41.7906 55.1146H87.65C91.1673 55.0753 94.6615 55.6757 97.9547 56.8853C104.866 59.4662 109.343 63.1888 111.654 68.2655C111.949 68.9892 112.057 69.7727 111.969 70.5469C111.881 71.3211 111.599 72.0622 111.15 72.705C110.71 73.333 110.121 73.847 109.433 74.2028C108.746 74.5587 107.98 74.7456 107.202 74.7476Z" fill="white"/>
<path d="M49.4535 95C49.089 94.9998 48.7269 94.9427 48.3808 94.8309L41.0728 92.4502C40.5924 92.2939 40.1535 92.035 39.7881 91.6922C39.4226 91.3493 39.1397 90.9312 38.9598 90.4681C38.78 90.005 38.7077 89.5085 38.7483 89.0147C38.7888 88.5208 38.9412 88.042 39.1943 87.6129L49.318 70.4338C49.7363 69.7244 50.3222 69.1235 51.0266 68.6813C51.731 68.2391 52.5334 67.9685 53.3667 67.8921L69.4299 66.4149C70.1758 66.346 70.9254 66.5009 71.5792 66.8589C72.233 67.217 72.7599 67.7613 73.0899 68.4195C73.42 69.0777 73.5375 69.8185 73.427 70.5437C73.3164 71.2688 72.9829 71.9438 72.4709 72.479L51.9526 93.9327C51.6331 94.2685 51.2466 94.5365 50.8169 94.7201C50.3873 94.9036 49.9237 94.9989 49.4549 95H49.4535ZM51.6195 71.7337L41.4999 88.9129C41.4442 89.0079 41.4107 89.1138 41.4018 89.223C41.3929 89.3322 41.4089 89.442 41.4485 89.5445C41.4882 89.6469 41.5505 89.7395 41.6311 89.8155C41.7117 89.8916 41.8085 89.9492 41.9146 89.9842L49.2226 92.3636C49.3599 92.4075 49.507 92.4123 49.647 92.3776C49.7869 92.3429 49.914 92.27 50.0133 92.1675L70.5247 70.7057C70.6711 70.5573 70.7665 70.3679 70.7975 70.164C70.8284 69.96 70.7935 69.7516 70.6975 69.568C70.6102 69.3799 70.4638 69.224 70.2794 69.1232C70.0951 69.0224 69.8827 68.9821 69.6732 69.008L53.6086 70.4798C53.1984 70.5182 52.8036 70.6519 52.4569 70.8697C52.1102 71.0876 51.8217 71.3833 51.6153 71.7323L51.6195 71.7337Z" fill="white"/>
<path d="M26.1032 60.7203C25.8401 60.7205 25.5829 60.6442 25.3641 60.5012C25.1453 60.3581 24.9749 60.1547 24.8744 59.9168L19.2265 46.5576C19.0417 46.1283 18.9682 45.6611 19.0126 45.1973C19.0569 44.7336 19.2177 44.2877 19.4806 43.8995C19.7436 43.5112 20.1005 43.1926 20.5197 42.972C20.9388 42.7513 21.4072 42.6355 21.8832 42.6348H26.388C27.6891 42.6315 28.9391 43.1302 29.8671 44.0226L42.6793 55.4542C42.921 55.6903 43.0605 56.0085 43.0688 56.3425C43.0772 56.6766 42.9537 57.001 42.7241 57.2484C42.4944 57.4957 42.1763 57.647 41.8356 57.6709C41.495 57.6947 41.1581 57.5893 40.8948 57.3764L28.0398 45.9137C27.8227 45.6993 27.5643 45.5292 27.2796 45.4131C26.9949 45.297 26.6895 45.2373 26.3811 45.2374H21.8956C21.8572 45.237 21.8193 45.246 21.7854 45.2636C21.7514 45.2812 21.7225 45.3068 21.7012 45.3381C21.68 45.3694 21.667 45.4054 21.6635 45.4429C21.6601 45.4803 21.6662 45.518 21.6814 45.5525L27.3293 58.9252C27.4129 59.1227 27.4455 59.3372 27.4242 59.5499C27.4029 59.7626 27.3283 59.9669 27.2071 60.1447C27.0858 60.3224 26.9217 60.4682 26.7292 60.5691C26.5366 60.67 26.3216 60.7228 26.1032 60.723V60.7203Z" fill="white"/>
<path d="M108.57 66.952H93.8172C91.8181 66.9452 89.9034 66.1627 88.4931 64.776C87.0829 63.3894 86.2924 61.5119 86.2949 59.5555V56.4132C86.2949 56.0685 86.4349 55.7378 86.684 55.494C86.9331 55.2502 87.271 55.1133 87.6233 55.1133C87.9756 55.1133 88.3135 55.2502 88.5626 55.494C88.8117 55.7378 88.9516 56.0685 88.9516 56.4132V59.5555C88.9483 60.8222 89.4586 62.0385 90.3705 62.9375C91.2824 63.8364 92.5214 64.3447 93.8158 64.3508H108.565C108.917 64.3508 109.255 64.4878 109.504 64.7316C109.753 64.9753 109.893 65.306 109.893 65.6508C109.893 65.9955 109.753 66.3262 109.504 66.5699C109.255 66.8137 108.917 66.9507 108.565 66.9507L108.57 66.952Z" fill="white"/>
<path d="M60.7307 64.0465C60.3784 64.0465 60.0405 63.9095 59.7914 63.6657C59.5423 63.422 59.4023 63.0913 59.4023 62.7466V61.6198C59.4023 61.275 59.5423 60.9444 59.7914 60.7006C60.0405 60.4568 60.3784 60.3198 60.7307 60.3198C61.083 60.3198 61.4209 60.4568 61.67 60.7006C61.9191 60.9444 62.0591 61.275 62.0591 61.6198V62.7466C62.0591 63.0913 61.9191 63.422 61.67 63.6657C61.4209 63.9095 61.083 64.0465 60.7307 64.0465Z" fill="white"/>
<path d="M67.7493 64.0465C67.3969 64.0465 67.0591 63.9095 66.81 63.6657C66.5609 63.422 66.4209 63.0913 66.4209 62.7466V61.6198C66.4209 61.275 66.5609 60.9444 66.81 60.7006C67.0591 60.4568 67.3969 60.3198 67.7493 60.3198C68.1016 60.3198 68.4394 60.4568 68.6885 60.7006C68.9377 60.9444 69.0776 61.275 69.0776 61.6198V62.7466C69.0776 63.0913 68.9377 63.422 68.6885 63.6657C68.4394 63.9095 68.1016 64.0465 67.7493 64.0465Z" fill="white"/>
<path d="M74.7668 64.0465C74.4145 64.0465 74.0767 63.9095 73.8275 63.6657C73.5784 63.422 73.4385 63.0913 73.4385 62.7466V61.6198C73.4385 61.4491 73.4728 61.28 73.5396 61.1223C73.6063 60.9646 73.7042 60.8213 73.8275 60.7006C73.9509 60.5799 74.0973 60.4841 74.2585 60.4188C74.4197 60.3535 74.5924 60.3198 74.7668 60.3198C74.9413 60.3198 75.114 60.3535 75.2752 60.4188C75.4363 60.4841 75.5828 60.5799 75.7061 60.7006C75.8295 60.8213 75.9273 60.9646 75.9941 61.1223C76.0608 61.28 76.0952 61.4491 76.0952 61.6198V62.7466C76.0952 63.0913 75.9552 63.422 75.7061 63.6657C75.457 63.9095 75.1191 64.0465 74.7668 64.0465Z" fill="white"/>
<path d="M92.4243 52.8693C92.1683 52.8695 91.9178 52.7974 91.7027 52.6615C91.4876 52.5257 91.3173 52.332 91.2121 52.1036C91.0181 51.6836 90.6616 51.356 90.221 51.1929C89.7804 51.0298 89.2917 51.0446 88.8622 51.2339C88.7025 51.3087 88.5291 51.3516 88.3522 51.3599C88.1754 51.3683 87.9986 51.3419 87.8323 51.2824C87.6659 51.2229 87.5135 51.1315 87.3838 51.0135C87.2541 50.8955 87.1498 50.7533 87.0771 50.5953C87.0044 50.4373 86.9647 50.2666 86.9604 50.0934C86.956 49.9202 86.9871 49.7478 87.0518 49.5865C87.1165 49.4252 87.2135 49.2782 87.3371 49.1541C87.4608 49.03 87.6085 48.9313 87.7716 48.8639C88.8424 48.3928 90.0603 48.356 91.1587 48.7616C92.2572 49.1673 93.1466 49.9823 93.6324 51.0282C93.7239 51.2263 93.7632 51.4436 93.7468 51.6604C93.7303 51.8771 93.6585 52.0863 93.5381 52.2689C93.4176 52.4515 93.2523 52.6017 93.0573 52.7056C92.8622 52.8095 92.6436 52.8639 92.4215 52.8639L92.4243 52.8693Z" fill="white"/>
<path d="M105.622 48.0198C105.366 48.0207 105.115 47.949 104.899 47.8134C104.684 47.6778 104.513 47.484 104.407 47.2555C102.577 43.2956 99.2158 40.2078 95.062 38.6693C90.9083 37.1309 86.3006 37.2673 82.2495 39.0487C82.0901 39.1212 81.9177 39.162 81.7421 39.1688C81.5665 39.1756 81.3913 39.1482 81.2266 39.0882C81.0619 39.0283 80.911 38.937 80.7826 38.8196C80.6543 38.7021 80.551 38.561 80.4787 38.4042C80.4065 38.2474 80.3668 38.0782 80.3619 37.9063C80.3569 37.7344 80.3869 37.5633 80.45 37.4028C80.5131 37.2424 80.6082 37.0957 80.7296 36.9714C80.8511 36.8472 80.9965 36.7477 81.1575 36.6788C85.8511 34.6145 91.1898 34.4563 96.0024 36.2391C100.815 38.0218 104.709 41.5998 106.829 46.1882C106.92 46.3862 106.959 46.6034 106.943 46.8199C106.926 47.0365 106.854 47.2455 106.734 47.4279C106.613 47.6103 106.448 47.7603 106.253 47.8642C106.058 47.968 105.84 48.0225 105.618 48.0225L105.622 48.0198Z" fill="white"/>
<path d="M99.3802 50.7725C99.1242 50.7727 98.8737 50.7006 98.6586 50.5648C98.4435 50.4289 98.2732 50.2352 98.1679 50.0068C97.0852 47.6658 95.0981 45.8404 92.6422 44.9308C90.1864 44.0213 87.4622 44.1018 85.0669 45.1547C84.9075 45.2272 84.7351 45.268 84.5595 45.2748C84.3839 45.2816 84.2087 45.2542 84.044 45.1943C83.8793 45.1343 83.7284 45.043 83.6 44.9256C83.4716 44.8082 83.3684 44.667 83.2961 44.5102C83.2239 44.3535 83.1842 44.1842 83.1792 44.0123C83.1743 43.8405 83.2043 43.6693 83.2674 43.5088C83.3305 43.3484 83.4256 43.2017 83.547 43.0775C83.6684 42.9532 83.8139 42.8537 83.9749 42.7848C87.0127 41.4493 90.4678 41.3473 93.5824 42.5011C96.697 43.6548 99.217 45.9702 100.59 48.9396C100.681 49.1375 100.72 49.3547 100.703 49.5713C100.687 49.7878 100.615 49.9969 100.494 50.1793C100.374 50.3617 100.209 50.5117 100.014 50.6155C99.8191 50.7194 99.6007 50.7738 99.3788 50.7738L99.3802 50.7725Z" fill="white"/>
<defs>
<radialGradient id="paint0_radial_671_1086" cx="0" cy="0" r="1" gradientUnits="userSpaceOnUse" gradientTransform="translate(65 65) rotate(90) scale(106)">
<stop offset="0.125" stop-color="#170D39"/>
<stop offset="1" stop-color="#443B65"/>
</radialGradient>
</defs>
</svg>
