<svg width="130" height="130" viewBox="0 0 130 130" fill="none" xmlns="http://www.w3.org/2000/svg">
<path d="M0 20C0 8.9543 8.95431 0 20 0H110C121.046 0 130 8.95431 130 20V110C130 121.046 121.046 130 110 130H20C8.9543 130 0 121.046 0 110V20Z" fill="url(#paint0_radial_671_1088)"/>
<g clip-path="url(#clip0_671_1088)">
<path d="M104.518 84.2966L89.588 72.1808C89.3115 69.5513 87.296 54.6165 76.4676 45.6254C71.642 41.6661 65.6242 39.3619 59.334 39.065C58.7784 37.7622 57.8115 36.6675 56.5746 35.9409C55.3377 35.2142 53.8957 34.8938 52.4594 35.0263C51.0231 35.1588 49.6678 35.7374 48.5915 36.6775C47.5153 37.6176 46.7745 38.8698 46.4776 40.2513C46.0795 40.3554 45.7076 40.4893 45.3191 40.6057C45.2943 40.6151 45.2694 40.6178 45.2459 40.6286C39.9791 42.1201 35.316 45.176 31.9015 49.3736C22.8038 60.717 25.2756 77.0017 25.3876 77.6875C25.4229 77.9072 25.515 78.1144 25.6552 78.2895C25.7953 78.4645 25.9789 78.6017 26.1884 78.6878C26.3979 78.774 26.6265 78.8064 26.8524 78.7819C27.0783 78.7574 27.294 78.6768 27.4792 78.5478C28.6422 77.856 29.9792 77.4949 31.3402 77.5049C32.7704 77.5798 34.1543 78.0267 35.3492 78.7994C35.3863 78.9223 35.4423 79.0391 35.5151 79.1457C36.0252 79.822 47.6264 95.0002 57.7843 94.9989C58.2371 94.9994 58.6894 94.9682 59.1377 94.9055C63.5009 94.0166 67.7353 92.6046 71.7453 90.7015C78.8108 87.7418 86.8246 84.3886 95.0596 85.2002L103.445 86.5867C103.735 86.6369 104.033 86.5912 104.293 86.4567C104.553 86.3221 104.76 86.1065 104.88 85.8441C105.002 85.583 105.032 85.29 104.967 85.0103C104.901 84.7307 104.744 84.4799 104.518 84.2966ZM86.7665 71.2231C85.5721 71.1271 83.7902 71.0054 81.6115 70.9107L81.4373 69.6257C81.4373 69.5878 81.4263 69.5486 81.4207 69.512C81.1249 67.9741 78.6988 55.8637 75.457 48.2631C83.6782 55.6256 86.1348 67.0894 86.7665 71.2231ZM53.0758 37.6082C53.6651 37.6073 54.2478 37.7293 54.785 37.966C55.3223 38.2027 55.8019 38.5488 56.1918 38.9811C55.2241 38.996 54.2454 39.0285 53.2417 39.1164C51.9616 39.2232 50.7299 39.3869 49.5313 39.5993C49.8928 38.9932 50.4103 38.4905 51.0322 38.1411C51.6541 37.7918 52.3587 37.608 53.0758 37.6082ZM43.4902 50.0743C43.793 47.4776 44.8391 45.0174 46.508 42.9769C48.7791 42.3285 51.1109 41.9048 53.4684 41.7121C59.3648 41.0452 65.3298 42.1292 70.5882 44.8233C70.5882 44.8327 70.5882 44.8449 70.6006 44.8544C70.9905 45.4184 71.3513 45.9906 71.6761 46.5574C75.4722 53.1299 78.6476 69.2171 78.7969 69.9882C78.8043 70.0567 78.8149 70.1374 78.8287 70.2303L78.9075 70.8133C73.5957 70.6557 68.279 70.84 62.9919 71.3652C56.8651 72.0889 50.7878 73.1694 44.7924 74.6007C44.3224 71.4477 42.2889 57.0134 43.4902 50.0743ZM31.3402 74.897C30.1432 74.8981 28.9555 75.1032 27.8303 75.503C27.4778 71.0757 27.2953 59.3332 34.0097 50.9779C36.2565 48.1905 39.1431 45.9606 42.4354 44.4689C41.6814 46.119 41.1525 47.859 40.8623 49.6441C39.5462 57.2474 41.7746 72.5041 42.1935 75.2324C39.6596 75.8533 37.7422 76.3714 36.8215 76.627C35.189 75.5737 33.294 74.9756 31.3402 74.897ZM95.4149 82.6166C86.396 81.7239 78.056 85.2191 70.6946 88.2978C66.8943 90.1026 62.8854 91.4524 58.7548 92.3179C51.9934 93.2823 42.7188 83.8313 38.6407 78.8278C46.7241 76.6248 54.9599 74.9973 63.2835 73.9582C71.3484 73.2103 79.4666 73.1908 87.5351 73.9001L99.0008 83.201L95.4149 82.6166Z" fill="white"/>
<path d="M63.0508 66.3046C68.5583 66.3046 73.0401 62.5009 73.0401 57.8261C73.0401 53.1513 68.5597 49.3477 63.0508 49.3477C57.5419 49.3477 53.0615 53.1513 53.0615 57.8261C53.0615 62.5009 57.5419 66.3046 63.0508 66.3046ZM63.0508 51.9556C67.0888 51.9556 70.3776 54.5892 70.3776 57.8248C70.3776 61.0603 67.093 63.694 63.0508 63.694C59.0086 63.694 55.724 61.0603 55.724 57.8248C55.724 54.5892 59.0128 51.9569 63.0508 51.9569V51.9556Z" fill="white"/>
</g>
<defs>
<radialGradient id="paint0_radial_671_1088" cx="0" cy="0" r="1" gradientUnits="userSpaceOnUse" gradientTransform="translate(65 65) rotate(90) scale(106)">
<stop offset="0.125" stop-color="#170D39"/>
<stop offset="1" stop-color="#443B65"/>
</radialGradient>
<clipPath id="clip0_671_1088">
<rect width="80" height="60" fill="white" transform="translate(25 35)"/>
</clipPath>
</defs>
</svg>
