<svg width="130" height="130" viewBox="0 0 130 130" fill="none" xmlns="http://www.w3.org/2000/svg">
<path d="M0 20C0 8.9543 8.95431 0 20 0H110C121.046 0 130 8.95431 130 20V110C130 121.046 121.046 130 110 130H20C8.9543 130 0 121.046 0 110V20Z" fill="url(#paint0_radial_671_1090)"/>
<g clip-path="url(#clip0_671_1090)">
<path d="M77.2572 62.9393H71.3854V57.1228C71.389 56.5591 71.1665 56.017 70.7668 55.6157C70.3671 55.2145 69.8229 54.9868 69.2538 54.9829H60.7697C60.2004 54.9829 59.6544 55.2069 59.2518 55.6057C58.8493 56.0045 58.6231 56.5453 58.6231 57.1093V62.9257H52.7609C52.1918 62.9221 51.6445 63.1425 51.2394 63.5385C50.8343 63.9344 50.6046 64.4735 50.6006 65.0372V73.4413C50.6006 74.0053 50.8267 74.5461 51.2293 74.9449C51.6319 75.3437 52.1779 75.5677 52.7472 75.5677H58.619V81.3747C58.6154 81.9384 58.8379 82.4805 59.2376 82.8818C59.6373 83.283 60.1815 83.5107 60.7506 83.5146H69.2169C69.7862 83.5146 70.3322 83.2906 70.7348 82.8918C71.1374 82.493 71.3635 81.9522 71.3635 81.3882V75.5718H77.2353C77.8044 75.5754 78.3516 75.355 78.7567 74.959C79.1618 74.5631 79.3916 74.024 79.3956 73.4603V65.0738C79.3967 64.7945 79.3422 64.5178 79.2353 64.2594C79.1284 64.001 78.9712 63.766 78.7727 63.5678C78.5741 63.3696 78.338 63.2121 78.078 63.1042C77.818 62.9964 77.5391 62.9403 77.2572 62.9393ZM76.5225 72.7122H69.9406C69.5586 72.7122 69.1921 72.8626 68.922 73.1302C68.6518 73.3978 68.5 73.7608 68.5 74.1393V80.6591H61.5003V74.1393C61.5003 73.9519 61.463 73.7663 61.3906 73.5932C61.3182 73.4201 61.2121 73.2627 61.0783 73.1302C60.9445 72.9977 60.7857 72.8926 60.611 72.8209C60.4362 72.7491 60.2488 72.7122 60.0596 72.7122H53.4778V65.792H60.0596C60.2488 65.792 60.4362 65.7551 60.611 65.6834C60.7857 65.6117 60.9445 65.5066 61.0783 65.374C61.2121 65.2415 61.3182 65.0842 61.3906 64.9111C61.463 64.7379 61.5003 64.5524 61.5003 64.365V57.8303H68.485V64.3501C68.485 64.7286 68.6368 65.0915 68.9069 65.3592C69.1771 65.6268 69.5435 65.7771 69.9256 65.7771H76.5225V72.7122Z" fill="white"/>
<path d="M90.0616 44.3078H78.1924V39.2853C78.2103 38.7403 78.1196 38.1972 77.9255 37.6869C77.7314 37.1766 77.4377 36.7092 77.0612 36.3114C76.6847 35.9136 76.2328 35.5931 75.7312 35.3684C75.2297 35.1436 74.6884 35.0189 74.1382 35.0014C74.0198 35.0014 73.9019 35.0014 73.7845 35.0014H56.2183C55.1083 34.9443 54.0209 35.3262 53.1951 36.0631C52.3693 36.7999 51.8726 37.8315 51.8144 38.9309C51.808 39.0473 51.808 39.164 51.8144 39.2813V44.2753H39.9384C35.3584 44.2793 30 46.8616 30 54.124V85.1554C30 92.4179 35.3584 95.0001 39.9384 95.0001H90.0616C94.6416 95.0001 100 92.4179 100 85.1554V54.1524C100 46.89 94.6553 44.3078 90.0616 44.3078ZM54.6875 39.2853C54.6549 39.0774 54.6723 38.8648 54.7382 38.6648C54.8042 38.4647 54.9169 38.283 55.0671 38.1342C55.2173 37.9854 55.4008 37.8738 55.6027 37.8084C55.8046 37.7431 56.0193 37.7259 56.2292 37.7582H73.7858C75.3275 37.7582 75.3275 38.8565 75.3275 39.2853V44.2793H54.6875V39.2853ZM97.1187 85.1554C97.1187 91.4615 92.1932 92.146 90.0616 92.146H39.9384C37.8204 92.146 32.8813 91.4615 32.8813 85.1554V54.1524C32.8813 47.8463 37.8068 47.1619 39.9384 47.1619H90.0616C92.1796 47.1619 97.1187 47.8463 97.1187 54.1524V85.1554Z" fill="white"/>
</g>
<defs>
<radialGradient id="paint0_radial_671_1090" cx="0" cy="0" r="1" gradientUnits="userSpaceOnUse" gradientTransform="translate(65 65) rotate(90) scale(106)">
<stop offset="0.125" stop-color="#170D39"/>
<stop offset="1" stop-color="#443B65"/>
</radialGradient>
<clipPath id="clip0_671_1090">
<rect width="70" height="60" fill="white" transform="translate(30 35)"/>
</clipPath>
</defs>
</svg>
