<svg width="130" height="130" viewBox="0 0 130 130" fill="none" xmlns="http://www.w3.org/2000/svg">
<path d="M0 20C0 8.9543 8.95431 0 20 0H110C121.046 0 130 8.95431 130 20V110C130 121.046 121.046 130 110 130H20C8.9543 130 0 121.046 0 110V20Z" fill="url(#paint0_radial_671_1085)"/>
<g clip-path="url(#clip0_671_1085)">
<path d="M93.519 36.3999H81.8512V39.0008H93.5173C94.5488 39.0036 95.5373 39.4161 96.2662 40.1481C96.9951 40.8802 97.4052 41.872 97.4066 42.9065V75.4008H32.5934V42.9065C32.5948 41.8711 33.0056 40.8784 33.7357 40.1463C34.4657 39.4141 35.4555 39.0022 36.488 39.0008H48.1488V36.3999H36.488C34.7673 36.3999 33.117 37.0854 31.9003 38.3056C30.6836 39.5259 30 41.1808 30 42.9065V81.9003C30 83.626 30.6836 85.281 31.9003 86.5012C33.117 87.7214 34.7673 88.4069 36.488 88.4069H54.4614L53.497 96.2008H52.0451C51.0136 96.2008 50.0243 96.6117 49.295 97.3432C48.5656 98.0747 48.1558 99.0668 48.1558 100.101C48.1558 101.136 48.5656 102.128 49.295 102.859C50.0243 103.591 51.0136 104.002 52.0451 104.002H77.9637C78.9952 104.002 79.9844 103.591 80.7138 102.859C81.4432 102.128 81.853 101.136 81.853 100.101C81.853 99.0668 81.4432 98.0747 80.7138 97.3432C79.9844 96.6117 78.9952 96.2008 77.9637 96.2008H76.5118L75.5386 88.3999H93.519C95.2398 88.3999 96.89 87.7144 98.1067 86.4942C99.3235 85.2739 100.007 83.619 100.007 81.8933V42.9065C100.007 41.1808 99.3235 39.5259 98.1067 38.3056C96.89 37.0854 95.2398 36.3999 93.519 36.3999ZM77.9637 98.7999C78.3076 98.7999 78.6374 98.9369 78.8806 99.1808C79.1238 99.4247 79.2604 99.7554 79.2604 100.1C79.2604 100.445 79.1238 100.776 78.8806 101.02C78.6374 101.264 78.3076 101.401 77.9637 101.401H52.0363C51.6924 101.401 51.3626 101.264 51.1194 101.02C50.8762 100.776 50.7396 100.445 50.7396 100.1C50.7396 99.7554 50.8762 99.4247 51.1194 99.1808C51.3626 98.9369 51.6924 98.7999 52.0363 98.7999H77.9637ZM56.0939 96.2008L57.0654 88.3999H72.9329L73.9043 96.2008H56.0939ZM97.4066 81.9003C97.4038 82.9339 96.9931 83.9244 96.2644 84.6553C95.5356 85.3862 94.5479 85.798 93.5173 85.8008H36.488C35.4573 85.798 34.4697 85.3862 33.7409 84.6553C33.0121 83.9244 32.6015 82.9339 32.5987 81.9003V77.9999H97.4066V81.9003Z" fill="white"/>
<path d="M89.6299 80.6008H92.2233V83.2017H89.6299V80.6008Z" fill="white"/>
<path d="M72.1631 49.1002C73.6653 47.6535 74.6983 45.7868 75.1277 43.743C75.5571 41.6992 75.363 39.5732 74.5706 37.6416C73.7781 35.7101 72.4241 34.0626 70.6849 32.9137C68.9457 31.7647 66.9018 31.1676 64.8194 31.2C62.1764 31.2774 59.6601 32.3531 57.7742 34.2117C55.8884 36.0704 54.7721 38.5748 54.649 41.2237C54.5944 42.6654 54.8406 44.1027 55.3717 45.4436C55.9028 46.7844 56.7073 47.9993 57.7335 49.0105C58.9119 50.1434 59.636 51.6697 59.7693 53.3013H57.2232V55.9022H59.8166V58.5031C59.8208 59.1905 60.0954 59.8484 60.5807 60.3338C61.0661 60.8192 61.7229 61.0928 62.4083 61.0951H67.5934C68.2807 61.0933 68.9393 60.8187 69.4252 60.3313C69.9112 59.844 70.185 59.1835 70.1869 58.4943V55.9004H72.7803V53.2995H70.2342C70.3429 51.7101 71.0292 50.2159 72.1631 49.1002ZM67.5864 58.4995H62.4083V55.9004H67.5934L67.5864 58.4995ZM67.5987 53.2995H62.3943C62.2519 50.9607 61.2334 48.7623 59.5431 47.1447C58.7709 46.3886 58.1654 45.4785 57.7658 44.4731C57.3662 43.4678 57.1814 42.3895 57.2232 41.3081C57.3184 39.3191 58.1595 37.4397 59.5778 36.0463C60.9962 34.6528 62.8872 33.8483 64.872 33.7938C66.4346 33.7653 67.9694 34.2101 69.2758 35.0703C70.5822 35.9304 71.5995 37.1659 72.1947 38.6151C72.7898 40.0643 72.9351 41.6599 72.6117 43.1932C72.2882 44.7266 71.5109 46.1264 70.3815 47.2097C68.7222 48.8126 67.7308 50.9871 67.6075 53.2943L67.5987 53.2995Z" fill="white"/>
<path d="M63.7038 45.2614V50.7005H66.2972V45.2614C67.0527 44.9932 67.7072 44.4976 68.1711 43.8422C68.635 43.1869 68.8857 42.4038 68.8889 41.6001H66.2955C66.2955 41.945 66.1589 42.2758 65.9157 42.5196C65.6725 42.7635 65.3427 42.9005 64.9988 42.9005C64.6548 42.9005 64.325 42.7635 64.0818 42.5196C63.8387 42.2758 63.702 41.945 63.702 41.6001H61.1104C61.1137 42.404 61.3647 43.1872 61.8289 43.8426C62.2931 44.498 62.948 44.9935 63.7038 45.2614Z" fill="white"/>
<path d="M63.7041 26H66.2975V28.6009H63.7041V26Z" fill="white"/>
<path d="M56.0996 28.7415L58.3455 27.441L59.6422 29.6934L57.3963 30.9938L56.0996 28.7415Z" fill="white"/>
<path d="M50.8809 34.9299L52.1776 32.6776L54.4235 33.978L53.1268 36.2304L50.8809 34.9299Z" fill="white"/>
<path d="M49.4443 40.3005H52.0378V42.9014H49.4443V40.3005Z" fill="white"/>
<path d="M50.8789 48.272L53.1248 46.9715L54.4215 49.2239L52.1756 50.5243L50.8789 48.272Z" fill="white"/>
<path d="M75.5811 49.2322L76.8778 46.9798L79.1237 48.2803L77.827 50.5326L75.5811 49.2322Z" fill="white"/>
<path d="M77.9639 40.3005H80.5573V42.9014H77.9639V40.3005Z" fill="white"/>
<path d="M75.5732 33.9697L77.8192 32.6693L79.1159 34.9216L76.87 36.2221L75.5732 33.9697Z" fill="white"/>
<path d="M70.3623 29.6965L71.659 27.4442L73.9049 28.7446L72.6082 30.997L70.3623 29.6965Z" fill="white"/>
<path d="M94.8153 42.8997V71.4953C94.8153 71.8399 94.6788 72.1705 94.4358 72.4142C94.1927 72.6579 93.8631 72.7948 93.5195 72.7948H36.4814C36.1377 72.7948 35.8081 72.6579 35.5651 72.4142C35.3221 72.1705 35.1855 71.8399 35.1855 71.4953V42.8997C35.1855 42.555 35.3221 42.2244 35.5651 41.9807C35.8081 41.737 36.1377 41.6001 36.4814 41.6001H46.8516V44.201H37.779V70.201H92.2219V44.201H83.1492V41.6001H93.5195C93.8631 41.6001 94.1927 41.737 94.4358 41.9807C94.6788 42.2244 94.8153 42.555 94.8153 42.8997Z" fill="white"/>
<path d="M76.666 59.8008H87.0363V62.4017H76.666V59.8008Z" fill="white"/>
<path d="M76.666 65.001H87.0363V67.6019H76.666V65.001Z" fill="white"/>
<path d="M42.9639 59.8008H53.3341V62.4017H42.9639V59.8008Z" fill="white"/>
<path d="M42.9639 65.001H53.3341V67.6019H42.9639V65.001Z" fill="white"/>
</g>
<defs>
<radialGradient id="paint0_radial_671_1085" cx="0" cy="0" r="1" gradientUnits="userSpaceOnUse" gradientTransform="translate(65 65) rotate(90) scale(106)">
<stop offset="0.125" stop-color="#170D39"/>
<stop offset="1" stop-color="#443B65"/>
</radialGradient>
<clipPath id="clip0_671_1085">
<rect width="70" height="78" fill="white" transform="translate(30 26)"/>
</clipPath>
</defs>
</svg>
