<svg width="375" height="402" viewBox="0 0 375 402" fill="none" xmlns="http://www.w3.org/2000/svg">
<g opacity="0.05" clip-path="url(#clip0_52_355)">
<path d="M226.9 295.087C229.284 296.18 231.844 296.45 234.029 295.063C236.072 293.77 237.704 291.842 239.255 290.419C239.184 294.005 241.075 297.109 244.927 299.201C239.936 300.318 237.094 302.74 236.389 306.667C235.461 311.851 237.951 315.308 242.766 317.6C237.634 318.035 234.322 320.61 233.347 324.795C232.807 327.146 232.936 329.568 234.428 331.496C235.79 333.26 237.622 334.659 239.031 336.011C234.158 336.399 230.905 338.856 229.883 343.276C229.331 345.651 229.554 348.061 231.046 349.954C232.42 351.706 234.299 353.058 235.755 354.41C230.376 355.268 227.358 357.937 226.736 362.674C226.196 366.848 228.626 370.387 233.571 372.609C227.675 372.926 224.105 375.618 223.53 380.203C222.966 384.671 225.35 388.562 229.507 389.949C233.5 391.29 237.986 389.585 240.018 385.893C241.357 383.46 241.779 380.744 240.452 378.346C239.278 376.206 237.329 374.49 235.861 372.761C239.501 372.644 242.496 370.704 244.527 366.507C245.009 370.998 247.017 373.878 250.928 375.712C245.479 376.418 242.19 379.322 241.509 383.648C240.899 387.516 242.966 391.513 246.5 393.265C248.837 394.417 251.386 394.817 253.652 393.629C255.778 392.524 257.551 390.737 259.266 389.432C259.818 390.62 260.323 392.348 261.309 393.723C262.296 395.075 263.775 396.075 265.008 397.191C261.579 398.014 259.125 399.696 257.798 402.012H274.004C273.112 400.401 271.773 399.049 270.082 398.214C272.477 396.768 274.955 395.275 277.257 393.876C278.455 395.722 279.911 397.967 281.238 400.013C280.416 400.636 279.535 401.306 278.608 402.012H290.023C289.94 401.87 289.846 401.718 289.764 401.577C291.502 400.471 293.557 399.155 295.53 397.909C296.458 399.19 297.492 400.613 298.502 402H313.24C313.357 401.929 313.463 401.87 313.58 401.812C313.627 401.87 313.686 401.941 313.733 402H375V398.637C373.485 399.707 371.935 400.801 370.385 401.894C369.375 400.213 368.224 398.285 367.085 396.38C368.611 395.31 370.244 394.158 371.735 393.112C372.827 394.476 373.931 395.875 375 397.215V381.685C374.601 381.955 374.213 382.225 373.802 382.508C373.144 381.344 372.44 380.121 371.677 378.793C372.851 377.97 373.92 377.241 375 376.488V285.164C373.826 285.905 372.628 286.657 371.418 287.421C370.349 285.952 369.222 284.4 368.106 282.872C369.715 281.602 371.442 280.238 373.098 278.933C373.685 279.921 374.331 280.991 374.988 282.096V270.398C374.789 270.516 374.601 270.633 374.413 270.763C373.978 269.881 373.509 268.599 372.769 267.506C372.041 266.448 371.042 265.578 370.373 264.861C371.888 263.568 373.438 262.239 374.988 260.911V249.46C373.873 248.061 372.358 246.956 370.361 246.062C372.158 245.933 373.673 245.533 374.988 244.91V228.722C374.014 228.275 372.921 227.981 371.677 227.887C368.083 227.593 364.395 229.827 362.916 233.224C361.882 235.611 361.636 238.174 362.939 240.396C364.125 242.394 365.946 244.017 367.437 245.757C363.949 245.956 361.002 247.685 358.876 251.506C358.265 247.191 356.21 244.393 352.429 242.735C358.958 241.113 361.941 238.033 361.835 233.259C361.741 228.851 358.606 225.265 354.155 224.501C350.127 223.796 346.064 226.088 344.466 229.944C342.576 234.506 344.208 238.468 349.739 242.23C345.735 242.383 342.846 244.087 340.755 247.508C339.922 243.57 337.749 241.125 334.273 239.679C341.331 237.445 343.985 234.329 343.327 229.239C342.752 224.807 339.24 221.574 334.778 221.362C330.621 221.162 326.675 224.125 325.747 228.157C325.183 230.603 325.301 233.118 326.91 235.035C328.424 236.845 330.468 238.209 331.783 239.338C327.814 238.961 324.573 241.242 322.283 245.78C322.212 241.007 319.887 238.197 315.906 236.222C321.308 235.564 324.608 232.425 324.89 228.051C325.183 223.584 322.506 219.775 318.313 218.693C314.309 217.659 310.057 219.587 308.214 223.302C307.051 225.641 306.71 228.216 307.943 230.461C309.118 232.578 311.009 234.294 312.265 235.799C311.032 236.328 309.047 236.798 307.556 237.927C306.053 239.067 305.031 240.866 303.868 242.288C302.882 236.54 300.075 233.518 295.248 233.107C291.42 232.789 287.603 235.293 286.241 239.044C285.313 241.583 285.29 244.217 286.852 246.38C288.226 248.284 290.21 249.754 291.444 250.941C290.152 251.4 288.061 251.764 286.452 252.834C284.855 253.904 283.751 255.691 282.741 256.819C282.084 255.268 281.602 253.104 280.381 251.517C279.183 249.954 277.234 248.954 275.871 247.908C281.121 247.555 284.632 244.699 285.09 240.078C285.525 235.67 282.918 231.837 278.678 230.626C274.615 229.462 270.293 231.437 268.461 235.305C267.31 237.75 267.028 240.384 268.449 242.641C269.718 244.663 271.655 246.262 273.1 247.837C268.062 248.578 265.102 251.106 264.316 255.714C263.599 259.958 265.831 263.415 271.15 266.072C266.253 265.895 263.118 268.247 261.192 272.608C259.336 265.754 256.071 262.839 251.069 263.38C246.524 263.862 243.177 267.377 242.942 271.926C242.719 276.076 245.655 280.062 249.671 281.002C252.184 281.59 254.768 281.461 256.729 279.768C258.502 278.24 259.806 276.171 260.957 274.771C260.499 278.451 262.495 281.626 266.453 284.083C262.237 284.635 259.501 286.657 257.68 290.384C256.741 285.223 254.099 282.049 249.178 281.614C244.293 281.179 241.157 283.871 239.384 288.574C238.89 282.331 236.119 278.898 231.433 278.44C227.076 278.016 223.224 280.697 222.062 284.953C220.981 288.997 223.013 293.3 226.9 295.087ZM245.044 363.768C244.387 358.959 242.12 355.973 237.798 354.61C242.085 354.645 245.244 352.858 247.416 348.837C248.027 352.517 249.648 355.197 253.112 357.161C249.19 358.019 246.641 360.041 245.044 363.768ZM247.992 343.888C247.428 340.525 245.279 337.845 241.603 336.281C245.338 336.281 248.191 334.729 250.082 332.025C251.562 334.365 252.995 336.634 254.251 338.609C252.278 340.278 250.082 342.136 247.992 343.888ZM259.783 383.73C259.383 380.768 257.504 378.169 254.697 376.723C257.175 375.371 259.771 373.949 262.166 372.644C263.47 374.419 265.055 376.571 266.382 378.381C264.327 380.062 262.049 381.908 259.783 383.73ZM263.623 363.921C262.166 362.063 260.546 360.018 259.09 358.148C260.933 357.031 263.188 355.656 265.267 354.386C266.277 356.067 267.486 358.066 268.672 360.018C267.04 361.287 265.185 362.71 263.623 363.921ZM278.737 385.964C277.375 383.989 275.86 381.79 274.415 379.686C276.106 378.663 278.091 377.452 279.935 376.335C281.156 378.134 282.483 380.062 283.751 381.932C282.072 383.295 280.334 384.683 278.737 385.964ZM281.802 366.683C280.815 365.202 279.747 363.603 278.631 361.922C280.076 361.017 281.626 360.041 283.141 359.089C284.068 360.441 285.031 361.863 286.03 363.321C284.667 364.403 283.235 365.543 281.802 366.683ZM285.102 347.485C284.033 346.11 283.106 344.91 282.096 343.606C283.293 342.853 284.55 342.065 285.936 341.184C286.723 342.312 287.533 343.476 288.402 344.734C287.333 345.639 286.241 346.545 285.102 347.485ZM288.097 328.616C287.204 327.511 286.323 326.418 285.396 325.277C286.687 324.49 287.956 323.714 289.318 322.879C289.964 323.866 290.633 324.877 291.385 326.03C290.222 326.935 289.212 327.734 288.097 328.616ZM297.081 388.527C295.941 386.881 294.767 385.176 293.616 383.519C295.025 382.66 296.54 381.732 298.137 380.756C299.112 382.084 300.169 383.519 301.273 385.023C299.899 386.176 298.455 387.387 297.081 388.527ZM300.146 368.858C299.382 367.765 298.642 366.707 297.879 365.59C298.783 365.085 299.652 364.603 300.662 364.038C301.297 364.873 301.931 365.719 302.671 366.695C301.731 367.495 300.968 368.153 300.146 368.858ZM309.576 311.769C309.094 311.111 308.754 310.652 308.366 310.123C309.247 309.535 310.069 308.983 310.985 308.371C311.337 308.936 311.619 309.406 312.019 310.053C311.185 310.64 310.41 311.193 309.576 311.769ZM315.448 390.819C314.579 389.561 313.686 388.292 312.758 386.952C313.921 386.246 315.119 385.505 316.305 384.788C317.104 385.94 317.879 387.057 318.677 388.209C317.609 389.079 316.563 389.914 315.448 390.819ZM333.721 394.487C333.028 393.241 332.359 392.054 331.642 390.761C332.758 390.02 333.885 389.268 335.13 388.445C335.929 389.42 336.727 390.408 337.585 391.466C336.316 392.454 335.083 393.418 333.721 394.487ZM351.982 397.979C351.172 396.639 350.362 395.287 349.481 393.829C350.773 392.994 352.147 392.113 353.568 391.196C354.531 392.336 355.482 393.476 356.445 394.605C354.965 395.722 353.544 396.803 351.982 397.979ZM355.916 377.84C355.505 377.241 355.153 376.723 354.73 376.112C355.576 375.513 356.163 375.101 357.02 374.501C357.431 374.925 357.854 375.36 358.465 375.995C357.502 376.688 356.774 377.217 355.916 377.84ZM369.563 298.543C370.42 299.801 371.254 301.024 372.123 302.293C371.078 302.916 370.056 303.54 368.917 304.233C368.13 303.175 367.39 302.164 366.58 301.082C367.625 300.189 368.6 299.366 369.563 298.543ZM357.936 256.584C359.076 258.559 360.45 260.946 361.777 263.25C360.05 264.426 358.054 265.79 356.257 267.012C354.813 265.119 353.227 263.05 351.888 261.287C353.814 259.794 356.01 258.077 357.936 256.584ZM354.742 275.994C355.74 277.57 356.797 279.251 357.842 280.897C356.398 281.755 354.86 282.66 353.309 283.589C352.252 282.272 351.184 280.932 350.186 279.674C351.736 278.428 353.286 277.182 354.742 275.994ZM351.09 296.192C351.7 297.062 352.264 297.849 352.91 298.755C352.123 299.26 351.407 299.73 350.55 300.283C349.998 299.589 349.481 298.931 348.823 298.096C349.551 297.485 350.244 296.909 351.09 296.192ZM339.769 253.892C340.955 255.703 342.376 257.866 343.75 259.958C341.977 261.134 339.804 262.568 337.784 263.92C336.351 262.098 334.731 260.017 333.369 258.277C335.365 256.913 337.679 255.326 339.769 253.892ZM336.304 272.867C337.314 274.489 338.36 276.182 339.417 277.875C338.054 278.769 336.563 279.768 334.977 280.803C333.944 279.427 332.84 277.957 331.76 276.535C333.322 275.265 334.884 274.007 336.304 272.867ZM332.711 292.324C333.275 293.288 333.803 294.181 334.379 295.169C333.545 295.71 332.77 296.215 331.818 296.838C331.161 296.051 330.609 295.392 329.928 294.593C330.82 293.864 331.689 293.159 332.711 292.324ZM321.918 248.061C322.2 252.07 323.657 254.868 326.311 256.596C323.903 258.16 321.531 259.7 319.417 261.075C317.855 259.065 316.011 256.69 314.238 254.398C317.315 253.963 320.098 252.082 321.918 248.061ZM317.89 269.152C318.889 270.904 319.969 272.82 321.038 274.701C319.558 275.771 317.902 276.97 316.387 278.063C315.072 276.429 313.686 274.701 312.406 273.126C314.179 271.844 316.105 270.445 317.89 269.152ZM314.614 288.538C315.342 289.749 316.105 290.995 316.916 292.324C315.706 293.182 314.496 294.052 313.228 294.957C312.253 293.782 311.384 292.724 310.48 291.642C311.819 290.631 313.181 289.62 314.614 288.538ZM303.774 243.993C303.622 248.331 305.419 251.482 309.435 253.763C305.724 254.209 303.035 255.773 301.015 258.936C300.063 255.268 297.973 252.857 294.779 251.388C299.453 250.777 302.353 248.331 303.774 243.993ZM299.887 265.919C300.991 267.6 302.365 269.669 303.68 271.668C301.919 272.89 299.829 274.325 297.844 275.7C296.435 273.937 294.802 271.903 293.369 270.128C295.448 268.799 297.75 267.306 299.887 265.919ZM296.388 284.717C297.351 286.293 298.431 288.045 299.488 289.796C297.973 290.878 296.399 291.995 294.861 293.088C293.604 291.442 292.395 289.855 291.303 288.421C292.97 287.198 294.697 285.94 296.388 284.717ZM292.865 303.61C293.569 304.844 294.332 306.173 295.108 307.537C293.898 308.418 292.688 309.3 291.502 310.17C290.481 308.983 289.459 307.784 288.437 306.596C289.846 305.644 291.303 304.668 292.865 303.61ZM282.401 258.783C282.072 263.509 283.787 266.66 286.863 268.599C284.433 270.116 281.931 271.668 279.418 273.231C278.69 270.292 276.658 267.753 272.63 266.236C277.656 265.801 280.686 263.579 282.401 258.783ZM278.385 280.955C279.418 282.684 280.71 284.859 281.861 286.787C280.04 288.197 278.032 289.761 276.447 290.995C274.767 288.926 272.994 286.74 271.561 284.976C273.64 283.753 276.106 282.296 278.385 280.955ZM275.038 299.354C276.083 301.012 277.339 302.987 278.561 304.903C276.881 306.173 274.967 307.607 273.311 308.853C271.855 307.031 270.328 305.115 268.966 303.398C270.88 302.129 272.994 300.718 275.038 299.354ZM271.843 318.176C272.783 319.669 273.91 321.456 275.026 323.232C273.405 324.442 271.608 325.783 269.788 327.135C268.508 325.501 267.064 323.655 265.748 321.95C267.627 320.786 269.741 319.481 271.843 318.176ZM268.238 336.552C269.354 338.245 270.563 340.079 271.773 341.924C270.223 343.112 268.496 344.44 266.852 345.71C265.596 343.923 264.222 341.971 262.93 340.126C264.597 339.009 266.488 337.739 268.238 336.552ZM257.128 293.629C257.575 297.673 259.266 300.342 262.46 302.305C259.007 303.116 256.494 304.809 254.78 308.195C254.099 304.398 252.407 301.717 248.779 299.907C252.76 299.213 255.437 297.45 257.128 293.629ZM253.887 312.298C254.404 315.99 255.942 318.694 258.408 320.222C256.071 321.821 253.746 323.42 251.444 324.995C250.728 321.844 248.603 319.34 244.645 317.835C248.967 317.683 251.82 315.99 253.887 312.298Z" fill="white"/>
<path d="M256.33 402C255.672 397.732 252.079 394.523 247.616 394.499C243.118 394.476 239.478 397.709 238.808 402H256.33Z" fill="white"/>
<path d="M223.894 315.038C228.885 314.991 232.784 318.835 232.807 323.808C232.831 328.793 228.967 332.672 223.999 332.672C219.114 332.672 215.262 328.875 215.192 324.008C215.133 319.011 218.95 315.073 223.894 315.038Z" fill="white"/>
<path d="M218.268 305.409C218.304 300.471 222.226 296.639 227.194 296.698C232.114 296.756 235.919 300.706 235.837 305.691C235.767 310.523 231.891 314.309 227.018 314.297C222.085 314.285 218.233 310.382 218.268 305.409Z" fill="white"/>
<path d="M211.751 342.277C211.727 337.41 215.544 333.495 220.382 333.448C225.35 333.401 229.272 337.304 229.261 342.254C229.237 347.109 225.373 350.965 220.512 350.977C215.661 350.977 211.774 347.133 211.751 342.277Z" fill="white"/>
<path d="M255.156 245.169C259.97 245.24 263.787 249.178 263.74 254.022C263.693 258.924 259.677 262.78 254.733 262.663C249.941 262.545 246.172 258.56 246.254 253.704C246.348 248.896 250.305 245.098 255.156 245.169Z" fill="white"/>
<path d="M226.149 360.312C226.043 365.085 221.968 368.976 217.212 368.835C212.444 368.694 208.58 364.591 208.756 359.841C208.921 355.151 212.913 351.353 217.576 351.424C222.344 351.494 226.254 355.55 226.149 360.312Z" fill="white"/>
<path d="M297.75 215.049C302.518 215.025 306.499 218.999 306.487 223.772C306.476 228.545 302.483 232.507 297.715 232.472C293.029 232.437 289.142 228.545 289.083 223.855C289.036 219.093 292.982 215.072 297.75 215.049Z" fill="white"/>
<path d="M337.502 220.574C332.828 220.563 328.894 216.624 328.906 211.945C328.918 207.266 332.852 203.328 337.526 203.34C342.2 203.351 346.134 207.29 346.122 211.969C346.122 216.66 342.176 220.586 337.502 220.574Z" fill="white"/>
<path d="M233.512 277.429C228.803 277.358 224.904 273.361 224.974 268.694C225.045 263.979 229.038 260.076 233.7 260.147C238.409 260.217 242.308 264.214 242.237 268.882C242.179 273.584 238.174 277.499 233.512 277.429Z" fill="white"/>
<path d="M237.61 402C237.787 401.342 237.904 400.672 237.904 399.966C237.939 395.299 234.04 391.313 229.355 391.243C224.61 391.161 220.547 395.205 220.582 399.966C220.582 400.672 220.711 401.353 220.876 402.012H237.61V402Z" fill="white"/>
<path d="M374.237 227.158C374.495 227.158 374.742 227.099 375 227.076V209.947C374.718 209.923 374.448 209.864 374.154 209.864C369.457 209.888 365.523 213.862 365.558 218.552C365.593 223.255 369.563 227.193 374.237 227.158Z" fill="white"/>
<path d="M347.203 215.39C347.25 210.699 351.195 206.772 355.869 206.784C360.626 206.784 364.642 210.887 364.525 215.625C364.407 220.328 360.426 224.184 355.752 224.125C351.078 224.066 347.156 220.057 347.203 215.39Z" fill="white"/>
<path d="M214.287 369.952C219.008 369.881 222.931 373.761 222.919 378.499C222.919 383.154 219.161 386.964 214.487 387.034C209.766 387.105 205.844 383.225 205.855 378.487C205.867 373.832 209.625 370.022 214.287 369.952Z" fill="white"/>
<path d="M250.012 235.576C250 230.873 253.723 227.111 258.432 227.064C263.212 227.017 267.04 230.873 266.981 235.646C266.923 240.349 263.153 244.076 258.455 244.052C253.758 244.029 250.023 240.278 250.012 235.576Z" fill="white"/>
<path d="M319.57 217.353C314.837 217.33 311.149 213.579 311.185 208.842C311.208 204.104 314.954 200.412 319.687 200.447C324.42 200.471 328.107 204.221 328.072 208.959C328.037 213.685 324.302 217.377 319.57 217.353Z" fill="white"/>
<path d="M279.747 229.121C275.038 229.063 271.409 225.301 271.479 220.563C271.538 215.848 275.296 212.216 280.029 212.286C284.738 212.345 288.367 216.107 288.296 220.845C288.238 225.559 284.491 229.192 279.747 229.121Z" fill="white"/>
<path d="M197.282 320.446C197.247 315.684 200.9 311.969 205.632 311.957C210.377 311.946 214.064 315.625 214.052 320.375C214.041 325.031 210.447 328.687 205.808 328.757C201.052 328.816 197.318 325.183 197.282 320.446Z" fill="white"/>
<path d="M236.765 259.23C232.009 259.265 228.298 255.597 228.309 250.847C228.309 246.192 231.938 242.524 236.577 242.489C241.333 242.453 245.044 246.121 245.032 250.871C245.021 255.526 241.404 259.194 236.765 259.23Z" fill="white"/>
<path d="M208.827 294.064C213.548 294.111 217.165 297.873 217.082 302.646C217 307.267 213.289 310.841 208.615 310.805C203.894 310.758 200.277 306.996 200.359 302.223C200.442 297.591 204.153 294.017 208.827 294.064Z" fill="white"/>
<path d="M194.264 338.621C194.3 333.918 198.058 330.286 202.814 330.368C207.406 330.45 210.987 334.165 210.952 338.821C210.917 343.523 207.159 347.156 202.403 347.074C197.811 346.992 194.229 343.265 194.264 338.621Z" fill="white"/>
<path d="M212.209 275.748C216.824 275.748 220.512 279.416 220.535 284.024C220.559 288.75 216.824 292.453 212.103 292.406C207.5 292.359 203.871 288.656 203.882 284.012C203.906 279.404 207.593 275.748 212.209 275.748Z" fill="white"/>
<path d="M199.22 365.367C194.652 365.426 190.859 361.699 190.835 357.126C190.812 352.552 194.558 348.779 199.114 348.779C203.589 348.779 207.312 352.435 207.394 356.914C207.476 361.487 203.777 365.308 199.22 365.367Z" fill="white"/>
<path d="M217.364 402C218.48 400.601 219.185 398.861 219.196 396.945C219.243 392.36 215.556 388.586 210.999 388.551C206.419 388.504 202.649 392.195 202.614 396.757C202.591 398.743 203.307 400.554 204.458 402H217.364V402Z" fill="white"/>
<path d="M292.994 205.362C293.017 200.788 296.752 197.085 301.332 197.097C305.9 197.12 309.599 200.859 309.588 205.444C309.564 210.017 305.83 213.721 301.25 213.709C296.67 213.685 292.97 209.947 292.994 205.362Z" fill="white"/>
<path d="M215.368 257.466C219.842 257.525 223.541 261.299 223.518 265.766C223.483 270.316 219.584 274.113 215.062 273.972C210.576 273.843 206.924 270.01 207.03 265.566C207.124 261.075 210.917 257.396 215.368 257.466Z" fill="white"/>
<path d="M351.125 197.12C351.113 192.676 354.824 188.914 359.275 188.856C363.785 188.797 367.637 192.665 367.578 197.179C367.519 201.635 363.75 205.35 359.322 205.326C354.871 205.315 351.149 201.576 351.125 197.12Z" fill="white"/>
<path d="M253.323 217.294C253.265 212.862 256.952 209.065 261.403 208.959C265.901 208.853 269.788 212.686 269.776 217.212C269.765 221.656 266.03 225.406 261.591 225.43C257.164 225.465 253.382 221.75 253.323 217.294Z" fill="white"/>
<path d="M240.135 224.29C244.574 224.278 248.344 228.028 248.356 232.484C248.368 236.928 244.621 240.702 240.171 240.713C235.731 240.725 231.962 236.975 231.95 232.519C231.938 228.075 235.696 224.301 240.135 224.29Z" fill="white"/>
<path d="M375 207.995V192.312C371.641 193.323 369.081 196.462 369.046 200.118C369.022 203.786 371.594 206.972 375 207.995Z" fill="white"/>
<path d="M187.888 375.524C187.817 371.092 191.563 367.283 196.026 367.26C200.465 367.236 204.247 371.01 204.235 375.466C204.223 379.839 200.606 383.519 196.202 383.625C191.775 383.719 187.958 380.004 187.888 375.524Z" fill="white"/>
<path d="M341.084 185.423C345.559 185.47 349.281 189.291 349.187 193.723C349.093 198.202 345.253 201.917 340.838 201.776C336.434 201.647 332.828 197.955 332.84 193.582C332.852 189.126 336.645 185.364 341.084 185.423Z" fill="white"/>
<path d="M274.814 202.423C274.756 197.955 278.502 194.17 282.976 194.193C287.38 194.205 291.021 197.826 291.091 202.246C291.15 206.714 287.404 210.499 282.929 210.476C278.514 210.464 274.873 206.843 274.814 202.423Z" fill="white"/>
<path d="M218.621 255.374C214.158 255.303 210.682 251.706 210.753 247.226C210.823 242.759 214.417 239.279 218.891 239.35C223.354 239.42 226.83 243.018 226.759 247.497C226.7 251.976 223.107 255.444 218.621 255.374Z" fill="white"/>
<path d="M322.588 182.495C327.039 182.448 330.644 185.94 330.726 190.396C330.808 194.934 327.203 198.602 322.67 198.59C318.207 198.578 314.673 195.039 314.649 190.572C314.614 186.116 318.125 182.542 322.588 182.495Z" fill="white"/>
<path d="M182.873 298.943C182.873 294.429 186.396 290.949 190.917 290.984C195.321 291.031 198.75 294.499 198.75 298.931C198.75 303.446 195.227 306.926 190.706 306.89C186.302 306.843 182.873 303.375 182.873 298.943Z" fill="white"/>
<path d="M184.317 343.582C179.82 343.606 176.32 340.102 176.343 335.6C176.367 331.191 179.808 327.746 184.212 327.735C188.71 327.711 192.209 331.214 192.186 335.717C192.162 340.114 188.721 343.559 184.317 343.582Z" fill="white"/>
<path d="M187.312 309.347C191.822 309.347 195.31 312.874 195.263 317.401C195.216 321.809 191.751 325.242 187.324 325.254C182.814 325.254 179.326 321.727 179.373 317.201C179.42 312.78 182.896 309.347 187.312 309.347Z" fill="white"/>
<path d="M193.043 385.447C197.435 385.47 200.888 388.95 200.9 393.347C200.9 397.838 197.353 401.33 192.843 401.259C188.475 401.201 185.057 397.662 185.104 393.253C185.139 388.856 188.639 385.423 193.043 385.447Z" fill="white"/>
<path d="M185.973 280.532C185.997 276.135 189.473 272.679 193.865 272.667C198.351 272.667 201.839 276.218 201.769 280.732C201.71 285.106 198.175 288.527 193.771 288.48C189.391 288.444 185.962 284.941 185.973 280.532Z" fill="white"/>
<path d="M296.435 187.386C296.47 183.001 299.969 179.556 304.385 179.58C308.859 179.603 312.324 183.177 312.242 187.692C312.159 192.053 308.613 195.451 304.185 195.392C299.817 195.333 296.399 191.795 296.435 187.386Z" fill="white"/>
<path d="M256.753 199.378C256.706 195.028 260.217 191.442 264.562 191.419C268.907 191.395 272.466 194.945 272.454 199.295C272.442 203.563 269.001 207.066 264.75 207.149C260.405 207.219 256.8 203.728 256.753 199.378Z" fill="white"/>
<path d="M213.982 229.098C213.935 224.76 217.505 221.151 221.839 221.162C226.09 221.174 229.613 224.666 229.66 228.91C229.707 233.248 226.137 236.857 221.803 236.845C217.552 236.845 214.029 233.354 213.982 229.098Z" fill="white"/>
<path d="M243.177 222.021C238.797 222.009 235.309 218.447 235.344 214.05C235.391 209.676 238.961 206.196 243.353 206.267C247.64 206.337 251.069 209.829 251.069 214.12C251.092 218.517 247.557 222.032 243.177 222.021Z" fill="white"/>
<path d="M181.182 361.887C176.802 361.875 173.302 358.325 173.337 353.928C173.372 349.555 176.942 346.075 181.335 346.133C185.621 346.192 189.05 349.684 189.062 353.975C189.097 358.372 185.574 361.899 181.182 361.887Z" fill="white"/>
<path d="M197.012 270.492C192.785 270.539 189.203 267.048 189.121 262.792C189.038 258.477 192.656 254.809 196.965 254.833C201.205 254.856 204.74 258.395 204.752 262.639C204.763 266.871 201.24 270.445 197.012 270.492Z" fill="white"/>
<path d="M177.729 379.71C173.513 379.71 169.92 376.101 169.955 371.88C169.99 367.648 173.631 364.074 177.835 364.144C181.992 364.215 185.457 367.706 185.504 371.868C185.539 376.089 181.945 379.71 177.729 379.71Z" fill="white"/>
<path d="M362.458 186.54C358.242 186.575 354.648 183.013 354.613 178.78C354.578 174.56 358.136 170.962 362.364 170.927C366.58 170.892 370.173 174.454 370.209 178.686C370.232 182.919 366.674 186.516 362.458 186.54Z" fill="white"/>
<path d="M344.008 183.459C339.781 183.412 336.211 179.768 336.293 175.559C336.375 171.315 340.051 167.776 344.232 167.894C348.401 168.011 351.841 171.538 351.83 175.677C351.841 179.909 348.224 183.506 344.008 183.459Z" fill="white"/>
<path d="M375 186.916V176.676C373.767 178.051 372.98 179.838 372.98 181.766C372.968 183.73 373.755 185.529 375 186.916Z" fill="white"/>
<path d="M278.255 184.071C278.185 179.874 281.743 176.253 285.959 176.229C290.164 176.206 293.745 179.791 293.734 184C293.722 188.138 290.293 191.618 286.135 191.724C281.966 191.842 278.326 188.303 278.255 184.071Z" fill="white"/>
<path d="M192.82 244.323C192.808 240.078 196.167 236.704 200.406 236.693C204.646 236.681 208.016 240.043 208.028 244.287C208.04 248.531 204.681 251.905 200.442 251.917C196.202 251.929 192.832 248.567 192.82 244.323Z" fill="white"/>
<path d="M318.125 172.232C318.09 167.988 321.437 164.602 325.676 164.567C329.916 164.532 333.298 167.882 333.333 172.126C333.369 176.37 330.022 179.756 325.782 179.791C321.554 179.827 318.16 176.476 318.125 172.232Z" fill="white"/>
<path d="M161.899 314.226C161.899 309.935 165.246 306.643 169.544 306.702C173.736 306.749 176.954 310.041 176.954 314.25C176.954 318.541 173.607 321.833 169.309 321.774C165.117 321.727 161.887 318.435 161.899 314.226Z" fill="white"/>
<path d="M246.712 188.244C250.998 188.244 254.286 191.595 254.228 195.898C254.181 200.095 250.893 203.316 246.688 203.316C242.402 203.316 239.114 199.965 239.172 195.663C239.231 191.477 242.508 188.244 246.712 188.244Z" fill="white"/>
<path d="M217.376 211.169C217.341 206.878 220.629 203.563 224.904 203.575C229.085 203.586 232.349 206.819 232.384 210.993C232.42 215.284 229.131 218.599 224.857 218.588C220.676 218.588 217.411 215.343 217.376 211.169Z" fill="white"/>
<path d="M165.927 324.678C170.108 324.678 173.384 327.923 173.408 332.108C173.431 336.387 170.108 339.691 165.821 339.656C161.652 339.609 158.423 336.317 158.446 332.12C158.47 327.923 161.746 324.678 165.927 324.678Z" fill="white"/>
<path d="M172.374 288.374C176.661 288.327 179.984 291.607 179.984 295.886C179.984 300.072 176.754 303.352 172.585 303.399C168.299 303.446 164.976 300.166 164.976 295.886C164.976 291.689 168.205 288.409 172.374 288.374Z" fill="white"/>
<path d="M174.711 382.778C178.974 382.802 182.239 386.141 182.168 390.443C182.11 394.605 178.81 397.815 174.617 397.803C170.354 397.779 167.089 394.441 167.16 390.138C167.219 385.976 170.519 382.766 174.711 382.778Z" fill="white"/>
<path d="M307.873 176.605C303.68 176.629 300.392 173.396 300.345 169.222C300.31 164.931 303.61 161.616 307.885 161.639C312.054 161.663 315.307 164.943 315.295 169.14C315.307 173.325 312.054 176.594 307.873 176.605Z" fill="white"/>
<path d="M168.076 277.582C168.052 273.396 171.317 270.081 175.474 270.057C179.655 270.034 182.967 273.302 182.99 277.464C183.014 281.649 179.749 284.965 175.592 284.988C171.411 285.012 168.099 281.743 168.076 277.582Z" fill="white"/>
<path d="M268.144 173.455C272.313 173.478 275.578 176.782 275.554 180.967C275.531 185.141 272.231 188.409 268.05 188.385C263.881 188.362 260.616 185.058 260.64 180.873C260.663 176.711 263.963 173.443 268.144 173.455Z" fill="white"/>
<path d="M162.885 343.088C167.031 343.1 170.354 346.486 170.295 350.636C170.237 354.692 166.925 357.949 162.862 357.949C158.716 357.937 155.393 354.551 155.451 350.401C155.51 346.345 158.822 343.077 162.885 343.088Z" fill="white"/>
<path d="M196.061 225.959C196.049 221.809 199.42 218.47 203.577 218.517C207.629 218.564 210.893 221.868 210.905 225.935C210.917 230.085 207.547 233.424 203.389 233.377C199.338 233.33 196.061 230.027 196.061 225.959Z" fill="white"/>
<path d="M171.634 259.265C171.576 255.268 174.864 251.858 178.868 251.764C182.943 251.67 186.42 255.08 186.408 259.171C186.408 263.18 183.073 266.53 179.068 266.554C175.075 266.589 171.693 263.274 171.634 259.265Z" fill="white"/>
<path d="M174.206 402C173.325 401.577 172.351 401.33 171.329 401.295C170.202 401.259 169.133 401.53 168.158 402H174.206Z" fill="white"/>
<path d="M159.456 361.558C163.461 361.605 166.831 365.097 166.702 369.058C166.573 373.009 163.226 376.253 159.315 376.206C155.311 376.159 151.94 372.668 152.069 368.706C152.198 364.744 155.545 361.499 159.456 361.558Z" fill="white"/>
<path d="M289.482 158.277C293.464 158.277 296.869 161.698 296.834 165.672C296.799 169.681 293.358 173.043 289.388 172.973C285.466 172.902 282.19 169.599 282.143 165.684C282.107 161.71 285.501 158.277 289.482 158.277Z" fill="white"/>
<path d="M365.511 167.729C361.53 167.753 358.113 164.355 358.124 160.358C358.136 156.361 361.565 152.975 365.535 153.022C369.445 153.069 372.745 156.361 372.816 160.276C372.874 164.273 369.504 167.706 365.511 167.729Z" fill="white"/>
<path d="M347.508 150.001C351.489 149.965 354.918 153.398 354.871 157.384C354.824 161.31 351.524 164.614 347.614 164.649C343.633 164.684 340.203 161.251 340.25 157.266C340.297 153.339 343.597 150.036 347.508 150.001Z" fill="white"/>
<path d="M221.087 192.735C221.075 188.797 224.352 185.481 228.298 185.434C232.302 185.387 235.708 188.809 235.637 192.818C235.567 196.768 232.255 200.036 228.321 200.001C224.387 199.977 221.099 196.685 221.087 192.735Z" fill="white"/>
<path d="M249.706 185.105C245.725 185.07 242.496 181.778 242.531 177.805C242.566 173.819 245.854 170.586 249.812 170.621C253.793 170.657 257.023 173.948 256.988 177.91C256.952 181.908 253.676 185.141 249.706 185.105Z" fill="white"/>
<path d="M174.852 240.831C174.84 236.857 178.082 233.589 182.063 233.577C186.032 233.565 189.297 236.81 189.309 240.796C189.32 244.769 186.079 248.038 182.098 248.049C178.129 248.061 174.876 244.805 174.852 240.831Z" fill="white"/>
<path d="M328.93 160.993C324.901 160.828 321.872 157.501 322.071 153.469C322.271 149.436 325.606 146.427 329.634 146.662C333.58 146.885 336.528 150.118 336.399 154.068C336.258 158.101 332.958 161.169 328.93 160.993Z" fill="white"/>
<path d="M207.042 200.447C211.07 200.483 214.158 203.669 214.1 207.713C214.041 211.734 210.835 214.814 206.795 214.72C202.861 214.638 199.843 211.51 199.843 207.572C199.854 203.539 203.013 200.412 207.042 200.447Z" fill="white"/>
<path d="M156.356 394.335C152.316 394.347 149.204 391.196 149.239 387.152C149.274 383.201 152.351 380.145 156.309 380.133C160.349 380.121 163.461 383.272 163.425 387.316C163.378 391.266 160.302 394.323 156.356 394.335Z" fill="white"/>
<path d="M151.165 303.669C155.111 303.704 158.164 306.808 158.152 310.77C158.141 314.814 154.97 317.894 150.895 317.812C146.972 317.73 143.966 314.579 144.025 310.605C144.084 306.667 147.207 303.634 151.165 303.669Z" fill="white"/>
<path d="M271.174 169.634C267.216 169.646 264.116 166.589 264.093 162.639C264.057 158.583 267.181 155.456 271.244 155.491C275.19 155.526 278.232 158.63 278.22 162.592C278.208 166.554 275.132 169.634 271.174 169.634Z" fill="white"/>
<path d="M140.572 329.169C140.537 325.207 143.626 322.08 147.571 322.068C151.517 322.056 154.618 325.172 154.606 329.134C154.594 332.99 151.553 336.07 147.712 336.117C143.766 336.176 140.607 333.107 140.572 329.169Z" fill="white"/>
<path d="M147.102 292.43C147.078 288.468 150.143 285.353 154.089 285.329C158.047 285.306 161.159 288.374 161.182 292.324C161.206 296.286 158.141 299.401 154.195 299.425C150.225 299.449 147.125 296.38 147.102 292.43Z" fill="white"/>
<path d="M303.868 150.729C303.88 146.791 307.016 143.699 310.973 143.734C314.896 143.77 317.961 146.944 317.902 150.894C317.843 154.727 314.755 157.772 310.903 157.783C306.969 157.795 303.857 154.691 303.868 150.729Z" fill="white"/>
<path d="M137.554 347.462C137.554 343.57 140.748 340.42 144.647 340.467C148.44 340.526 151.517 343.653 151.517 347.45C151.517 351.341 148.323 354.492 144.424 354.445C140.631 354.398 137.554 351.259 137.554 347.462Z" fill="white"/>
<path d="M150.202 274.466C150.202 270.539 153.373 267.412 157.307 267.459C161.135 267.506 164.201 270.622 164.201 274.466C164.201 278.393 161.03 281.52 157.096 281.473C153.255 281.414 150.202 278.31 150.202 274.466Z" fill="white"/>
<path d="M185.046 215.884C188.98 215.837 192.151 218.964 192.139 222.902C192.139 226.747 189.074 229.85 185.245 229.897C181.311 229.944 178.14 226.817 178.152 222.879C178.152 219.034 181.217 215.919 185.046 215.884Z" fill="white"/>
<path d="M159.162 402C157.941 400.025 155.769 398.661 153.326 398.638C150.848 398.614 148.628 399.99 147.384 402H159.162Z" fill="white"/>
<path d="M203.107 189.573C203.166 185.799 206.431 182.636 210.165 182.731C213.935 182.825 217.071 186.128 216.941 189.855C216.812 193.558 213.653 196.603 209.989 196.58C206.243 196.568 203.049 193.323 203.107 189.573Z" fill="white"/>
<path d="M153.749 255.797C153.948 251.999 157.26 248.966 160.994 249.166C164.788 249.366 167.818 252.681 167.618 256.42C167.418 260.217 164.107 263.25 160.372 263.051C156.591 262.851 153.561 259.535 153.749 255.797Z" fill="white"/>
<path d="M134.595 365.814C134.595 362.052 137.859 358.842 141.594 358.913C145.293 358.995 148.37 362.134 148.37 365.814C148.37 369.576 145.105 372.785 141.371 372.715C137.671 372.632 134.595 369.493 134.595 365.814Z" fill="white"/>
<path d="M231.492 167.435C235.25 167.482 238.432 170.739 238.35 174.477C238.268 178.251 234.992 181.402 231.257 181.284C227.57 181.167 224.504 178.028 224.504 174.348C224.504 170.598 227.746 167.4 231.492 167.435Z" fill="white"/>
<path d="M285.63 147.638C285.677 143.875 288.942 140.701 292.677 140.784C296.446 140.866 299.594 144.158 299.465 147.896C299.347 151.588 296.2 154.656 292.524 154.644C288.778 154.621 285.583 151.376 285.63 147.638Z" fill="white"/>
<path d="M368.917 148.884C371.524 148.907 373.826 147.355 375 145.133V138.902C373.826 136.692 371.5 135.117 368.893 135.152C365.194 135.199 362.094 138.338 362.105 142.03C362.117 145.733 365.217 148.86 368.917 148.884Z" fill="white"/>
<path d="M245.96 159.594C245.901 155.914 248.967 152.752 252.678 152.646C256.424 152.552 259.689 155.773 259.665 159.535C259.642 163.227 256.529 166.354 252.842 166.366C249.166 166.389 246.019 163.297 245.96 159.594Z" fill="white"/>
<path d="M343.809 138.913C343.844 135.187 346.956 132.118 350.655 132.142C354.378 132.177 357.443 135.292 357.42 138.996C357.384 142.723 354.272 145.791 350.573 145.768C346.85 145.744 343.785 142.629 343.809 138.913Z" fill="white"/>
<path d="M163.778 244.499C160.008 244.522 156.99 241.489 157.002 237.727C157.013 233.953 160.055 230.955 163.825 230.991C167.512 231.038 170.448 233.965 170.495 237.657C170.542 241.43 167.547 244.475 163.778 244.499Z" fill="white"/>
<path d="M181.886 204.562C181.863 200.788 184.881 197.767 188.651 197.779C192.421 197.791 195.427 200.835 195.38 204.609C195.333 208.301 192.409 211.24 188.721 211.287C184.963 211.334 181.91 208.336 181.886 204.562Z" fill="white"/>
<path d="M274.192 150.847C270.446 150.835 267.58 147.943 267.58 144.193C267.592 140.443 270.481 137.574 274.227 137.574C277.974 137.586 280.839 140.478 280.839 144.228C280.827 147.978 277.938 150.847 274.192 150.847Z" fill="white"/>
<path d="M332.182 142.57C328.46 142.523 325.606 139.595 325.618 135.857C325.641 132.036 328.648 129.144 332.488 129.238C336.199 129.332 339.006 132.306 338.935 136.057C338.876 139.772 335.929 142.617 332.182 142.57Z" fill="white"/>
<path d="M137.93 377.1C141.688 377.076 144.588 379.933 144.612 383.683C144.635 387.446 141.782 390.349 138.035 390.373C134.278 390.396 131.377 387.54 131.353 383.789C131.342 380.027 134.195 377.123 137.93 377.1Z" fill="white"/>
<path d="M132.833 301.094C136.532 301.13 139.386 304.092 139.327 307.819C139.269 311.511 136.286 314.356 132.563 314.273C128.969 314.191 126.163 311.287 126.174 307.666C126.186 303.951 129.11 301.059 132.833 301.094Z" fill="white"/>
<path d="M307.38 132.389C307.392 128.697 310.363 125.782 314.062 125.84C317.656 125.899 320.509 128.815 320.498 132.424C320.486 136.115 317.515 139.031 313.815 138.972C310.234 138.913 307.38 135.998 307.38 132.389Z" fill="white"/>
<path d="M167.172 225.959C163.484 225.924 160.595 222.926 160.677 219.223C160.76 215.637 163.696 212.803 167.301 212.827C170.988 212.862 173.877 215.86 173.795 219.563C173.725 223.149 170.789 225.982 167.172 225.959Z" fill="white"/>
<path d="M213.183 177.863C209.613 177.91 206.619 175.042 206.548 171.468C206.466 167.8 209.449 164.755 213.101 164.767C216.671 164.778 219.607 167.706 219.631 171.28C219.654 174.842 216.754 177.805 213.183 177.863Z" fill="white"/>
<path d="M129.251 289.232C129.298 285.552 132.305 282.66 136.016 282.754C139.597 282.848 142.416 285.799 142.369 289.409C142.322 293.088 139.316 295.98 135.605 295.886C132.023 295.792 129.204 292.841 129.251 289.232Z" fill="white"/>
<path d="M139.398 277.511C135.828 277.57 132.833 274.689 132.751 271.115C132.669 267.447 135.64 264.403 139.304 264.414C142.874 264.414 145.81 267.342 145.845 270.916C145.869 274.49 142.968 277.464 139.398 277.511Z" fill="white"/>
<path d="M129.698 319.47C133.385 319.47 136.309 322.444 136.262 326.147C136.215 329.745 133.303 332.602 129.709 332.602C126.022 332.602 123.098 329.627 123.145 325.924C123.18 322.338 126.092 319.47 129.698 319.47Z" fill="white"/>
<path d="M234.534 149.483C238.092 149.519 241.028 152.516 241.004 156.067C240.969 159.629 237.975 162.568 234.428 162.545C230.87 162.509 227.934 159.512 227.957 155.961C227.992 152.399 230.987 149.448 234.534 149.483Z" fill="white"/>
<path d="M185.186 186.163C185.198 182.625 188.228 179.627 191.751 179.674C195.298 179.721 198.257 182.778 198.187 186.304C198.116 189.773 195.192 192.665 191.728 192.688C188.205 192.7 185.186 189.702 185.186 186.163Z" fill="white"/>
<path d="M295.988 135.822C292.453 135.786 289.459 132.694 289.565 129.179C289.67 125.711 292.641 122.831 296.082 122.866C299.617 122.901 302.612 125.993 302.506 129.508C302.4 132.976 299.429 135.857 295.988 135.822Z" fill="white"/>
<path d="M142.345 259.524C138.811 259.524 135.804 256.443 135.886 252.928C135.969 249.46 138.916 246.556 142.357 246.568C145.892 246.568 148.898 249.648 148.816 253.163C148.746 256.62 145.798 259.524 142.345 259.524Z" fill="white"/>
<path d="M126.139 350.471C122.593 350.436 119.621 347.38 119.692 343.853C119.762 340.302 122.839 337.351 126.351 337.457C129.815 337.563 132.68 340.514 132.68 343.97C132.692 347.497 129.674 350.507 126.139 350.471Z" fill="white"/>
<path d="M141.429 402C141.371 398.485 138.353 395.534 134.841 395.581C131.377 395.64 128.5 398.579 128.453 402H141.429Z" fill="white"/>
<path d="M116.744 362.369C116.709 358.901 119.61 355.95 123.086 355.927C126.55 355.891 129.498 358.795 129.521 362.275C129.557 365.743 126.656 368.694 123.18 368.718C119.727 368.753 116.779 365.849 116.744 362.369Z" fill="white"/>
<path d="M262.742 141.171C262.73 144.628 259.794 147.567 256.342 147.59C252.807 147.614 249.777 144.534 249.871 141.019C249.965 137.539 252.948 134.658 256.389 134.705C259.853 134.764 262.765 137.715 262.742 141.171Z" fill="white"/>
<path d="M163.966 201.459C163.977 197.932 166.855 195.087 170.366 195.134C173.889 195.181 176.708 198.084 176.637 201.6C176.567 205.044 173.783 207.795 170.342 207.819C166.819 207.842 163.954 204.974 163.966 201.459Z" fill="white"/>
<path d="M145.34 228.451C148.851 228.416 151.576 231.073 151.635 234.565C151.693 238.162 148.957 240.937 145.364 240.925C141.864 240.901 139.186 238.209 139.175 234.694C139.175 231.191 141.852 228.475 145.34 228.451Z" fill="white"/>
<path d="M371.982 130.39C373.086 130.39 374.107 130.108 375 129.626V118.587C374.119 118.116 373.133 117.834 372.041 117.822C368.47 117.811 365.699 120.609 365.734 124.183C365.781 127.663 368.506 130.367 371.982 130.39Z" fill="white"/>
<path d="M353.685 114.366C357.185 114.366 359.886 117.058 359.909 120.562C359.933 124.159 357.161 126.898 353.556 126.84C350.068 126.781 347.414 124.053 347.449 120.538C347.473 117.035 350.186 114.366 353.685 114.366Z" fill="white"/>
<path d="M210.412 153.022C210.377 149.519 213.066 146.779 216.554 146.779C220.042 146.768 222.755 149.483 222.743 152.987C222.731 156.396 220.089 159.077 216.707 159.124C213.195 159.182 210.447 156.514 210.412 153.022Z" fill="white"/>
<path d="M277.633 120.115C281.133 120.08 283.869 122.772 283.869 126.264C283.881 129.755 281.168 132.471 277.668 132.459C274.263 132.447 271.585 129.802 271.538 126.416C271.479 122.901 274.145 120.15 277.633 120.115Z" fill="white"/>
<path d="M119.598 374.502C123.098 374.478 125.822 377.182 125.822 380.674C125.822 384.165 123.098 386.869 119.61 386.846C116.204 386.822 113.538 384.177 113.491 380.78C113.432 377.276 116.11 374.525 119.598 374.502Z" fill="white"/>
<path d="M329.611 117.576C329.599 114.072 332.312 111.368 335.799 111.38C339.287 111.392 341.977 114.131 341.941 117.634C341.906 121.032 339.252 123.689 335.858 123.724C332.359 123.759 329.622 121.067 329.611 117.576Z" fill="white"/>
<path d="M189.038 167.894C189.003 164.414 191.728 161.651 195.204 161.663C198.586 161.675 201.287 164.343 201.322 167.729C201.358 171.209 198.633 173.972 195.157 173.96C191.775 173.948 189.085 171.28 189.038 167.894Z" fill="white"/>
<path d="M142.803 216.342C142.803 212.992 145.551 210.229 148.898 210.217C152.245 210.217 155.005 212.968 155.017 216.319C155.017 219.669 152.269 222.432 148.922 222.444C145.575 222.444 142.803 219.681 142.803 216.342Z" fill="white"/>
<path d="M237.916 131.965C241.286 131.93 244.046 134.622 244.093 137.973C244.152 141.429 241.38 144.239 237.928 144.216C234.557 144.192 231.856 141.465 231.856 138.091C231.844 134.728 234.545 131.989 237.916 131.965Z" fill="white"/>
<path d="M317.491 108.382C320.838 108.406 323.574 111.204 323.539 114.542C323.516 117.893 320.721 120.632 317.385 120.597C314.038 120.573 311.302 117.775 311.337 114.437C311.361 111.086 314.144 108.347 317.491 108.382Z" fill="white"/>
<path d="M114.395 298.097C117.719 298.085 120.514 300.883 120.502 304.222C120.479 307.56 117.66 310.323 114.337 310.276C111.084 310.229 108.394 307.513 108.347 304.269C108.289 300.93 111.06 298.108 114.395 298.097Z" fill="white"/>
<path d="M118.001 280.18C121.336 280.238 124.072 283.107 123.978 286.422C123.884 289.761 120.995 292.477 117.684 292.348C114.431 292.218 111.788 289.456 111.812 286.211C111.847 282.884 114.677 280.121 118.001 280.18Z" fill="white"/>
<path d="M179.432 183.283C179.326 186.622 176.426 189.326 173.126 189.197C169.791 189.055 167.113 186.14 167.277 182.825C167.442 179.568 170.237 176.946 173.478 177.017C176.813 177.099 179.538 179.968 179.432 183.283Z" fill="white"/>
<path d="M111.354 328.604C108.042 328.604 105.224 325.736 105.306 322.432C105.376 319.188 108.136 316.484 111.366 316.484C114.677 316.484 117.496 319.352 117.414 322.656C117.343 325.901 114.583 328.604 111.354 328.604Z" fill="white"/>
<path d="M121.759 402C122.287 401.107 122.616 400.084 122.616 399.002C122.593 395.769 119.845 393.018 116.627 393.006C113.409 392.983 110.637 395.722 110.579 398.955C110.555 400.048 110.884 401.095 111.424 402H121.759Z" fill="white"/>
<path d="M121.054 261.875C124.284 261.934 127.008 264.72 126.985 267.941C126.961 271.257 124.037 274.066 120.761 273.937C117.519 273.796 114.842 270.963 114.936 267.765C115.041 264.52 117.836 261.816 121.054 261.875Z" fill="white"/>
<path d="M107.69 346.886C104.437 346.768 101.759 343.935 101.877 340.725C101.994 337.469 104.824 334.788 108.03 334.906C111.283 335.024 113.961 337.857 113.843 341.066C113.726 344.323 110.884 347.003 107.69 346.886Z" fill="white"/>
<path d="M259.289 116.8C262.495 116.753 265.29 119.468 265.349 122.713C265.396 125.923 262.671 128.721 259.442 128.779C256.236 128.826 253.441 126.111 253.382 122.866C253.335 119.656 256.06 116.858 259.289 116.8Z" fill="white"/>
<path d="M124.061 255.479C120.808 255.503 118.083 252.787 118.095 249.531C118.106 246.262 120.843 243.57 124.096 243.605C127.278 243.652 129.897 246.262 129.956 249.448C130.003 252.705 127.325 255.456 124.061 255.479Z" fill="white"/>
<path d="M299.018 116.929C295.753 116.882 293.076 114.107 293.17 110.863C293.252 107.594 296.047 104.937 299.288 105.067C302.483 105.184 305.043 107.853 305.031 111.027C305.007 114.284 302.271 116.976 299.018 116.929Z" fill="white"/>
<path d="M152.14 192.159C155.369 192.241 157.824 194.84 157.765 198.108C157.706 201.435 155.017 203.927 151.67 203.786C148.44 203.645 146.045 201.012 146.162 197.743C146.268 194.499 148.887 192.065 152.14 192.159Z" fill="white"/>
<path d="M192.468 149.93C192.456 146.662 194.934 144.134 198.199 144.122C201.463 144.111 203.988 146.591 204 149.859C204.012 153.128 201.534 155.655 198.269 155.667C195.004 155.679 192.491 153.187 192.468 149.93Z" fill="white"/>
<path d="M98.9995 359.16C99.0464 355.915 101.607 353.422 104.86 353.446C108.195 353.469 110.72 356.115 110.614 359.477C110.508 362.71 107.913 365.155 104.648 365.085C101.419 365.002 98.9525 362.416 98.9995 359.16Z" fill="white"/>
<path d="M219.56 140.336C216.307 140.301 213.841 137.75 213.9 134.47C213.959 131.225 216.53 128.779 219.819 128.862C222.966 128.944 225.385 131.436 225.373 134.622C225.362 137.879 222.837 140.36 219.56 140.336Z" fill="white"/>
<path d="M121.77 231.097C121.806 227.84 124.366 225.383 127.654 225.442C130.895 225.5 133.326 228.099 133.244 231.379C133.162 234.529 130.66 236.939 127.478 236.916C124.213 236.916 121.735 234.377 121.77 231.097Z" fill="white"/>
<path d="M375 111.486V100.011C371.747 100.047 369.293 102.586 369.34 105.866C369.387 109.017 371.841 111.45 375 111.486Z" fill="white"/>
<path d="M101.642 371.927C104.789 371.88 107.349 374.325 107.431 377.464C107.514 380.697 104.965 383.319 101.736 383.307C98.6001 383.307 96.0753 380.803 96.0518 377.664C96.04 374.513 98.5179 371.974 101.642 371.927Z" fill="white"/>
<path d="M235.367 119.692C235.391 116.576 237.963 114.037 241.075 114.06C244.187 114.084 246.724 116.659 246.7 119.774C246.677 122.889 244.105 125.429 240.993 125.405C237.881 125.382 235.344 122.807 235.367 119.692Z" fill="white"/>
<path d="M286.464 108.112C286.382 111.333 283.74 113.778 280.463 113.637C277.339 113.508 274.967 110.921 275.038 107.747C275.12 104.526 277.762 102.081 281.039 102.222C284.174 102.351 286.546 104.937 286.464 108.112Z" fill="white"/>
<path d="M176.672 170.469C173.455 170.386 171.012 167.741 171.153 164.461C171.282 161.334 173.866 158.959 177.036 159.029C180.254 159.112 182.697 161.757 182.556 165.037C182.427 168.164 179.843 170.551 176.672 170.469Z" fill="white"/>
<path d="M351.466 102.751C351.43 99.4941 353.967 96.9547 357.22 96.9664C360.367 96.99 362.857 99.4588 362.892 102.61C362.927 105.866 360.391 108.405 357.138 108.394C353.979 108.382 351.489 105.901 351.466 102.751Z" fill="white"/>
<path d="M333.169 99.1532C333.192 96.0377 335.764 93.4983 338.876 93.5218C341.988 93.5453 344.525 96.12 344.502 99.2355C344.478 102.351 341.906 104.89 338.794 104.867C335.682 104.843 333.145 102.269 333.169 99.1532Z" fill="white"/>
<path d="M155.44 185.235C152.445 185.235 149.861 182.66 149.838 179.662C149.803 176.594 152.515 173.913 155.569 173.995C158.575 174.066 161.112 176.688 161.065 179.674C161.03 182.672 158.434 185.235 155.44 185.235Z" fill="white"/>
<path d="M130.578 207.654C133.573 207.654 136.157 210.229 136.18 213.227C136.215 216.295 133.502 218.976 130.449 218.893C127.443 218.811 124.918 216.201 124.953 213.215C124.988 210.205 127.584 207.642 130.578 207.654Z" fill="white"/>
<path d="M99.5984 288.303C96.6038 288.327 94.0201 285.764 94.0319 282.754C94.0436 279.745 96.6273 277.194 99.6336 277.241C102.57 277.288 105.036 279.745 105.094 282.684C105.153 285.67 102.617 288.28 99.5984 288.303Z" fill="white"/>
<path d="M314.919 96.073C314.954 93.0751 317.562 90.5122 320.544 90.5475C323.539 90.5827 326.099 93.1927 326.064 96.1788C326.029 99.1767 323.422 101.74 320.439 101.704C317.444 101.669 314.884 99.0591 314.919 96.073Z" fill="white"/>
<path d="M96.1575 295.592C99.1756 295.651 101.7 298.273 101.607 301.259C101.513 304.292 98.8703 306.785 95.8874 306.655C92.9397 306.526 90.5322 304.022 90.544 301.094C90.5557 298.085 93.1511 295.534 96.1575 295.592Z" fill="white"/>
<path d="M92.787 395.628C92.7401 392.583 95.2297 390.055 98.2713 390.067C101.231 390.079 103.662 392.489 103.72 395.452C103.767 398.497 101.278 401.024 98.2361 401.012C95.2767 401.001 92.834 398.591 92.787 395.628Z" fill="white"/>
<path d="M87.5611 319.199C87.7373 316.131 90.3679 313.803 93.4095 314.038C96.3924 314.273 98.6354 316.813 98.471 319.775C98.2948 322.844 95.6643 325.172 92.6226 324.936C89.6397 324.701 87.3967 322.162 87.5611 319.199Z" fill="white"/>
<path d="M262.507 98.9651C265.56 99.0121 268.003 101.587 267.897 104.632C267.78 107.606 265.314 109.969 262.354 109.922C259.301 109.875 256.858 107.3 256.964 104.255C257.07 101.269 259.548 98.918 262.507 98.9651Z" fill="white"/>
<path d="M195.955 131.542C195.944 128.474 198.281 126.158 201.346 126.181C204.399 126.205 206.701 128.556 206.654 131.624C206.607 134.587 204.34 136.844 201.381 136.88C198.304 136.915 195.955 134.611 195.955 131.542Z" fill="white"/>
<path d="M102.523 270.245C99.5162 270.198 97.2027 267.812 97.2262 264.79C97.2497 261.687 99.7158 259.335 102.84 259.441C105.846 259.547 108.101 261.969 108.019 265.002C107.936 268.012 105.541 270.304 102.523 270.245Z" fill="white"/>
<path d="M84.5665 337.822C84.5782 334.8 86.9035 332.461 89.9216 332.437C93.0219 332.414 95.4176 334.847 95.3589 337.963C95.3002 340.972 92.9162 343.277 89.8981 343.241C86.8682 343.206 84.5547 340.855 84.5665 337.822Z" fill="white"/>
<path d="M302.236 97.9893C299.171 98.0245 296.822 95.7203 296.81 92.6636C296.799 89.6069 299.124 87.2674 302.189 87.2909C305.16 87.3026 307.45 89.5481 307.509 92.5107C307.568 95.5792 305.289 97.9422 302.236 97.9893Z" fill="white"/>
<path d="M174.594 146.427C174.582 143.37 176.919 141.042 179.984 141.089C182.943 141.124 185.198 143.405 185.21 146.38C185.222 149.436 182.885 151.764 179.82 151.717C176.86 151.67 174.605 149.389 174.594 146.427Z" fill="white"/>
<path d="M100.808 246.592C100.761 243.523 103.075 241.172 106.128 241.184C109.099 241.184 111.377 243.441 111.424 246.403C111.471 249.472 109.158 251.823 106.104 251.811C103.133 251.8 100.843 249.542 100.808 246.592Z" fill="white"/>
<path d="M222.614 121.514C219.678 121.479 217.411 119.163 217.423 116.2C217.435 113.167 219.842 110.851 222.896 110.945C225.82 111.027 228.039 113.402 227.981 116.365C227.91 119.304 225.561 121.561 222.614 121.514Z" fill="white"/>
<path d="M133.667 189.596C136.72 189.62 138.999 191.983 138.94 195.063C138.881 198.014 136.568 200.248 133.596 200.224C130.543 200.201 128.265 197.838 128.323 194.757C128.382 191.806 130.684 189.585 133.667 189.596Z" fill="white"/>
<path d="M86.3985 350.507C89.3226 350.472 91.6831 352.776 91.7184 355.703C91.7536 358.63 89.4518 360.994 86.5276 361.029C83.6035 361.064 81.243 358.76 81.2077 355.832C81.1843 352.893 83.486 350.53 86.3985 350.507Z" fill="white"/>
<path d="M153.255 161.581C153.302 158.665 155.686 156.373 158.61 156.431C161.523 156.478 163.813 158.865 163.754 161.792C163.707 164.708 161.323 167 158.399 166.942C155.487 166.895 153.208 164.52 153.255 161.581Z" fill="white"/>
<path d="M279.054 89.6304C279.019 86.7736 281.461 84.3283 284.315 84.3636C287.087 84.3988 289.435 86.7501 289.471 89.5246C289.506 92.3814 287.063 94.8268 284.209 94.7915C281.426 94.7563 279.077 92.4049 279.054 89.6304Z" fill="white"/>
<path d="M103.967 228.04C104.026 225.183 106.527 222.796 109.369 222.926C112.141 223.043 114.431 225.465 114.372 228.228C114.313 231.085 111.812 233.471 108.97 233.354C106.198 233.224 103.908 230.803 103.967 228.04Z" fill="white"/>
<path d="M244.539 106.583C241.685 106.595 239.266 104.126 239.325 101.281C239.384 98.5066 241.744 96.1788 244.516 96.167C247.369 96.1553 249.789 98.6241 249.73 101.469C249.671 104.244 247.299 106.572 244.539 106.583Z" fill="white"/>
<path d="M375 91.1235V83.6464C374.002 84.5987 373.356 85.9389 373.356 87.3967C373.356 88.831 374.002 90.1595 375 91.1235Z" fill="white"/>
<path d="M360.25 79.1437C363.01 79.1555 365.382 81.5303 365.405 84.2931C365.429 87.1264 362.916 89.5952 360.097 89.5012C357.337 89.4189 355 86.9853 355.059 84.246C355.106 81.4833 357.502 79.132 360.25 79.1437Z" fill="white"/>
<path d="M137.225 181.637C134.43 181.708 132.034 179.356 132.046 176.547C132.046 173.831 134.289 171.538 137.026 171.468C139.821 171.397 142.216 173.749 142.205 176.558C142.193 179.274 139.95 181.567 137.225 181.637Z" fill="white"/>
<path d="M341.824 75.7461C344.619 75.699 346.991 78.0739 346.968 80.8719C346.944 83.5994 344.678 85.8684 341.953 85.9154C339.158 85.9624 336.786 83.5876 336.809 80.7896C336.845 78.0621 339.099 75.7813 341.824 75.7461Z" fill="white"/>
<path d="M83.4508 379.251C80.7028 379.275 78.307 376.912 78.2836 374.149C78.2601 371.398 80.6205 369 83.3803 368.976C86.1283 368.953 88.5241 371.316 88.5476 374.078C88.571 376.841 86.2106 379.228 83.4508 379.251Z" fill="white"/>
<path d="M111.941 214.767C109.169 214.602 107.103 212.298 107.232 209.535C107.373 206.69 109.792 204.55 112.634 204.786C115.405 205.009 117.414 207.349 117.226 210.111C117.026 212.886 114.701 214.931 111.941 214.767Z" fill="white"/>
<path d="M183.484 132.976C180.665 133.023 178.469 130.884 178.457 128.074C178.434 125.252 180.595 123.089 183.413 123.101C186.138 123.113 188.263 125.182 188.334 127.898C188.404 130.719 186.29 132.929 183.484 132.976Z" fill="white"/>
<path d="M323.516 82.7177C320.709 82.7059 318.572 80.5075 318.607 77.6859C318.654 74.8761 320.862 72.7599 323.68 72.8305C326.393 72.901 328.46 75.0172 328.471 77.7447C328.495 80.5662 326.334 82.7294 323.516 82.7177Z" fill="white"/>
<path d="M73.2807 298.097C73.269 295.263 75.4181 293.135 78.2483 293.171C80.9728 293.206 83.0397 295.298 83.0515 298.038C83.0632 300.871 80.9141 302.999 78.0839 302.964C75.3593 302.928 73.2924 300.824 73.2807 298.097Z" fill="white"/>
<path d="M75.4651 392.419C75.4886 389.597 77.6847 387.504 80.5266 387.587C83.2394 387.657 85.2711 389.797 85.2476 392.536C85.2241 395.346 83.028 397.45 80.1978 397.368C77.4733 397.297 75.4416 395.158 75.4651 392.419Z" fill="white"/>
<path d="M161.652 148.19C158.928 148.225 156.778 146.18 156.708 143.476C156.638 140.654 158.775 138.467 161.582 138.479C164.294 138.491 166.397 140.584 166.408 143.299C166.432 146.027 164.365 148.155 161.652 148.19Z" fill="white"/>
<path d="M74.6899 311.569C77.4027 311.569 79.5166 313.662 79.5401 316.378C79.5636 319.188 77.3792 321.339 74.5725 321.28C71.8597 321.233 69.8046 319.094 69.8398 316.366C69.8515 313.65 71.9654 311.558 74.6899 311.569Z" fill="white"/>
<path d="M199.901 113.237C199.878 110.404 202.015 108.264 204.845 108.288C207.582 108.311 209.66 110.392 209.684 113.12C209.707 115.953 207.57 118.093 204.74 118.069C202.004 118.046 199.925 115.965 199.901 113.237Z" fill="white"/>
<path d="M226.266 103.139C223.565 103.174 221.404 101.081 221.357 98.389C221.322 95.685 223.412 93.5218 226.102 93.4748C228.803 93.4395 230.963 95.5322 231.01 98.2244C231.046 100.94 228.955 103.103 226.266 103.139Z" fill="white"/>
<path d="M89.1113 261.522C89.0291 264.203 86.8095 266.26 84.1085 266.178C81.4309 266.095 79.3757 263.873 79.4579 261.17C79.5401 258.489 81.7597 256.432 84.4608 256.514C87.1383 256.608 89.1935 258.83 89.1113 261.522Z" fill="white"/>
<path d="M265.971 81.6125C268.79 81.636 270.88 83.8227 270.81 86.6678C270.739 89.3835 268.602 91.4174 265.866 91.3939C263.047 91.3704 260.957 89.1837 261.027 86.3386C261.098 83.6346 263.235 81.589 265.971 81.6125Z" fill="white"/>
<path d="M81.196 274.854C83.9205 274.842 86.0461 276.911 86.0814 279.627C86.1166 282.449 83.9675 284.612 81.149 284.577C78.4362 284.541 76.3576 282.425 76.3693 279.698C76.3811 276.97 78.4832 274.866 81.196 274.854Z" fill="white"/>
<path d="M66.8217 334.342C66.8217 331.673 69.0177 329.51 71.6836 329.545C74.3494 329.58 76.4867 331.791 76.428 334.459C76.3693 337.034 74.2554 339.127 71.6836 339.15C69.006 339.174 66.8217 337.01 66.8217 334.342Z" fill="white"/>
<path d="M115.793 196.215C113.127 196.262 110.931 194.099 110.919 191.43C110.908 188.762 113.092 186.587 115.746 186.598C118.33 186.61 120.443 188.691 120.514 191.266C120.584 193.946 118.459 196.18 115.793 196.215Z" fill="white"/>
<path d="M300.85 74.6057C300.909 71.937 303.152 69.8208 305.806 69.9031C308.46 69.9854 310.562 72.2544 310.445 74.9231C310.327 77.4978 308.178 79.5434 305.595 79.5082C302.929 79.4846 300.792 77.2744 300.85 74.6057Z" fill="white"/>
<path d="M87.7489 238.209C90.3795 238.197 92.5991 240.443 92.5521 243.065C92.5051 245.616 90.356 247.744 87.8077 247.755C85.1771 247.767 82.9575 245.522 83.0045 242.9C83.0515 240.361 85.2006 238.233 87.7489 238.209Z" fill="white"/>
<path d="M135.393 158.23C135.37 155.597 137.613 153.375 140.243 153.422C142.792 153.469 144.917 155.608 144.941 158.16C144.964 160.793 142.721 163.015 140.091 162.968C137.542 162.933 135.417 160.781 135.393 158.23Z" fill="white"/>
<path d="M63.4395 352.741C63.416 350.213 65.6238 347.991 68.1487 348.003C70.6736 348.014 72.8697 350.248 72.8227 352.776C72.7758 355.233 70.6736 357.349 68.2192 357.408C65.706 357.467 63.463 355.268 63.4395 352.741Z" fill="white"/>
<path d="M252.208 83.1761C252.102 85.6685 249.941 87.7141 247.463 87.6436C244.88 87.573 242.789 85.2923 242.954 82.7294C243.118 80.2135 245.326 78.2385 247.792 78.3795C250.305 78.5206 252.313 80.7073 252.208 83.1761Z" fill="white"/>
<path d="M160.619 124.888C160.654 122.384 162.568 120.515 165.081 120.538C167.665 120.55 169.579 122.56 169.485 125.17C169.391 127.663 167.43 129.485 164.905 129.414C162.427 129.355 160.583 127.416 160.619 124.888Z" fill="white"/>
<path d="M86.281 225.101C86.2575 222.561 88.2539 220.527 90.8023 220.516C93.339 220.492 95.3706 222.491 95.3824 225.042C95.4059 227.581 93.4094 229.603 90.861 229.627C88.3244 229.639 86.3045 227.64 86.281 225.101Z" fill="white"/>
<path d="M340.978 62.8963C340.99 60.4039 342.904 58.4994 345.394 58.5111C347.884 58.5229 349.786 60.4392 349.774 62.9316C349.763 65.4239 347.849 67.3285 345.359 67.3167C342.881 67.305 340.978 65.3886 340.978 62.8963Z" fill="white"/>
<path d="M358.794 65.9765C358.794 63.3783 360.778 61.4267 363.374 61.4855C365.875 61.5325 367.754 63.4489 367.754 65.9647C367.754 68.5629 365.769 70.5145 363.174 70.4557C360.684 70.4087 358.805 68.4924 358.794 65.9765Z" fill="white"/>
<path d="M118.811 177.934C116.298 177.946 114.384 176.088 114.337 173.584C114.29 170.974 116.239 169.022 118.846 169.058C121.348 169.093 123.215 170.998 123.215 173.513C123.203 176.018 121.312 177.922 118.811 177.934Z" fill="white"/>
<path d="M282.765 71.1846C282.788 68.6452 284.808 66.6466 287.345 66.6701C289.882 66.6936 291.878 68.7157 291.855 71.2551C291.831 73.7945 289.811 75.7931 287.274 75.7696C284.738 75.7461 282.741 73.7239 282.765 71.1846Z" fill="white"/>
<path d="M60.6328 371.139C60.5975 368.623 62.4413 366.684 64.9427 366.625C67.5498 366.566 69.5227 368.494 69.511 371.092C69.4993 373.596 67.5968 375.489 65.0954 375.501C62.5822 375.513 60.668 373.643 60.6328 371.139Z" fill="white"/>
<path d="M207.958 90.4181C210.435 90.4769 212.303 92.4402 212.244 94.9326C212.185 97.4132 210.224 99.2825 207.734 99.2237C205.257 99.1649 203.389 97.2016 203.448 94.7092C203.495 92.2286 205.468 90.3593 207.958 90.4181Z" fill="white"/>
<path d="M186.537 105.631C189.121 105.666 191.035 107.7 190.941 110.31C190.847 112.802 188.897 114.648 186.384 114.613C183.801 114.578 181.886 112.544 181.98 109.934C182.063 107.441 184.012 105.584 186.537 105.631Z" fill="white"/>
<path d="M269.001 63.8015C271.338 63.825 273.299 65.7884 273.311 68.1279C273.323 70.5497 271.233 72.5836 268.825 72.5013C266.488 72.419 264.574 70.3969 264.621 68.0691C264.68 65.7296 266.676 63.7898 269.001 63.8015Z" fill="white"/>
<path d="M89.9568 206.749C89.9451 204.292 91.9063 202.328 94.3489 202.34C96.7916 202.352 98.7411 204.339 98.6941 206.796C98.6589 209.159 96.7682 211.052 94.4077 211.099C91.965 211.134 89.9685 209.194 89.9568 206.749Z" fill="white"/>
<path d="M143.567 144.216C141.124 144.169 139.21 142.135 139.292 139.689C139.374 137.256 141.429 135.363 143.872 135.469C146.221 135.575 148.065 137.526 148.041 139.889C148.006 142.335 146.009 144.263 143.567 144.216Z" fill="white"/>
<path d="M57.7086 389.491C57.6616 387.199 59.6345 385.153 61.948 385.106C64.2381 385.059 66.2815 387.034 66.3285 389.35C66.3754 391.643 64.4025 393.688 62.089 393.735C59.7989 393.77 57.7556 391.795 57.7086 389.491Z" fill="white"/>
<path d="M326.968 63.731C324.666 63.684 322.694 61.6384 322.729 59.3458C322.776 57.0416 324.819 55.0665 327.109 55.1018C329.411 55.1488 331.384 57.1944 331.349 59.4869C331.302 61.7912 329.258 63.7662 326.968 63.731Z" fill="white"/>
<path d="M224.927 80.0489C224.868 77.7564 226.841 75.6991 229.143 75.6403C231.433 75.5815 233.488 77.5566 233.547 79.8608C233.606 82.1533 231.633 84.2107 229.331 84.2695C227.041 84.3283 224.986 82.3532 224.927 80.0489Z" fill="white"/>
<path d="M59.8342 298.837C57.5207 298.837 55.5008 296.768 55.5713 294.464C55.6417 292.23 57.6029 290.314 59.8342 290.314C62.1477 290.314 64.1677 292.383 64.0972 294.687C64.0267 296.921 62.0538 298.837 59.8342 298.837Z" fill="white"/>
<path d="M62.864 272.385C65.1775 272.373 67.1974 274.431 67.1504 276.735C67.1035 278.969 65.1423 280.897 62.911 280.92C60.5975 280.932 58.5776 278.875 58.6245 276.57C58.6833 274.325 60.6327 272.397 62.864 272.385Z" fill="white"/>
<path d="M52.1538 312.957C52.1304 310.699 53.9976 308.783 56.2524 308.724C58.5776 308.666 60.5858 310.664 60.5389 312.992C60.4919 315.261 58.5777 317.13 56.3229 317.118C54.0681 317.107 52.1656 315.226 52.1538 312.957Z" fill="white"/>
<path d="M66.2228 262.486C63.9562 262.38 62.1242 260.429 62.1947 258.183C62.2651 255.832 64.332 253.939 66.6573 254.116C68.9356 254.28 70.6971 256.267 70.5679 258.513C70.4387 260.782 68.4658 262.592 66.2228 262.486Z" fill="white"/>
<path d="M93.2803 188.432C93.245 186.093 95.0183 184.271 97.3671 184.259C99.7041 184.247 101.501 186.058 101.477 188.397C101.454 190.654 99.7511 192.394 97.508 192.465C95.1593 192.524 93.3272 190.76 93.2803 188.432Z" fill="white"/>
<path d="M69.5345 235.893C71.8715 235.94 73.5743 237.774 73.4686 240.137C73.3747 242.383 71.6131 244.017 69.3466 243.97C67.0096 243.923 65.3067 242.089 65.4124 239.726C65.5064 237.48 67.268 235.846 69.5345 235.893Z" fill="white"/>
<path d="M312.805 56.536C312.711 58.8638 310.821 60.5802 308.472 60.4509C306.147 60.3216 304.467 58.417 304.62 56.0657C304.773 53.8203 306.569 52.1861 308.836 52.2567C311.161 52.3155 312.899 54.1965 312.805 56.536Z" fill="white"/>
<path d="M53.3164 327.182C55.6534 327.205 57.4267 329.028 57.3797 331.379C57.3327 333.719 55.4772 335.47 53.1402 335.388C50.8972 335.317 49.1943 333.566 49.1826 331.308C49.1708 328.957 50.9794 327.158 53.3164 327.182Z" fill="white"/>
<path d="M121.759 159.241C119.422 159.206 117.66 157.36 117.731 155.021C117.801 152.681 119.668 150.953 122.005 151.047C124.248 151.141 125.928 152.904 125.928 155.162C125.916 157.489 124.107 159.276 121.759 159.241Z" fill="white"/>
<path d="M100.42 166.107C102.499 166.095 104.308 167.882 104.319 169.975C104.331 172.056 102.546 173.866 100.456 173.878C98.377 173.89 96.5685 172.103 96.5567 170.01C96.545 167.929 98.3301 166.119 100.42 166.107Z" fill="white"/>
<path d="M164.165 106.701C164.118 104.467 165.856 102.68 168.076 102.657C170.307 102.645 172.069 104.397 172.057 106.63C172.045 108.77 170.378 110.498 168.252 110.557C166.033 110.639 164.212 108.923 164.165 106.701Z" fill="white"/>
<path d="M210.858 72.5718C212.937 72.5366 214.757 74.3235 214.792 76.4044C214.828 78.4853 213.043 80.3076 210.964 80.3428C208.885 80.3781 207.065 78.5912 207.03 76.5103C206.995 74.4294 208.768 72.6071 210.858 72.5718Z" fill="white"/>
<path d="M146.796 117.999C148.91 118.046 150.648 119.821 150.637 121.937C150.625 124.147 148.734 125.946 146.538 125.84C144.424 125.735 142.733 123.901 142.803 121.784C142.874 119.668 144.682 117.952 146.796 117.999Z" fill="white"/>
<path d="M185.562 91.6525C185.621 89.4423 187.453 87.7259 189.673 87.8082C191.88 87.8905 193.572 89.748 193.454 91.9817C193.348 94.1096 191.587 95.7438 189.449 95.7203C187.242 95.685 185.504 93.8745 185.562 91.6525Z" fill="white"/>
<path d="M72.4939 217.647C74.6078 217.647 76.3811 219.399 76.4163 221.515C76.4515 223.713 74.596 225.559 72.3882 225.5C70.2744 225.442 68.548 223.643 68.5715 221.527C68.6068 219.411 70.3801 217.659 72.4939 217.647Z" fill="white"/>
<path d="M50.2631 345.687C52.4827 345.71 54.2207 347.509 54.1738 349.731C54.1268 351.941 52.3065 353.669 50.0752 353.587C47.9496 353.516 46.282 351.788 46.2702 349.649C46.2702 347.427 48.0436 345.663 50.2631 345.687Z" fill="white"/>
<path d="M250.528 68.6099C248.321 68.5511 246.606 66.7289 246.688 64.4952C246.77 62.2849 248.626 60.592 250.857 60.7096C252.983 60.8154 254.615 62.5788 254.592 64.7185C254.557 66.9287 252.748 68.6687 250.528 68.6099Z" fill="white"/>
<path d="M286.452 52.8915C286.441 50.7754 288.167 48.9884 290.293 48.9414C292.489 48.8944 294.344 50.7401 294.297 52.9386C294.25 55.0547 292.465 56.7947 290.351 56.7829C288.226 56.7712 286.464 55.0077 286.452 52.8915Z" fill="white"/>
<path d="M46.7517 363.721C48.8303 363.733 50.6506 365.614 50.5684 367.683C50.4979 369.682 48.7129 371.41 46.7282 371.398C44.6495 371.386 42.8293 369.505 42.9115 367.436C42.9819 365.437 44.7552 363.721 46.7517 363.721Z" fill="white"/>
<path d="M366.685 43.7803C368.752 43.7215 370.62 45.5555 370.608 47.6364C370.596 49.635 368.858 51.3985 366.862 51.4572C364.795 51.516 362.927 49.682 362.939 47.6011C362.951 45.6025 364.689 43.8273 366.685 43.7803Z" fill="white"/>
<path d="M121.571 136.715C121.606 134.681 123.356 132.976 125.388 133.012C127.419 133.047 129.122 134.799 129.087 136.833C129.052 138.866 127.302 140.571 125.27 140.536C123.238 140.501 121.536 138.749 121.571 136.715Z" fill="white"/>
<path d="M272.431 46.2021C274.462 46.1904 276.012 47.6834 276.048 49.7055C276.095 51.8335 274.497 53.4206 272.384 53.3853C270.364 53.35 268.86 51.8099 268.872 49.7761C268.884 47.7422 270.411 46.2256 272.431 46.2021Z" fill="white"/>
<path d="M229.143 61.6971C229.096 59.6633 230.564 58.0761 232.584 58.0056C234.71 57.9233 236.33 59.4987 236.33 61.6031C236.33 63.6369 234.815 65.1653 232.784 65.1888C230.752 65.2123 229.19 63.7193 229.143 61.6971Z" fill="white"/>
<path d="M72.3295 203.104C72.3882 201.012 74.1028 199.436 76.2049 199.554C78.2013 199.66 79.7045 201.306 79.6458 203.316C79.5871 205.409 77.8725 206.984 75.7704 206.867C73.7739 206.761 72.2707 205.127 72.3295 203.104Z" fill="white"/>
<path d="M344.783 44.6268C344.748 42.6164 346.263 40.9823 348.26 40.8882C350.362 40.7942 352.065 42.3813 352.112 44.4739C352.159 46.5784 350.514 48.236 348.424 48.2125C346.392 48.2007 344.819 46.6489 344.783 44.6268Z" fill="white"/>
<path d="M38.0261 291.525C38.0144 289.655 39.5998 288.045 41.467 288.033C43.3343 288.021 44.9431 289.608 44.9549 291.478C44.9666 293.347 43.3812 294.958 41.514 294.969C39.6467 294.993 38.0496 293.406 38.0261 291.525Z" fill="white"/>
<path d="M171.258 85.2335C173.126 85.2806 174.688 86.9265 174.629 88.7957C174.582 90.665 172.938 92.2286 171.071 92.1698C169.203 92.1228 167.641 90.4769 167.7 88.6076C167.759 86.7384 169.403 85.1748 171.258 85.2335Z" fill="white"/>
<path d="M326.557 41.0175C326.569 38.9837 328.143 37.4671 330.186 37.5023C332.206 37.5494 333.709 39.1483 333.639 41.1821C333.568 43.1219 332.077 44.568 330.127 44.5798C328.084 44.6033 326.545 43.0632 326.557 41.0175Z" fill="white"/>
<path d="M75.5825 185.246C75.606 183.377 77.2266 181.802 79.0939 181.825C80.9611 181.849 82.5348 183.471 82.5113 185.34C82.4878 187.21 80.8672 188.785 78.9999 188.762C77.1209 188.738 75.5472 187.116 75.5825 185.246Z" fill="white"/>
<path d="M40.14 385.964C40.1165 383.919 41.6432 382.367 43.6866 382.379C45.7183 382.379 47.245 383.942 47.2215 385.976C47.1862 387.928 45.73 389.409 43.7805 389.456C41.7371 389.515 40.1635 387.998 40.14 385.964Z" fill="white"/>
<path d="M34.9728 309.971C34.9141 308.113 36.4643 306.455 38.3315 306.397C40.187 306.338 41.8429 307.89 41.9016 309.759C41.9603 311.616 40.4101 313.274 38.5429 313.333C36.6874 313.392 35.0315 311.84 34.9728 309.971Z" fill="white"/>
<path d="M44.6613 269.681C46.5285 269.74 48.0787 271.386 48.02 273.255C47.9613 275.124 46.3171 276.676 44.4499 276.617C42.5826 276.559 41.0325 274.913 41.0912 273.044C41.1499 271.174 42.794 269.622 44.6613 269.681Z" fill="white"/>
<path d="M100.432 151.729C100.385 149.73 101.959 148.131 103.955 148.143C105.87 148.155 107.384 149.648 107.431 151.564C107.478 153.563 105.905 155.162 103.908 155.15C101.994 155.126 100.479 153.633 100.432 151.729Z" fill="white"/>
<path d="M311.713 34.575C313.557 34.5514 315.213 36.2209 315.178 38.0549C315.142 39.8183 313.569 41.3819 311.807 41.4055C309.963 41.429 308.307 39.7596 308.343 37.9256C308.39 36.1738 309.963 34.5985 311.713 34.575Z" fill="white"/>
<path d="M48.1257 251.376C49.9695 251.423 51.5666 253.163 51.4492 254.986C51.3317 256.749 49.6994 258.266 47.9496 258.207C46.1058 258.16 44.5086 256.42 44.6261 254.598C44.7435 252.834 46.3876 251.329 48.1257 251.376Z" fill="white"/>
<path d="M192.949 76.8159C191.105 76.7807 189.485 75.0642 189.579 73.242C189.673 71.4785 191.293 69.9502 193.043 69.9854C194.887 70.0207 196.507 71.7372 196.413 73.5594C196.32 75.3229 194.699 76.8512 192.949 76.8159Z" fill="white"/>
<path d="M149.791 100.141C151.635 100.152 153.267 101.845 153.197 103.679C153.126 105.443 151.529 106.983 149.767 106.983C147.924 106.971 146.291 105.278 146.362 103.444C146.432 101.681 148.029 100.129 149.791 100.141Z" fill="white"/>
<path d="M31.6023 328.275C31.5671 326.5 33.1055 324.913 34.8906 324.878C36.6639 324.842 38.2493 326.383 38.2845 328.17C38.3197 329.945 36.7813 331.532 34.9963 331.567C33.223 331.602 31.6376 330.062 31.6023 328.275Z" fill="white"/>
<path d="M51.0616 240.102C49.1944 240.078 47.7969 238.597 47.8673 236.728C47.9378 234.953 49.3588 233.624 51.1321 233.648C52.9993 233.671 54.3968 235.153 54.3264 237.022C54.2559 238.797 52.8467 240.126 51.0616 240.102Z" fill="white"/>
<path d="M250.904 46.7076C250.928 44.8383 252.407 43.4276 254.275 43.5099C256.048 43.5804 257.375 44.9912 257.363 46.7782C257.34 48.6474 255.86 50.0582 253.993 49.9759C252.22 49.8936 250.881 48.4828 250.904 46.7076Z" fill="white"/>
<path d="M128.417 115.189C130.285 115.212 131.694 116.694 131.612 118.563C131.541 120.338 130.132 121.667 128.347 121.655C126.48 121.631 125.07 120.15 125.153 118.281C125.223 116.506 126.632 115.165 128.417 115.189Z" fill="white"/>
<path d="M54.573 215.413C56.3698 215.402 57.7321 216.801 57.6851 218.599C57.6381 220.304 56.3228 221.597 54.6083 221.609C52.8115 221.621 51.4492 220.222 51.4962 218.423C51.5432 216.718 52.8584 215.425 54.573 215.413Z" fill="white"/>
<path d="M293.839 38.0314C292.042 38.0196 290.704 36.6088 290.774 34.8101C290.833 33.1054 292.183 31.8357 293.886 31.8475C295.683 31.8592 297.022 33.27 296.951 35.0687C296.893 36.7617 295.554 38.0431 293.839 38.0314Z" fill="white"/>
<path d="M31.7902 349.296C29.9817 349.249 28.6899 347.873 28.7368 346.051C28.7838 344.241 30.1578 342.947 31.9781 342.994C33.7866 343.041 35.0784 344.417 35.0315 346.239C34.9845 348.05 33.6105 349.343 31.7902 349.296Z" fill="white"/>
<path d="M211.246 58.5346C211.246 56.7124 212.573 55.3839 214.405 55.3956C216.225 55.3956 217.552 56.7241 217.54 58.5581C217.54 60.3804 216.213 61.7089 214.381 61.6971C212.573 61.6853 211.246 60.3569 211.246 58.5346Z" fill="white"/>
<path d="M103.944 133.694C103.955 132.024 105.353 130.649 107.02 130.66C108.688 130.672 110.062 132.071 110.05 133.741C110.039 135.41 108.641 136.786 106.973 136.774C105.306 136.762 103.932 135.363 103.944 133.694Z" fill="white"/>
<path d="M82.0181 163.885C83.6857 163.838 85.1066 165.19 85.1419 166.859C85.1889 168.529 83.8383 169.951 82.1707 169.986C80.5031 170.034 79.0821 168.682 79.0469 167.012C79.0117 165.354 80.3622 163.932 82.0181 163.885Z" fill="white"/>
<path d="M28.8073 361.499C30.4162 361.487 31.849 362.933 31.8372 364.544C31.8137 366.166 30.3458 367.636 28.7486 367.507C27.0105 367.366 25.9771 366.331 25.8479 364.591C25.7187 362.969 27.1984 361.511 28.8073 361.499Z" fill="white"/>
<path d="M369.88 32.1884C368.318 32.2237 366.92 30.8717 366.897 29.3081C366.862 27.7445 368.212 26.3455 369.774 26.322C371.336 26.2867 372.734 27.6387 372.757 29.2023C372.804 30.7541 371.453 32.1532 369.88 32.1884Z" fill="white"/>
<path d="M150.449 85.1865C150.449 83.5641 151.776 82.2592 153.385 82.3885C155.076 82.5178 156.015 83.5171 156.074 85.21C156.133 86.8324 154.77 88.0903 153.15 88.0198C151.623 87.961 150.449 86.7266 150.449 85.1865Z" fill="white"/>
<path d="M54.8313 200.13C54.8431 198.508 56.1701 197.214 57.779 197.344C59.4701 197.485 60.3979 198.484 60.4566 200.177C60.5036 201.799 59.1296 203.046 57.5207 202.975C55.994 202.905 54.8196 201.658 54.8313 200.13Z" fill="white"/>
<path d="M235.767 40.4179C237.387 40.4062 238.703 41.7111 238.597 43.3218C238.479 45.0147 237.505 45.967 235.814 46.0493C234.205 46.1198 232.925 44.7796 232.972 43.1572C233.019 41.6171 234.228 40.4297 235.767 40.4179Z" fill="white"/>
<path d="M272.701 31.5418C272.642 29.9194 273.91 28.5674 275.519 28.6262C277.21 28.6968 278.197 29.6373 278.326 31.3302C278.443 32.9408 277.128 34.2576 275.519 34.2576C273.981 34.2576 272.759 33.0819 272.701 31.5418Z" fill="white"/>
<path d="M348.671 26.2749C348.624 24.6525 349.904 23.3123 351.513 23.3828C353.204 23.4651 354.178 24.4174 354.296 26.1103C354.402 27.7209 353.075 29.0259 351.466 29.0141C349.927 29.0024 348.718 27.815 348.671 26.2749Z" fill="white"/>
<path d="M22.6889 382.555C22.8415 381.238 23.6519 380.274 25.3077 380.215C26.8697 380.157 28.1027 381.426 27.9735 382.99C27.8444 384.624 26.8931 385.494 25.2608 385.506C23.7928 385.517 22.6771 384.33 22.6889 382.555Z" fill="white"/>
<path d="M171.951 70.244C171.998 68.6804 173.231 67.5401 174.817 67.6223C176.379 67.6929 177.518 68.9626 177.365 70.538C177.213 72.1603 176.25 73.0186 174.629 73.0421C173.044 73.0656 171.904 71.8312 171.951 70.244Z" fill="white"/>
<path d="M131.776 103.221C130.214 103.174 129.075 101.939 129.157 100.352C129.228 98.7887 130.496 97.6483 132.07 97.8012C133.69 97.954 134.548 98.918 134.571 100.54C134.606 102.116 133.362 103.268 131.776 103.221Z" fill="white"/>
<path d="M85.6234 151.258C84.0145 151.106 83.0398 150.306 82.9458 148.66C82.8636 147.097 84.1085 145.839 85.6704 145.945C87.3028 146.05 88.2305 146.979 88.2188 148.613C88.2188 150.259 87.2088 151.082 85.6234 151.258Z" fill="white"/>
<path d="M336.246 23.4063C336.117 24.7231 335.306 25.6988 333.662 25.7811C332.1 25.8634 330.855 24.6055 330.961 23.0419C331.067 21.4077 332.006 20.526 333.639 20.5025C335.118 20.4672 336.234 21.6429 336.246 23.4063Z" fill="white"/>
<path d="M61.1377 178.886C61.8423 179.815 62.8406 180.661 63.1694 181.719C63.5569 182.989 62.0185 184.447 60.6562 184.329C59.153 184.212 58.0374 183.26 58.2605 181.825C58.425 180.779 59.4819 179.885 60.1513 178.921C60.4801 178.898 60.8089 178.898 61.1377 178.886Z" fill="white"/>
<path d="M20.2579 287.974C21.1974 287.281 22.0547 286.293 23.1116 285.987C24.38 285.611 25.8127 287.187 25.6835 288.539C25.5308 290.032 24.5796 291.148 23.1351 290.89C22.1017 290.713 21.2092 289.632 20.2579 288.962C20.2579 288.633 20.2579 288.303 20.2579 287.974Z" fill="white"/>
<path d="M23.7575 269.528C24.7205 268.87 25.6013 267.894 26.6699 267.624C27.9617 267.295 29.3475 268.894 29.1713 270.246C28.9717 271.727 27.9969 272.82 26.5642 272.526C25.5308 272.315 24.6852 271.21 23.7457 270.516C23.7457 270.198 23.7575 269.858 23.7575 269.528Z" fill="white"/>
<path d="M109.451 118.246C108.805 117.27 107.842 116.376 107.584 115.307C107.267 114.013 108.888 112.638 110.238 112.838C111.718 113.049 112.798 114.037 112.493 115.483C112.27 116.517 111.166 117.352 110.45 118.281C110.109 118.269 109.78 118.257 109.451 118.246Z" fill="white"/>
<path d="M20.528 303.457C21.2326 304.386 22.2308 305.233 22.5597 306.291C22.9472 307.56 21.4088 309.018 20.0465 308.901C18.5433 308.783 17.4276 307.831 17.6508 306.397C17.8152 305.35 18.8721 304.457 19.5415 303.493C19.8703 303.469 20.1992 303.469 20.528 303.457Z" fill="white"/>
<path d="M193.431 55.0195C193.654 53.4323 194.499 52.4096 196.143 52.4683C197.764 52.5271 198.703 53.5499 198.645 55.1723C198.586 56.6771 197.623 57.6177 196.108 57.6177C194.452 57.6294 193.618 56.6066 193.431 55.0195Z" fill="white"/>
<path d="M30.1461 248.919C30.8155 249.86 32.0134 250.824 31.9781 251.753C31.9546 252.587 30.6746 253.857 29.7585 254.057C28.3141 254.374 27.1515 253.21 27.3511 251.717C27.492 250.742 28.5137 249.883 29.1361 248.966C29.4767 248.955 29.8173 248.943 30.1461 248.919Z" fill="white"/>
<path d="M16.4881 327.511C15.8657 326.535 14.7031 325.524 14.7735 324.607C14.8323 323.784 16.171 322.562 17.0871 322.409C18.5433 322.15 19.6589 323.373 19.3888 324.842C19.2127 325.818 18.144 326.629 17.4746 327.511C17.1458 327.511 16.8169 327.511 16.4881 327.511Z" fill="white"/>
<path d="M254.392 27.8503C255.355 27.2154 256.353 26.0398 257.269 26.0986C258.091 26.1574 259.325 27.4623 259.501 28.3793C259.771 29.8254 258.573 30.9658 257.105 30.7189C256.13 30.5543 255.308 29.508 254.416 28.8496C254.404 28.5204 254.404 28.1912 254.392 27.8503Z" fill="white"/>
<path d="M312.465 19.127C313.428 18.4804 314.414 17.3048 315.33 17.3635C316.164 17.4106 317.397 18.7155 317.573 19.6443C317.855 21.0903 316.657 22.2307 315.178 21.9839C314.203 21.8193 313.369 20.7729 312.476 20.1263C312.476 19.7854 312.465 19.4562 312.465 19.127Z" fill="white"/>
<path d="M32.1425 235.917C31.6141 235.058 30.5689 234.118 30.6863 233.354C30.8038 232.543 31.9194 231.426 32.7649 231.261C34.1742 230.979 35.1724 232.096 34.8906 233.507C34.7144 234.4 33.7632 235.153 33.1525 235.964C32.8237 235.952 32.4831 235.94 32.1425 235.917Z" fill="white"/>
<path d="M214.781 39.7713C215.65 39.1365 216.46 38.1489 217.411 37.9726C218.82 37.7022 219.924 38.7603 219.643 40.1593C219.466 41.0293 218.374 42.2519 217.599 42.3225C216.742 42.4165 215.755 41.3819 214.828 40.8411C214.816 40.4884 214.804 40.1358 214.781 39.7713Z" fill="white"/>
<path d="M11.0039 342.465C11.8612 341.936 12.8007 340.89 13.564 341.008C14.3743 341.125 15.49 342.242 15.6544 343.088C15.9363 344.499 14.8206 345.499 13.4114 345.216C12.5188 345.04 11.7672 344.088 10.9569 343.476C10.9804 343.147 10.9921 342.806 11.0039 342.465Z" fill="white"/>
<path d="M86.1518 129.755C87.0091 129.191 87.8899 128.156 88.7119 128.203C89.4401 128.239 90.7671 129.602 90.6614 130.143C90.4852 130.99 89.4166 132.083 88.5593 132.236C87.8899 132.365 86.9856 131.248 86.1871 130.672C86.1753 130.378 86.1636 130.061 86.1518 129.755Z" fill="white"/>
<path d="M61.7015 163.379C62.5588 162.827 63.4513 161.804 64.2734 161.851C65.0015 161.898 66.3167 163.274 66.1993 163.814C66.0231 164.661 64.931 165.731 64.0737 165.884C63.4043 166.001 62.5118 164.872 61.725 164.296C61.725 164.002 61.7132 163.697 61.7015 163.379Z" fill="white"/>
<path d="M293.886 16.4818C295.26 15.5296 296.176 14.4245 296.846 14.5656C297.691 14.7419 298.337 15.9058 299.077 16.6582C298.302 17.3518 297.585 18.4922 296.728 18.6098C296.047 18.6921 295.201 17.5164 293.886 16.4818Z" fill="white"/>
<path d="M153.937 66.5055C154.723 65.9294 155.557 64.8361 156.274 64.9066C157.037 64.9772 158.106 66.0823 158.258 66.8817C158.364 67.4225 157.166 68.7275 156.473 68.7745C155.686 68.8333 154.817 67.8928 153.984 67.399C153.96 67.1051 153.948 66.7994 153.937 66.5055Z" fill="white"/>
<path d="M33.8806 214.614C34.6791 214.061 35.5482 213.003 36.2645 213.086C37.0279 213.18 38.0613 214.308 38.1905 215.119C38.2845 215.66 37.0396 216.918 36.3468 216.965C35.5599 217.012 34.7144 216.048 33.904 215.519C33.8923 215.214 33.8806 214.908 33.8806 214.614Z" fill="white"/>
<path d="M135.487 79.7903C135.992 80.625 137.002 81.5538 136.873 82.2591C136.732 83.0116 135.546 83.9756 134.724 84.0579C134.184 84.1167 132.997 82.7999 132.997 82.1063C133.009 81.3186 134.019 80.531 134.595 79.7433C134.888 79.7668 135.182 79.7785 135.487 79.7903Z" fill="white"/>
<path d="M174.946 52.1039C176.226 51.1398 176.954 50.1523 177.624 50.2111C178.328 50.2581 178.951 51.2927 179.62 51.904C179.021 52.5624 178.481 53.6557 177.788 53.7615C177.13 53.8673 176.308 52.9503 174.946 52.1039Z" fill="white"/>
<path d="M7.72742 361.334C9.07794 360.488 9.90001 359.571 10.5577 359.677C11.2505 359.794 12.284 360.888 12.2605 361.523C12.237 362.157 11.1213 363.168 10.4167 363.227C9.74731 363.274 9.00748 362.287 7.72742 361.334Z" fill="white"/>
<path d="M238.973 28.0854C238.01 26.804 237.023 26.0751 237.082 25.405C237.129 24.6996 238.162 24.0765 238.773 23.4063C239.431 24.0059 240.523 24.5467 240.629 25.2403C240.722 25.9105 239.818 26.7334 238.973 28.0854Z" fill="white"/>
<path d="M39.2239 199.695C38.4254 198.461 37.5094 197.649 37.6503 197.12C37.8382 196.403 38.8364 195.909 39.494 195.31C40.0343 195.945 40.962 196.556 40.9972 197.226C41.0207 197.849 40.1047 198.519 39.2239 199.695Z" fill="white"/>
<path d="M196.637 37.1497C197.811 36.3385 198.492 35.5155 199.161 35.5155C199.725 35.5272 200.277 36.503 200.829 37.0556C200.242 37.6434 199.725 38.5722 199.044 38.7132C198.527 38.8426 197.799 37.9609 196.637 37.1497Z" fill="white"/>
<path d="M278.584 10.6036C279.383 11.791 280.205 12.4846 280.181 13.1548C280.17 13.7191 279.042 14.7771 278.643 14.6831C277.95 14.5067 277.116 13.672 276.975 12.9902C276.87 12.4729 277.762 11.744 278.584 10.6036Z" fill="white"/>
<path d="M373.18 8.73433C374.096 9.89822 375.082 10.6154 374.988 11.1562C374.859 11.8851 373.908 12.4729 373.309 13.1077C372.722 12.5317 371.735 12.0026 371.641 11.3443C371.559 10.7447 372.405 9.99227 373.18 8.73433Z" fill="white"/>
<path d="M355.012 10.3214C354.202 9.1458 353.38 8.46393 353.38 7.79381C353.392 7.2295 354.366 6.67693 354.918 6.12438C355.505 6.7122 356.433 7.22951 356.574 7.91138C356.703 8.42867 355.823 9.15755 355.012 10.3214Z" fill="white"/>
<path d="M110.943 96.9312C112.176 96.12 112.974 95.1912 113.503 95.3323C114.219 95.5204 114.724 96.508 115.323 97.1546C114.689 97.6954 114.09 98.6359 113.432 98.6711C112.81 98.7182 112.129 97.8129 110.943 96.9312Z" fill="white"/>
<path d="M92.0589 114.566C91.3661 113.473 90.6379 112.814 90.6732 112.191C90.6967 111.674 91.7771 110.722 92.1294 110.827C92.7636 111.015 93.5152 111.791 93.6326 112.438C93.7031 112.896 92.8575 113.543 92.0589 114.566Z" fill="white"/>
<path d="M64.9897 145.474C66.0701 144.769 66.716 144.017 67.3384 144.04C67.8552 144.052 68.8299 145.11 68.7242 145.474C68.5481 146.109 67.7847 146.873 67.1388 147.003C66.6808 147.097 66.0349 146.25 64.9897 145.474Z" fill="white"/>
<path d="M4.73266 379.545C5.73088 378.711 6.32983 377.829 6.81132 377.899C7.45722 377.993 7.99741 378.793 8.58459 379.298C8.11485 379.851 7.68035 380.791 7.17537 380.838C6.55296 380.897 5.86006 380.192 4.73266 379.545Z" fill="white"/>
<path d="M336.598 7.04138C335.893 5.95979 335.142 5.31318 335.165 4.69009C335.177 4.17281 336.234 3.19703 336.598 3.30284C337.232 3.47919 337.996 4.24336 338.125 4.88997C338.219 5.34847 337.373 6.00681 336.598 7.04138Z" fill="white"/>
<path d="M4.70922 286.728C4.18076 285.905 3.51135 285.305 3.62879 284.965C3.80494 284.447 4.52132 284.106 5.00281 283.683C5.36687 284.153 6.01276 284.612 6.01276 285.082C6.01276 285.529 5.34338 285.976 4.70922 286.728Z" fill="white"/>
<path d="M1.14441e-05 303.164C0.822071 302.646 1.43277 301.988 1.78508 302.105C2.3018 302.282 2.63062 303.011 3.02991 303.504C2.56016 303.857 2.07865 304.504 1.62065 304.492C1.16264 304.492 0.739865 303.81 1.14441e-05 303.164Z" fill="white"/>
<path d="M219.184 21.9721C219.913 21.3255 220.418 20.5613 220.77 20.6318C221.31 20.7259 221.745 21.396 222.226 21.8192C221.815 22.2425 221.451 22.9479 220.993 23.0184C220.547 23.0772 220.007 22.4894 219.184 21.9721Z" fill="white"/>
<path d="M2.17262 397.603C2.99468 397.074 3.59361 396.404 3.93417 396.522C4.4509 396.698 4.79146 397.415 5.21423 397.897C4.74449 398.261 4.28648 398.908 3.81673 398.908C3.37047 398.92 2.92422 398.25 2.17262 397.603Z" fill="white"/>
<path d="M40.8681 178.863C41.7019 178.169 42.2538 177.37 42.6414 177.452C43.2168 177.558 43.6748 178.287 44.1798 178.757C43.7335 179.204 43.3225 179.956 42.8293 180.027C42.3478 180.097 41.7841 179.439 40.8681 178.863Z" fill="white"/>
<path d="M260.746 11.791C260.135 11.0268 259.407 10.486 259.489 10.1334C259.618 9.60431 260.299 9.2046 260.746 8.7461C261.145 9.18109 261.826 9.58082 261.873 10.0393C261.908 10.4861 261.297 10.9916 260.746 11.791Z" fill="white"/>
<path d="M11.3679 250.448C10.7807 249.66 10.0761 249.096 10.17 248.755C10.311 248.226 11.0039 247.849 11.4736 247.403C11.8612 247.849 12.5305 248.273 12.5658 248.731C12.5893 249.178 11.9551 249.66 11.3679 250.448Z" fill="white"/>
<path d="M8.33803 268.364C7.7391 267.589 7.02273 267.036 7.11668 266.683C7.2576 266.154 7.93873 265.766 8.39673 265.308C8.79602 265.743 9.46541 266.166 9.50065 266.624C9.53588 267.083 8.91347 267.577 8.33803 268.364Z" fill="white"/>
<path d="M318.231 3.05594C317.691 2.24474 317.01 1.64518 317.127 1.30424C317.291 0.775199 318.008 0.434243 318.489 -0.000745535C318.865 0.457756 319.511 0.916249 319.523 1.38651C319.511 1.83325 318.853 2.29177 318.231 3.05594Z" fill="white"/>
</g>
<defs>
<clipPath id="clip0_52_355">
<rect width="375" height="402" fill="white" transform="translate(375 402) rotate(-180)"/>
</clipPath>
</defs>
</svg>
