<svg width="109" height="31" viewBox="0 0 109 31" fill="none" xmlns="http://www.w3.org/2000/svg">
<g clip-path="url(#clip0_214_343)">
<path d="M25.3862 5.92243C24.2336 7.08994 23.1579 8.17378 22.015 9.32961C21.8469 9.13503 21.6692 8.90866 21.4688 8.7037C19.832 7.02443 17.8578 5.99896 15.5358 5.68503C11.087 5.08376 7.0442 7.46029 5.49664 11.6925C4.21217 15.2041 4.39382 18.6716 6.34993 21.9115C7.89038 24.4638 10.2221 25.8856 13.1847 26.1924C16.3302 26.5167 19.0388 25.5308 21.3071 23.3235C21.5767 23.0641 21.8398 22.791 22.0454 22.5847L25.3997 25.7513C25.3753 25.8129 25.3455 25.8721 25.3105 25.9284C22.9013 28.6273 19.938 30.326 16.3451 30.8209C8.83483 31.8587 2.35819 27.3599 0.554634 20.1135C-0.510045 15.8326 -0.074987 11.6893 2.15392 7.84363C4.40352 3.96295 7.79795 1.64155 12.2344 1.05066C17.1157 0.402047 21.3278 1.88414 24.7921 5.43078C24.9796 5.62017 25.2039 5.77389 25.3862 5.92243Z" fill="white"/>
<path d="M95.7888 30.5606H91.0756V0.0107422H95.7868V11.2195C95.9485 11.119 96.0454 11.0567 96.143 10.9977C99.1599 9.20748 102.236 9.05182 105.302 10.8031C107.101 11.8318 108.115 13.5175 108.588 15.4997C108.827 16.4742 108.957 17.4723 108.976 18.4756C109.019 22.4101 108.994 26.3452 108.994 30.2804C108.994 30.3654 108.986 30.4503 108.982 30.5561H104.274C104.268 30.4166 104.256 30.2785 104.256 30.1403C104.256 26.4004 104.27 22.6598 104.244 18.9192C104.246 18.1754 104.154 17.4343 103.969 16.7139C103.516 15.0502 102.384 14.2557 100.672 14.3102C99.7366 14.34 98.8367 14.5404 98.0125 15.0094C96.7571 15.7228 96.1017 16.8437 95.8838 18.2388C95.8174 18.7093 95.7872 19.1842 95.7933 19.6593C95.7864 23.1506 95.7851 26.6421 95.7894 30.1338L95.7888 30.5606Z" fill="white"/>
<path d="M55.0692 30.5587H50.3793V29.3431L50.0115 29.5643C47.0463 31.3396 44.0067 31.5102 40.9614 29.8406C39.0802 28.808 38.0621 27.0672 37.523 25.026C37.234 23.9317 37.1448 22.8135 37.1442 21.6875C37.1403 17.9048 37.1403 14.1212 37.1442 10.3367V10.0254H41.8877V10.4327C41.8877 14.2916 41.889 18.15 41.8916 22.0079C41.8916 22.8369 42.0209 23.645 42.3564 24.4078C42.8929 25.6162 43.8387 26.2479 45.147 26.2428C45.7912 26.2438 46.4327 26.1603 47.0553 25.9943C49.0095 25.456 50.2125 23.9188 50.3146 21.8847C50.3605 20.9766 50.3618 20.0686 50.3631 19.1605C50.3687 16.2634 50.3687 13.3662 50.3631 10.469V10.0254H55.0692V30.5587Z" fill="white"/>
<path d="M88.753 13.0473L85.3747 16.4091C85.1446 16.2093 84.8977 15.9914 84.6468 15.7773C82.6603 14.0786 79.5788 13.814 77.3324 15.1501C75.2289 16.4007 74.4312 18.6818 74.64 20.858C74.8139 22.6741 75.5909 24.1659 77.1049 25.218C79.306 26.7519 82.5304 26.5762 84.5609 24.8236C84.8298 24.5914 85.0903 24.3495 85.4058 24.0667L88.6224 27.5199C88.0471 28.1037 87.3386 28.7575 86.5137 29.2751C84.3753 30.6171 82.0411 31.1405 79.5394 30.9109C76.4365 30.6248 73.9024 29.2777 72.0181 26.774C70.7375 25.0733 70.0865 23.1301 69.9495 21.0071C69.7969 18.5995 70.2727 16.3371 71.5792 14.2972C73.1752 11.8046 75.4823 10.3406 78.3596 9.81007C81.2369 9.2795 83.9649 9.69656 86.4556 11.2772C87.2617 11.7871 87.9728 12.4402 88.753 13.0473Z" fill="white"/>
<path d="M60.5994 10.0026V3.11426H65.3475V9.9896H69.2261V14.4651H65.354V30.5553H60.6117V14.4696H57.3149V9.99998L60.5994 10.0026Z" fill="white"/>
<path d="M28.4225 0H33.0768V30.5531H28.4225V0Z" fill="white"/>
<path d="M80.668 23.8438C82.6316 23.8438 84.2234 22.2466 84.2234 20.2764C84.2234 18.3062 82.6316 16.709 80.668 16.709C78.7044 16.709 77.1126 18.3062 77.1126 20.2764C77.1126 22.2466 78.7044 23.8438 80.668 23.8438Z" fill="#2BC4F7"/>
</g>
<defs>
<clipPath id="clip0_214_343">
<rect width="109" height="31" fill="white"/>
</clipPath>
</defs>
</svg>
