<svg width="60" height="60" viewBox="0 0 60 60" fill="none" xmlns="http://www.w3.org/2000/svg">
<rect opacity="0.2" width="60" height="60" rx="15" fill="#150941"/>
<g clip-path="url(#clip0_340_9121)">
<path d="M13.333 25.4668V25.4501C13.3975 25.2619 13.5375 25.1221 13.6497 24.9667C14.0648 24.3907 14.4804 23.815 14.8967 23.2396C15.3937 22.5511 15.8933 21.8642 16.3872 21.1727C16.9472 20.3892 17.5356 19.627 18.1142 18.8572C18.8913 17.8238 19.6687 16.7903 20.4465 15.7569C20.4618 15.7337 20.4801 15.7127 20.501 15.6944C20.5296 15.6721 20.5561 15.6681 20.5763 15.7059C20.593 15.7689 20.5885 15.8331 20.583 15.8964C20.5663 16.0871 20.5646 16.2785 20.553 16.4693C20.5353 16.7627 20.5288 17.0564 20.5063 17.3494C20.4968 17.4739 20.4958 17.5994 20.491 17.7234C20.4798 18.0171 20.462 18.3105 20.4508 18.6042C20.4371 18.9644 20.4148 19.3241 20.3995 19.6843C20.3903 19.901 20.3811 20.1164 20.3674 20.3321C20.3423 20.7248 20.3319 21.1183 20.3078 21.5112C20.2981 21.6687 20.2924 21.8279 20.2851 21.9849C20.2713 22.2838 20.2631 22.5831 20.2399 22.8817C20.2306 23.0034 20.2279 23.1257 20.2233 23.2474C20.2136 23.5439 20.1953 23.8401 20.1829 24.1365C20.1683 24.4939 20.1441 24.8507 20.1343 25.2083C20.1329 25.2554 20.1216 25.3016 20.1176 25.3486C20.1143 25.3845 20.1314 25.3915 20.1594 25.3938C20.2 25.4188 20.2472 25.4308 20.2948 25.4283C20.3254 25.4283 20.3559 25.4283 20.3864 25.4283C26.7967 25.4283 33.207 25.4283 39.6172 25.4283C39.6904 25.4283 39.7688 25.4463 39.8331 25.391C39.8497 25.3833 39.8631 25.37 39.8708 25.3535C39.8786 25.3369 39.8802 25.3181 39.8754 25.3004C39.8486 25.1523 39.8576 25.0014 39.8508 24.8524C39.8369 24.5534 39.8246 24.254 39.8086 23.9551C39.7881 23.5706 39.7753 23.1855 39.7504 22.801C39.7401 22.6382 39.7346 22.4743 39.7272 22.311C39.7142 22.0174 39.7056 21.7237 39.6824 21.4309C39.6722 21.301 39.6704 21.1703 39.6657 21.0403C39.6561 20.7438 39.6366 20.4477 39.6249 20.1514C39.6114 19.8025 39.5932 19.4536 39.5749 19.1049C39.5582 18.7672 39.5427 18.4294 39.5257 18.0918C39.5077 17.7346 39.4924 17.3774 39.4745 17.0204C39.4579 16.6827 39.4372 16.3451 39.4264 16.0073C39.4232 15.9134 39.3987 15.8202 39.4199 15.7259C39.4619 15.6606 39.4961 15.7059 39.5227 15.7381C39.5971 15.8277 39.6646 15.9231 39.7342 16.0164C40.4073 16.9194 41.0843 17.8195 41.7653 18.7167C42.6299 19.8608 43.4865 21.0108 44.3224 22.1764C45.0565 23.1997 45.7944 24.2203 46.536 25.2383C46.5737 25.2898 46.6418 25.3383 46.6027 25.4208C46.5673 25.4541 46.5235 25.4413 46.4833 25.4413C44.3573 25.4413 42.2313 25.4416 40.1053 25.4421C40.0595 25.4421 40.0096 25.4295 39.9719 25.4705C39.9337 25.5066 39.9027 25.5497 39.8806 25.5975C39.615 26.1162 39.3496 26.635 39.0843 27.154C38.8483 27.616 38.6119 28.078 38.3751 28.5398C38.1394 28.999 37.904 29.4584 37.669 29.9181C37.437 30.3698 37.2054 30.8218 36.9743 31.2741C36.7386 31.7335 36.5032 32.193 36.2682 32.6526C36.0302 33.117 35.7924 33.5815 35.555 34.0461C35.3206 34.503 35.0866 34.9601 34.8529 35.4172C34.6208 35.8692 34.3893 36.3213 34.1581 36.7735C33.9174 37.2429 33.6772 37.7124 33.4374 38.182C33.204 38.6365 32.9712 39.0911 32.739 39.5458C32.5046 40.0027 32.2705 40.4597 32.0367 40.917C31.8049 41.369 31.5733 41.8212 31.342 42.2733C31.1 42.745 30.8608 43.2183 30.6167 43.689C30.4252 44.0583 30.2445 44.4336 30.0385 44.7956C30.0271 44.8091 30.0116 44.8184 29.9943 44.8223C29.983 44.8216 29.972 44.8182 29.9623 44.8124C29.9525 44.8066 29.9443 44.7985 29.9383 44.7889C29.9158 44.7263 29.8859 44.6666 29.8493 44.6111C29.8045 44.5409 29.7639 44.4682 29.7276 44.3932C29.538 44.004 29.3349 43.6213 29.1386 43.2354C28.8993 42.7656 28.6592 42.2961 28.4182 41.8271C28.1848 41.373 27.9531 40.918 27.7198 40.4638C27.4852 40.0071 27.2512 39.5501 27.0177 39.0928C26.7793 38.6287 26.5415 38.1644 26.3043 37.6996C26.0684 37.2405 25.8331 36.781 25.5985 36.3213C25.3692 35.8745 25.1401 35.4275 24.9114 34.9802C24.6734 34.5158 24.4356 34.0514 24.198 33.5869C23.9622 33.1278 23.727 32.6684 23.4923 32.2085C23.2556 31.7466 23.019 31.2847 22.7825 30.8229C22.5544 30.3784 22.3266 29.9339 22.0991 29.4894C21.8596 29.0227 21.6206 28.556 21.3824 28.0893C21.1467 27.63 20.9128 27.1698 20.6765 26.7109C20.4885 26.3459 20.3015 25.9802 20.1156 25.614C20.0729 25.5296 20.0221 25.5005 19.9289 25.5006C18.1044 25.503 16.2799 25.5036 14.4555 25.5025C14.1305 25.5025 13.8056 25.5025 13.4807 25.5025C13.4305 25.5023 13.3767 25.5058 13.333 25.4668Z" fill="#FEAD00"/>
<path d="M39.4509 15.6983C39.4621 16.0164 39.4742 16.3342 39.4976 16.6518C39.5064 16.7703 39.5056 16.8895 39.5132 17.0085C39.5329 17.315 39.5341 17.6227 39.5516 17.9296C39.5716 18.2796 39.5849 18.6317 39.6029 18.9827C39.6192 19.32 39.6356 19.6572 39.6519 19.9943C39.6686 20.3482 39.6881 20.7019 39.7029 21.0558C39.7119 21.2686 39.7241 21.4813 39.7348 21.6942C39.7529 22.059 39.7716 22.4239 39.7863 22.789C39.7946 22.999 39.8096 23.2088 39.8183 23.419C39.8349 23.8087 39.8614 24.1979 39.8811 24.5875C39.8906 24.7755 39.8956 24.9639 39.8994 25.1522C39.9014 25.2451 39.934 25.3371 39.9096 25.4309C39.8806 25.4349 39.8718 25.4074 39.8519 25.4001C39.7961 25.4029 39.7686 25.3604 39.7376 25.3262C39.4351 24.9902 39.126 24.6595 38.8208 24.3261C38.4399 23.9114 38.059 23.4966 37.678 23.0818C37.368 22.7453 37.0585 22.4083 36.7494 22.0707C36.3707 21.6577 35.9916 21.2451 35.612 20.8329C35.2985 20.4919 34.985 20.1507 34.6715 19.8095C34.2948 19.3983 33.9178 18.9876 33.5404 18.5775C33.2959 18.3124 33.0521 18.0467 32.8088 17.7804C32.4673 17.4049 32.1219 17.0328 31.7799 16.6576C31.5594 16.4158 31.3352 16.1771 31.1145 15.9352C30.8378 15.6322 30.5561 15.3336 30.2832 15.0269C30.2096 14.9436 30.131 14.8652 30.0582 14.7816C30.0177 14.7351 29.9834 14.7352 29.9427 14.7816C29.8073 14.9359 29.6637 15.0828 29.526 15.2355C29.374 15.4046 29.2198 15.5718 29.0663 15.7393C28.7682 16.0645 28.47 16.3894 28.1715 16.7141C27.9576 16.9475 27.7424 17.179 27.5289 17.4124C27.2444 17.7234 26.9569 18.0319 26.6738 18.3445C26.5248 18.509 26.3725 18.6703 26.2228 18.8342C25.9346 19.1496 25.6434 19.4619 25.356 19.7785C25.207 19.9428 25.0546 20.1043 24.905 20.2683C24.6168 20.5837 24.3256 20.8964 24.0382 21.2128C23.8882 21.3771 23.7367 21.5387 23.587 21.7025C23.299 22.0179 23.0074 22.3299 22.7202 22.6468C22.577 22.8053 22.4307 22.9608 22.2868 23.1182C21.9925 23.4392 21.698 23.7601 21.4034 24.0808C21.1941 24.3103 20.982 24.5375 20.7725 24.767C20.6058 24.9494 20.4356 25.128 20.2725 25.3127C20.2391 25.3511 20.2096 25.4004 20.1473 25.3994C20.1274 25.4066 20.1186 25.4342 20.0886 25.4299C20.0719 25.3502 20.0929 25.2719 20.0976 25.1929C20.1046 25.0762 20.1051 24.9607 20.1126 24.8443C20.1321 24.546 20.1344 24.2466 20.1506 23.9481C20.1697 23.5914 20.1869 23.2347 20.2021 22.878C20.2115 22.6623 20.2251 22.4469 20.2343 22.2312C20.251 21.8413 20.2765 21.452 20.2975 21.0624C20.3041 20.9381 20.3045 20.8136 20.3128 20.6889C20.3326 20.3879 20.3345 20.0857 20.3508 19.7843C20.3698 19.4333 20.388 19.0822 20.4021 18.7308C20.4111 18.507 20.424 18.283 20.4355 18.0591C20.4521 17.7052 20.471 17.3514 20.4855 16.9973C20.495 16.7761 20.508 16.5551 20.5188 16.3339C20.5292 16.1184 20.5435 15.9029 20.55 15.687C20.5578 15.641 20.5935 15.635 20.6305 15.6305C20.9415 15.5927 21.2534 15.5638 21.5639 15.5288C21.9026 15.491 22.2418 15.4556 22.5807 15.4186C22.8589 15.3883 23.1374 15.3596 23.4158 15.3296C23.7603 15.2924 24.1048 15.2553 24.4493 15.2183C24.7248 15.1881 25.0005 15.1598 25.2762 15.1301L26.3178 15.0181C26.5988 14.9879 26.8802 14.9591 27.1612 14.9286C27.5002 14.8919 27.8392 14.8554 28.178 14.8191C28.459 14.7884 28.7407 14.7626 29.0213 14.7282C29.3018 14.6939 29.5848 14.6961 29.8653 14.6659H30.132C30.3022 14.6881 30.4737 14.6874 30.6446 14.6982C30.891 14.7136 31.1353 14.7471 31.3805 14.7716C31.6672 14.8002 31.9536 14.8327 32.2401 14.8632C32.5156 14.8925 32.7911 14.9219 33.0667 14.9516C33.3035 14.9769 33.5403 15.0027 33.7771 15.0288C34.1241 15.0671 34.4712 15.1036 34.8182 15.1408C35.1016 15.1711 35.386 15.2001 35.6696 15.231C36.0084 15.2678 36.3472 15.3036 36.6864 15.3406C36.9673 15.3715 37.2485 15.4 37.5295 15.4303C37.8683 15.4669 38.2073 15.5033 38.5463 15.5397C38.7797 15.5652 39.0143 15.5928 39.249 15.6128C39.2962 15.6168 39.3421 15.6273 39.3889 15.6335C39.4242 15.6388 39.4524 15.6553 39.4509 15.6983Z" fill="#FDD205"/>
<path d="M46.6665 25.4835C46.5285 25.6121 46.4153 25.763 46.2926 25.9052C45.1652 27.213 44.0387 28.5215 42.9133 29.8308C41.7998 31.1249 40.6866 32.4192 39.5736 33.7135C38.4926 34.9692 37.4114 36.2252 36.33 37.4814C35.0807 38.9333 33.8316 40.3854 32.583 41.8378C31.7555 42.7994 30.9277 43.7606 30.0993 44.7214C30.077 44.7474 30.0618 44.7846 30.0205 44.7902C30.0792 44.6464 30.157 44.5119 30.228 44.3735C30.4431 43.9568 30.6532 43.5374 30.8661 43.1194C31.108 42.6447 31.3485 42.1693 31.5937 41.6962C31.8263 41.248 32.0567 40.7986 32.2851 40.3483C32.5211 39.8862 32.7576 39.4244 32.9947 38.9628C33.2297 38.5033 33.4649 38.0439 33.7004 37.5846C33.9361 37.1224 34.1763 36.6624 34.4093 36.1986C34.621 35.7773 34.8402 35.3594 35.0554 34.9397C35.4122 34.2435 35.7689 33.547 36.1253 32.8503C36.3754 32.361 36.6227 31.8703 36.8754 31.3826C37.1088 30.9317 37.3405 30.4798 37.5705 30.0271C37.805 29.5674 38.0417 29.1087 38.2762 28.649C38.5108 28.1893 38.7501 27.7257 38.9857 27.2633C39.2212 26.8009 39.4612 26.3466 39.6906 25.8848C39.7509 25.763 39.8166 25.644 39.8799 25.5236C39.8926 25.4995 39.9011 25.4713 39.9331 25.4641C39.971 25.4466 40.0126 25.4386 40.0543 25.4406H46.5728C46.6062 25.4406 46.6395 25.4388 46.6658 25.4658L46.6665 25.4835Z" fill="#EB6B00"/>
<path d="M29.9632 44.7878C29.7299 44.5197 29.4965 44.2527 29.2645 43.9837C28.5579 43.1634 27.8518 42.3427 27.1463 41.5217C26.4407 40.7008 25.7347 39.8801 25.028 39.0596C24.3254 38.2432 23.6227 37.427 22.92 36.6109C22.1849 35.7567 21.4499 34.9023 20.7151 34.0478C20.0109 33.2291 19.3064 32.4107 18.6017 31.5925C17.899 30.7761 17.1967 29.9593 16.4946 29.1422C15.7595 28.288 15.0243 27.4339 14.2889 26.5798C13.9955 26.2388 13.7022 25.8979 13.4091 25.557C13.3861 25.5303 13.3689 25.497 13.3333 25.483V25.4663C15.5469 25.4663 17.7607 25.4657 19.9745 25.4645C20.0558 25.4645 20.0968 25.4908 20.133 25.5628C20.415 26.1232 20.7012 26.6816 20.9866 27.2402C21.2228 27.7024 21.4595 28.1645 21.6967 28.6263C21.9319 29.0858 22.1671 29.5454 22.4023 30.0051C22.6339 30.4572 22.8657 30.9092 23.0975 31.3613C23.3379 31.8309 23.578 32.3005 23.8181 32.7699C24.0514 33.2247 24.2843 33.6793 24.5168 34.1338L25.2154 35.4974C25.4495 35.9546 25.6836 36.4117 25.9176 36.8687C26.1556 37.3332 26.3935 37.7977 26.6314 38.2622C26.8654 38.7194 27.0994 39.1765 27.3335 39.6337L28.032 40.9974C28.2662 41.4544 28.5003 41.9115 28.7343 42.3687C28.9733 42.8354 29.2122 43.3021 29.451 43.7688C29.6084 44.075 29.7677 44.3802 29.9251 44.6856C29.9419 44.7191 29.9646 44.7489 29.9632 44.7878Z" fill="#EB6B00"/>
<path d="M46.6016 25.3793L46.6666 25.4501V25.4668H40.0589C40.0172 25.4668 39.9755 25.4668 39.9338 25.4654C39.958 25.4294 39.994 25.4183 40.0338 25.4173C40.0617 25.4173 40.0894 25.4173 40.1172 25.4173C42.2396 25.4173 44.3624 25.4169 46.4854 25.4163C46.5261 25.4158 46.5782 25.4386 46.6016 25.3793Z" fill="#FEAD00"/>
<path d="M20.1478 25.4003C20.4665 25.0519 20.7851 24.7036 21.1037 24.3554C21.96 23.4226 22.8166 22.4899 23.6733 21.5574C24.3214 20.8519 24.9696 20.1462 25.618 19.4405L28.3737 16.4402C28.8941 15.8734 29.4141 15.3067 29.9339 14.74C29.986 14.6828 30.0137 14.6826 30.066 14.74C30.8492 15.5967 31.6338 16.4524 32.4198 17.3069C33.0059 17.945 33.5921 18.5829 34.1786 19.2206C35.0993 20.2227 36.0197 21.225 36.9398 22.2275C37.5258 22.8655 38.1121 23.5034 38.6986 24.1412C39.0837 24.5604 39.4681 24.9803 39.8519 25.4006C39.8561 25.4485 39.8394 25.475 39.7863 25.4663C39.7724 25.4652 39.7585 25.4652 39.7446 25.4663C33.2482 25.4663 26.7518 25.4663 20.2553 25.4663C20.2101 25.4648 20.1403 25.4935 20.1478 25.4003Z" fill="#FEEEB3"/>
</g>
<defs>
<clipPath id="clip0_340_9121">
<rect width="33.3333" height="30.1553" fill="white" transform="translate(13.3333 14.6667)"/>
</clipPath>
</defs>
</svg>
