<svg width="60" height="60" viewBox="0 0 60 60" fill="none" xmlns="http://www.w3.org/2000/svg">
<rect opacity="0.2" width="60" height="60" rx="15" fill="#150941"/>
<g clip-path="url(#clip0_340_9130)">
<path d="M20.771 49.0788C24.8788 49.0788 28.2088 45.7481 28.2088 41.6394C28.2088 37.5307 24.8788 34.2 20.771 34.2C16.6633 34.2 13.3333 37.5307 13.3333 41.6394C13.3333 45.7481 16.6633 49.0788 20.771 49.0788Z" fill="#FEDF8F"/>
<path d="M46.3154 11.9754C39.8548 23.1799 28.0229 30.8879 14.3398 31.5864C14.2211 31.5929 14.1023 31.575 13.9907 31.534C13.8791 31.493 13.7771 31.4297 13.6908 31.3478C13.6045 31.266 13.5359 31.1674 13.489 31.0582C13.4421 30.9489 13.418 30.8312 13.4182 30.7123V10.6666H45.5599C45.7128 10.6671 45.8629 10.7077 45.9953 10.7844C46.1276 10.8611 46.2375 10.9712 46.314 11.1036C46.3905 11.2361 46.4309 11.3864 46.4311 11.5393C46.4313 11.6923 46.3914 11.8427 46.3154 11.9754Z" fill="#FE6251"/>
<path d="M46.4286 30.4706C47.1694 28.435 46.12 26.1842 44.0849 25.4433C42.0497 24.7024 39.7994 25.752 39.0587 27.7876L33.3935 43.356C32.6528 45.3916 33.7021 47.6424 35.7373 48.3833C37.7724 49.1242 40.0227 48.0746 40.7635 46.039L46.4286 30.4706Z" fill="#3366FE"/>
</g>
<defs>
<clipPath id="clip0_340_9130">
<rect width="33.3333" height="38.4114" fill="white" transform="translate(13.3333 10.6666)"/>
</clipPath>
</defs>
</svg>
