<svg width="39" height="58" viewBox="0 0 39 58" fill="none" xmlns="http://www.w3.org/2000/svg">
<g clip-path="url(#clip0_1007_3)">
<path d="M9.96836 57.5C12.5194 57.5 14.966 56.4991 16.7698 54.7175C18.5737 52.9359 19.5871 50.5196 19.5871 48V38.5H9.96836C8.70521 38.5 7.45442 38.7457 6.28742 39.2231C5.12042 39.7006 4.06006 40.4003 3.16688 41.2825C2.27369 42.1646 1.56518 43.2119 1.08179 44.3645C0.598406 45.5171 0.349609 46.7524 0.349609 48C0.349609 49.2476 0.598406 50.4829 1.08179 51.6355C1.56518 52.7881 2.27369 53.8354 3.16688 54.7175C4.06006 55.5997 5.12042 56.2994 6.28742 56.7769C7.45442 57.2543 8.70521 57.5 9.96836 57.5Z" fill="#0ACF83"/>
<path d="M0.349609 29C0.349609 26.4804 1.36301 24.0641 3.16688 22.2825C4.97074 20.5009 7.41731 19.5 9.96836 19.5H19.5871V38.5H9.96836C7.41731 38.5 4.97074 37.4991 3.16688 35.7175C1.36301 33.9359 0.349609 31.5196 0.349609 29Z" fill="#A259FF"/>
<path d="M0.349609 10C0.349609 7.48044 1.36301 5.06408 3.16688 3.28249C4.97074 1.50089 7.41731 0.5 9.96836 0.5H19.5871V19.5H9.96836C7.41731 19.5 4.97074 18.4991 3.16688 16.7175C1.36301 14.9359 0.349609 12.5196 0.349609 10Z" fill="#F24E1E"/>
<path d="M19.5879 0.555908H29.2066C31.7577 0.555908 34.2043 1.5568 36.0081 3.33839C37.812 5.11999 38.8254 7.53635 38.8254 10.0559C38.8254 12.5755 37.812 14.9918 36.0081 16.7734C34.2043 18.555 31.7577 19.5559 29.2066 19.5559H19.5879V0.555908Z" fill="#FF7262"/>
<path d="M38.8254 29C38.8254 30.8789 38.2613 32.7157 37.2043 34.2779C36.1474 35.8402 34.6452 37.0578 32.8876 37.7769C31.13 38.4959 29.196 38.684 27.3301 38.3175C25.4643 37.9509 23.7504 37.0461 22.4052 35.7175C21.06 34.3889 20.1439 32.6962 19.7727 30.8534C19.4016 29.0105 19.5921 27.1004 20.3201 25.3645C21.0481 23.6286 22.281 22.1449 23.8628 21.101C25.4445 20.0572 27.3042 19.5 29.2066 19.5C31.7577 19.5 34.2043 20.5009 36.0081 22.2825C37.812 24.0641 38.8254 26.4804 38.8254 29Z" fill="#1ABCFE"/>
</g>
<defs>
<clipPath id="clip0_1007_3">
<rect width="38.475" height="57" fill="white" transform="translate(0.349609 0.5)"/>
</clipPath>
</defs>
</svg>
