<svg width="60" height="60" viewBox="0 0 60 60" fill="none" xmlns="http://www.w3.org/2000/svg">
<rect opacity="0.2" width="60" height="60" rx="15" fill="#150941"/>
<g clip-path="url(#clip0_388_99)">
<path d="M25.1381 18.1998C25.3599 17.7966 25.5723 17.3894 25.8622 17.0305C26.7128 15.9771 27.7886 15.3099 29.1005 15.0832C30.6462 14.8162 32.0478 15.1952 33.2925 16.1711C33.8956 16.6435 34.3465 17.2489 34.722 17.922C35.7184 19.7082 36.7187 21.4918 37.723 23.2727C38.8008 25.1945 39.8781 27.1165 40.9548 29.0387C42.0292 30.954 43.1039 32.8688 44.1789 34.7831C44.5981 35.5342 45.0389 36.273 45.4283 37.0405C45.7672 37.71 45.9591 38.4477 45.9908 39.2017C46.0394 40.2114 45.8546 41.1695 45.3886 42.061C44.5839 43.6009 43.3441 44.5754 41.675 44.891C39.7057 45.2636 38.028 44.6461 36.6666 43.1364C36.3381 42.7716 36.0985 42.342 35.8585 41.9133C34.8221 40.0636 33.7846 38.2144 32.7458 36.3658C31.8857 34.8325 31.0258 33.299 30.1663 31.7653C30.1148 31.6741 30.0554 31.5863 30.0004 31.4969C29.9254 31.4543 29.8844 31.3809 29.844 31.3086C28.8849 29.5882 27.9172 27.8728 26.9544 26.1554C26.4524 25.2599 25.9523 24.3638 25.4461 23.4709C25.052 22.7747 24.7432 22.0453 24.6652 21.2363C24.5911 20.469 24.5964 19.7038 24.8266 18.9573C24.8819 18.8204 24.9116 18.6734 24.979 18.5409C25.04 18.4301 25.0802 18.3106 25.1381 18.1998Z" fill="#4385F5"/>
<path d="M24.8732 18.9563C24.7813 19.3629 24.7002 19.7703 24.6793 20.1899C24.6248 21.2895 24.865 22.3151 25.4002 23.2665C26.6275 25.4555 27.8556 27.645 29.0847 29.8349C29.3686 30.3411 29.6524 30.8474 29.9362 31.3539C29.9619 31.3995 29.9806 31.4495 30.0027 31.4973C29.7304 31.9762 29.4551 32.4518 29.1856 32.9318C28.1031 34.8595 27.0215 36.7878 25.9409 38.7166C25.4825 39.5325 25.0241 40.3482 24.5658 41.1638C24.5473 41.1966 24.5261 41.2276 24.5059 41.2595C24.4938 41.2709 24.4849 41.2854 24.4801 41.3015L24.4748 41.3095C24.4187 41.3199 24.4063 41.2812 24.3979 41.2374C24.3977 41.2162 24.3998 41.195 24.4041 41.1742C24.4194 41.1111 24.4178 41.0456 24.4262 40.9813C24.54 40.5157 24.6194 40.0401 24.6146 39.5635C24.6021 38.3149 24.2663 37.1693 23.4996 36.1777C22.5869 34.9972 21.406 34.2837 19.9485 34.1239C18.3642 33.9499 16.9542 34.3975 15.7718 35.5262C15.696 35.5985 15.615 35.6646 15.5389 35.7364C15.5232 35.7513 15.5065 35.7652 15.489 35.7779C15.481 35.7848 15.4722 35.7909 15.4642 35.7975C15.4487 35.8112 15.432 35.824 15.4156 35.8368C15.4078 35.8432 15.3994 35.8493 15.3912 35.8557C15.3747 35.868 15.3566 35.8777 15.3373 35.8844H15.3069C15.2626 35.8584 15.2612 35.8219 15.2832 35.78L15.2852 35.7761C15.3173 35.7586 15.3074 35.7155 15.3318 35.6938L15.3353 35.6876C15.3669 35.6446 15.3938 35.598 15.4154 35.5488C15.5804 35.1917 15.7887 34.8593 15.9796 34.5172C17.066 32.574 18.1548 30.6323 19.2461 28.692C20.6088 26.2636 21.9718 23.8353 23.335 21.407C23.8039 20.571 24.2724 19.7349 24.7405 18.8988C24.766 18.8532 24.7969 18.8104 24.825 18.7664C24.9441 18.801 24.8851 18.8849 24.8732 18.9563Z" fill="#FCBC03"/>
<path d="M15.4571 35.7339C15.9424 35.2379 16.4798 34.8175 17.1068 34.5254C17.7325 34.2308 18.4077 34.0635 19.0953 34.0328C20.031 33.99 20.9229 34.1667 21.7476 34.6172C23.3667 35.5024 24.3351 36.8785 24.6143 38.7519C24.729 39.5217 24.6598 40.2796 24.4697 41.0285C24.4187 41.0763 24.4781 41.1568 24.4209 41.2027L24.4198 41.2054C24.3954 41.4466 24.2577 41.6411 24.1667 41.855C23.3822 43.4589 22.1534 44.5087 20.4405 44.8786C17.4169 45.5314 14.6555 43.4918 14.1037 40.564C13.8153 39.0351 14.1338 37.6225 14.976 36.3333C15.0891 36.176 15.149 35.9749 15.3309 35.8736L15.3335 35.8711C15.3473 35.857 15.3606 35.8424 15.373 35.8274L15.3766 35.8232C15.3915 35.8115 15.4042 35.7971 15.414 35.7806L15.4198 35.774C15.4362 35.7652 15.4493 35.7511 15.4571 35.7339Z" fill="#34A853"/>
</g>
<defs>
<clipPath id="clip0_388_99">
<rect width="32" height="30" fill="white" transform="translate(14 15)"/>
</clipPath>
</defs>
</svg>
