<svg width="60" height="60" viewBox="0 0 60 60" fill="none" xmlns="http://www.w3.org/2000/svg">
<rect opacity="0.2" width="60" height="60" rx="15" fill="#150941"/>
<g clip-path="url(#clip0_340_9136)">
<path d="M13.3488 29.9747C13.3488 26.9142 13.3013 23.8521 13.3628 20.7916C13.4134 18.2925 14.3448 16.1758 16.4529 14.6923C17.5385 13.9275 18.7658 13.5545 20.0773 13.4175C20.7091 13.3566 21.3436 13.3288 21.9783 13.3341C27.5308 13.3341 33.0834 13.3271 38.636 13.3404C40.248 13.3404 41.8125 13.5997 43.2127 14.4789C45.067 15.6471 46.1456 17.3261 46.5014 19.477C46.6207 20.258 46.6751 21.0475 46.6642 21.8374C46.6595 27.4282 46.6681 33.0197 46.658 38.6104C46.658 40.3463 46.3605 42.019 45.3403 43.4831C43.9891 45.423 42.0859 46.3785 39.7644 46.5888C39.0783 46.6511 38.393 46.6542 37.7069 46.6542C32.2703 46.6542 26.8346 46.6628 21.3989 46.6488C19.7471 46.6441 18.1413 46.3863 16.7162 45.4658C14.9032 44.2977 13.8441 42.6304 13.4952 40.5075C13.3758 39.7265 13.3216 38.937 13.3332 38.147C13.341 35.4214 13.3332 32.6957 13.3332 29.9747H13.3488Z" fill="#DB395F"/>
<path d="M32.0857 28.3479C32.7251 27.3355 33.5288 26.4789 34.5933 25.905C36.9833 24.6169 39.5143 26.0085 39.7472 28.7155C39.829 29.6617 39.7051 30.5744 39.4614 31.4832C39.1016 32.8211 38.6733 34.1411 38.3812 35.497C38.3322 35.7127 38.3283 35.9362 38.3696 36.1535C38.4817 36.7165 38.9466 36.9322 39.4528 36.6503C39.675 36.5141 39.8617 36.3273 39.998 36.1052C40.2471 35.7408 40.4443 35.3434 40.5836 34.9246C40.6739 34.6528 40.7993 34.6201 41.0345 34.7392C41.2059 34.8333 41.3893 34.9038 41.5796 34.9487C42.0095 35.0344 42.0134 35.2556 41.8779 35.6107C41.61 36.3178 41.3086 37 40.8444 37.6035C39.769 39.0053 38.1312 39.2389 36.717 38.7413C35.6789 38.3737 35.1704 37.5661 35.0606 36.4985C34.9975 35.8381 35.0626 35.1717 35.2522 34.536C35.5766 33.4026 35.8949 32.2677 36.2069 31.1312C36.2747 30.9078 36.3234 30.6791 36.3526 30.4475C36.4305 29.6687 36.3705 28.9009 35.6275 28.4468C34.8628 27.9796 34.0552 28.0676 33.3045 28.5247C32.6262 28.9343 32.2695 29.6002 32.0141 30.3213C31.6808 31.2636 31.4978 32.2472 31.2509 33.2129C30.8044 34.9573 30.3701 36.7046 29.948 38.4547C29.8811 38.7335 29.765 38.7966 29.501 38.7919C28.6195 38.7763 27.7371 38.7717 26.8532 38.7919C26.5347 38.7997 26.5246 38.6899 26.5931 38.4368C26.7582 37.8294 26.9046 37.2157 27.0238 36.5904C26.7286 36.9424 26.4623 37.306 26.1438 37.6269C25.1641 38.6136 23.9983 39.0847 22.5958 38.9617C21.1582 38.8363 20.2042 37.887 20.1092 36.4486C20.0679 35.7745 20.1309 35.0981 20.2961 34.4433C20.7633 32.5307 21.2306 30.618 21.6978 28.7054C21.7189 28.6182 21.7274 28.5278 21.7422 28.4383C21.1332 28.3495 20.5203 28.425 19.9098 28.3962C19.7743 28.39 19.6287 28.4476 19.5041 28.3472C19.4457 28.2319 19.4861 28.1198 19.5173 28.0076C19.6964 27.3449 19.888 26.6837 20.0484 26.0179C20.113 25.7508 20.2369 25.6815 20.5032 25.6838C22.1506 25.6973 23.7979 25.6973 25.4452 25.6838C25.7443 25.6838 25.8167 25.7329 25.7357 26.0498C25.0045 28.8977 24.2911 31.7504 23.5747 34.6022C23.468 35.0297 23.3722 35.4588 23.3745 35.9043C23.3745 36.4774 23.6556 36.7734 24.2358 36.7734C25.1703 36.7734 25.9491 36.3785 26.5962 35.7407C27.1686 35.1792 27.5798 34.5212 27.7644 33.7159C28.1763 31.9513 28.621 30.1944 29.0579 28.4344C28.4482 28.3464 27.8345 28.4211 27.2239 28.3931C27.0876 28.3869 26.942 28.4414 26.8159 28.3456C26.6897 28.2498 26.7746 28.1307 26.8011 28.0286C26.981 27.341 27.1757 26.6565 27.3462 25.9673C27.3999 25.757 27.4926 25.6799 27.7184 25.6815C29.2199 25.6918 30.7219 25.6918 32.2243 25.6815C32.479 25.6815 32.532 25.7469 32.4759 25.993C32.3069 26.7234 32.1566 27.4586 31.9993 28.1914C32.0102 28.2553 31.9199 28.362 32.0857 28.3479Z" fill="#FEFEFE"/>
<path d="M26.51 21.8616C26.503 22.9519 25.584 23.8389 24.4704 23.8319C24.204 23.8308 23.9404 23.7773 23.6947 23.6742C23.449 23.5711 23.2261 23.4205 23.0387 23.2311C22.8513 23.0417 22.7032 22.8172 22.6027 22.5704C22.5023 22.3236 22.4516 22.0595 22.4534 21.7931C22.4635 20.7075 23.3879 19.815 24.4992 19.8205C24.7657 19.8212 25.0293 19.8747 25.2749 19.9779C25.5205 20.0811 25.7433 20.2319 25.9302 20.4217C26.1172 20.6115 26.2647 20.8365 26.3642 21.0836C26.4637 21.3308 26.5133 21.5952 26.51 21.8616Z" fill="#FEFEFE"/>
<path d="M20.2191 25.5568H25.6875V25.605H20.2019L20.2191 25.5568Z" fill="#DA3058"/>
<path d="M32.4621 25.6222H27.5396V25.5864H32.4785L32.4621 25.6222Z" fill="#DA3058"/>
<path d="M19.5095 28.3463C20.1862 28.3416 20.8638 28.3354 21.5413 28.3339C21.6192 28.3339 21.7313 28.2996 21.7477 28.4374C21.0053 28.4374 20.2634 28.4359 19.522 28.4328C19.5134 28.4328 19.4971 28.4195 19.4971 28.4125C19.4994 28.3901 19.5035 28.368 19.5095 28.3463Z" fill="#D93058"/>
<path d="M26.8215 28.3487C27.4998 28.3432 28.1781 28.3362 28.8564 28.3347C28.9342 28.3347 29.0472 28.2996 29.0635 28.4375C28.3227 28.4375 27.5818 28.4375 26.8409 28.4375C26.8316 28.4375 26.8145 28.4258 26.8145 28.4196C26.8142 28.3957 26.8166 28.372 26.8215 28.3487Z" fill="#D93057"/>
<path d="M32.0859 28.3479C32.0648 28.4024 32.0243 28.5036 31.987 28.4717C31.8904 28.3876 31.948 28.2809 32.0119 28.1906C32.0391 28.2427 32.0609 28.2949 32.0859 28.3479Z" fill="#E67892"/>
</g>
<defs>
<clipPath id="clip0_340_9136">
<rect width="33.3333" height="33.3232" fill="white" transform="translate(13.3333 13.3334)"/>
</clipPath>
</defs>
</svg>
