<svg width="60" height="60" viewBox="0 0 60 60" fill="none" xmlns="http://www.w3.org/2000/svg">
<rect opacity="0.2" width="60" height="60" rx="15" fill="#150941"/>
<g clip-path="url(#clip0_388_170)">
<path d="M26.0856 30.9267C26.0856 33.1494 26.0856 35.3722 26.0856 37.595C26.0856 38.1694 26.0005 38.7298 25.7893 39.2673C25.3432 40.4041 24.4786 41.0174 23.3076 41.2348C22.1471 41.4511 21.0375 41.2671 19.9824 40.7545C18.699 40.1322 17.4778 39.3968 16.2442 38.6855C15.4302 38.2157 15.0055 37.4616 15.0043 36.5107C14.9989 31.851 14.9989 27.1915 15.0043 22.5324C15.0043 21.5671 15.4454 20.8161 16.2819 20.342C20.3759 18.0189 24.4745 15.7038 28.5778 13.3968C29.517 12.8675 30.4687 12.8667 31.4091 13.3968C35.4979 15.703 39.5851 18.0118 43.6707 20.3229C44.5435 20.8173 44.9931 21.5892 44.9931 22.5903C45.0001 27.2173 45.0001 31.8444 44.9931 36.4714C44.9931 37.4736 44.5369 38.2472 43.6676 38.7392C39.5833 41.0529 35.4951 43.3605 31.4033 45.6618C30.4446 46.2028 29.4952 46.1911 28.5451 45.6393C27.2462 44.8848 25.9454 44.1329 24.6428 43.3836C24.5013 43.305 24.368 43.2125 24.2449 43.1074C24.1337 43.009 24.1547 42.9344 24.2702 42.8686C24.3412 42.8236 24.4171 42.787 24.4965 42.7594C25.0982 42.5863 25.6586 42.3199 26.1988 42.0107C26.3797 41.9072 26.5341 41.9197 26.7075 42.0208C27.6919 42.5945 28.6832 43.1568 29.6633 43.7383C29.9028 43.8806 30.1004 43.8693 30.3314 43.7383C31.8738 42.8619 33.4183 41.989 34.9649 41.1197C37.4236 39.7326 39.8834 38.3473 42.3442 36.9638C42.6413 36.7981 42.7619 36.6083 42.7607 36.261C42.7498 31.7444 42.7489 27.2277 42.758 22.7109C42.758 22.4277 42.6553 22.2621 42.4107 22.1244C38.3634 19.8508 34.3187 17.572 30.2766 15.2881C30.079 15.1768 29.9102 15.1765 29.7138 15.2881C25.6489 17.5834 21.5823 19.8762 17.514 22.1664C17.3172 22.2772 17.2332 22.425 17.2336 22.6529C17.2375 27.2343 17.2375 31.8159 17.2336 36.3975C17.2336 36.6165 17.3055 36.7635 17.4984 36.8716C18.5722 37.4717 19.641 38.0811 20.7147 38.6812C21.2094 38.9577 21.7356 39.1265 22.3124 39.0701C23.1921 38.985 23.7755 38.3425 23.7759 37.4589C23.7759 32.9809 23.7759 28.503 23.7759 24.025C23.7759 23.428 23.821 23.3833 24.4145 23.3833C24.8162 23.3833 25.2184 23.3833 25.6201 23.3833C25.9725 23.3833 26.0833 23.4953 26.0837 23.85C26.0855 26.2089 26.0862 28.5678 26.0856 30.9267Z" fill="#8BC74B"/>
<path d="M33.4294 23.034C34.6533 23.0196 35.8586 23.1336 37.0051 23.6135C38.6245 24.2918 39.3732 25.5581 39.4996 27.2553C39.5159 27.4738 39.3891 27.6255 39.1709 27.6294C38.6136 27.6387 38.0563 27.6372 37.4986 27.6294C37.3112 27.6267 37.2065 27.4972 37.1486 27.2475C37.0366 26.7668 36.8441 26.3281 36.4944 25.9676C36.0701 25.5301 35.5194 25.3562 34.9466 25.2675C33.8698 25.0947 32.7716 25.1051 31.6984 25.2983C31.3594 25.3593 31.0359 25.487 30.7467 25.6739C30.238 26.0045 30.0015 26.6952 30.2096 27.2646C30.301 27.5143 30.5021 27.6535 30.7339 27.7539C31.2558 27.979 31.8131 28.0712 32.3673 28.1719C33.5729 28.3905 34.7945 28.4862 35.997 28.7164C36.7671 28.8638 37.5313 29.0373 38.2461 29.3729C39.225 29.8322 39.8329 30.5688 39.9604 31.671C40.0806 32.7074 39.9239 33.6751 39.2771 34.5206C38.7785 35.1724 38.1038 35.5866 37.3466 35.8763C36.4108 36.2345 35.4339 36.3776 34.439 36.4165C33.1657 36.4659 31.9014 36.3998 30.6631 36.0665C29.9113 35.8646 29.2101 35.5562 28.6065 35.053C27.6541 34.258 27.2613 33.2119 27.2546 31.9992C27.2546 31.7208 27.3888 31.5994 27.6649 31.599C28.1443 31.599 28.624 31.599 29.1039 31.599C29.4613 31.599 29.5442 31.6827 29.6095 32.0463C29.7102 32.618 29.8926 33.1563 30.3625 33.5386C30.7514 33.8559 31.2181 34.0204 31.7046 34.1188C32.7294 34.3265 33.7658 34.3032 34.8019 34.251C35.3927 34.2211 35.9752 34.1402 36.5205 33.889C37.2894 33.5347 37.6242 32.9322 37.5099 32.1245C37.4636 31.7989 37.2696 31.5858 37.002 31.4306C36.5178 31.1495 35.9749 31.0441 35.4358 30.9348C34.4379 30.7322 33.4213 30.6676 32.4128 30.5431C31.5183 30.4327 30.6304 30.2837 29.7865 29.952C28.9522 29.6245 28.239 29.1353 27.9131 28.2594C27.3523 26.7516 27.6692 24.8004 29.5885 23.7869C30.5655 23.2709 31.621 23.0721 32.7134 23.0344C32.9503 23.027 33.1902 23.034 33.4294 23.034Z" fill="#8BC74B"/>
</g>
<defs>
<clipPath id="clip0_388_170">
<rect width="30" height="33.0596" fill="white" transform="translate(15 13)"/>
</clipPath>
</defs>
</svg>
