<svg width="60" height="60" viewBox="0 0 60 60" fill="none" xmlns="http://www.w3.org/2000/svg">
<rect opacity="0.2" width="60" height="60" rx="15" fill="#150941"/>
<g clip-path="url(#clip0_388_157)">
<path d="M45 22.2108C45 21.9475 44.8965 21.7715 44.6682 21.6406C42.7851 20.5616 40.9043 19.4791 39.0257 18.393C38.8062 18.2672 38.6096 18.2652 38.3895 18.393C36.5034 19.484 34.6153 20.571 32.7252 21.6542C32.5104 21.7773 32.4143 21.9477 32.415 22.1972C32.4191 24.2399 32.4165 26.2826 32.4196 28.3253C32.4196 28.426 32.3914 28.4799 32.3025 28.531C30.7648 29.4121 29.2285 30.2955 27.6935 31.1812C27.6625 31.199 27.6346 31.2293 27.5812 31.2222V31.0631C27.5812 27.0364 27.5825 23.0097 27.5852 18.9829C27.5852 18.673 27.4714 18.4781 27.2031 18.3258C25.859 17.5623 24.5227 16.7846 23.1811 16.0163C22.5865 15.6757 22.0017 15.3177 21.3937 15.0012H21.1923C21.0664 15.0264 20.9405 15.0516 20.8285 15.1175C20.2157 15.4806 19.5949 15.8312 18.9789 16.1862C17.7627 16.8858 16.5485 17.5885 15.33 18.284C15.1576 18.3827 15.0279 18.4975 15.0002 18.7012V38.8371C15.0785 39.0068 15.2115 39.1156 15.3723 39.208C19.1684 41.3898 22.9627 43.5745 26.7554 45.762C26.9936 45.8995 27.1993 45.8985 27.4352 45.762C31.2421 43.5657 35.051 41.373 38.8618 39.1838C39.0899 39.0526 39.1924 38.8789 39.1916 38.6133C39.1861 36.5742 39.1894 34.5365 39.1861 32.4978C39.1861 32.3954 39.2203 32.343 39.3062 32.2937C41.0939 31.2675 42.8813 30.2406 44.6684 29.2127C44.898 29.0811 45.0002 28.9056 44.9997 28.6425C44.9959 26.4981 44.996 24.3542 45 22.2108ZM26.5948 19.6878C26.6213 19.7308 26.6084 19.7774 26.6084 19.8212C26.6084 23.7717 26.6089 27.7221 26.6099 31.6726C26.6099 31.7504 26.6067 31.809 26.5226 31.8574C24.9632 32.7506 23.4053 33.6464 21.8488 34.5448C21.8312 34.5549 21.8121 34.5629 21.7922 34.5727C21.7557 34.5355 21.7731 34.4917 21.7731 34.4534C21.7721 30.4904 21.7712 26.5273 21.7705 22.5643C21.7705 22.485 21.7887 22.4384 21.8627 22.3951C23.4034 21.5115 24.9431 20.6261 26.4818 19.7389C26.5165 19.7188 26.5483 19.687 26.5948 19.6878ZM17.557 18.1914C18.7694 17.4935 19.9816 16.7954 21.1935 16.0971C21.2567 16.0606 21.3053 16.0467 21.3761 16.0888C22.9354 16.9895 24.4962 17.8886 26.0586 18.786C26.073 18.7943 26.086 18.8047 26.0994 18.814C26.0994 18.86 26.0581 18.8643 26.0317 18.8797C24.4821 19.7729 22.9325 20.6658 21.3831 21.5585C21.3247 21.5923 21.2784 21.6056 21.2117 21.5671C19.6559 20.6684 18.0992 19.7711 16.5417 18.8754C16.5206 18.8633 16.5012 18.8487 16.4617 18.8225L17.557 18.1914ZM26.6084 44.4542C26.6084 44.4793 26.6059 44.5045 26.6034 44.5523L25.5528 43.9481C22.4009 42.1334 19.2485 40.3195 16.0956 38.5066C16.0004 38.452 15.9639 38.3953 15.9639 38.2825C15.9673 32.1331 15.9682 25.9835 15.9667 19.8338V19.796C15.968 19.6639 15.9682 19.6634 16.085 19.7306C17.5955 20.6001 19.1069 21.4685 20.619 22.3357C20.7608 22.4165 20.8119 22.4988 20.8116 22.6645C20.8061 26.8719 20.8033 31.0793 20.8033 35.2867C20.8033 35.5812 20.9075 35.7696 21.1656 35.9143C22.9452 36.9128 24.7193 37.921 26.4954 38.925C26.5631 38.9635 26.6117 38.9962 26.6114 39.0932C26.6074 40.8804 26.6064 42.6674 26.6084 44.4542ZM27.2028 38.0937C27.1396 38.1297 27.0908 38.1551 27.0112 38.1098C25.4599 37.2274 23.9075 36.3476 22.3539 35.4705C22.3319 35.4581 22.3108 35.4453 22.2839 35.4287C22.309 35.3846 22.3544 35.3723 22.3909 35.3512C25.8544 33.3566 29.3177 31.3617 32.7806 29.3663C32.8735 29.3127 32.9364 29.3147 33.0275 29.3663C34.5548 30.2494 36.0828 31.1306 37.6116 32.0097C37.6476 32.0306 37.6831 32.0525 37.7201 32.0746C37.6867 32.1212 37.6368 32.1368 37.5943 32.161C34.1302 34.1389 30.6664 36.1165 27.2028 38.0937ZM38.126 38.489C34.6468 40.4892 31.1684 42.491 27.6909 44.4944C27.6625 44.5111 27.6328 44.5254 27.5809 44.5526V44.4096C27.5809 42.6474 27.5801 40.8859 27.5784 39.1251C27.5784 39.0244 27.6096 38.9708 27.698 38.9205C31.1663 36.9442 34.6338 34.9661 38.1005 32.9862C38.2239 32.916 38.2244 32.916 38.2244 33.0522C38.2244 34.8054 38.225 36.5585 38.2262 38.3115C38.2259 38.3961 38.2043 38.4444 38.1257 38.489H38.126ZM38.2241 31.163C38.2241 31.1797 38.2219 31.1963 38.2204 31.2134C38.1756 31.2386 38.1486 31.1998 38.1197 31.1832C36.5692 30.292 35.0191 29.4004 33.4694 28.5083C33.4155 28.4774 33.3812 28.4467 33.3815 28.3742C33.384 26.5837 33.3849 24.7934 33.3843 23.0033C33.3856 22.9915 33.3879 22.9798 33.3911 22.9683C33.456 22.9741 33.4976 23.0121 33.5421 23.0383C35.067 23.9153 36.5916 24.7925 38.1156 25.6701C38.1801 25.7071 38.2262 25.7401 38.2259 25.83C38.2232 27.6085 38.2226 29.3865 38.2239 31.1641L38.2241 31.163ZM38.81 24.8373C38.745 24.8748 38.6954 24.891 38.6184 24.8464C37.0743 23.953 35.5286 23.0621 33.9812 22.1736C33.9489 22.1549 33.9177 22.1345 33.8759 22.1086C34.323 21.8508 34.7613 21.5978 35.1999 21.3456C36.3358 20.691 37.4718 20.0369 38.6078 19.3832C38.668 19.3484 38.7151 19.3283 38.7881 19.3706C40.3474 20.2718 41.9083 21.171 43.4706 22.0681C43.4885 22.0784 43.5054 22.0905 43.5398 22.1129L42.1643 22.9049C41.0455 23.5495 39.9273 24.194 38.8097 24.8383L38.81 24.8373ZM43.9338 28.5174C42.3857 29.4046 40.839 30.2941 39.2936 31.186C39.2654 31.2021 39.2364 31.2167 39.2067 31.2323C39.178 31.192 39.1904 31.1537 39.1904 31.1185C39.1904 29.3618 39.1896 27.605 39.1881 25.8481C39.1881 25.7696 39.2057 25.7222 39.2797 25.6797C40.8275 24.7923 42.3741 23.9028 43.9195 23.0111C43.9477 22.9948 43.9769 22.9804 44.026 22.9545V23.0912C44.026 24.8395 44.0264 26.5879 44.0272 28.3364C44.027 28.418 44.0141 28.4723 43.9336 28.5184L43.9338 28.5174Z" fill="#FE2D20"/>
</g>
<defs>
<clipPath id="clip0_388_157">
<rect width="30" height="30.8632" fill="white" transform="translate(15 15)"/>
</clipPath>
</defs>
</svg>
