<svg width="23" height="23" viewBox="0 0 23 23" fill="none" xmlns="http://www.w3.org/2000/svg">
<path d="M11.4993 20.125C10.2889 19.0925 9.16695 17.9606 8.14518 16.7411C6.61185 14.9098 4.79102 12.1823 4.79102 9.58334C4.79035 8.25601 5.18346 6.95832 5.9206 5.85449C6.65773 4.75066 7.70576 3.89032 8.93204 3.38235C10.1583 2.87437 11.5077 2.7416 12.8095 3.00083C14.1113 3.26006 15.3069 3.89964 16.245 4.83863C16.8696 5.46045 17.3647 6.19998 17.7016 7.01441C18.0385 7.82883 18.2105 8.70199 18.2077 9.58334C18.2077 12.1823 16.3868 14.9098 14.8535 16.7411C13.8317 17.9606 12.7098 19.0925 11.4993 20.125ZM11.4993 6.70834C10.7369 6.70834 10.0056 7.01124 9.46642 7.55041C8.92725 8.08958 8.62435 8.82084 8.62435 9.58334C8.62435 10.3458 8.92725 11.0771 9.46642 11.6163C10.0056 12.1554 10.7369 12.4583 11.4993 12.4583C12.2618 12.4583 12.9931 12.1554 13.5323 11.6163C14.0714 11.0771 14.3743 10.3458 14.3743 9.58334C14.3743 8.82084 14.0714 8.08958 13.5323 7.55041C12.9931 7.01124 12.2618 6.70834 11.4993 6.70834Z" fill="url(#paint0_radial_669_1009)"/>
<defs>
<radialGradient id="paint0_radial_669_1009" cx="0" cy="0" r="1" gradientUnits="userSpaceOnUse" gradientTransform="translate(11.4994 11.4983) rotate(90) scale(8.62668 6.70835)">
<stop stop-color="#2BC4F7"/>
<stop offset="1" stop-color="#623EFD"/>
</radialGradient>
</defs>
</svg>
