<svg width="56" height="72" viewBox="0 0 56 72" fill="none" xmlns="http://www.w3.org/2000/svg">
<path d="M27.9997 71.25C23.0527 67.0303 18.4673 62.4043 14.2913 57.4203C8.02468 49.9355 0.583011 38.7887 0.583011 28.1667C0.580293 22.7419 2.18692 17.4383 5.19956 12.927C8.2122 8.41574 12.4954 4.89956 17.5072 2.82349C22.5189 0.747417 28.0339 0.204776 33.3542 1.26424C38.6745 2.3237 43.5609 4.93765 47.395 8.77526C49.9477 11.3166 51.971 14.339 53.3479 17.6676C54.7248 20.9961 55.4278 24.5646 55.4163 28.1667C55.4163 38.7887 47.9747 49.9355 41.708 57.4203C37.5321 62.4043 32.9467 67.0303 27.9997 71.25ZM27.9997 16.4167C24.8834 16.4167 21.8947 17.6546 19.6912 19.8582C17.4876 22.0617 16.2497 25.0504 16.2497 28.1667C16.2497 31.283 17.4876 34.2716 19.6912 36.4752C21.8947 38.6787 24.8834 39.9167 27.9997 39.9167C31.116 39.9167 34.1046 38.6787 36.3082 36.4752C38.5117 34.2716 39.7497 31.283 39.7497 28.1667C39.7497 25.0504 38.5117 22.0617 36.3082 19.8582C34.1046 17.6546 31.116 16.4167 27.9997 16.4167Z" fill="url(#paint0_radial_629_908)"/>
<defs>
<radialGradient id="paint0_radial_629_908" cx="0" cy="0" r="1" gradientUnits="userSpaceOnUse" gradientTransform="translate(27.9997 35.9931) rotate(90) scale(35.2569 27.4167)">
<stop stop-color="#2BC4F7"/>
<stop offset="1" stop-color="#623EFD"/>
</radialGradient>
</defs>
</svg>
