<svg width="80" height="80" viewBox="0 0 80 80" fill="none" xmlns="http://www.w3.org/2000/svg">
<rect width="80" height="80" rx="40" fill="url(#paint0_radial_791_8)"/>
<path d="M40 51.6667L51.6667 40L56.6667 45L45 56.6667L40 51.6667Z" stroke="white" stroke-width="1.5" stroke-linecap="round" stroke-linejoin="round"/>
<path d="M23.333 23.3335L35.9763 35.9768M49.9997 41.6668L47.4997 29.1668L23.333 23.3335L29.1663 47.5002L41.6663 50.0002L49.9997 41.6668Z" stroke="white" stroke-width="1.5" stroke-linecap="round" stroke-linejoin="round"/>
<path d="M38.3333 41.6667C40.1743 41.6667 41.6667 40.1743 41.6667 38.3333C41.6667 36.4924 40.1743 35 38.3333 35C36.4924 35 35 36.4924 35 38.3333C35 40.1743 36.4924 41.6667 38.3333 41.6667Z" stroke="white" stroke-width="1.5" stroke-linecap="round" stroke-linejoin="round"/>
<defs>
<radialGradient id="paint0_radial_791_8" cx="0" cy="0" r="1" gradientUnits="userSpaceOnUse" gradientTransform="translate(40 40) rotate(90) scale(40)">
<stop stop-color="#2BC4F7"/>
<stop offset="1" stop-color="#623EFD"/>
</radialGradient>
</defs>
</svg>
