<svg width="60" height="60" viewBox="0 0 60 60" fill="none" xmlns="http://www.w3.org/2000/svg">
<rect opacity="0.2" width="60" height="60" rx="15" fill="#150941"/>
<g clip-path="url(#clip0_340_9147)">
<path d="M30.0047 46.4895C26.4261 46.4895 22.8478 46.4899 19.2699 46.4907C17.8698 46.4924 16.6269 46.0525 15.5347 45.1864C14.9443 44.7184 14.4705 44.147 14.0992 43.4891C13.7392 42.8495 13.5137 42.1648 13.4038 41.4418C13.3578 41.1376 13.3349 40.8304 13.3351 40.5228C13.3333 33.6793 13.3333 26.8358 13.3351 19.9921C13.3351 18.9799 13.5583 18.0162 14.0403 17.1198C14.2807 16.6741 14.5769 16.261 14.9219 15.8905C15.5108 15.2515 16.2355 14.7527 17.0427 14.431C17.6101 14.2038 18.2094 14.0666 18.819 14.0241C19.1164 14.0022 19.4128 14.0017 19.7096 14.0017C26.7103 14.0007 33.7104 14.0007 40.71 14.0017C41.7078 14.0017 42.6551 14.2247 43.5379 14.6937C44.1849 15.0365 44.7612 15.4985 45.2367 16.0553C45.9106 16.8399 46.3492 17.7383 46.5525 18.7503C46.6278 19.1235 46.666 19.5033 46.6666 19.884C46.6647 26.7901 46.6645 33.6963 46.6658 40.6025C46.667 41.4874 46.4685 42.3613 46.0851 43.1589C45.8304 43.6931 45.4943 44.175 45.0888 44.6105C44.5913 45.1469 43.9988 45.5866 43.3413 45.9074C42.731 46.206 42.0861 46.3835 41.4109 46.46C41.187 46.4855 40.9637 46.4884 40.7395 46.4884C37.1614 46.4894 33.5831 46.4898 30.0047 46.4895Z" fill="#001834"/>
<path d="M20.8418 29.6509C20.8418 27.3089 20.8418 24.9669 20.8418 22.6249C20.8418 22.3576 20.8468 22.3568 21.1126 22.3509C21.8683 22.334 22.624 22.3108 23.3799 22.2951C24.0733 22.2806 24.7666 22.2548 25.4604 22.267C26.0707 22.2778 26.6792 22.3216 27.2778 22.4502C28.0863 22.6239 28.8428 22.9188 29.5126 23.4161C30.3538 24.0404 30.8982 24.8648 31.1602 25.8732C31.4371 26.9388 31.3989 28.0026 31.0707 29.0501C30.7798 29.9786 30.199 30.7014 29.4178 31.2683C28.8217 31.7007 28.149 31.9592 27.4354 32.1203C26.7252 32.2804 26.0048 32.3419 25.2782 32.3447C24.9133 32.3459 24.5482 32.3461 24.1837 32.3206C24.1006 32.3148 24.0168 32.3206 23.9333 32.3184C23.8724 32.317 23.8492 32.3459 23.8522 32.4043C23.8544 32.4459 23.8522 32.4877 23.8522 32.5295V36.6611C23.8522 36.708 23.8546 36.755 23.8508 36.8019C23.8422 36.905 23.7866 36.9604 23.6823 36.9712C23.6458 36.9737 23.6092 36.9743 23.5727 36.973H21.1169C21.0856 36.973 21.0543 36.9741 21.023 36.972C20.8927 36.9634 20.8501 36.9199 20.8429 36.7863C20.8404 36.7393 20.8429 36.6924 20.8429 36.6454L20.8418 29.6509Z" fill="#00AAFF"/>
<path d="M32.8248 35.1858V34.0903C32.8248 34.0538 32.8234 34.0172 32.8248 33.9807C32.8333 33.8233 32.8956 33.7878 33.0327 33.8648C33.4108 34.0773 33.8023 34.2587 34.2174 34.3875C35.0459 34.6446 35.8902 34.7814 36.7601 34.7182C37.0262 34.6988 37.2878 34.6531 37.5301 34.5329C37.8068 34.3959 37.9536 34.0771 37.8638 33.8003C37.8124 33.6415 37.7035 33.5209 37.5755 33.4184C37.4242 33.2972 37.2548 33.2056 37.08 33.1227C36.6797 32.9327 36.2628 32.7837 35.8521 32.619C35.2105 32.3619 34.5981 32.0485 34.0562 31.6175C33.5308 31.1998 33.1328 30.6819 32.9594 30.0212C32.7583 29.2521 32.8242 28.5019 33.1618 27.78C33.4904 27.0757 34.0285 26.5784 34.7125 26.228C35.3119 25.9209 35.9537 25.7815 36.6207 25.7334C37.4573 25.6733 38.2874 25.7334 39.114 25.8586C39.4657 25.9125 39.8039 26.0172 40.1355 26.1449C40.2511 26.1893 40.3087 26.2727 40.314 26.3943C40.3158 26.4308 40.3155 26.4674 40.3155 26.5039C40.3155 27.208 40.3155 27.9123 40.3155 28.6166C40.3155 28.8603 40.1873 28.9407 39.9626 28.8276C39.647 28.6657 39.3147 28.5389 38.9716 28.4493C38.2506 28.2662 37.5201 28.1642 36.7739 28.2069C36.5805 28.2179 36.3917 28.2603 36.2069 28.315C35.7722 28.4441 35.5571 28.9913 35.9409 29.3773C36.0517 29.4888 36.1729 29.5877 36.3136 29.659C36.4947 29.7512 36.6761 29.8429 36.8598 29.9293C37.0908 30.0378 37.3267 30.1349 37.5674 30.2204C38.2357 30.4579 38.8748 30.771 39.4722 31.1534C40.2275 31.6386 40.7336 32.3053 40.8569 33.2125C41.0421 34.5756 40.5308 35.8094 39.3001 36.5625C38.7774 36.8822 38.2009 37.0619 37.599 37.1572C36.3831 37.3508 35.1773 37.2713 33.9823 36.9954C33.6624 36.9215 33.3543 36.8066 33.053 36.6739C32.891 36.6024 32.815 36.4972 32.8206 36.3113C32.833 35.9371 32.8248 35.5614 32.8248 35.1858Z" fill="#00AAFF"/>
<path d="M23.8733 27.3639V25.2211C23.8733 25.1795 23.8744 25.1377 23.8742 25.0959C23.8742 25.0437 23.9011 25.0211 23.9515 25.0208C23.9775 25.0208 24.0035 25.0167 24.0298 25.0169C24.6088 25.0194 25.1868 24.9883 25.7652 25.0117C26.2541 25.0318 26.7264 25.1347 27.1684 25.3484C27.8211 25.6637 28.1767 26.2005 28.2872 26.9055C28.3416 27.2534 28.316 27.6024 28.2493 27.9472C28.1415 28.5053 27.8066 28.9009 27.3416 29.2023C27.0347 29.4015 26.6896 29.5006 26.34 29.5848C25.9339 29.6809 25.5175 29.7264 25.1002 29.72C24.7559 29.7164 24.4116 29.7264 24.0683 29.709C24.0318 29.7072 23.9954 29.7047 23.9587 29.7028C23.9035 29.7001 23.8711 29.6765 23.8736 29.6161C23.8753 29.5744 23.8736 29.5327 23.8736 29.4909L23.8733 27.3639Z" fill="#001834"/>
</g>
<defs>
<clipPath id="clip0_340_9147">
<rect width="33.3333" height="32.4906" fill="white" transform="translate(13.3333 14)"/>
</clipPath>
</defs>
</svg>
