<svg width="120" height="24" viewBox="0 0 120 24" fill="none" xmlns="http://www.w3.org/2000/svg">
<path d="M11.5245 1.46353C11.6741 1.00287 12.3259 1.00287 12.4755 1.46353L14.5819 7.9463C14.6488 8.15232 14.8408 8.2918 15.0574 8.2918H21.8738C22.3582 8.2918 22.5596 8.9116 22.1677 9.1963L16.6531 13.2029C16.4779 13.3302 16.4046 13.5559 16.4715 13.7619L18.5779 20.2447C18.7276 20.7053 18.2003 21.0884 17.8085 20.8037L12.2939 16.7971C12.1186 16.6698 11.8814 16.6698 11.7061 16.7971L6.19153 20.8037C5.79967 21.0884 5.27243 20.7053 5.42211 20.2447L7.52849 13.7619C7.59543 13.5559 7.5221 13.3302 7.34685 13.2029L1.83227 9.1963C1.44041 8.9116 1.6418 8.2918 2.12616 8.2918H8.94256C9.15917 8.2918 9.35115 8.15232 9.41809 7.9463L11.5245 1.46353Z" fill="#2BC4F7"/>
<path d="M59.5245 1.46353C59.6741 1.00287 60.3259 1.00287 60.4755 1.46353L62.5819 7.9463C62.6488 8.15232 62.8408 8.2918 63.0574 8.2918H69.8738C70.3582 8.2918 70.5596 8.9116 70.1677 9.1963L64.6531 13.2029C64.4779 13.3302 64.4046 13.5559 64.4715 13.7619L66.5779 20.2447C66.7276 20.7053 66.2003 21.0884 65.8085 20.8037L60.2939 16.7971C60.1186 16.6698 59.8814 16.6698 59.7061 16.7971L54.1915 20.8037C53.7997 21.0884 53.2724 20.7053 53.4221 20.2447L55.5285 13.7619C55.5954 13.5559 55.5221 13.3302 55.3469 13.2029L49.8323 9.1963C49.4404 8.9116 49.6418 8.2918 50.1262 8.2918H56.9426C57.1592 8.2918 57.3512 8.15232 57.4181 7.9463L59.5245 1.46353Z" fill="#2BC4F7"/>
<path d="M35.5245 1.46353C35.6741 1.00287 36.3259 1.00287 36.4755 1.46353L38.5819 7.9463C38.6488 8.15232 38.8408 8.2918 39.0574 8.2918H45.8738C46.3582 8.2918 46.5596 8.9116 46.1677 9.1963L40.6531 13.2029C40.4779 13.3302 40.4046 13.5559 40.4715 13.7619L42.5779 20.2447C42.7276 20.7053 42.2003 21.0884 41.8085 20.8037L36.2939 16.7971C36.1186 16.6698 35.8814 16.6698 35.7061 16.7971L30.1915 20.8037C29.7997 21.0884 29.2724 20.7053 29.4221 20.2447L31.5285 13.7619C31.5954 13.5559 31.5221 13.3302 31.3469 13.2029L25.8323 9.1963C25.4404 8.9116 25.6418 8.2918 26.1262 8.2918H32.9426C33.1592 8.2918 33.3512 8.15232 33.4181 7.9463L35.5245 1.46353Z" fill="#2BC4F7"/>
<path d="M83.5245 1.46353C83.6741 1.00287 84.3259 1.00287 84.4755 1.46353L86.5819 7.9463C86.6488 8.15232 86.8408 8.2918 87.0574 8.2918H93.8738C94.3582 8.2918 94.5596 8.9116 94.1677 9.1963L88.6531 13.2029C88.4779 13.3302 88.4046 13.5559 88.4715 13.7619L90.5779 20.2447C90.7276 20.7053 90.2003 21.0884 89.8085 20.8037L84.2939 16.7971C84.1186 16.6698 83.8814 16.6698 83.7061 16.7971L78.1915 20.8037C77.7997 21.0884 77.2724 20.7053 77.4221 20.2447L79.5285 13.7619C79.5954 13.5559 79.5221 13.3302 79.3469 13.2029L73.8323 9.1963C73.4404 8.9116 73.6418 8.2918 74.1262 8.2918H80.9426C81.1592 8.2918 81.3512 8.15232 81.4181 7.9463L83.5245 1.46353Z" fill="#2BC4F7"/>
<path d="M107.524 1.46353C107.674 1.00287 108.326 1.00287 108.476 1.46353L110.582 7.9463C110.649 8.15232 110.841 8.2918 111.057 8.2918H117.874C118.358 8.2918 118.56 8.9116 118.168 9.1963L112.653 13.2029C112.478 13.3302 112.405 13.5559 112.472 13.7619L114.578 20.2447C114.728 20.7053 114.2 21.0884 113.808 20.8037L108.294 16.7971C108.119 16.6698 107.881 16.6698 107.706 16.7971L102.192 20.8037C101.8 21.0884 101.272 20.7053 101.422 20.2447L103.528 13.7619C103.595 13.5559 103.522 13.3302 103.347 13.2029L97.8323 9.1963C97.4404 8.9116 97.6418 8.2918 98.1262 8.2918H104.943C105.159 8.2918 105.351 8.15232 105.418 7.9463L107.524 1.46353Z" fill="#2BC4F7"/>
</svg>
