<svg width="60" height="60" viewBox="0 0 60 60" fill="none" xmlns="http://www.w3.org/2000/svg">
<rect opacity="0.2" width="60" height="60" rx="15" fill="#150941"/>
<g clip-path="url(#clip0_388_146)">
<path d="M34.301 47.1152C34.4568 47.1263 34.4745 47.0281 34.4772 46.905C34.4984 46.3282 34.5213 45.7513 34.5501 45.1745C34.5917 44.3445 34.642 43.5148 34.6829 42.6848C34.7342 41.6411 34.7721 40.5968 34.8303 39.5538C34.8824 38.6256 34.9267 37.6974 34.9691 36.7689C35.0138 35.7831 35.0832 34.7981 35.1248 33.812C35.1515 33.1717 35.1942 32.5324 35.2143 31.8915C35.2407 31.0437 35.3007 30.1967 35.3447 29.3497C35.4014 28.2604 35.457 27.1708 35.5115 26.081C35.5414 25.4698 35.5618 24.858 35.5924 24.2465C35.6336 23.4106 35.6815 22.5753 35.7252 21.7394C35.7826 20.6325 35.8389 19.5257 35.8941 18.419C35.9122 18.0558 35.9243 17.6906 35.9371 17.3288C35.9351 17.2421 35.9468 17.1556 35.9718 17.0725C36.1106 17.093 36.2146 17.1714 36.3107 17.2671C36.9177 17.8695 37.525 18.4715 38.1327 19.0732C38.1987 19.1458 38.2904 19.1898 38.3883 19.1959C39.2184 19.2507 40.048 19.3114 40.878 19.3694C41.1788 19.3902 41.2509 19.4498 41.2943 19.7467C41.5195 21.2611 41.7434 22.7757 41.9661 24.2905C42.3426 26.8269 42.719 29.3641 43.0955 31.9019C43.4953 34.605 43.8949 37.308 44.2942 40.0109C44.5256 41.5766 44.7545 43.1427 44.9938 44.7073C45.0195 44.8742 44.9643 44.9113 44.8204 44.9421C41.5787 45.6391 38.3376 46.3383 35.0971 47.0399C34.9503 47.0718 34.804 47.1062 34.6565 47.1346C34.5376 47.1561 34.4169 47.1752 34.301 47.1152Z" fill="#5F8C3E"/>
<path d="M36.0199 17.2156C36.0226 17.1636 36.0056 17.1124 35.9724 17.0723C35.799 16.986 35.6225 17.022 35.4521 17.0675C35.1773 17.1353 34.9062 17.2174 34.6398 17.3134C34.4608 17.3828 34.406 17.3203 34.3502 17.1615C34.1012 16.4539 33.7762 15.7841 33.2871 15.2083C32.6329 14.438 31.8303 13.9725 30.7849 14.0235C30.6871 14.0283 30.6416 13.9784 30.5872 13.9142C30.0246 13.251 29.3038 12.9482 28.4395 13.0072C27.4176 13.0766 26.5363 13.5067 25.7375 14.1171C24.5526 15.0235 23.7452 16.226 23.0966 17.5472C22.5367 18.6873 22.1254 19.8818 21.8226 21.1142C21.7907 21.2439 21.7317 21.3053 21.6054 21.3417C21.2239 21.4524 20.8424 21.5748 20.4629 21.6952C19.7088 21.9338 18.9558 22.1777 18.2004 22.4132C17.8403 22.5252 17.6392 22.76 17.5986 23.1336C17.5944 23.1735 17.5868 23.2134 17.5816 23.2536C17.3379 25.162 17.0939 27.0704 16.8497 28.9787C16.5547 31.2712 16.2587 33.5636 15.9618 35.8558C15.6429 38.3372 15.3237 40.8183 15.0041 43.2993C14.984 43.4557 15.0166 43.5074 15.171 43.5351C17.5279 43.9726 19.8842 44.4136 22.2398 44.858C25.3615 45.4444 28.4841 46.0311 31.6076 46.618C32.5046 46.7862 33.4026 46.9499 34.2999 47.1153C34.5136 47.1424 34.5555 47.1153 34.5559 46.9103C34.5559 46.644 34.5961 46.3811 34.5982 46.1147C34.6031 45.549 34.6579 44.985 34.6752 44.4192C34.695 43.779 34.7553 43.1408 34.7734 42.5001C34.7879 41.9798 34.823 41.462 34.8507 40.9434C34.8961 40.0846 34.9409 39.2262 34.9777 38.3667C34.9894 38.0892 35.0071 37.8117 35.0224 37.5366C35.055 36.9433 35.0847 36.3497 35.1115 35.7559C35.1362 35.2009 35.1778 34.6494 35.1962 34.0955C35.2173 33.4549 35.2749 32.8163 35.2902 32.1757C35.3033 31.6207 35.3453 31.0685 35.3706 30.515C35.4112 29.6333 35.4587 28.7512 35.4993 27.8692C35.5224 27.3503 35.5486 26.8315 35.5777 26.3128C35.6225 25.5061 35.6492 24.6982 35.7057 23.8921C35.7432 23.3622 35.7477 22.8308 35.7799 22.3008C35.8344 21.4076 35.8642 20.5135 35.9166 19.6207C35.937 19.2738 35.9398 18.9269 35.9627 18.5825C35.9939 18.1271 36.0293 17.6724 36.0199 17.2156ZM25.8742 19.8347C25.845 19.981 25.7881 20.0577 25.6366 20.1028C24.8676 20.3321 24.1028 20.5762 23.3359 20.8128C23.2835 20.8291 23.2318 20.8655 23.1566 20.8405C23.2252 20.5563 23.3085 20.2758 23.4059 20.0001C23.8388 18.7001 24.3875 17.457 25.212 16.3516C25.8589 15.4844 26.6365 14.7755 27.6643 14.3828C28.0829 14.2226 28.512 14.1085 28.967 14.2014C29.12 14.2255 29.2646 14.2872 29.3878 14.3811C28.9634 14.5834 28.5701 14.8451 28.2196 15.1584C27.4291 15.8698 26.9015 16.7581 26.503 17.73C26.2258 18.4095 26.0152 19.1144 25.8742 19.8347ZM30.4079 18.6255L27.5814 19.5076C27.4624 19.5447 27.3427 19.5804 27.1866 19.6279C27.5463 18.3172 28.016 17.116 28.9872 16.1781C29.28 15.8987 29.615 15.6671 29.9798 15.4917C30.1078 15.4289 30.1429 15.4654 30.1814 15.585C30.4852 16.5253 30.556 17.4948 30.5577 18.4746C30.5584 18.5912 30.4838 18.6016 30.4079 18.6255ZM33.2625 17.7338C32.789 17.8801 32.3149 18.0251 31.8404 18.1736C31.6905 18.2204 31.7263 18.1115 31.7249 18.0404C31.7117 17.3758 31.6593 16.7154 31.5261 16.0633C31.4769 15.8205 31.4137 15.5805 31.3409 15.344C31.3003 15.2115 31.3364 15.1931 31.4554 15.2194C31.8317 15.303 32.1286 15.5125 32.378 15.7963C32.841 16.3224 33.1095 16.9513 33.3259 17.6068C33.3294 17.6179 33.3315 17.6294 33.3343 17.6415C33.354 17.705 33.3083 17.7196 33.2625 17.7338Z" fill="#93BD46"/>
<path d="M28.3892 24.6917C29.0857 24.7031 29.9049 24.7746 30.6836 25.0999C30.8411 25.1658 30.8824 25.2286 30.8223 25.4037C30.4221 26.5608 30.0343 27.7225 29.6486 28.8848C29.6021 29.0259 29.564 29.0634 29.4124 28.9937C28.5229 28.5788 27.5413 28.4004 26.5626 28.4758C26.2207 28.4975 25.889 28.6008 25.5953 28.7772C24.7833 29.2715 24.6366 30.2912 25.2744 30.9971C25.5752 31.3297 25.931 31.5947 26.3084 31.8337C27.1828 32.3887 27.9861 33.0196 28.5976 33.8732C29.2164 34.7403 29.4835 35.7081 29.4648 36.7587C29.4471 37.8339 29.2157 38.8589 28.6646 39.7919C27.9109 41.0673 26.7732 41.7884 25.3178 41.9688C23.4979 42.1942 21.8333 41.7471 20.338 40.6833C20.0842 40.5011 19.8515 40.2911 19.6443 40.0572C19.6139 40.0274 19.5931 39.9893 19.5844 39.9476C19.5757 39.9059 19.5795 39.8626 19.5954 39.8231C19.8676 38.934 20.1365 38.0438 20.4022 37.1523C20.4462 37.0039 20.4945 37.0195 20.5961 37.0996C21.1559 37.5419 21.7487 37.9321 22.4157 38.1957C22.8198 38.3552 23.2322 38.4853 23.6737 38.4909C24.657 38.5026 25.1683 37.7704 25.058 36.8676C24.998 36.3778 24.733 35.9855 24.3952 35.6383C24.108 35.3432 23.7798 35.0972 23.4542 34.8475C22.8877 34.4129 22.3671 33.9329 21.9807 33.3214C21.4903 32.5468 21.2561 31.7036 21.2922 30.7869C21.347 29.3936 21.7684 28.1311 22.6612 27.0482C23.5697 25.9462 24.7566 25.2903 26.1263 24.9428C26.8249 24.7659 27.5359 24.691 28.3892 24.6917Z" fill="#FEFEFE"/>
</g>
<defs>
<clipPath id="clip0_388_146">
<rect width="30" height="34.155" fill="white" transform="translate(15 13)"/>
</clipPath>
</defs>
</svg>
