<svg width="375" height="402" viewBox="0 0 375 402" fill="none" xmlns="http://www.w3.org/2000/svg">
<g opacity="0.05" clip-path="url(#clip0_51_46)">
<path d="M148.1 106.913C145.716 105.82 143.156 105.549 140.971 106.937C138.928 108.23 137.296 110.158 135.745 111.58C135.816 107.995 133.925 104.891 130.073 102.798C135.064 101.681 137.906 99.2597 138.611 95.333C139.539 90.1484 137.049 86.692 132.234 84.3995C137.366 83.9645 140.678 81.3899 141.653 77.2046C142.193 74.8533 142.064 72.4314 140.572 70.5034C139.21 68.7399 137.378 67.3409 135.969 65.9889C140.842 65.601 144.095 63.1439 145.117 58.7234C145.669 56.3486 145.446 53.9386 143.954 52.0458C142.58 50.2941 140.701 48.9421 139.245 47.5901C144.624 46.7319 147.642 44.0631 148.264 39.3253C148.804 35.1518 146.374 31.6131 141.429 29.3911C147.325 29.0737 150.895 26.3814 151.47 21.7964C152.034 17.329 149.65 13.4376 145.493 12.0503C141.5 10.7101 137.014 12.4148 134.982 16.1063C133.643 18.5399 133.221 21.2556 134.548 23.6539C135.722 25.7936 137.671 27.5101 139.139 29.2383C135.499 29.3558 132.504 31.2956 130.473 35.4927C129.991 31.0017 127.983 28.1214 124.072 26.2874C129.521 25.582 132.81 22.6782 133.491 18.3518C134.101 14.4839 132.034 10.4867 128.5 8.73502C126.163 7.58289 123.614 7.18317 121.348 8.37057C119.222 9.47567 117.449 11.2627 115.734 12.5676C115.182 11.3802 114.677 9.65202 113.691 8.27652C112.704 6.92452 111.225 5.92523 109.992 4.80836C113.421 3.98541 115.875 2.30424 117.202 -0.0117798H100.996C101.888 1.59885 103.227 2.95085 104.918 3.78555C102.523 5.2316 100.045 6.72466 97.7429 8.12368C96.545 6.27792 95.0888 4.03244 93.7617 1.98682C94.5838 1.36372 95.4646 0.693607 96.3923 -0.0117798H84.9775C85.0597 0.129298 85.1536 0.282131 85.2358 0.423209C83.4977 1.52831 81.4426 2.84504 79.4697 4.09122C78.5419 2.80977 77.5085 1.38724 76.4985 -2.3338e-05H61.7601C61.6427 0.0705153 61.537 0.129298 61.4196 0.18808C61.3726 0.129298 61.3139 0.0587589 61.2669 -2.3338e-05H0V3.36232C1.51494 2.29248 3.06511 1.19913 4.61528 0.105785C5.62524 1.78696 6.77612 3.71501 7.91526 5.61956C6.38858 6.6894 4.7562 7.84153 3.26475 8.88785C2.17259 7.5241 1.06868 6.12509 0 4.78485V20.3151C0.399286 20.0447 0.786828 19.7743 1.19786 19.4922C1.85551 20.6561 2.56013 21.8787 3.32347 23.2072C2.1491 24.0302 1.08042 24.7591 0 25.5115V116.836C1.17437 116.095 2.37223 115.342 3.58183 114.578C4.65051 116.048 5.7779 117.6 6.89355 119.128C5.28467 120.398 3.55834 121.762 1.90248 123.066C1.31529 122.079 0.669391 121.009 0.0117437 119.904V131.602C0.211387 131.484 0.399286 131.367 0.587185 131.237C1.0217 132.119 1.49145 133.4 2.2313 134.494C2.95941 135.552 3.95763 136.422 4.62702 137.139C3.11208 138.432 1.56191 139.761 0.0117437 141.089V152.54C1.1274 153.939 2.64233 155.044 4.63876 155.937C2.84198 156.067 1.32704 156.467 0.0117437 157.09V173.278C0.986471 173.725 2.07864 174.019 3.32347 174.113C6.91704 174.407 10.6046 172.173 12.0843 168.776C13.1177 166.389 13.3643 163.826 12.0608 161.604C10.8747 159.606 9.0544 157.983 7.56295 156.243C11.0508 156.043 13.9985 154.315 16.1241 150.494C16.7348 154.809 18.7899 157.607 22.5714 159.265C16.0419 160.887 13.059 163.967 13.1647 168.74C13.2586 173.149 16.3942 176.735 20.8451 177.499C24.8732 178.204 28.9365 175.912 30.5336 172.056C32.4244 167.494 30.792 163.532 25.2607 159.77C29.2653 159.617 32.1543 157.913 34.2446 154.491C35.0784 158.43 37.251 160.875 40.7272 162.321C33.6692 164.555 31.0151 167.67 31.6728 172.761C32.2482 177.193 35.7596 180.426 40.2222 180.638C44.3795 180.838 48.3253 177.875 49.2531 173.843C49.8168 171.397 49.6994 168.881 48.0905 166.965C46.5755 165.155 44.5321 163.791 43.2168 162.662C47.1862 163.038 50.4275 160.758 52.7175 156.22C52.788 160.993 55.1132 163.803 59.0943 165.778C53.6922 166.436 50.3922 169.575 50.1104 173.948C49.8168 178.416 52.4944 182.225 56.6869 183.307C60.6915 184.341 64.9427 182.413 66.7865 178.698C67.9491 176.358 68.2896 173.784 67.0566 171.538C65.8822 169.422 63.9914 167.706 62.7349 166.201C63.968 165.672 65.9527 165.202 67.4441 164.073C68.9473 162.933 69.969 161.134 71.1316 159.711C72.1181 165.46 74.9248 168.482 79.7515 168.893C83.58 169.211 87.3967 166.706 88.7589 162.956C89.6867 160.417 89.7102 157.783 88.1482 155.62C86.7742 153.716 84.7896 152.246 83.5565 151.059C84.8483 150.6 86.9387 150.236 88.5475 149.166C90.1447 148.096 91.2486 146.309 92.2585 145.18C92.9162 146.732 93.3977 148.895 94.619 150.482C95.8169 152.046 97.7663 153.045 99.1286 154.092C93.8792 154.444 90.3678 157.301 89.9098 161.922C89.4753 166.33 92.0824 170.163 96.3219 171.374C100.385 172.538 104.707 170.562 106.539 166.695C107.69 164.249 107.972 161.616 106.551 159.359C105.282 157.337 103.345 155.738 101.9 154.162C106.938 153.422 109.898 150.894 110.684 146.285C111.401 142.041 109.169 138.585 103.85 135.928C108.747 136.104 111.882 133.753 113.808 129.391C115.664 136.245 118.929 139.161 123.931 138.62C128.476 138.138 131.823 134.623 132.058 130.073C132.281 125.923 129.345 121.938 125.329 120.997C122.816 120.41 120.232 120.539 118.271 122.232C116.498 123.76 115.194 125.829 114.043 127.228C114.501 123.548 112.505 120.374 108.547 117.917C112.763 117.365 115.499 115.342 117.32 111.616C118.259 116.777 120.901 119.951 125.822 120.386C130.707 120.821 133.843 118.129 135.616 113.426C136.11 119.669 138.881 123.102 143.567 123.56C147.924 123.983 151.776 121.303 152.938 117.047C154.019 113.003 151.987 108.7 148.1 106.913ZM129.956 38.2319C130.613 43.0403 132.88 46.0265 137.202 47.3902C132.915 47.3549 129.756 49.1419 127.584 53.1626C126.973 49.4829 125.352 46.8024 121.888 44.8391C125.81 43.9808 128.359 41.9587 129.956 38.2319ZM127.008 58.1121C127.572 61.4744 129.721 64.1549 133.397 65.7185C129.662 65.7185 126.809 67.2704 124.918 69.9743C123.438 67.6348 122.005 65.3658 120.749 63.3907C122.722 61.7213 124.918 59.8638 127.008 58.1121ZM115.217 18.2695C115.617 21.2321 117.496 23.8303 120.303 25.2763C117.825 26.6283 115.229 28.0509 112.834 29.3558C111.53 27.5806 109.945 25.4292 108.618 23.6187C110.673 21.9375 112.951 20.0917 115.217 18.2695ZM111.377 38.0791C112.834 39.9366 114.454 41.9822 115.91 43.8515C114.067 44.9684 111.812 46.3439 109.733 47.6136C108.723 45.9324 107.514 43.9338 106.328 41.9822C107.96 40.7126 109.815 39.29 111.377 38.0791ZM96.2632 16.0358C97.6254 18.0109 99.1404 20.2093 100.585 22.3137C98.8937 23.3365 96.909 24.5474 95.0653 25.6643C93.8439 23.8656 92.5169 21.9375 91.2486 20.0682C92.9279 18.7045 94.666 17.3172 96.2632 16.0358ZM93.198 35.3163C94.1845 36.7977 95.2532 38.3965 96.3688 40.0777C94.9244 40.983 93.3742 41.9587 91.8593 42.911C90.9315 41.559 89.9685 40.1365 88.9703 38.6787C90.3326 37.5971 91.7653 36.4567 93.198 35.3163ZM89.8981 54.5146C90.9667 55.8901 91.8945 57.0893 92.9044 58.3942C91.7066 59.1467 90.45 59.9343 89.0643 60.8161C88.2774 59.6875 87.4671 58.5236 86.5981 57.2656C87.6668 56.3604 88.7589 55.4551 89.8981 54.5146ZM86.9034 73.3837C87.7959 74.4888 88.6767 75.5822 89.6045 76.7226C88.3127 77.5102 87.0443 78.2862 85.6821 79.1209C85.0362 78.1333 84.3668 77.1223 83.6152 75.9701C84.7778 75.0649 85.7878 74.2654 86.9034 73.3837ZM77.9195 13.4729C79.0586 15.1188 80.233 16.8235 81.3839 18.4811C79.9746 19.3393 78.4597 20.2681 76.8625 21.2439C75.8878 19.9154 74.8309 18.4811 73.727 16.9763C75.101 15.8242 76.5455 14.6132 77.9195 13.4729ZM74.8544 33.1414C75.6177 34.2348 76.3576 35.2928 77.1209 36.4097C76.2166 36.9152 75.3476 37.3972 74.3377 37.9615C73.7035 37.1268 73.0693 36.2804 72.3295 35.3046C73.269 34.5051 74.0323 33.8468 74.8544 33.1414ZM65.4242 90.2307C65.9057 90.8891 66.2462 91.3476 66.6338 91.8766C65.753 92.4644 64.9309 93.017 64.0149 93.6283C63.6626 93.064 63.3808 92.5938 62.9815 91.9472C63.8153 91.3593 64.5904 90.8068 65.4242 90.2307ZM59.5523 11.1804C60.4214 12.4383 61.3139 13.708 62.2416 15.0482C61.079 15.7536 59.8812 16.4943 58.695 17.2114C57.8965 16.0593 57.1214 14.9424 56.3228 13.7903C57.3915 12.9203 58.4367 12.0856 59.5523 11.1804ZM41.2791 7.51235C41.972 8.75853 42.6414 9.94593 43.3578 11.2391C42.2421 11.9798 41.1147 12.7322 39.8699 13.5552C39.0713 12.5794 38.2727 11.5918 37.4154 10.5338C38.6838 9.54621 39.9169 8.58218 41.2791 7.51235ZM23.0177 4.02068C23.828 5.36092 24.6383 6.71291 25.5191 8.17071C24.2273 9.00542 22.8533 9.88715 21.4323 10.8042C20.4693 9.66378 19.518 8.5234 18.5551 7.39478C20.0348 6.27792 21.4557 5.19633 23.0177 4.02068ZM19.0835 24.1595C19.4946 24.7591 19.8469 25.2763 20.2696 25.8877C19.4241 26.4873 18.8369 26.8987 17.9796 27.4983C17.5686 27.0751 17.1458 26.6401 16.5351 26.0052C17.4981 25.3116 18.2262 24.7826 19.0835 24.1595ZM5.43734 103.457C4.58005 102.199 3.74624 100.976 2.87721 99.7064C3.9224 99.0833 4.9441 98.4602 6.08324 97.7666C6.87007 98.8247 7.60992 99.8357 8.42024 100.917C7.37505 101.811 6.40032 102.634 5.43734 103.457ZM17.0636 145.415C15.9245 143.44 14.5505 141.054 13.2234 138.75C14.9497 137.574 16.9462 136.21 18.743 134.988C20.1874 136.88 21.7728 138.949 23.1116 140.713C21.1856 142.206 18.9896 143.922 17.0636 145.415ZM20.2579 126.006C19.2597 124.43 18.2027 122.749 17.1576 121.103C18.602 120.245 20.1405 119.34 21.6906 118.411C22.7476 119.728 23.8162 121.068 24.8144 122.326C23.2643 123.572 21.7141 124.818 20.2579 126.006ZM23.9102 105.808C23.2995 104.938 22.7358 104.15 22.0899 103.245C22.8767 102.74 23.5931 102.269 24.4504 101.717C25.0023 102.41 25.5191 103.069 26.1767 103.903C25.4486 104.515 24.7557 105.091 23.9102 105.808ZM35.2311 148.108C34.045 146.297 32.624 144.134 31.25 142.041C33.0233 140.866 35.1959 139.431 37.2158 138.079C38.6485 139.902 40.2692 141.983 41.6314 143.723C39.635 145.086 37.3215 146.673 35.2311 148.108ZM38.6955 129.133C37.6856 127.51 36.6404 125.817 35.5834 124.125C36.9457 123.231 38.4371 122.232 40.0225 121.197C41.056 122.573 42.1599 124.042 43.2403 125.465C41.6784 126.734 40.1165 127.992 38.6955 129.133ZM42.2891 109.676C41.7254 108.712 41.1969 107.818 40.6215 106.831C41.4553 106.29 42.2304 105.784 43.1816 105.161C43.8393 105.949 44.3912 106.607 45.0723 107.407C44.1798 108.136 43.3108 108.841 42.2891 109.676ZM53.0816 153.939C52.7997 149.93 51.3435 147.132 48.6894 145.404C51.0969 143.84 53.4691 142.3 55.583 140.925C57.1449 142.935 58.9886 145.31 60.7619 147.602C57.6851 148.037 54.9018 149.918 53.0816 153.939ZM57.1096 132.848C56.1114 131.096 55.031 129.18 53.9623 127.299C55.442 126.229 57.0979 125.03 58.6128 123.936C59.9281 125.571 61.3139 127.299 62.5939 128.874C60.8206 130.156 58.8947 131.555 57.1096 132.848ZM60.3861 113.461C59.658 112.251 58.8947 111.004 58.0844 109.676C59.294 108.818 60.5036 107.948 61.7719 107.042C62.7466 108.218 63.6157 109.276 64.5199 110.358C63.1811 111.369 61.8189 112.38 60.3861 113.461ZM71.2256 158.007C71.3782 153.668 69.5815 150.518 65.5651 148.237C69.2761 147.79 71.9654 146.227 73.9853 143.064C74.9366 146.732 77.027 149.142 80.2212 150.612C75.5473 151.223 72.6466 153.668 71.2256 158.007ZM75.1127 136.081C74.0088 134.4 72.6348 132.331 71.3195 130.332C73.0811 129.109 75.1715 127.675 77.1561 126.299C78.5654 128.063 80.1978 130.097 81.6305 131.872C79.5519 133.201 77.2501 134.694 75.1127 136.081ZM78.6124 117.282C77.6494 115.707 76.569 113.955 75.512 112.204C77.027 111.122 78.6006 110.005 80.139 108.912C81.3956 110.558 82.6052 112.145 83.6974 113.579C82.0298 114.802 80.3035 116.06 78.6124 117.282ZM82.1355 98.3897C81.4309 97.1553 80.6675 95.8268 79.8924 94.463C81.102 93.5813 82.3116 92.6996 83.4977 91.8296C84.5194 93.017 85.5411 94.2161 86.5629 95.4035C85.1536 96.3558 83.6974 97.3316 82.1355 98.3897ZM92.5991 143.217C92.9279 138.491 91.2134 135.34 88.1365 133.4C90.5675 131.884 93.0689 130.332 95.582 128.768C96.3101 131.707 98.3418 134.247 102.37 135.763C97.3436 136.198 94.3137 138.42 92.5991 143.217ZM96.6155 121.044C95.582 119.316 94.2902 117.141 93.1393 115.213C94.9596 113.802 96.9678 112.239 98.5532 111.004C100.233 113.073 102.006 115.26 103.439 117.024C101.36 118.246 98.8937 119.704 96.6155 121.044ZM99.9624 102.646C98.9172 100.988 97.6607 99.0128 96.4393 97.0965C98.1187 95.8268 100.033 94.3925 101.689 93.1463C103.145 94.9686 104.672 96.8849 106.034 98.6013C104.12 99.871 102.006 101.282 99.9624 102.646ZM103.157 83.8235C102.217 82.3304 101.09 80.5434 99.9742 78.7682C101.595 77.5573 103.392 76.217 105.212 74.865C106.492 76.4992 107.936 78.3449 109.252 80.0496C107.373 81.2135 105.259 82.5185 103.157 83.8235ZM106.762 65.4481C105.646 63.7552 104.437 61.9212 103.227 60.0754C104.777 58.888 106.504 57.5595 108.148 56.2898C109.404 58.0768 110.778 60.0284 112.07 61.8742C110.403 62.991 108.512 64.2607 106.762 65.4481ZM117.872 108.371C117.425 104.327 115.734 101.658 112.54 99.6947C115.993 98.8835 118.506 97.1905 120.22 93.8047C120.901 97.602 122.593 100.282 126.221 102.093C122.24 102.787 119.563 104.55 117.872 108.371ZM121.113 89.7017C120.596 86.0102 119.058 83.3062 116.592 81.7778C118.929 80.1789 121.254 78.5801 123.556 77.0047C124.272 80.1554 126.397 82.6596 130.355 84.1644C126.033 84.3172 123.18 86.0102 121.113 89.7017Z" fill="white"/>
<path d="M118.67 0C119.328 4.26759 122.921 7.4771 127.384 7.50061C131.882 7.52413 135.522 4.2911 136.192 0H118.67Z" fill="white"/>
<path d="M151.106 86.9625C146.115 87.0095 142.216 83.1652 142.193 78.1922C142.169 73.2074 146.033 69.3278 151.001 69.3278C155.886 69.3278 159.738 73.1251 159.808 77.9923C159.867 82.9888 156.05 86.9272 151.106 86.9625Z" fill="white"/>
<path d="M156.732 96.591C156.696 101.529 152.774 105.361 147.806 105.303C142.886 105.244 139.081 101.294 139.163 96.3088C139.233 91.4769 143.109 87.6914 147.982 87.7031C152.915 87.7149 156.767 91.618 156.732 96.591Z" fill="white"/>
<path d="M163.249 59.7228C163.273 64.5899 159.456 68.5048 154.618 68.5519C149.65 68.5989 145.728 64.6958 145.739 59.7463C145.763 54.8909 149.627 51.0348 154.488 51.023C159.339 51.023 163.226 54.8674 163.249 59.7228Z" fill="white"/>
<path d="M119.844 156.831C115.03 156.761 111.213 152.822 111.26 147.978C111.307 143.076 115.323 139.22 120.267 139.337C125.059 139.455 128.828 143.44 128.746 148.296C128.652 153.104 124.695 156.902 119.844 156.831Z" fill="white"/>
<path d="M148.851 41.6884C148.957 36.9153 153.032 33.0239 157.788 33.165C162.556 33.3061 166.42 37.4091 166.244 42.1587C166.079 46.8495 162.087 50.6468 157.424 50.5763C152.656 50.5057 148.746 46.4498 148.851 41.6884Z" fill="white"/>
<path d="M77.2501 186.951C72.4822 186.975 68.501 183.001 68.5128 178.228C68.5245 173.455 72.5174 169.493 77.2853 169.528C81.9711 169.563 85.8582 173.455 85.917 178.145C85.9639 182.907 82.018 186.928 77.2501 186.951Z" fill="white"/>
<path d="M37.4977 181.426C42.1716 181.437 46.1058 185.376 46.094 190.055C46.0823 194.734 42.1482 198.672 37.4742 198.661C32.8002 198.649 28.866 194.71 28.8778 190.031C28.8778 185.34 32.8237 181.414 37.4977 181.426Z" fill="white"/>
<path d="M141.488 124.571C146.197 124.642 150.096 128.639 150.026 133.306C149.955 138.021 145.963 141.924 141.3 141.853C136.591 141.783 132.692 137.786 132.763 133.118C132.821 128.416 136.826 124.501 141.488 124.571Z" fill="white"/>
<path d="M137.39 3.76971e-05C137.213 0.658399 137.096 1.32852 137.096 2.0339C137.061 6.70121 140.96 10.6866 145.645 10.7572C150.39 10.8395 154.453 6.79526 154.418 2.0339C154.418 1.32852 154.289 0.646642 154.124 -0.0117188H137.39V3.76971e-05Z" fill="white"/>
<path d="M0.763341 174.842C0.504979 174.842 0.258362 174.901 0 174.924V192.053C0.281849 192.077 0.551954 192.136 0.845547 192.136C5.54303 192.112 9.47717 188.138 9.44194 183.448C9.40671 178.745 5.43734 174.807 0.763341 174.842Z" fill="white"/>
<path d="M27.7974 186.61C27.7504 191.301 23.8045 195.228 19.1305 195.216C14.3743 195.216 10.358 191.113 10.4754 186.375C10.5928 181.672 14.574 177.816 19.248 177.875C23.922 177.934 27.8444 181.943 27.7974 186.61Z" fill="white"/>
<path d="M160.713 32.0481C155.992 32.1186 152.069 28.239 152.081 23.5012C152.081 18.8456 155.839 15.0365 160.513 14.966C165.234 14.8954 169.156 18.7751 169.145 23.5129C169.133 28.1685 165.375 31.9776 160.713 32.0481Z" fill="white"/>
<path d="M124.988 166.424C125 171.127 121.277 174.889 116.568 174.936C111.788 174.983 107.96 171.127 108.019 166.354C108.077 161.651 111.847 157.924 116.545 157.948C121.242 157.971 124.977 161.722 124.988 166.424Z" fill="white"/>
<path d="M55.4303 184.647C60.163 184.67 63.8505 188.421 63.8153 193.158C63.7918 197.896 60.0456 201.588 55.3129 201.553C50.5802 201.529 46.8926 197.779 46.9279 193.041C46.9631 188.315 50.6976 184.623 55.4303 184.647Z" fill="white"/>
<path d="M95.2532 172.879C99.9624 172.937 103.591 176.699 103.521 181.437C103.462 186.152 99.7041 189.784 94.9713 189.714C90.2621 189.655 86.6333 185.893 86.7038 181.155C86.7625 176.441 90.5087 172.808 95.2532 172.879Z" fill="white"/>
<path d="M177.717 81.5545C177.753 86.3159 174.1 90.0309 169.368 90.0427C164.623 90.0544 160.936 86.3747 160.947 81.6251C160.959 76.9695 164.553 73.3132 169.192 73.2427C173.948 73.1839 177.682 76.8167 177.717 81.5545Z" fill="white"/>
<path d="M138.235 142.77C142.991 142.735 146.702 146.403 146.691 151.153C146.691 155.808 143.062 159.476 138.423 159.512C133.667 159.547 129.956 155.879 129.968 151.129C129.979 146.474 133.596 142.806 138.235 142.77Z" fill="white"/>
<path d="M166.173 107.936C161.452 107.889 157.835 104.127 157.918 99.3538C158 94.7335 161.711 91.1595 166.385 91.1948C171.106 91.2418 174.723 95.0039 174.641 99.777C174.558 104.409 170.847 107.983 166.173 107.936Z" fill="white"/>
<path d="M180.736 63.379C180.7 68.0816 176.942 71.7144 172.186 71.6321C167.594 71.5498 164.013 67.8347 164.048 63.1792C164.083 58.4766 167.841 54.8438 172.597 54.9261C177.189 55.0084 180.771 58.7352 180.736 63.379Z" fill="white"/>
<path d="M162.791 126.253C158.176 126.253 154.488 122.585 154.465 117.976C154.441 113.25 158.176 109.547 162.897 109.594C167.5 109.641 171.129 113.344 171.118 117.988C171.094 122.596 167.407 126.253 162.791 126.253Z" fill="white"/>
<path d="M175.78 36.6331C180.348 36.5743 184.141 40.3011 184.165 44.8744C184.188 49.4477 180.442 53.2215 175.885 53.2215C171.411 53.2215 167.688 49.5652 167.606 45.086C167.524 40.5128 171.223 36.6919 175.78 36.6331Z" fill="white"/>
<path d="M157.636 0C156.52 1.39902 155.815 3.13897 155.804 5.05527C155.757 9.64029 159.444 13.4141 164.001 13.4494C168.581 13.4964 172.351 9.80488 172.386 5.24338C172.409 3.25654 171.693 1.44604 170.542 0H157.636V0Z" fill="white"/>
<path d="M82.0063 196.638C81.9828 201.212 78.2483 204.915 73.6683 204.903C69.1 204.88 65.4007 201.141 65.4124 196.556C65.4359 191.983 69.1704 188.28 73.7505 188.291C78.3305 188.315 82.0298 192.053 82.0063 196.638Z" fill="white"/>
<path d="M159.632 144.534C155.158 144.475 151.459 140.701 151.482 136.234C151.517 131.684 155.416 127.887 159.938 128.028C164.424 128.157 168.076 131.99 167.97 136.434C167.876 140.925 164.083 144.604 159.632 144.534Z" fill="white"/>
<path d="M23.875 204.88C23.8867 209.324 20.1757 213.086 15.7248 213.144C11.2153 213.203 7.36333 209.335 7.42205 204.821C7.48077 200.365 11.2505 196.65 15.6779 196.674C20.1287 196.685 23.8515 200.424 23.875 204.88Z" fill="white"/>
<path d="M121.677 184.706C121.735 189.138 118.048 192.935 113.597 193.041C109.099 193.147 105.212 189.314 105.224 184.788C105.235 180.344 108.97 176.594 113.409 176.57C117.836 176.535 121.618 180.25 121.677 184.706Z" fill="white"/>
<path d="M134.865 177.71C130.426 177.722 126.656 173.972 126.644 169.516C126.632 165.072 130.379 161.298 134.829 161.287C139.269 161.275 143.038 165.025 143.05 169.481C143.062 173.925 139.304 177.699 134.865 177.71Z" fill="white"/>
<path d="M0 194.005V209.688C3.3587 208.677 5.91883 205.538 5.95406 201.882C5.97755 198.214 3.40567 195.028 0 194.005Z" fill="white"/>
<path d="M187.112 26.4755C187.183 30.9077 183.437 34.7168 178.974 34.7403C174.535 34.7638 170.753 30.99 170.765 26.5343C170.777 22.1609 174.394 18.4812 178.798 18.3753C183.225 18.2813 187.042 21.9963 187.112 26.4755Z" fill="white"/>
<path d="M33.9158 216.577C29.4415 216.53 25.7187 212.709 25.8127 208.277C25.9066 203.798 29.7468 200.083 34.1624 200.224C38.5663 200.353 42.1716 204.045 42.1599 208.418C42.1481 212.874 38.3549 216.636 33.9158 216.577Z" fill="white"/>
<path d="M100.186 199.577C100.244 204.045 96.498 207.831 92.0237 207.807C87.6198 207.795 83.9792 204.174 83.9088 199.754C83.85 195.286 87.5963 191.501 92.0706 191.524C96.4863 191.536 100.127 195.157 100.186 199.577Z" fill="white"/>
<path d="M156.379 146.626C160.842 146.697 164.318 150.294 164.247 154.774C164.177 159.241 160.583 162.721 156.109 162.65C151.646 162.58 148.17 158.982 148.241 154.503C148.3 150.024 151.893 146.556 156.379 146.626Z" fill="white"/>
<path d="M52.4122 219.505C47.9613 219.552 44.356 216.06 44.2738 211.604C44.1916 207.066 47.7969 203.398 52.33 203.41C56.7926 203.422 60.3274 206.961 60.3509 211.428C60.3861 215.884 56.8748 219.458 52.4122 219.505Z" fill="white"/>
<path d="M192.127 103.057C192.127 107.572 188.604 111.051 184.083 111.016C179.679 110.969 176.25 107.501 176.25 103.069C176.25 98.5543 179.773 95.0744 184.294 95.1097C188.698 95.1567 192.127 98.6249 192.127 103.057Z" fill="white"/>
<path d="M190.683 58.4178C195.18 58.3943 198.68 61.8977 198.657 66.4004C198.633 70.8091 195.192 74.2537 190.788 74.2655C186.29 74.289 182.791 70.7856 182.814 66.2829C182.838 61.886 186.279 58.4413 190.683 58.4178Z" fill="white"/>
<path d="M187.688 92.6526C183.178 92.6526 179.69 89.1257 179.737 84.5994C179.784 80.1908 183.249 76.7579 187.676 76.7461C192.186 76.7461 195.674 80.2731 195.627 84.7993C195.58 89.2197 192.104 92.6526 187.688 92.6526Z" fill="white"/>
<path d="M181.957 16.5531C177.565 16.5296 174.112 13.0497 174.1 8.65276C174.1 4.1618 177.647 0.670135 182.157 0.740674C186.525 0.799456 189.943 4.33815 189.896 8.74681C189.86 13.1437 186.361 16.5766 181.957 16.5531Z" fill="white"/>
<path d="M189.027 121.468C189.003 125.865 185.527 129.321 181.135 129.333C176.649 129.333 173.161 125.782 173.231 121.268C173.29 116.894 176.825 113.473 181.229 113.52C185.609 113.556 189.038 117.059 189.027 121.468Z" fill="white"/>
<path d="M78.5654 214.614C78.5302 218.999 75.0306 222.444 70.6149 222.42C66.1406 222.397 62.6762 218.823 62.7584 214.308C62.8406 209.947 66.3872 206.549 70.8146 206.608C75.1832 206.667 78.6007 210.205 78.5654 214.614Z" fill="white"/>
<path d="M118.247 202.622C118.294 206.972 114.783 210.558 110.438 210.582C106.093 210.605 102.534 207.055 102.546 202.705C102.558 198.437 105.999 194.934 110.25 194.851C114.595 194.781 118.2 198.273 118.247 202.622Z" fill="white"/>
<path d="M161.018 172.902C161.065 177.24 157.495 180.849 153.161 180.838C148.91 180.826 145.387 177.334 145.34 173.09C145.293 168.752 148.863 165.143 153.197 165.155C157.448 165.155 160.971 168.646 161.018 172.902Z" fill="white"/>
<path d="M131.823 179.979C136.204 179.991 139.691 183.553 139.656 187.95C139.609 192.324 136.039 195.804 131.647 195.733C127.36 195.663 123.931 192.171 123.931 187.88C123.908 183.483 127.443 179.968 131.823 179.979Z" fill="white"/>
<path d="M193.818 40.113C198.198 40.1248 201.698 43.6752 201.663 48.0722C201.628 52.4455 198.058 55.9255 193.665 55.8667C189.379 55.8079 185.95 52.3162 185.938 48.0251C185.903 43.6282 189.426 40.1013 193.818 40.113Z" fill="white"/>
<path d="M177.988 131.508C182.215 131.461 185.797 134.952 185.879 139.208C185.962 143.523 182.345 147.191 178.035 147.167C173.795 147.144 170.26 143.605 170.249 139.361C170.237 135.129 173.76 131.555 177.988 131.508Z" fill="white"/>
<path d="M197.271 22.2903C201.487 22.2903 205.08 25.8995 205.045 30.12C205.01 34.3524 201.369 37.9263 197.165 37.8558C193.008 37.7853 189.543 34.2936 189.496 30.1318C189.461 25.9112 193.055 22.2903 197.271 22.2903Z" fill="white"/>
<path d="M12.5423 215.46C16.7583 215.425 20.3518 218.987 20.3871 223.22C20.4223 227.44 16.864 231.038 12.6362 231.073C8.42024 231.108 4.82667 227.546 4.79144 223.314C4.76795 219.081 8.32629 215.484 12.5423 215.46Z" fill="white"/>
<path d="M30.9916 218.541C35.2194 218.588 38.7894 222.232 38.7072 226.441C38.625 230.685 34.9493 234.224 30.7685 234.106C26.5995 233.989 23.1586 230.462 23.1703 226.323C23.1586 222.091 26.7756 218.494 30.9916 218.541Z" fill="white"/>
<path d="M0 215.084V225.324C1.23309 223.949 2.01992 222.162 2.01992 220.234C2.03166 218.27 1.24483 216.472 0 215.084Z" fill="white"/>
<path d="M96.7447 217.929C96.8151 222.126 93.2568 225.747 89.0408 225.771C84.8365 225.794 81.2547 222.209 81.2664 218C81.2782 213.862 84.7074 210.382 88.8646 210.276C93.0336 210.158 96.6742 213.697 96.7447 217.929Z" fill="white"/>
<path d="M182.18 157.678C182.192 161.922 178.833 165.296 174.594 165.307C170.354 165.319 166.984 161.957 166.972 157.713C166.96 153.469 170.319 150.095 174.558 150.083C178.798 150.071 182.168 153.433 182.18 157.678Z" fill="white"/>
<path d="M56.8748 229.768C56.91 234.012 53.563 237.398 49.3236 237.433C45.0841 237.469 41.7019 234.118 41.6667 229.874C41.6314 225.63 44.9784 222.244 49.2179 222.209C53.4456 222.173 56.8395 225.524 56.8748 229.768Z" fill="white"/>
<path d="M213.101 87.7737C213.101 92.0648 209.754 95.3566 205.456 95.2978C201.264 95.2508 198.046 91.959 198.046 87.7502C198.046 83.4591 201.393 80.1672 205.691 80.226C209.883 80.2731 213.113 83.5649 213.101 87.7737Z" fill="white"/>
<path d="M128.288 213.756C124.002 213.756 120.714 210.405 120.772 206.102C120.819 201.905 124.107 198.684 128.312 198.684C132.598 198.684 135.886 202.035 135.828 206.337C135.769 210.523 132.492 213.756 128.288 213.756Z" fill="white"/>
<path d="M157.624 190.831C157.659 195.122 154.371 198.437 150.096 198.425C145.916 198.414 142.651 195.181 142.616 191.007C142.58 186.716 145.869 183.401 150.143 183.412C154.324 183.412 157.589 186.657 157.624 190.831Z" fill="white"/>
<path d="M209.073 77.3222C204.892 77.3222 201.616 74.0774 201.592 69.8921C201.569 65.6128 204.892 62.3092 209.179 62.3445C213.348 62.3915 216.577 65.6833 216.554 69.8803C216.53 74.0774 213.254 77.3222 209.073 77.3222Z" fill="white"/>
<path d="M202.626 113.626C198.339 113.673 195.016 110.393 195.016 106.114C195.016 101.928 198.246 98.6484 202.415 98.6014C206.701 98.5543 210.024 101.834 210.024 106.114C210.024 110.311 206.795 113.591 202.626 113.626Z" fill="white"/>
<path d="M200.289 19.2218C196.026 19.1983 192.761 15.8595 192.832 11.5566C192.89 7.39484 196.19 4.18533 200.383 4.19708C204.646 4.2206 207.911 7.55943 207.84 11.8623C207.781 16.0241 204.481 19.2336 200.289 19.2218Z" fill="white"/>
<path d="M67.127 225.395C71.3195 225.371 74.6077 228.604 74.6547 232.778C74.69 237.069 71.39 240.384 67.1153 240.361C62.9463 240.337 59.6932 237.057 59.705 232.86C59.6932 228.675 62.9463 225.406 67.127 225.395Z" fill="white"/>
<path d="M206.924 124.419C206.948 128.604 203.683 131.919 199.526 131.943C195.345 131.966 192.033 128.698 192.01 124.536C191.986 120.351 195.251 117.035 199.408 117.012C203.589 116.988 206.901 120.257 206.924 124.419Z" fill="white"/>
<path d="M106.856 228.545C102.687 228.522 99.4222 225.218 99.4457 221.033C99.4692 216.859 102.769 213.591 106.95 213.615C111.119 213.638 114.384 216.942 114.36 221.127C114.337 225.289 111.037 228.557 106.856 228.545Z" fill="white"/>
<path d="M212.115 58.9116C207.969 58.8998 204.646 55.514 204.705 51.364C204.763 47.308 208.075 44.0515 212.138 44.0515C216.284 44.0632 219.607 47.4491 219.549 51.5991C219.49 55.6551 216.178 58.9234 212.115 58.9116Z" fill="white"/>
<path d="M178.939 176.041C178.951 180.191 175.58 183.53 171.423 183.483C167.371 183.436 164.107 180.132 164.095 176.065C164.083 171.915 167.453 168.576 171.611 168.623C175.662 168.67 178.939 171.973 178.939 176.041Z" fill="white"/>
<path d="M203.366 142.735C203.424 146.732 200.136 150.142 196.132 150.236C192.057 150.33 188.58 146.92 188.592 142.829C188.592 138.82 191.927 135.47 195.932 135.446C199.925 135.411 203.307 138.726 203.366 142.735Z" fill="white"/>
<path d="M200.794 0C201.675 0.423232 202.649 0.670118 203.671 0.705387C204.798 0.740656 205.867 0.470258 206.842 0H200.794Z" fill="white"/>
<path d="M215.544 40.4422C211.539 40.3952 208.169 36.9035 208.298 32.9416C208.427 28.9914 211.774 25.7467 215.685 25.7937C219.689 25.8407 223.06 29.3324 222.931 33.2943C222.802 37.2562 219.455 40.501 215.544 40.4422Z" fill="white"/>
<path d="M85.5177 243.723C81.5365 243.723 78.1309 240.302 78.1661 236.328C78.2013 232.319 81.6422 228.957 85.6116 229.027C89.534 229.098 92.8105 232.401 92.8575 236.316C92.8927 240.29 89.4988 243.723 85.5177 243.723Z" fill="white"/>
<path d="M9.48893 234.271C13.47 234.247 16.8875 237.645 16.8757 241.642C16.864 245.639 13.4348 249.025 9.46545 248.978C5.55479 248.931 2.25481 245.639 2.18435 241.724C2.12563 237.727 5.49607 234.294 9.48893 234.271Z" fill="white"/>
<path d="M27.492 251.999C23.5109 252.035 20.0817 248.602 20.1287 244.616C20.1757 240.69 23.4757 237.386 27.3863 237.351C31.3674 237.316 34.7966 240.749 34.7496 244.734C34.7027 248.661 31.4027 251.964 27.492 251.999Z" fill="white"/>
<path d="M153.913 209.265C153.925 213.203 150.648 216.519 146.702 216.566C142.698 216.613 139.292 213.191 139.363 209.183C139.433 205.232 142.745 201.964 146.679 201.999C150.613 202.023 153.901 205.315 153.913 209.265Z" fill="white"/>
<path d="M125.294 216.895C129.275 216.93 132.504 220.222 132.469 224.196C132.434 228.181 129.146 231.414 125.188 231.379C121.207 231.343 117.977 228.052 118.012 224.09C118.048 220.093 121.324 216.859 125.294 216.895Z" fill="white"/>
<path d="M200.148 161.169C200.16 165.143 196.918 168.411 192.937 168.423C188.968 168.435 185.703 165.19 185.691 161.204C185.68 157.231 188.921 153.962 192.902 153.951C196.871 153.939 200.124 157.195 200.148 161.169Z" fill="white"/>
<path d="M46.0706 241.007C50.0986 241.172 53.1285 244.499 52.9289 248.531C52.7292 252.564 49.394 255.573 45.3659 255.338C41.4201 255.115 38.4724 251.882 38.6016 247.932C38.7425 243.899 42.0425 240.831 46.0706 241.007Z" fill="white"/>
<path d="M167.958 201.553C163.93 201.517 160.842 198.331 160.9 194.287C160.959 190.266 164.165 187.186 168.205 187.28C172.139 187.363 175.157 190.49 175.157 194.428C175.146 198.461 171.987 201.588 167.958 201.553Z" fill="white"/>
<path d="M218.644 7.66522C222.684 7.65347 225.796 10.8042 225.761 14.8484C225.726 18.7986 222.649 21.8553 218.691 21.867C214.651 21.8788 211.539 18.728 211.575 14.6838C211.622 10.7337 214.698 7.67698 218.644 7.66522Z" fill="white"/>
<path d="M223.835 98.331C219.889 98.2957 216.836 95.192 216.848 91.2301C216.859 87.1858 220.03 84.1057 224.105 84.188C228.028 84.2702 231.034 87.421 230.975 91.3947C230.916 95.3331 227.793 98.3662 223.835 98.331Z" fill="white"/>
<path d="M103.826 232.366C107.784 232.354 110.884 235.411 110.908 239.361C110.943 243.417 107.819 246.544 103.756 246.509C99.8098 246.474 96.7681 243.37 96.7799 239.408C96.7916 235.446 99.8685 232.366 103.826 232.366Z" fill="white"/>
<path d="M234.428 72.8312C234.463 76.7931 231.374 79.9204 227.429 79.9321C223.483 79.9439 220.382 76.8284 220.394 72.8665C220.406 69.0104 223.447 65.9302 227.288 65.8832C231.234 65.8244 234.393 68.8928 234.428 72.8312Z" fill="white"/>
<path d="M227.898 109.57C227.922 113.532 224.857 116.647 220.911 116.671C216.953 116.695 213.841 113.626 213.818 109.676C213.794 105.714 216.859 102.599 220.805 102.575C224.775 102.552 227.875 105.62 227.898 109.57Z" fill="white"/>
<path d="M71.1316 251.271C71.1199 255.209 67.9843 258.301 64.0267 258.266C60.1043 258.23 57.0392 255.056 57.0979 251.106C57.1566 247.273 60.2452 244.228 64.0971 244.217C68.0313 244.205 71.1433 247.309 71.1316 251.271Z" fill="white"/>
<path d="M237.446 54.5382C237.446 58.4296 234.252 61.5803 230.353 61.5333C226.56 61.4745 223.483 58.3473 223.483 54.55C223.483 50.6586 226.677 47.5078 230.576 47.5549C234.369 47.6019 237.446 50.7409 237.446 54.5382Z" fill="white"/>
<path d="M224.798 127.534C224.798 131.461 221.627 134.588 217.693 134.541C213.865 134.494 210.799 131.378 210.799 127.534C210.799 123.607 213.97 120.48 217.904 120.527C221.745 120.586 224.798 123.69 224.798 127.534Z" fill="white"/>
<path d="M189.954 186.116C186.02 186.163 182.849 183.036 182.861 179.098C182.861 175.253 185.926 172.15 189.755 172.103C193.689 172.056 196.86 175.183 196.848 179.121C196.848 182.966 193.783 186.081 189.954 186.116Z" fill="white"/>
<path d="M215.838 0C217.059 1.97508 219.231 3.33883 221.674 3.36234C224.152 3.38586 226.372 2.01035 227.617 0H215.838Z" fill="white"/>
<path d="M171.893 212.427C171.834 216.201 168.569 219.364 164.835 219.27C161.065 219.175 157.929 215.872 158.059 212.145C158.188 208.442 161.347 205.397 165.011 205.42C168.757 205.432 171.951 208.677 171.893 212.427Z" fill="white"/>
<path d="M221.251 146.203C221.052 150.001 217.74 153.034 214.006 152.834C210.212 152.634 207.182 149.319 207.382 145.58C207.582 141.783 210.893 138.75 214.628 138.95C218.409 139.149 221.439 142.465 221.251 146.203Z" fill="white"/>
<path d="M240.405 36.1864C240.405 39.9485 237.141 43.158 233.406 43.0874C229.707 43.0051 226.63 39.8662 226.63 36.1864C226.63 32.4243 229.895 29.2148 233.629 29.2854C237.329 29.3676 240.405 32.5066 240.405 36.1864Z" fill="white"/>
<path d="M143.508 234.565C139.75 234.518 136.568 231.261 136.65 227.523C136.732 223.749 140.008 220.598 143.743 220.716C147.43 220.833 150.496 223.972 150.496 227.652C150.496 231.402 147.254 234.6 143.508 234.565Z" fill="white"/>
<path d="M89.3696 254.363C89.3226 258.125 86.0579 261.299 82.3234 261.217C78.5536 261.134 75.4063 257.842 75.5355 254.104C75.653 250.412 78.8003 247.344 82.4761 247.356C86.2223 247.379 89.4166 250.624 89.3696 254.363Z" fill="white"/>
<path d="M6.08324 253.116C3.47614 253.093 1.17437 254.645 0 256.867V263.098C1.17437 265.308 3.49962 266.883 6.10673 266.848C9.80599 266.801 12.9063 263.662 12.8946 259.97C12.8828 256.267 9.78251 253.14 6.08324 253.116Z" fill="white"/>
<path d="M129.04 242.406C129.099 246.086 126.033 249.248 122.322 249.354C118.576 249.448 115.311 246.227 115.335 242.465C115.358 238.773 118.47 235.646 122.158 235.635C125.834 235.611 128.981 238.703 129.04 242.406Z" fill="white"/>
<path d="M31.1913 263.086C31.1561 266.813 28.044 269.881 24.3447 269.858C20.622 269.822 17.5568 266.707 17.5803 263.004C17.6156 259.277 20.7276 256.208 24.4269 256.232C28.1497 256.255 31.2148 259.371 31.1913 263.086Z" fill="white"/>
<path d="M211.222 157.501C214.992 157.478 218.01 160.511 217.998 164.273C217.987 168.047 214.945 171.045 211.175 171.009C207.488 170.962 204.552 168.035 204.505 164.343C204.458 160.57 207.453 157.525 211.222 157.501Z" fill="white"/>
<path d="M193.114 197.438C193.137 201.212 190.119 204.233 186.349 204.221C182.579 204.21 179.573 201.165 179.62 197.391C179.667 193.699 182.591 190.76 186.279 190.713C190.037 190.666 193.09 193.664 193.114 197.438Z" fill="white"/>
<path d="M100.808 251.153C104.554 251.165 107.42 254.057 107.42 257.807C107.408 261.557 104.519 264.426 100.773 264.426C97.0265 264.414 94.161 261.522 94.161 257.772C94.1728 254.022 97.0617 251.153 100.808 251.153Z" fill="white"/>
<path d="M42.8175 259.43C46.5403 259.477 49.394 262.404 49.3823 266.142C49.3588 269.963 46.3524 272.855 42.5122 272.761C38.8012 272.667 35.9944 269.693 36.0649 265.943C36.1236 262.228 39.0713 259.383 42.8175 259.43Z" fill="white"/>
<path d="M237.07 24.9002C233.312 24.9237 230.412 22.0669 230.388 18.3166C230.365 14.5545 233.218 11.6507 236.965 11.6272C240.722 11.6036 243.623 14.4605 243.647 18.2108C243.658 21.9728 240.805 24.8767 237.07 24.9002Z" fill="white"/>
<path d="M242.167 100.906C238.468 100.87 235.614 97.9077 235.673 94.1809C235.731 90.4894 238.714 87.6444 242.437 87.7267C246.031 87.809 248.837 90.7128 248.826 94.3338C248.814 98.0488 245.89 100.941 242.167 100.906Z" fill="white"/>
<path d="M67.6203 269.611C67.6085 273.302 64.6374 276.218 60.9381 276.159C57.3445 276.1 54.4908 273.185 54.5025 269.575C54.5143 265.884 57.4854 262.968 61.1847 263.027C64.7665 263.086 67.6203 266.001 67.6203 269.611Z" fill="white"/>
<path d="M207.828 176.041C211.516 176.076 214.405 179.074 214.323 182.778C214.24 186.363 211.304 189.197 207.699 189.173C204.012 189.138 201.123 186.14 201.205 182.437C201.275 178.851 204.211 176.018 207.828 176.041Z" fill="white"/>
<path d="M161.817 224.137C165.387 224.09 168.381 226.958 168.452 230.532C168.534 234.2 165.551 237.245 161.899 237.233C158.329 237.222 155.393 234.294 155.369 230.72C155.346 227.158 158.246 224.195 161.817 224.137Z" fill="white"/>
<path d="M245.749 112.768C245.702 116.448 242.695 119.34 238.984 119.246C235.403 119.152 232.584 116.201 232.631 112.592C232.678 108.912 235.684 106.02 239.395 106.114C242.977 106.208 245.796 109.159 245.749 112.768Z" fill="white"/>
<path d="M235.602 124.489C239.172 124.43 242.167 127.311 242.249 130.885C242.331 134.553 239.36 137.597 235.696 137.586C232.126 137.586 229.19 134.658 229.155 131.084C229.131 127.51 232.032 124.536 235.602 124.489Z" fill="white"/>
<path d="M245.303 82.5303C241.615 82.5303 238.691 79.5559 238.738 75.8526C238.785 72.2552 241.697 69.3983 245.291 69.3983C248.978 69.3983 251.903 72.3727 251.856 76.076C251.82 79.6617 248.908 82.5303 245.303 82.5303Z" fill="white"/>
<path d="M140.466 252.517C136.908 252.481 133.972 249.484 133.996 245.933C134.031 242.371 137.026 239.432 140.572 239.455C144.13 239.491 147.066 242.489 147.043 246.039C147.008 249.601 144.013 252.552 140.466 252.517Z" fill="white"/>
<path d="M189.814 215.837C189.802 219.375 186.772 222.373 183.249 222.326C179.702 222.279 176.743 219.223 176.813 215.696C176.884 212.227 179.808 209.335 183.272 209.312C186.795 209.3 189.814 212.298 189.814 215.837Z" fill="white"/>
<path d="M79.0117 266.178C82.5465 266.213 85.5412 269.305 85.4355 272.82C85.3298 276.288 82.3586 279.169 78.9177 279.133C75.3829 279.098 72.3882 276.006 72.4939 272.491C72.5996 269.023 75.5708 266.143 79.0117 266.178Z" fill="white"/>
<path d="M232.655 142.476C236.189 142.476 239.196 145.557 239.114 149.072C239.031 152.54 236.084 155.444 232.643 155.432C229.108 155.432 226.102 152.352 226.184 148.837C226.254 145.38 229.202 142.476 232.655 142.476Z" fill="white"/>
<path d="M248.861 51.5285C252.407 51.5638 255.379 54.6205 255.308 58.1474C255.238 61.6979 252.161 64.6487 248.649 64.5429C245.185 64.4371 242.32 61.4862 242.32 58.0299C242.308 54.5029 245.326 51.4933 248.861 51.5285Z" fill="white"/>
<path d="M233.571 0C233.629 3.51518 236.647 6.46605 240.159 6.41902C243.623 6.36024 246.5 3.42113 246.547 0H233.571Z" fill="white"/>
<path d="M258.256 39.631C258.291 43.0992 255.39 46.05 251.914 46.0736C248.45 46.1088 245.502 43.205 245.479 39.7251C245.443 36.2569 248.344 33.3061 251.82 33.2825C255.273 33.2473 258.221 36.1511 258.256 39.631Z" fill="white"/>
<path d="M112.258 260.829C112.27 257.372 115.206 254.433 118.658 254.41C122.193 254.386 125.223 257.466 125.129 260.981C125.035 264.461 122.052 267.342 118.611 267.295C115.147 267.236 112.235 264.285 112.258 260.829Z" fill="white"/>
<path d="M211.034 200.542C211.023 204.068 208.145 206.914 204.634 206.866C201.111 206.819 198.292 203.916 198.363 200.4C198.433 196.956 201.217 194.205 204.658 194.181C208.181 194.158 211.046 197.026 211.034 200.542Z" fill="white"/>
<path d="M229.66 173.549C226.149 173.584 223.424 170.927 223.365 167.435C223.307 163.838 226.043 161.063 229.636 161.075C233.136 161.099 235.814 163.791 235.825 167.306C235.825 170.809 233.148 173.525 229.66 173.549Z" fill="white"/>
<path d="M3.01813 271.609C1.91422 271.609 0.892522 271.891 0 272.373V283.413C0.880778 283.883 1.86725 284.165 2.95941 284.177C6.5295 284.189 9.30101 281.391 9.26578 277.817C9.21881 274.337 6.49427 271.633 3.01813 271.609Z" fill="white"/>
<path d="M21.3148 287.633C17.8152 287.633 15.1142 284.941 15.0907 281.438C15.0672 277.84 17.8387 275.101 21.444 275.16C24.9319 275.218 27.586 277.946 27.5507 281.461C27.5272 284.965 24.8145 287.633 21.3148 287.633Z" fill="white"/>
<path d="M164.588 248.978C164.623 252.482 161.934 255.221 158.446 255.221C154.958 255.233 152.245 252.517 152.257 249.013C152.269 245.604 154.911 242.924 158.293 242.877C161.805 242.818 164.553 245.486 164.588 248.978Z" fill="white"/>
<path d="M97.3671 281.884C93.8674 281.92 91.1311 279.227 91.1311 275.736C91.1194 272.244 93.8322 269.528 97.3318 269.54C100.737 269.552 103.415 272.197 103.462 275.583C103.521 279.098 100.855 281.849 97.3671 281.884Z" fill="white"/>
<path d="M255.402 27.4984C251.902 27.5219 249.178 24.8179 249.178 21.3262C249.178 17.8346 251.902 15.1306 255.39 15.1541C258.796 15.1776 261.462 17.8228 261.509 21.2204C261.568 24.7238 258.89 27.4748 255.402 27.4984Z" fill="white"/>
<path d="M45.3894 284.424C45.4011 287.927 42.6883 290.631 39.2005 290.619C35.7126 290.608 33.0233 287.868 33.0585 284.365C33.0937 280.967 35.7478 278.31 39.1418 278.275C42.6414 278.24 45.3777 280.932 45.3894 284.424Z" fill="white"/>
<path d="M185.962 234.106C185.997 237.586 183.272 240.349 179.796 240.337C176.414 240.325 173.713 237.657 173.678 234.271C173.642 230.791 176.367 228.028 179.843 228.04C183.225 228.052 185.915 230.72 185.962 234.106Z" fill="white"/>
<path d="M232.197 185.658C232.197 189.008 229.449 191.771 226.102 191.783C222.755 191.783 219.995 189.032 219.983 185.681C219.983 182.331 222.731 179.568 226.078 179.556C229.425 179.556 232.197 182.319 232.197 185.658Z" fill="white"/>
<path d="M137.084 270.034C133.714 270.069 130.954 267.377 130.907 264.026C130.848 260.57 133.62 257.76 137.073 257.784C140.443 257.807 143.144 260.535 143.144 263.909C143.156 267.271 140.455 270.01 137.084 270.034Z" fill="white"/>
<path d="M57.5089 293.617C54.162 293.594 51.4257 290.796 51.4609 287.457C51.4844 284.106 54.2794 281.367 57.6146 281.402C60.9616 281.426 63.6978 284.224 63.6626 287.563C63.6391 290.913 60.8559 293.653 57.5089 293.617Z" fill="white"/>
<path d="M260.605 103.904C257.281 103.915 254.486 101.117 254.498 97.7784C254.521 94.4396 257.34 91.6768 260.663 91.7238C263.916 91.7709 266.606 94.4866 266.653 97.7314C266.711 101.07 263.94 103.892 260.605 103.904Z" fill="white"/>
<path d="M256.999 121.82C253.664 121.762 250.928 118.893 251.022 115.578C251.116 112.239 254.005 109.523 257.316 109.652C260.569 109.782 263.212 112.545 263.188 115.789C263.153 119.116 260.323 121.879 256.999 121.82Z" fill="white"/>
<path d="M195.568 218.717C195.674 215.378 198.574 212.674 201.874 212.803C205.209 212.945 207.887 215.86 207.723 219.175C207.558 222.432 204.763 225.054 201.522 224.983C198.187 224.901 195.462 222.032 195.568 218.717Z" fill="white"/>
<path d="M263.646 73.3955C266.958 73.3955 269.776 76.2641 269.694 79.5677C269.624 82.8125 266.864 85.5164 263.634 85.5164C260.323 85.5164 257.504 82.6479 257.586 79.3443C257.657 76.0995 260.417 73.3955 263.646 73.3955Z" fill="white"/>
<path d="M253.241 0C252.713 0.89349 252.384 1.9163 252.384 2.99789C252.407 6.23092 255.155 8.98193 258.373 8.99368C261.591 9.0172 264.363 6.27794 264.421 3.04492C264.445 1.95157 264.116 0.905247 263.576 0H253.241Z" fill="white"/>
<path d="M253.946 140.125C250.716 140.066 247.992 137.28 248.015 134.059C248.039 130.743 250.963 127.934 254.239 128.063C257.481 128.204 260.158 131.037 260.064 134.235C259.959 137.48 257.164 140.184 253.946 140.125Z" fill="white"/>
<path d="M267.31 55.1143C270.563 55.2318 273.241 58.0651 273.123 61.2746C273.006 64.5312 270.176 67.2116 266.97 67.0941C263.717 66.9765 261.039 64.1432 261.156 60.9337C261.274 57.6772 264.116 54.9967 267.31 55.1143Z" fill="white"/>
<path d="M115.711 285.2C112.505 285.247 109.71 282.531 109.651 279.286C109.604 276.077 112.329 273.279 115.558 273.22C118.764 273.173 121.559 275.889 121.618 279.133C121.665 282.343 118.94 285.141 115.711 285.2Z" fill="white"/>
<path d="M250.939 146.521C254.192 146.497 256.917 149.213 256.905 152.469C256.894 155.738 254.157 158.43 250.904 158.395C247.722 158.348 245.103 155.738 245.044 152.552C244.997 149.295 247.675 146.544 250.939 146.521Z" fill="white"/>
<path d="M75.9817 285.07C79.2465 285.117 81.9241 287.892 81.8301 291.137C81.7479 294.405 78.9529 297.062 75.7116 296.933C72.5174 296.815 69.9572 294.146 69.969 290.972C69.9925 287.716 72.7287 285.023 75.9817 285.07Z" fill="white"/>
<path d="M222.86 209.841C219.631 209.759 217.176 207.16 217.235 203.892C217.294 200.565 219.983 198.073 223.33 198.214C226.56 198.355 228.955 200.988 228.838 204.257C228.732 207.501 226.113 209.935 222.86 209.841Z" fill="white"/>
<path d="M182.532 252.07C182.544 255.338 180.066 257.866 176.801 257.878C173.537 257.889 171.012 255.409 171 252.141C170.988 248.872 173.466 246.345 176.731 246.333C179.996 246.321 182.509 248.813 182.532 252.07Z" fill="white"/>
<path d="M276.001 42.8405C275.954 46.0853 273.393 48.5777 270.14 48.5542C266.805 48.5306 264.28 45.8854 264.386 42.5231C264.492 39.2901 267.087 36.8447 270.352 36.9153C273.581 36.9976 276.048 39.584 276.001 42.8405Z" fill="white"/>
<path d="M155.44 261.663C158.693 261.699 161.159 264.25 161.1 267.53C161.041 270.775 158.47 273.22 155.181 273.138C152.034 273.055 149.615 270.563 149.627 267.377C149.638 264.12 152.163 261.64 155.44 261.663Z" fill="white"/>
<path d="M253.23 170.904C253.194 174.16 250.634 176.617 247.346 176.558C244.105 176.5 241.674 173.901 241.756 170.621C241.838 167.471 244.34 165.061 247.522 165.084C250.787 165.084 253.265 167.623 253.23 170.904Z" fill="white"/>
<path d="M0 290.514V301.988C3.25301 301.953 5.70744 299.413 5.66047 296.133C5.61349 292.982 3.15906 290.549 0 290.514Z" fill="white"/>
<path d="M273.358 30.073C270.211 30.1201 267.651 27.6747 267.569 24.5357C267.486 21.3027 270.035 18.681 273.264 18.6928C276.4 18.6928 278.925 21.1969 278.948 24.3359C278.96 27.4866 276.482 30.026 273.358 30.073Z" fill="white"/>
<path d="M139.633 282.308C139.609 285.423 137.037 287.962 133.925 287.939C130.813 287.915 128.276 285.341 128.3 282.225C128.323 279.11 130.895 276.57 134.007 276.594C137.119 276.618 139.656 279.192 139.633 282.308Z" fill="white"/>
<path d="M88.5358 293.888C88.618 290.666 91.2603 288.221 94.5368 288.362C97.6606 288.491 100.033 291.078 99.9624 294.252C99.8802 297.473 97.2379 299.919 93.9614 299.778C90.8258 299.648 88.4536 297.062 88.5358 293.888Z" fill="white"/>
<path d="M198.328 231.532C201.545 231.614 203.988 234.259 203.847 237.539C203.718 240.666 201.134 243.041 197.964 242.971C194.746 242.888 192.303 240.243 192.444 236.963C192.573 233.836 195.157 231.449 198.328 231.532Z" fill="white"/>
<path d="M23.5344 299.249C23.5696 302.505 21.033 305.045 17.78 305.033C14.6327 305.009 12.143 302.541 12.1078 299.39C12.0726 296.133 14.6092 293.594 17.8622 293.606C21.0213 293.617 23.5109 296.098 23.5344 299.249Z" fill="white"/>
<path d="M41.8311 302.846C41.8076 305.962 39.2357 308.501 36.1236 308.477C33.0115 308.454 30.4749 305.879 30.4984 302.764C30.5219 299.648 33.0938 297.109 36.2058 297.133C39.3179 297.156 41.8546 299.731 41.8311 302.846Z" fill="white"/>
<path d="M219.56 216.765C222.555 216.765 225.139 219.34 225.162 222.338C225.197 225.406 222.485 228.087 219.431 228.005C216.425 227.934 213.888 225.312 213.935 222.326C213.97 219.328 216.566 216.765 219.56 216.765Z" fill="white"/>
<path d="M244.422 194.346C241.427 194.346 238.843 191.771 238.82 188.773C238.785 185.705 241.498 183.024 244.551 183.107C247.557 183.189 250.082 185.799 250.047 188.785C250.012 191.795 247.416 194.358 244.422 194.346Z" fill="white"/>
<path d="M275.402 113.697C278.396 113.673 280.98 116.236 280.968 119.246C280.956 122.255 278.373 124.806 275.366 124.759C272.43 124.712 269.964 122.255 269.906 119.316C269.847 116.33 272.383 113.72 275.402 113.697Z" fill="white"/>
<path d="M60.0808 305.926C60.0456 308.924 57.4385 311.487 54.4556 311.452C51.4609 311.417 48.9008 308.807 48.936 305.821C48.9713 302.823 51.5784 300.26 54.5613 300.295C57.5559 300.33 60.116 302.94 60.0808 305.926Z" fill="white"/>
<path d="M278.843 106.408C275.824 106.349 273.299 103.727 273.393 100.741C273.487 97.7079 276.13 95.2155 279.113 95.3448C282.06 95.4742 284.468 97.9783 284.456 100.906C284.444 103.915 281.849 106.466 278.843 106.408Z" fill="white"/>
<path d="M282.213 6.37204C282.26 9.41696 279.77 11.9446 276.729 11.9328C273.769 11.9211 271.338 9.51101 271.28 6.54839C271.233 3.50347 273.722 0.975833 276.764 0.98759C279.723 0.999346 282.166 3.40942 282.213 6.37204Z" fill="white"/>
<path d="M287.439 82.8007C287.263 85.8691 284.632 88.1969 281.591 87.9618C278.608 87.7266 276.365 85.1872 276.529 82.2246C276.705 79.1562 279.336 76.8284 282.377 77.0635C285.36 77.2987 287.603 79.8381 287.439 82.8007Z" fill="white"/>
<path d="M112.493 303.034C109.44 302.987 106.997 300.413 107.103 297.368C107.22 294.393 109.686 292.03 112.646 292.077C115.699 292.124 118.142 294.699 118.036 297.744C117.93 300.73 115.452 303.081 112.493 303.034Z" fill="white"/>
<path d="M179.045 270.457C179.056 273.526 176.719 275.842 173.654 275.818C170.601 275.795 168.299 273.443 168.346 270.375C168.393 267.412 170.66 265.155 173.619 265.12C176.696 265.084 179.045 267.389 179.045 270.457Z" fill="white"/>
<path d="M272.477 131.755C275.484 131.802 277.797 134.188 277.774 137.21C277.75 140.313 275.284 142.665 272.16 142.559C269.154 142.453 266.899 140.031 266.981 136.998C267.064 133.988 269.459 131.696 272.477 131.755Z" fill="white"/>
<path d="M290.434 64.1785C290.422 67.1999 288.097 69.5394 285.078 69.5629C281.978 69.5864 279.582 67.1529 279.641 64.0374C279.7 61.0278 282.084 58.7235 285.102 58.7588C288.132 58.794 290.445 61.1453 290.434 64.1785Z" fill="white"/>
<path d="M72.764 304.01C75.8291 303.975 78.1779 306.279 78.1896 309.336C78.2014 312.392 75.8761 314.732 72.811 314.708C69.8398 314.697 67.5498 312.451 67.4911 309.489C67.4324 306.42 69.7107 304.057 72.764 304.01Z" fill="white"/>
<path d="M200.406 255.573C200.418 258.63 198.081 260.958 195.016 260.911C192.057 260.876 189.802 258.595 189.79 255.62C189.778 252.564 192.115 250.236 195.18 250.283C198.14 250.33 200.395 252.611 200.406 255.573Z" fill="white"/>
<path d="M274.192 155.409C274.239 158.477 271.925 160.828 268.872 160.816C265.901 160.816 263.623 158.559 263.576 155.597C263.529 152.528 265.842 150.177 268.896 150.189C271.867 150.2 274.157 152.458 274.192 155.409Z" fill="white"/>
<path d="M152.386 280.485C155.322 280.521 157.589 282.837 157.577 285.799C157.565 288.832 155.158 291.148 152.104 291.054C149.18 290.972 146.961 288.597 147.019 285.635C147.09 282.696 149.439 280.438 152.386 280.485Z" fill="white"/>
<path d="M241.333 212.404C238.28 212.38 236.001 210.017 236.06 206.937C236.119 203.986 238.432 201.752 241.404 201.776C244.457 201.799 246.735 204.163 246.677 207.243C246.618 210.194 244.316 212.416 241.333 212.404Z" fill="white"/>
<path d="M288.602 51.4933C285.677 51.5285 283.317 49.2243 283.282 46.2969C283.246 43.3696 285.548 41.0065 288.472 40.9713C291.397 40.936 293.757 43.2403 293.792 46.1676C293.816 49.1067 291.514 51.4698 288.602 51.4933Z" fill="white"/>
<path d="M221.745 240.419C221.698 243.335 219.314 245.627 216.39 245.569C213.477 245.522 211.187 243.135 211.246 240.208C211.293 237.292 213.677 235 216.601 235.058C219.513 235.105 221.792 237.48 221.745 240.419Z" fill="white"/>
<path d="M95.9461 312.369C95.9813 315.226 93.5386 317.671 90.6849 317.636C87.9134 317.601 85.5647 315.249 85.5294 312.475C85.4942 309.618 87.9369 307.173 90.7906 307.208C93.5739 307.243 95.9226 309.594 95.9461 312.369Z" fill="white"/>
<path d="M271.033 173.96C270.974 176.817 268.473 179.204 265.631 179.074C262.859 178.957 260.569 176.535 260.628 173.772C260.687 170.915 263.188 168.529 266.03 168.646C268.802 168.776 271.092 171.197 271.033 173.96Z" fill="white"/>
<path d="M130.461 295.416C133.315 295.404 135.734 297.873 135.675 300.718C135.616 303.493 133.256 305.821 130.484 305.832C127.631 305.844 125.211 303.375 125.27 300.53C125.329 297.756 127.701 295.428 130.461 295.416Z" fill="white"/>
<path d="M0 310.876V318.353C0.998215 317.401 1.64412 316.06 1.64412 314.603C1.64412 313.168 0.998215 311.84 0 310.876Z" fill="white"/>
<path d="M14.7501 322.856C11.9903 322.844 9.61807 320.469 9.59458 317.706C9.5711 314.873 12.0842 312.404 14.9027 312.498C17.6625 312.58 19.9995 315.014 19.9408 317.753C19.8938 320.516 17.4981 322.867 14.7501 322.856Z" fill="white"/>
<path d="M237.775 220.363C240.57 220.292 242.966 222.644 242.954 225.453C242.954 228.169 240.711 230.462 237.974 230.532C235.179 230.603 232.784 228.251 232.795 225.442C232.807 222.726 235.05 220.433 237.775 220.363Z" fill="white"/>
<path d="M33.176 326.253C30.381 326.3 28.0087 323.925 28.0322 321.127C28.0557 318.4 30.3222 316.131 33.0468 316.084C35.8418 316.037 38.214 318.412 38.1905 321.21C38.1553 323.937 35.9005 326.218 33.176 326.253Z" fill="white"/>
<path d="M291.549 22.7488C294.297 22.7253 296.693 25.0883 296.716 27.8511C296.74 30.6021 294.379 33.0004 291.62 33.0239C288.872 33.0474 286.476 30.6844 286.452 27.9216C286.429 25.1588 288.789 22.7723 291.549 22.7488Z" fill="white"/>
<path d="M263.059 187.233C265.831 187.398 267.897 189.702 267.768 192.465C267.627 195.31 265.208 197.45 262.366 197.214C259.595 196.991 257.586 194.652 257.774 191.889C257.974 189.114 260.299 187.069 263.059 187.233Z" fill="white"/>
<path d="M191.516 269.023C194.335 268.976 196.531 271.115 196.543 273.925C196.566 276.747 194.405 278.91 191.587 278.898C188.862 278.886 186.737 276.817 186.666 274.102C186.596 271.28 188.71 269.07 191.516 269.023Z" fill="white"/>
<path d="M51.4844 319.282C54.2912 319.293 56.4285 321.492 56.3933 324.313C56.3463 327.123 54.1385 329.239 51.32 329.169C48.6072 329.098 46.5403 326.982 46.5286 324.255C46.5051 321.433 48.6659 319.27 51.4844 319.282Z" fill="white"/>
<path d="M301.719 103.904C301.731 106.737 299.582 108.865 296.752 108.829C294.027 108.794 291.96 106.702 291.949 103.962C291.937 101.129 294.086 99.0011 296.916 99.0364C299.641 99.0716 301.708 101.176 301.719 103.904Z" fill="white"/>
<path d="M299.535 9.58153C299.511 12.4031 297.315 14.4957 294.473 14.4134C291.761 14.3429 289.729 12.2032 289.752 9.46396C289.776 6.65417 291.972 4.54977 294.802 4.63206C297.527 4.7026 299.558 6.84227 299.535 9.58153Z" fill="white"/>
<path d="M213.348 253.81C216.072 253.775 218.222 255.82 218.292 258.524C218.362 261.346 216.225 263.533 213.418 263.521C210.706 263.509 208.603 261.416 208.592 258.701C208.568 255.973 210.635 253.845 213.348 253.81Z" fill="white"/>
<path d="M300.31 90.4306C297.597 90.4306 295.483 88.338 295.46 85.6222C295.436 82.8124 297.621 80.661 300.427 80.7198C303.14 80.7668 305.195 82.9065 305.16 85.634C305.148 88.3497 303.035 90.4424 300.31 90.4306Z" fill="white"/>
<path d="M175.099 288.762C175.122 291.595 172.985 293.735 170.155 293.711C167.418 293.688 165.34 291.607 165.316 288.879C165.293 286.046 167.43 283.906 170.26 283.93C172.996 283.954 175.075 286.034 175.099 288.762Z" fill="white"/>
<path d="M148.734 298.861C151.435 298.825 153.596 300.918 153.643 303.61C153.678 306.314 151.588 308.477 148.898 308.525C146.197 308.56 144.037 306.467 143.99 303.775C143.954 301.059 146.045 298.896 148.734 298.861Z" fill="white"/>
<path d="M285.889 140.478C285.971 137.797 288.19 135.74 290.892 135.822C293.569 135.905 295.624 138.127 295.542 140.831C295.46 143.511 293.24 145.568 290.539 145.486C287.862 145.392 285.807 143.17 285.889 140.478Z" fill="white"/>
<path d="M109.029 320.387C106.21 320.363 104.12 318.177 104.19 315.332C104.261 312.616 106.398 310.582 109.134 310.605C111.953 310.629 114.043 312.816 113.973 315.661C113.902 318.365 111.765 320.41 109.029 320.387Z" fill="white"/>
<path d="M293.804 127.146C291.079 127.158 288.954 125.089 288.919 122.373C288.883 119.551 291.033 117.388 293.851 117.423C296.564 117.459 298.642 119.575 298.631 122.302C298.619 125.03 296.517 127.134 293.804 127.146Z" fill="white"/>
<path d="M308.178 67.6584C308.178 70.3271 305.982 72.4903 303.316 72.455C300.651 72.4198 298.513 70.2096 298.572 67.5408C298.631 64.9662 300.745 62.8735 303.316 62.85C305.994 62.8265 308.178 64.9897 308.178 67.6584Z" fill="white"/>
<path d="M259.207 205.785C261.873 205.738 264.069 207.901 264.081 210.57C264.092 213.238 261.908 215.413 259.254 215.402C256.67 215.39 254.557 213.309 254.486 210.734C254.416 208.054 256.541 205.82 259.207 205.785Z" fill="white"/>
<path d="M74.1498 327.394C74.0911 330.062 71.848 332.178 69.1939 332.096C66.5398 332.014 64.4377 329.745 64.5552 327.076C64.6726 324.501 66.8217 322.456 69.4053 322.491C72.0711 322.515 74.2085 324.725 74.1498 327.394Z" fill="white"/>
<path d="M287.251 163.791C284.62 163.803 282.401 161.557 282.448 158.935C282.495 156.384 284.644 154.256 287.192 154.245C289.823 154.233 292.042 156.478 291.995 159.1C291.949 161.639 289.799 163.767 287.251 163.791Z" fill="white"/>
<path d="M239.607 243.77C239.63 246.403 237.387 248.625 234.757 248.578C232.208 248.531 230.083 246.392 230.059 243.841C230.036 241.207 232.279 238.985 234.909 239.032C237.458 239.067 239.583 241.219 239.607 243.77Z" fill="white"/>
<path d="M311.56 49.2596C311.584 51.7872 309.376 54.0092 306.851 53.9974C304.326 53.9856 302.13 51.7519 302.177 49.2243C302.224 46.7672 304.326 44.651 306.781 44.5922C309.294 44.5335 311.537 46.7319 311.56 49.2596Z" fill="white"/>
<path d="M122.792 318.823C122.898 316.331 125.059 314.285 127.537 314.356C130.12 314.426 132.211 316.707 132.046 319.27C131.882 321.786 129.674 323.761 127.208 323.62C124.695 323.479 122.687 321.292 122.792 318.823Z" fill="white"/>
<path d="M214.381 277.111C214.346 279.615 212.432 281.485 209.919 281.461C207.335 281.449 205.421 279.439 205.515 276.829C205.609 274.337 207.57 272.515 210.095 272.585C212.573 272.644 214.417 274.584 214.381 277.111Z" fill="white"/>
<path d="M288.719 176.899C288.742 179.439 286.746 181.473 284.198 181.484C281.661 181.508 279.629 179.509 279.618 176.958C279.594 174.419 281.591 172.397 284.139 172.373C286.676 172.361 288.696 174.36 288.719 176.899Z" fill="white"/>
<path d="M34.0215 339.103C34.0097 341.595 32.0955 343.5 29.6059 343.488C27.1162 343.476 25.2137 341.56 25.2255 339.068C25.2372 336.575 27.1514 334.671 29.6411 334.683C32.119 334.694 34.0215 336.611 34.0215 339.103Z" fill="white"/>
<path d="M16.2063 336.023C16.2063 338.621 14.2216 340.573 11.6263 340.514C9.12484 340.467 7.24585 338.55 7.24585 336.035C7.24585 333.436 9.23054 331.485 11.8259 331.544C14.3156 331.591 16.1946 333.507 16.2063 336.023Z" fill="white"/>
<path d="M256.189 224.066C258.702 224.054 260.616 225.912 260.663 228.416C260.71 231.026 258.761 232.978 256.154 232.942C253.652 232.907 251.785 231.002 251.785 228.487C251.797 225.982 253.688 224.078 256.189 224.066Z" fill="white"/>
<path d="M92.2351 330.815C92.2116 333.354 90.1917 335.353 87.655 335.329C85.1184 335.306 83.122 333.284 83.1455 330.744C83.169 328.205 85.1889 326.206 87.7255 326.23C90.2621 326.253 92.2586 328.275 92.2351 330.815Z" fill="white"/>
<path d="M314.367 30.8607C314.403 33.3766 312.559 35.3164 310.057 35.3752C307.45 35.434 305.477 33.5059 305.489 30.9077C305.501 28.4036 307.403 26.5108 309.905 26.4991C312.418 26.4873 314.332 28.3566 314.367 30.8607Z" fill="white"/>
<path d="M167.042 311.581C164.565 311.522 162.697 309.559 162.756 307.067C162.815 304.586 164.776 302.717 167.266 302.776C169.743 302.834 171.611 304.798 171.552 307.29C171.505 309.771 169.532 311.64 167.042 311.581Z" fill="white"/>
<path d="M188.463 296.368C185.879 296.333 183.965 294.299 184.059 291.689C184.153 289.197 186.103 287.351 188.616 287.386C191.199 287.422 193.114 289.456 193.02 292.065C192.937 294.558 190.988 296.415 188.463 296.368Z" fill="white"/>
<path d="M105.999 338.198C103.662 338.174 101.701 336.211 101.689 333.871C101.677 331.45 103.767 329.416 106.175 329.498C108.512 329.58 110.426 331.602 110.379 333.93C110.32 336.27 108.324 338.21 105.999 338.198Z" fill="white"/>
<path d="M285.043 195.251C285.055 197.708 283.094 199.672 280.651 199.66C278.208 199.648 276.259 197.661 276.306 195.204C276.341 192.841 278.232 190.948 280.592 190.901C283.035 190.866 285.031 192.806 285.043 195.251Z" fill="white"/>
<path d="M231.433 257.784C233.876 257.831 235.79 259.865 235.708 262.31C235.626 264.743 233.571 266.636 231.128 266.53C228.779 266.425 226.935 264.473 226.959 262.11C226.994 259.665 228.991 257.737 231.433 257.784Z" fill="white"/>
<path d="M317.291 12.5089C317.338 14.8014 315.365 16.847 313.052 16.894C310.762 16.9411 308.719 14.966 308.672 12.65C308.625 10.3575 310.598 8.31183 312.911 8.26481C315.201 8.22954 317.244 10.2046 317.291 12.5089Z" fill="white"/>
<path d="M48.0317 338.268C50.3335 338.315 52.3065 340.361 52.2712 342.653C52.2242 344.958 50.1808 346.933 47.8908 346.898C45.5891 346.851 43.6161 344.805 43.6513 342.512C43.6983 340.208 45.7417 338.233 48.0317 338.268Z" fill="white"/>
<path d="M150.073 321.95C150.132 324.243 148.159 326.3 145.857 326.359C143.567 326.418 141.512 324.443 141.453 322.138C141.394 319.846 143.367 317.789 145.669 317.73C147.959 317.671 150.014 319.646 150.073 321.95Z" fill="white"/>
<path d="M315.166 103.163C317.479 103.163 319.499 105.232 319.429 107.536C319.358 109.77 317.397 111.686 315.166 111.686C312.852 111.686 310.832 109.617 310.903 107.313C310.973 105.079 312.946 103.163 315.166 103.163Z" fill="white"/>
<path d="M312.136 129.615C309.822 129.627 307.803 127.569 307.849 125.265C307.896 123.031 309.858 121.103 312.089 121.08C314.402 121.068 316.422 123.125 316.375 125.43C316.317 127.675 314.367 129.603 312.136 129.615Z" fill="white"/>
<path d="M322.846 89.0434C322.87 91.3006 321.002 93.2169 318.748 93.2757C316.422 93.3345 314.414 91.3359 314.461 89.0081C314.508 86.7391 316.422 84.8698 318.677 84.8816C320.932 84.8933 322.834 86.7744 322.846 89.0434Z" fill="white"/>
<path d="M308.777 139.514C311.044 139.62 312.876 141.571 312.805 143.817C312.735 146.168 310.668 148.061 308.343 147.884C306.064 147.72 304.303 145.733 304.432 143.487C304.561 141.219 306.534 139.408 308.777 139.514Z" fill="white"/>
<path d="M281.72 213.568C281.755 215.907 279.982 217.729 277.633 217.741C275.296 217.753 273.499 215.942 273.523 213.603C273.546 211.346 275.249 209.606 277.492 209.535C279.841 209.476 281.673 211.24 281.72 213.568Z" fill="white"/>
<path d="M305.466 166.107C303.129 166.06 301.426 164.226 301.531 161.863C301.625 159.617 303.387 157.983 305.653 158.03C307.99 158.077 309.693 159.911 309.588 162.274C309.494 164.52 307.732 166.154 305.466 166.107Z" fill="white"/>
<path d="M62.1947 345.463C62.2886 343.136 64.1794 341.419 66.5281 341.548C68.8534 341.678 70.5327 343.582 70.38 345.934C70.2274 348.179 68.4306 349.813 66.164 349.743C63.8388 349.684 62.1007 347.803 62.1947 345.463Z" fill="white"/>
<path d="M321.684 74.8181C319.347 74.7946 317.573 72.9723 317.62 70.621C317.667 68.2815 319.523 66.5298 321.86 66.6121C324.103 66.6826 325.806 68.4343 325.817 70.6916C325.829 73.0428 324.021 74.8416 321.684 74.8181Z" fill="white"/>
<path d="M253.241 242.759C255.578 242.794 257.34 244.64 257.269 246.979C257.199 249.319 255.332 251.047 252.995 250.953C250.752 250.859 249.072 249.096 249.072 246.838C249.084 244.511 250.893 242.724 253.241 242.759Z" fill="white"/>
<path d="M274.58 235.893C272.501 235.905 270.692 234.118 270.681 232.025C270.669 229.944 272.454 228.134 274.544 228.122C276.623 228.11 278.432 229.897 278.443 231.99C278.455 234.071 276.67 235.881 274.58 235.893Z" fill="white"/>
<path d="M210.835 295.298C210.882 297.532 209.144 299.319 206.924 299.343C204.693 299.354 202.931 297.603 202.943 295.369C202.955 293.229 204.622 291.501 206.748 291.442C208.967 291.36 210.788 293.077 210.835 295.298Z" fill="white"/>
<path d="M164.142 329.427C162.063 329.463 160.243 327.676 160.208 325.595C160.172 323.514 161.957 321.692 164.036 321.656C166.115 321.621 167.935 323.408 167.97 325.489C168.005 327.57 166.232 329.392 164.142 329.427Z" fill="white"/>
<path d="M228.204 284.001C226.09 283.954 224.352 282.178 224.364 280.062C224.375 277.852 226.266 276.053 228.462 276.159C230.576 276.265 232.267 278.099 232.197 280.215C232.126 282.331 230.318 284.048 228.204 284.001Z" fill="white"/>
<path d="M189.438 310.347C189.379 312.557 187.547 314.273 185.327 314.191C183.12 314.109 181.428 312.251 181.546 310.018C181.652 307.89 183.413 306.256 185.551 306.279C187.758 306.314 189.496 308.125 189.438 310.347Z" fill="white"/>
<path d="M302.506 184.353C300.392 184.353 298.619 182.601 298.584 180.485C298.548 178.287 300.404 176.441 302.612 176.5C304.726 176.558 306.452 178.357 306.428 180.473C306.393 182.589 304.62 184.341 302.506 184.353Z" fill="white"/>
<path d="M324.737 56.3134C322.517 56.2899 320.779 54.4912 320.826 52.2692C320.873 50.059 322.694 48.3308 324.925 48.4131C327.05 48.4836 328.718 50.2118 328.73 52.3515C328.73 54.5735 326.956 56.3369 324.737 56.3134Z" fill="white"/>
<path d="M124.472 333.389C126.679 333.448 128.394 335.27 128.312 337.504C128.23 339.714 126.374 341.407 124.143 341.29C122.017 341.184 120.385 339.42 120.408 337.281C120.443 335.071 122.252 333.331 124.472 333.389Z" fill="white"/>
<path d="M88.5476 349.108C88.5593 351.224 86.833 353.011 84.7074 353.058C82.5113 353.105 80.6558 351.259 80.7028 349.061C80.7498 346.945 82.5348 345.205 84.6487 345.216C86.7743 345.228 88.5358 346.992 88.5476 349.108Z" fill="white"/>
<path d="M328.248 38.279C326.17 38.2673 324.349 36.3862 324.432 34.3171C324.502 32.3185 326.287 30.5903 328.272 30.602C330.35 30.6138 332.171 32.4948 332.088 34.564C332.018 36.5626 330.245 38.279 328.248 38.279Z" fill="white"/>
<path d="M8.31454 358.219C6.24765 358.278 4.3804 356.444 4.39214 354.363C4.40389 352.364 6.14196 350.601 8.13839 350.542C10.2053 350.483 12.0725 352.317 12.0608 354.398C12.049 356.397 10.311 358.172 8.31454 358.219Z" fill="white"/>
<path d="M253.429 265.284C253.394 267.318 251.644 269.023 249.612 268.988C247.581 268.952 245.878 267.201 245.913 265.167C245.948 263.133 247.698 261.428 249.73 261.463C251.762 261.499 253.464 263.25 253.429 265.284Z" fill="white"/>
<path d="M102.57 355.797C100.538 355.809 98.9877 354.316 98.9525 352.294C98.9055 350.166 100.503 348.579 102.617 348.614C104.636 348.649 106.14 350.189 106.128 352.223C106.116 354.257 104.589 355.774 102.57 355.797Z" fill="white"/>
<path d="M145.857 340.302C145.904 342.336 144.436 343.923 142.416 343.994C140.29 344.076 138.67 342.501 138.67 340.396C138.67 338.362 140.185 336.834 142.216 336.811C144.248 336.787 145.81 338.28 145.857 340.302Z" fill="white"/>
<path d="M302.671 198.896C302.612 200.988 300.897 202.564 298.795 202.446C296.799 202.34 295.295 200.694 295.354 198.684C295.413 196.591 297.127 195.016 299.23 195.134C301.226 195.239 302.729 196.874 302.671 198.896Z" fill="white"/>
<path d="M30.2166 357.373C30.2518 359.383 28.7369 361.017 26.7404 361.111C24.6383 361.205 22.9355 359.618 22.8885 357.525C22.8415 355.421 24.4856 353.763 26.576 353.787C28.6077 353.799 30.1813 355.35 30.2166 357.373Z" fill="white"/>
<path d="M336.974 110.475C336.986 112.345 335.4 113.955 333.533 113.967C331.666 113.979 330.057 112.392 330.045 110.522C330.033 108.653 331.619 107.042 333.486 107.031C335.353 107.007 336.95 108.594 336.974 110.475Z" fill="white"/>
<path d="M203.742 316.766C201.874 316.719 200.312 315.073 200.371 313.204C200.418 311.334 202.062 309.771 203.929 309.829C205.797 309.877 207.359 311.522 207.3 313.392C207.241 315.261 205.597 316.825 203.742 316.766Z" fill="white"/>
<path d="M48.4428 360.982C48.431 363.016 46.8574 364.532 44.814 364.497C42.7941 364.45 41.2909 362.851 41.3613 360.817C41.4318 358.877 42.9232 357.431 44.8727 357.42C46.9161 357.396 48.4545 358.936 48.4428 360.982Z" fill="white"/>
<path d="M299.418 216.754C299.394 218.623 297.773 220.198 295.906 220.175C294.039 220.151 292.465 218.529 292.489 216.66C292.512 214.79 294.133 213.215 296 213.238C297.879 213.262 299.453 214.884 299.418 216.754Z" fill="white"/>
<path d="M334.86 16.0358C334.884 18.0815 333.357 19.6333 331.313 19.6215C329.282 19.6215 327.755 18.0579 327.779 16.0241C327.814 14.0725 329.27 12.5912 331.219 12.5442C333.263 12.4854 334.837 14.002 334.86 16.0358Z" fill="white"/>
<path d="M340.027 92.0295C340.086 93.887 338.536 95.5447 336.669 95.6035C334.813 95.6623 333.157 94.1104 333.098 92.2411C333.04 90.3836 334.59 88.726 336.457 88.6672C338.313 88.6084 339.969 90.1602 340.027 92.0295Z" fill="white"/>
<path d="M330.339 132.319C328.471 132.26 326.921 130.614 326.98 128.745C327.039 126.876 328.683 125.324 330.55 125.383C332.417 125.441 333.967 127.087 333.909 128.956C333.85 130.826 332.206 132.378 330.339 132.319Z" fill="white"/>
<path d="M274.568 250.271C274.615 252.27 273.041 253.869 271.045 253.857C269.131 253.845 267.616 252.352 267.569 250.436C267.522 248.437 269.095 246.838 271.092 246.85C273.006 246.874 274.521 248.367 274.568 250.271Z" fill="white"/>
<path d="M63.2868 367.424C61.4431 367.448 59.7872 365.778 59.8225 363.944C59.8577 362.181 61.4313 360.617 63.1929 360.594C65.0367 360.57 66.6925 362.24 66.6573 364.074C66.6103 365.825 65.0367 367.401 63.2868 367.424Z" fill="white"/>
<path d="M326.874 150.624C325.031 150.577 323.433 148.837 323.551 147.014C323.668 145.251 325.301 143.734 327.05 143.793C328.894 143.84 330.491 145.58 330.374 147.402C330.256 149.166 328.612 150.671 326.874 150.624Z" fill="white"/>
<path d="M182.051 325.183C183.895 325.219 185.515 326.935 185.421 328.757C185.327 330.521 183.707 332.049 181.957 332.014C180.113 331.979 178.493 330.262 178.587 328.44C178.68 326.676 180.301 325.148 182.051 325.183Z" fill="white"/>
<path d="M225.209 301.859C223.365 301.847 221.733 300.154 221.803 298.32C221.874 296.556 223.471 295.016 225.233 295.016C227.076 295.028 228.709 296.721 228.638 298.555C228.568 300.319 226.971 301.87 225.209 301.859Z" fill="white"/>
<path d="M343.398 73.7247C343.433 75.4999 341.894 77.0871 340.109 77.1223C338.336 77.1576 336.751 75.6175 336.715 73.8305C336.68 72.0553 338.219 70.4682 340.004 70.4329C341.777 70.3976 343.362 71.9377 343.398 73.7247Z" fill="white"/>
<path d="M323.938 161.898C325.806 161.922 327.203 163.403 327.133 165.272C327.062 167.047 325.641 168.376 323.868 168.352C322.001 168.329 320.603 166.848 320.674 164.978C320.744 163.203 322.153 161.875 323.938 161.898Z" fill="white"/>
<path d="M124.096 355.292C124.072 357.161 122.593 358.572 120.725 358.489C118.952 358.419 117.625 357.008 117.637 355.221C117.66 353.352 119.14 351.941 121.007 352.023C122.78 352.106 124.119 353.516 124.096 355.292Z" fill="white"/>
<path d="M246.583 286.81C244.715 286.787 243.306 285.305 243.388 283.436C243.459 281.661 244.868 280.333 246.653 280.344C248.52 280.368 249.93 281.849 249.847 283.718C249.777 285.494 248.368 286.834 246.583 286.81Z" fill="white"/>
<path d="M320.427 186.587C318.63 186.598 317.268 185.199 317.315 183.401C317.362 181.696 318.677 180.403 320.392 180.391C322.189 180.379 323.551 181.778 323.504 183.577C323.457 185.282 322.142 186.575 320.427 186.587Z" fill="white"/>
<path d="M81.1608 363.968C82.9575 363.98 84.2963 365.39 84.2259 367.189C84.1672 368.894 82.8166 370.164 81.1138 370.152C79.317 370.14 77.9782 368.729 78.0487 366.931C78.1074 365.238 79.4462 363.956 81.1608 363.968Z" fill="white"/>
<path d="M343.21 52.7042C345.018 52.7512 346.31 54.1267 346.263 55.949C346.216 57.7595 344.842 59.0527 343.022 59.0056C341.213 58.9586 339.922 57.5831 339.968 55.7609C340.015 53.9504 341.389 52.6572 343.21 52.7042Z" fill="white"/>
<path d="M163.754 343.465C163.754 345.287 162.427 346.615 160.595 346.604C158.775 346.604 157.448 345.275 157.46 343.441C157.46 341.619 158.787 340.29 160.619 340.302C162.427 340.314 163.754 341.642 163.754 343.465Z" fill="white"/>
<path d="M271.056 268.306C271.045 269.975 269.647 271.351 267.98 271.339C266.312 271.327 264.938 269.928 264.95 268.259C264.961 266.589 266.359 265.214 268.027 265.226C269.694 265.237 271.068 266.636 271.056 268.306Z" fill="white"/>
<path d="M292.982 238.115C291.314 238.162 289.893 236.81 289.858 235.141C289.811 233.471 291.162 232.049 292.829 232.014C294.497 231.967 295.918 233.319 295.953 234.988C295.988 236.646 294.638 238.068 292.982 238.115Z" fill="white"/>
<path d="M346.193 40.501C344.584 40.5127 343.151 39.0667 343.163 37.4561C343.186 35.8337 344.654 34.3641 346.251 34.4934C347.989 34.6345 349.023 35.6691 349.152 37.409C349.281 39.0314 347.802 40.4892 346.193 40.501Z" fill="white"/>
<path d="M5.12028 369.811C6.68219 369.776 8.07969 371.128 8.10318 372.691C8.13841 374.255 6.78789 375.654 5.22597 375.677C3.66406 375.713 2.26656 374.361 2.24307 372.797C2.1961 371.245 3.54662 369.846 5.12028 369.811Z" fill="white"/>
<path d="M224.551 316.813C224.551 318.435 223.224 319.74 221.615 319.611C219.924 319.482 218.985 318.482 218.926 316.789C218.867 315.167 220.23 313.909 221.85 313.98C223.377 314.038 224.551 315.273 224.551 316.813Z" fill="white"/>
<path d="M320.169 201.87C320.157 203.492 318.83 204.786 317.221 204.656C315.53 204.515 314.602 203.516 314.543 201.823C314.496 200.201 315.87 198.954 317.479 199.025C319.006 199.095 320.18 200.342 320.169 201.87Z" fill="white"/>
<path d="M139.233 361.581C137.613 361.593 136.297 360.288 136.403 358.678C136.521 356.985 137.495 356.032 139.186 355.95C140.795 355.88 142.075 357.22 142.028 358.842C141.981 360.382 140.772 361.57 139.233 361.581Z" fill="white"/>
<path d="M102.299 370.457C102.358 372.08 101.09 373.432 99.4809 373.373C97.7898 373.303 96.8034 372.362 96.6742 370.669C96.5567 369.059 97.872 367.742 99.4809 367.742C101.019 367.742 102.241 368.917 102.299 370.457Z" fill="white"/>
<path d="M26.3294 375.724C26.3764 377.347 25.0963 378.687 23.4874 378.616C21.7963 378.534 20.8216 377.582 20.7041 375.889C20.5985 374.278 21.9255 372.973 23.5344 372.985C25.0728 372.997 26.2824 374.184 26.3294 375.724Z" fill="white"/>
<path d="M352.311 19.4452C352.158 20.7619 351.348 21.7259 349.692 21.7847C348.13 21.8435 346.897 20.5738 347.026 19.0102C347.156 17.3761 348.107 16.5061 349.739 16.4943C351.207 16.4826 352.323 17.67 352.311 19.4452Z" fill="white"/>
<path d="M203.049 331.755C203.002 333.319 201.769 334.459 200.183 334.377C198.621 334.306 197.482 333.037 197.635 331.461C197.787 329.839 198.75 328.981 200.371 328.957C201.956 328.934 203.096 330.168 203.049 331.755Z" fill="white"/>
<path d="M243.224 298.778C244.786 298.825 245.925 300.06 245.843 301.647C245.772 303.211 244.504 304.351 242.93 304.198C241.31 304.045 240.452 303.081 240.429 301.459C240.394 299.884 241.638 298.731 243.224 298.778Z" fill="white"/>
<path d="M289.377 250.742C290.986 250.894 291.96 251.694 292.054 253.34C292.136 254.903 290.892 256.161 289.33 256.055C287.697 255.95 286.77 255.021 286.781 253.387C286.781 251.741 287.791 250.918 289.377 250.742Z" fill="white"/>
<path d="M38.7542 378.593C38.8834 377.276 39.6937 376.3 41.3378 376.218C42.8997 376.136 44.1446 377.394 44.0389 378.957C43.9332 380.592 42.9937 381.473 41.3613 381.497C39.8816 381.532 38.766 380.356 38.7542 378.593Z" fill="white"/>
<path d="M313.862 223.114C313.158 222.185 312.159 221.339 311.831 220.281C311.443 219.011 312.982 217.553 314.344 217.671C315.847 217.788 316.963 218.741 316.739 220.175C316.575 221.221 315.518 222.115 314.849 223.079C314.52 223.102 314.191 223.102 313.862 223.114Z" fill="white"/>
<path d="M354.742 114.026C353.803 114.719 352.945 115.707 351.888 116.013C350.62 116.389 349.187 114.814 349.317 113.462C349.469 111.968 350.42 110.852 351.865 111.11C352.898 111.287 353.791 112.368 354.742 113.038C354.742 113.367 354.742 113.697 354.742 114.026Z" fill="white"/>
<path d="M351.242 132.472C350.28 133.13 349.399 134.106 348.33 134.376C347.038 134.705 345.653 133.107 345.829 131.755C346.028 130.273 347.003 129.18 348.436 129.474C349.469 129.685 350.315 130.791 351.254 131.484C351.254 131.802 351.242 132.143 351.242 132.472Z" fill="white"/>
<path d="M265.549 283.754C266.195 284.729 267.158 285.623 267.416 286.693C267.733 287.986 266.112 289.361 264.762 289.162C263.282 288.95 262.202 287.962 262.507 286.516C262.73 285.482 263.834 284.647 264.55 283.718C264.891 283.73 265.22 283.742 265.549 283.754Z" fill="white"/>
<path d="M354.472 98.5426C353.767 97.6138 352.769 96.7674 352.44 95.7093C352.053 94.4396 353.591 92.9818 354.953 93.0994C356.457 93.2169 357.572 94.1692 357.349 95.6035C357.185 96.6498 356.128 97.5433 355.458 98.5073C355.13 98.5308 354.801 98.5308 354.472 98.5426Z" fill="white"/>
<path d="M181.569 346.98C181.346 348.567 180.501 349.59 178.857 349.531C177.236 349.472 176.297 348.449 176.355 346.827C176.414 345.322 177.377 344.382 178.892 344.382C180.548 344.37 181.382 345.393 181.569 346.98Z" fill="white"/>
<path d="M344.854 153.081C344.185 152.14 342.987 151.176 343.022 150.247C343.045 149.413 344.325 148.143 345.241 147.943C346.686 147.626 347.849 148.79 347.649 150.283C347.508 151.259 346.486 152.117 345.864 153.034C345.523 153.045 345.183 153.057 344.854 153.081Z" fill="white"/>
<path d="M358.512 74.4889C359.134 75.4647 360.297 76.4757 360.226 77.3927C360.168 78.2157 358.829 79.4384 357.913 79.5912C356.457 79.8498 355.341 78.6272 355.611 77.1576C355.787 76.1818 356.856 75.3706 357.525 74.4889C357.854 74.4889 358.183 74.4889 358.512 74.4889Z" fill="white"/>
<path d="M120.608 374.149C119.645 374.784 118.647 375.959 117.731 375.901C116.909 375.842 115.675 374.537 115.499 373.62C115.229 372.174 116.427 371.034 117.895 371.28C118.87 371.445 119.692 372.491 120.584 373.15C120.596 373.479 120.596 373.808 120.608 374.149Z" fill="white"/>
<path d="M62.5352 382.872C61.5723 383.519 60.5858 384.695 59.6698 384.636C58.836 384.589 57.6029 383.284 57.4267 382.355C57.1449 380.909 58.3427 379.769 59.8225 380.015C60.7972 380.18 61.631 381.226 62.5235 381.873C62.5235 382.214 62.5352 382.543 62.5352 382.872Z" fill="white"/>
<path d="M342.858 166.083C343.386 166.942 344.431 167.882 344.314 168.646C344.196 169.457 343.081 170.574 342.235 170.739C340.826 171.021 339.828 169.904 340.109 168.493C340.286 167.6 341.237 166.848 341.848 166.036C342.176 166.048 342.517 166.06 342.858 166.083Z" fill="white"/>
<path d="M160.219 362.228C159.35 362.863 158.54 363.85 157.589 364.027C156.18 364.297 155.076 363.239 155.357 361.84C155.534 360.97 156.626 359.747 157.401 359.677C158.258 359.583 159.245 360.617 160.172 361.158C160.184 361.511 160.196 361.864 160.219 362.228Z" fill="white"/>
<path d="M363.996 59.5347C363.139 60.0637 362.199 61.11 361.436 60.9925C360.626 60.8749 359.51 59.758 359.346 58.9116C359.064 57.5008 360.179 56.5015 361.589 56.7837C362.481 56.96 363.233 57.9123 364.043 58.5236C364.02 58.8528 364.008 59.1937 363.996 59.5347Z" fill="white"/>
<path d="M288.848 272.244C287.991 272.808 287.11 273.843 286.288 273.796C285.56 273.761 284.233 272.397 284.339 271.856C284.515 271.01 285.583 269.916 286.441 269.763C287.11 269.634 288.014 270.751 288.813 271.327C288.825 271.621 288.836 271.938 288.848 272.244Z" fill="white"/>
<path d="M313.299 238.621C312.441 239.173 311.549 240.196 310.727 240.149C309.999 240.102 308.683 238.726 308.801 238.186C308.977 237.339 310.069 236.269 310.926 236.117C311.596 235.999 312.488 237.128 313.275 237.704C313.275 237.998 313.287 238.303 313.299 238.621Z" fill="white"/>
<path d="M81.1137 385.518C79.7397 386.47 78.8237 387.575 78.1543 387.434C77.3088 387.257 76.6629 386.094 75.923 385.341C76.6981 384.648 77.4145 383.507 78.2718 383.39C78.9529 383.307 79.7985 384.483 81.1137 385.518Z" fill="white"/>
<path d="M221.063 335.494C220.277 336.07 219.443 337.163 218.726 337.093C217.963 337.022 216.894 335.917 216.742 335.118C216.636 334.577 217.834 333.272 218.527 333.225C219.314 333.166 220.183 334.107 221.016 334.6C221.04 334.894 221.052 335.2 221.063 335.494Z" fill="white"/>
<path d="M341.119 187.386C340.321 187.939 339.452 188.997 338.735 188.914C337.972 188.82 336.939 187.692 336.809 186.881C336.715 186.34 337.96 185.082 338.653 185.035C339.44 184.988 340.286 185.952 341.096 186.481C341.108 186.786 341.119 187.092 341.119 187.386Z" fill="white"/>
<path d="M239.513 322.209C239.008 321.374 237.998 320.446 238.127 319.74C238.268 318.988 239.454 318.024 240.276 317.941C240.816 317.883 242.003 319.199 242.003 319.893C241.991 320.681 240.981 321.468 240.405 322.256C240.112 322.233 239.818 322.221 239.513 322.209Z" fill="white"/>
<path d="M200.054 349.895C198.774 350.859 198.046 351.847 197.376 351.788C196.672 351.741 196.049 350.707 195.38 350.095C195.979 349.437 196.519 348.344 197.212 348.238C197.87 348.132 198.692 349.049 200.054 349.895Z" fill="white"/>
<path d="M367.273 40.6656C365.922 41.512 365.1 42.4291 364.442 42.3232C363.749 42.2057 362.716 41.1123 362.74 40.4775C362.763 39.8426 363.879 38.8316 364.583 38.7728C365.253 38.7258 365.993 39.7133 367.273 40.6656Z" fill="white"/>
<path d="M136.027 373.914C136.99 375.195 137.977 375.924 137.918 376.594C137.871 377.3 136.838 377.923 136.227 378.593C135.569 377.993 134.477 377.453 134.371 376.759C134.278 376.089 135.182 375.266 136.027 373.914Z" fill="white"/>
<path d="M335.776 202.305C336.575 203.539 337.491 204.351 337.35 204.88C337.162 205.597 336.164 206.091 335.506 206.69C334.966 206.055 334.038 205.444 334.003 204.774C333.979 204.151 334.895 203.481 335.776 202.305Z" fill="white"/>
<path d="M178.363 364.85C177.189 365.661 176.508 366.484 175.839 366.484C175.275 366.472 174.723 365.496 174.171 364.944C174.758 364.356 175.275 363.427 175.956 363.286C176.473 363.157 177.201 364.038 178.363 364.85Z" fill="white"/>
<path d="M96.4158 391.396C95.6172 390.208 94.7952 389.515 94.8187 388.845C94.8304 388.28 95.9578 387.222 96.3571 387.316C97.05 387.493 97.8838 388.327 98.0247 389.009C98.1304 389.526 97.2379 390.255 96.4158 391.396Z" fill="white"/>
<path d="M1.82025 393.265C0.90424 392.101 -0.0822313 391.384 0.0117184 390.843C0.140899 390.114 1.09214 389.526 1.69107 388.892C2.27825 389.468 3.26472 389.997 3.35867 390.655C3.44088 391.255 2.59533 392.007 1.82025 393.265Z" fill="white"/>
<path d="M19.9878 391.678C20.7981 392.854 21.6202 393.535 21.6202 394.205C21.6084 394.77 20.6337 395.322 20.0818 395.875C19.4946 395.287 18.5668 394.77 18.4259 394.088C18.2967 393.571 19.1775 392.842 19.9878 391.678Z" fill="white"/>
<path d="M264.057 305.068C262.824 305.879 262.026 306.808 261.497 306.667C260.781 306.479 260.276 305.491 259.677 304.845C260.311 304.304 260.91 303.363 261.568 303.328C262.19 303.281 262.871 304.186 264.057 305.068Z" fill="white"/>
<path d="M282.941 287.433C283.634 288.527 284.362 289.185 284.327 289.808C284.303 290.326 283.223 291.278 282.871 291.172C282.236 290.984 281.485 290.208 281.367 289.561C281.297 289.103 282.143 288.456 282.941 287.433Z" fill="white"/>
<path d="M310.01 256.526C308.93 257.231 308.284 257.984 307.662 257.96C307.145 257.948 306.17 256.89 306.276 256.526C306.452 255.891 307.215 255.127 307.861 254.997C308.319 254.903 308.965 255.75 310.01 256.526Z" fill="white"/>
<path d="M370.267 22.4549C369.269 23.2896 368.67 24.1713 368.189 24.1008C367.543 24.0067 367.003 23.2073 366.415 22.7017C366.885 22.1492 367.32 21.2087 367.825 21.1616C368.447 21.1029 369.14 21.8082 370.267 22.4549Z" fill="white"/>
<path d="M38.4019 394.958C39.1065 396.04 39.8581 396.686 39.8346 397.309C39.8229 397.827 38.766 398.802 38.4019 398.696C37.7677 398.52 37.0044 397.756 36.8752 397.109C36.7813 396.651 37.6268 395.993 38.4019 394.958Z" fill="white"/>
<path d="M370.291 115.272C370.819 116.095 371.489 116.695 371.371 117.035C371.195 117.553 370.479 117.894 369.997 118.317C369.633 117.847 368.987 117.388 368.987 116.918C368.987 116.471 369.657 116.024 370.291 115.272Z" fill="white"/>
<path d="M375 98.8365C374.178 99.3538 373.567 100.012 373.215 99.8946C372.698 99.7182 372.369 98.9893 371.97 98.4956C372.44 98.1429 372.921 97.4963 373.379 97.508C373.837 97.508 374.26 98.1899 375 98.8365Z" fill="white"/>
<path d="M155.815 380.027C155.087 380.674 154.582 381.438 154.23 381.367C153.69 381.273 153.255 380.603 152.774 380.18C153.185 379.757 153.549 379.051 154.007 378.981C154.453 378.922 154.993 379.51 155.815 380.027Z" fill="white"/>
<path d="M372.827 4.39695C372.005 4.92599 371.406 5.5961 371.066 5.47854C370.549 5.30219 370.209 4.58505 369.786 4.10303C370.256 3.73858 370.714 3.09198 371.183 3.09198C371.63 3.08022 372.076 3.75034 372.827 4.39695Z" fill="white"/>
<path d="M334.132 223.137C333.298 223.831 332.746 224.63 332.359 224.548C331.783 224.442 331.325 223.713 330.82 223.243C331.266 222.796 331.677 222.044 332.171 221.974C332.652 221.903 333.216 222.561 334.132 223.137Z" fill="white"/>
<path d="M114.255 390.208C114.865 390.973 115.593 391.513 115.511 391.866C115.382 392.395 114.701 392.795 114.255 393.253C113.855 392.818 113.174 392.419 113.127 391.96C113.092 391.513 113.703 391.008 114.255 390.208Z" fill="white"/>
<path d="M363.632 151.552C364.219 152.34 364.924 152.904 364.83 153.245C364.689 153.774 363.996 154.151 363.526 154.597C363.139 154.151 362.469 153.727 362.434 153.269C362.411 152.822 363.045 152.34 363.632 151.552Z" fill="white"/>
<path d="M366.662 133.636C367.261 134.411 367.977 134.964 367.883 135.317C367.742 135.846 367.061 136.234 366.603 136.692C366.204 136.257 365.535 135.834 365.499 135.376C365.464 134.917 366.087 134.423 366.662 133.636Z" fill="white"/>
<path d="M56.7691 398.943C57.3093 399.755 57.9904 400.354 57.873 400.695C57.7086 401.224 56.9922 401.565 56.5107 402C56.1349 401.542 55.489 401.083 55.4773 400.613C55.489 400.166 56.1467 399.708 56.7691 398.943Z" fill="white"/>
</g>
<defs>
<clipPath id="clip0_51_46">
<rect width="375" height="402" fill="white"/>
</clipPath>
</defs>
</svg>
