<svg width="50" height="50" viewBox="0 0 50 50" fill="none" xmlns="http://www.w3.org/2000/svg">
<rect opacity="0.2" width="50" height="50" rx="25" fill="white"/>
<path d="M35.6728 18.5256C34.9073 18.8648 34.0851 19.0939 33.2207 19.1975C34.1126 18.6638 34.7799 17.8239 35.098 16.8344C34.26 17.3321 33.3429 17.6825 32.3865 17.8702C31.7433 17.1835 30.8915 16.7283 29.9631 16.5754C29.0348 16.4224 28.0819 16.5803 27.2525 17.0243C26.423 17.4684 25.7634 18.1739 25.376 19.0313C24.9886 19.8887 24.8951 20.8501 25.11 21.766C23.412 21.6808 21.751 21.2394 20.2346 20.4707C18.7183 19.7019 17.3805 18.6229 16.3082 17.3037C15.9415 17.9362 15.7307 18.6695 15.7307 19.4505C15.7303 20.1536 15.9034 20.8459 16.2347 21.466C16.566 22.0862 17.0453 22.6149 17.63 23.0054C16.9519 22.9838 16.2888 22.8006 15.6958 22.4709V22.5259C15.6958 23.512 16.0369 24.4678 16.6613 25.231C17.2856 25.9943 18.1549 26.518 19.1214 26.7133C18.4924 26.8835 17.8329 26.9086 17.1928 26.7866C17.4655 27.6351 17.9967 28.3771 18.712 28.9086C19.4273 29.4402 20.291 29.7348 21.1821 29.7511C19.6694 30.9386 17.8013 31.5827 15.8783 31.5799C15.5376 31.58 15.1972 31.5601 14.8589 31.5203C16.8109 32.7754 19.0832 33.4415 21.4039 33.4389C29.2598 33.4389 33.5543 26.9324 33.5543 21.2894C33.5543 21.106 33.5498 20.9209 33.5415 20.7375C34.3769 20.1334 35.0979 19.3854 35.6709 18.5284L35.6728 18.5256Z" fill="white"/>
</svg>
