<svg width="97" height="96" viewBox="0 0 97 96" fill="none" xmlns="http://www.w3.org/2000/svg">
<rect opacity="0.05" x="0.782715" y="0.173889" width="95.6522" height="95.6522" rx="47.8261" fill="white"/>
<g opacity="0.3">
<path d="M65.4794 37.9941C64.2617 38.5183 62.9535 38.8724 61.5783 39.0325C62.9973 38.2077 64.0589 36.9096 64.565 35.3803C63.2319 36.1496 61.7728 36.691 60.2512 36.9812C59.2281 35.9199 57.8728 35.2165 56.3959 34.9801C54.919 34.7437 53.4031 34.9876 52.0835 35.6739C50.7639 36.3603 49.7145 37.4506 49.0981 38.7757C48.4818 40.1007 48.3331 41.5864 48.675 43.002C45.9737 42.8703 43.3311 42.1882 40.9187 41.0001C38.5064 39.812 36.3781 38.1445 34.6721 36.1057C34.0887 37.0832 33.7533 38.2165 33.7533 39.4235C33.7527 40.5101 34.0281 41.58 34.5552 42.5384C35.0823 43.4967 35.8448 44.3139 36.775 44.9173C35.6962 44.884 34.6413 44.6008 33.6979 44.0914V44.1764C33.6978 45.7004 34.2405 47.1775 35.2338 48.357C36.2271 49.5365 37.61 50.3459 39.1477 50.6478C38.147 50.9109 37.0978 50.9496 36.0794 50.7611C36.5132 52.0724 37.3583 53.219 38.4964 54.0406C39.6344 54.8621 41.0084 55.3173 42.426 55.3426C40.0195 57.1778 37.0475 58.1732 33.9881 58.1688C33.4462 58.169 32.9047 58.1382 32.3665 58.0768C35.4719 60.0164 39.087 61.0458 42.779 61.0418C55.2769 61.0418 62.1092 50.9863 62.1092 42.2653C62.1092 41.982 62.1019 41.6958 62.0888 41.4125C63.4177 40.4789 64.5649 39.3228 65.4765 37.9983L65.4794 37.9941Z" fill="white"/>
</g>
</svg>
