<svg width="60" height="60" viewBox="0 0 60 60" fill="none" xmlns="http://www.w3.org/2000/svg">
<rect opacity="0.2" width="60" height="60" rx="15" fill="#150941"/>
<g clip-path="url(#clip0_388_161)">
<path d="M44.9301 31.5078C44.9262 31.5123 44.924 31.5181 44.924 31.524C44.924 31.53 44.9262 31.5357 44.9301 31.5402C44.8779 31.6546 44.9482 31.7832 44.8869 31.8962C44.8144 31.9994 44.852 32.1172 44.8438 32.2285C44.8006 32.2997 44.8524 32.3861 44.8054 32.4564C44.7333 32.5427 44.7665 32.6467 44.7566 32.7438C44.7087 32.812 44.7847 32.9117 44.6992 32.9704C44.4942 33.8684 44.2526 34.7549 43.8974 35.6072C43.8794 35.6606 43.865 35.715 43.8542 35.7703C43.8377 35.8344 43.8107 35.8954 43.7744 35.9507C43.7282 36.0146 43.682 36.0802 43.6825 36.1617C43.6531 36.2209 43.6505 36.2947 43.5897 36.3374C43.1193 37.3184 42.5532 38.2506 41.8997 39.1205C41.6127 39.5054 41.2783 39.8541 40.965 40.2201C40.899 40.3167 40.8194 40.4032 40.7285 40.4769L40.4868 40.719C40.4125 40.81 40.3252 40.8896 40.2279 40.9554C39.7046 41.435 39.1521 41.8818 38.5737 42.2933C37.8694 42.7934 37.1185 43.2103 36.3465 43.5927C36.2906 43.6261 36.2307 43.6524 36.1682 43.6708L35.9585 43.7627C35.9031 43.799 35.8422 43.8261 35.7781 43.843C35.208 44.0754 34.6259 44.2771 34.0342 44.4472C33.6889 44.5434 33.3333 44.6198 32.9825 44.7061C32.9126 44.7613 32.8224 44.7061 32.7499 44.7493C32.652 44.742 32.5538 44.7586 32.4638 44.7976C32.3926 44.8451 32.3054 44.7976 32.2329 44.836C32.1181 44.8118 32.0171 44.9098 31.9036 44.8792C31.7892 44.9404 31.6598 44.8701 31.5445 44.9223L31.4712 44.9275C31.3266 44.9823 31.1717 44.915 31.0267 44.9655L30.9097 44.9706C30.4622 45.0138 30.0134 44.9823 29.5654 44.9888C29.4101 44.9909 29.2526 45.0125 29.0985 44.9706L28.9815 44.9659C28.8365 44.9145 28.6795 44.9823 28.537 44.9271L28.4641 44.9223C28.3631 44.8753 28.2483 44.9357 28.1486 44.8839L27.7753 44.8356C27.7033 44.7924 27.6148 44.8459 27.544 44.7959C27.1241 44.7356 26.7076 44.6532 26.2964 44.549C25.3754 44.3165 24.4791 43.9949 23.6203 43.5888C22.4878 43.0603 21.4288 42.3867 20.47 41.5851C20.2279 41.3831 19.978 41.1906 19.7644 40.9572C19.6453 40.8622 19.5525 40.7414 19.4286 40.6499L19.3484 40.5696C19.259 40.4458 19.136 40.3539 19.0411 40.2339C18.238 39.4023 17.5665 38.4723 16.9847 37.4762C16.769 37.109 16.5571 36.7387 16.4034 36.3395C16.3655 36.2908 16.3564 36.2273 16.3227 36.1768C15.9031 35.26 15.5761 34.3035 15.3465 33.3217C15.2788 33.0381 15.2486 32.7455 15.2007 32.4586C15.1523 32.3878 15.2007 32.3002 15.1623 32.2281C15.1459 32.1032 15.1296 31.9785 15.1135 31.8539C15.0626 31.7538 15.1217 31.6382 15.0755 31.5389C15.0776 31.5371 15.0792 31.5349 15.0803 31.5324C15.0814 31.5299 15.082 31.5272 15.082 31.5245C15.082 31.5217 15.0814 31.519 15.0803 31.5165C15.0792 31.514 15.0776 31.5118 15.0755 31.51C15.013 31.3516 15.0876 31.1816 15.0324 31.0223L15.0272 30.905C14.9815 30.536 15.013 30.1653 15.0099 29.7959C15.0099 29.562 14.9828 29.3263 15.0272 29.0933L15.0324 28.9755C15.0859 28.8167 15.0117 28.6466 15.0755 28.4882C15.0775 28.4864 15.0791 28.4841 15.0802 28.4816C15.0813 28.479 15.0818 28.4763 15.0818 28.4736C15.0818 28.4708 15.0813 28.4681 15.0802 28.4656C15.0791 28.4631 15.0775 28.4608 15.0755 28.4589C15.1221 28.3579 15.0626 28.2431 15.1131 28.1443C15.1295 28.0197 15.1457 27.895 15.1618 27.7701C15.205 27.6981 15.1523 27.6105 15.2007 27.5397C15.2862 26.9318 15.4179 26.3314 15.5947 25.7436C15.7908 25.0857 16.0341 24.4429 16.3227 23.8201C16.3564 23.7696 16.3659 23.7062 16.4034 23.6579C16.5588 23.2531 16.778 22.881 16.9938 22.5073C17.4257 21.7561 17.9244 21.0453 18.484 20.3836C18.6639 20.1713 18.837 19.9521 19.0411 19.7626C19.1429 19.6472 19.2508 19.5373 19.3643 19.4334L19.4286 19.347C19.5525 19.2573 19.6444 19.1343 19.7644 19.0393C20.5096 18.333 21.3301 17.7107 22.2113 17.1837C22.683 16.9014 23.1607 16.6343 23.6596 16.4C23.7159 16.3683 23.7754 16.3426 23.837 16.3231C24.383 16.078 24.9435 15.8663 25.5153 15.6892C26.1319 15.4963 26.7612 15.3468 27.3986 15.2417C27.4472 15.2302 27.495 15.2158 27.5419 15.1985C27.6126 15.1493 27.7003 15.1985 27.7719 15.1592C27.8985 15.1657 28.0252 15.1493 28.1461 15.1109C28.2462 15.0591 28.3618 15.1195 28.4607 15.0725L28.5349 15.0673C28.679 15.0125 28.8335 15.0803 28.9781 15.0289L29.0959 15.0237C29.6138 14.9806 30.1347 15.0151 30.6543 15.0056C30.7406 15.0056 30.8269 14.9853 30.9071 15.0237L31.025 15.0289C31.1695 15.0803 31.324 15.0129 31.4682 15.0673L31.5428 15.0725C31.6576 15.1238 31.7871 15.0535 31.901 15.1156C32.0033 15.1868 32.1202 15.1506 32.2312 15.1588C32.3032 15.1994 32.39 15.1502 32.4607 15.1963C32.8673 15.2874 33.2755 15.369 33.6799 15.4704C34.2768 15.6241 34.8645 15.8114 35.4402 16.0314C35.4795 16.0456 35.5213 16.0534 35.5623 16.0642C35.6239 16.0835 35.6832 16.1094 35.7393 16.1414C35.7437 16.1464 35.7493 16.15 35.7557 16.1518C35.762 16.1536 35.7687 16.1536 35.7751 16.1518C35.8391 16.1682 35.9 16.1949 35.9555 16.2308C36.488 16.5035 37.0318 16.7521 37.5488 17.0563C38.1958 17.4366 38.8142 17.8637 39.3989 18.3342C39.6811 18.5612 39.9504 18.8041 40.2257 19.0402C40.322 19.1064 40.4083 19.186 40.4821 19.2767L40.7242 19.5188C40.8152 19.5932 40.895 19.6804 40.9611 19.7777C41.3555 20.2257 41.7461 20.678 42.0978 21.1587C42.5044 21.7137 42.8714 22.2966 43.1961 22.9031C43.329 23.1529 43.455 23.4063 43.5845 23.6583C43.6449 23.7014 43.6475 23.7748 43.6773 23.8339C43.6773 23.9202 43.7235 23.9811 43.7692 24.045C43.8051 24.1005 43.8319 24.1614 43.8486 24.2253C44.0212 24.7579 44.2487 25.271 44.3863 25.8152C44.4882 26.2187 44.5926 26.6218 44.6958 27.0235C44.7821 27.0822 44.7053 27.1819 44.7532 27.2501C44.7631 27.3468 44.7303 27.4512 44.8019 27.5375C44.849 27.6079 44.7985 27.6942 44.8403 27.7654C44.8507 27.8767 44.8136 27.9945 44.8835 28.0977C44.943 28.2108 44.8727 28.3394 44.9266 28.4537C44.9227 28.4582 44.9206 28.464 44.9206 28.4699C44.9206 28.4759 44.9227 28.4816 44.9266 28.4861C44.9853 28.6315 44.9163 28.7882 44.9668 28.9336L44.9733 29.0911C45.0046 29.6949 45.0046 30.2999 44.9733 30.9037L44.9668 31.0607C44.9197 31.2057 44.9888 31.3624 44.9301 31.5078Z" fill="#21759A"/>
<path d="M29.9948 15.7009C37.8832 15.6927 44.2892 22.0923 44.2991 29.991C44.3086 37.8764 37.9052 44.285 30.0077 44.2941C22.1219 44.3031 15.7107 37.8984 15.7034 30.0035C15.696 22.1156 22.0973 15.7104 29.9948 15.7009Z" fill="#150941"/>
<path d="M26.7952 37.8646L25.5644 34.2054C24.4473 30.883 23.3301 27.5601 22.213 24.2365C22.1124 23.9366 22.0934 23.9746 22.4046 23.9508C22.8128 23.9193 23.2245 23.89 23.6272 23.8321C23.9724 23.7825 24.1481 23.4718 24.0445 23.1417C23.9716 22.909 23.7856 22.7766 23.5154 22.7904C22.9268 22.8206 22.339 22.8685 21.7504 22.8965C21.0033 22.9324 20.2563 22.9751 19.5063 22.9362C19.4398 22.9328 19.3466 22.9699 19.3129 22.8931C19.2866 22.8331 19.3604 22.7791 19.3958 22.7282C20.9051 20.5523 22.8914 18.978 25.3547 18.0053C26.9855 17.3617 28.7336 17.0694 30.485 17.1474C33.5249 17.2768 36.1945 18.3423 38.4938 20.3439C38.5266 20.3724 38.5581 20.4021 38.5888 20.4302C38.6031 20.4483 38.6159 20.4675 38.6272 20.4876C38.4921 20.4975 38.3683 20.4984 38.2448 20.5174C37.0831 20.6956 36.2485 21.7965 36.362 22.9721C36.4241 23.6108 36.664 24.1804 36.9748 24.728C37.3131 25.3292 37.7028 25.9002 38.0105 26.5203C38.7523 28.0221 38.8689 29.5761 38.3989 31.1738C37.7649 33.3229 37.1159 35.4677 36.4724 37.6147C36.4546 37.6603 36.4343 37.7048 36.4116 37.7481C36.2683 37.326 36.1367 36.9424 36.0077 36.5583C34.6206 32.432 33.2327 28.3064 31.844 24.1813C31.7836 24.0026 31.8008 23.9538 31.9989 23.9461C32.3938 23.9301 32.7878 23.8926 33.1805 23.8472C33.5642 23.8041 33.7446 23.5939 33.7183 23.2564C33.6932 22.9375 33.4753 22.7649 33.0947 22.7895C32.1763 22.8482 31.2584 22.9073 30.3383 22.9349C29.13 22.9712 27.9216 22.8823 26.7184 22.8085C26.5963 22.8012 26.4746 22.7882 26.3525 22.7861C26.0301 22.7804 25.8191 22.9695 25.7914 23.2836C25.7638 23.578 25.9433 23.7985 26.2662 23.8369C26.6584 23.8839 27.0524 23.9197 27.4465 23.9474C27.5712 23.9564 27.6346 23.9953 27.6782 24.1157C28.3074 25.8514 28.9404 27.586 29.577 29.3194C29.6109 29.3982 29.6146 29.4866 29.5874 29.5679C28.676 32.2928 27.7664 35.0182 26.8587 37.7442C26.8444 37.7735 26.8293 37.7964 26.7952 37.8646Z" fill="#21759A"/>
<path d="M30.2278 31.1255L31.551 34.7458C32.4141 37.107 33.2762 39.468 34.1373 41.8289C34.2504 42.1388 34.253 42.1401 33.9323 42.2411C31.4819 43.0133 29.0175 43.0606 26.5389 42.383C26.343 42.33 26.3999 42.2402 26.4409 42.1211C27.6174 38.7058 28.7929 35.2903 29.9676 31.8747C30.0466 31.6455 30.1269 31.4189 30.2278 31.1255Z" fill="#21759A"/>
<path d="M18.2625 24.7837L24.3659 41.5039C23.2965 41.3192 20.6373 39.0574 19.4289 37.3126C18.159 35.4785 17.4162 33.4502 17.2004 31.2277C16.9773 28.9801 17.3985 26.6286 18.2625 24.7837Z" fill="#21759A"/>
<path d="M41.3905 24.0449C42.0066 25.1844 42.4315 26.4171 42.6485 27.6942C43.2553 31.2366 42.5324 34.4853 40.4799 37.44C39.4541 38.9073 38.1534 40.0936 36.6175 41.018C36.5838 41.0383 36.5554 41.0797 36.488 41.0542C36.6007 40.7237 36.712 40.3922 36.8264 40.0617C38.0028 36.6614 39.1706 33.2586 40.3617 29.8636C40.7138 28.8594 41.0668 27.8599 41.239 26.8047C41.3767 25.9628 41.3797 25.1169 41.3439 24.2685C41.3409 24.1904 41.2731 24.0984 41.3905 24.0449Z" fill="#21759A"/>
</g>
<defs>
<clipPath id="clip0_388_161">
<rect width="30" height="29.9957" fill="white" transform="translate(15 15)"/>
</clipPath>
</defs>
</svg>
