<svg width="60" height="58" viewBox="0 0 60 58" fill="none" xmlns="http://www.w3.org/2000/svg">
<g clip-path="url(#clip0_1008_10)">
<path d="M58.0606 21.6576C56.2096 15.149 52.5077 9.90947 46.973 5.93905C36.4536 -1.6392 21.4808 -1.25847 11.3646 6.86367C5.97657 11.1967 2.54951 16.7263 1.12004 23.4343C0.570242 26.0268 0.441957 31.1032 0.973426 33.9677C0.991753 34.1671 1.02841 34.3665 1.10171 34.5478C1.37661 35.3999 1.54155 36.3064 1.79812 37.1585C5.20686 48.2177 15.0299 56.2492 26.9971 57.3551C34.3827 58.0259 41.1085 56.1585 47.193 51.898C56.6311 45.2807 61.2128 32.6805 58.0606 21.6576ZM43.8759 52.6413C33.1182 58.606 20.5095 57.3913 11.1447 49.3961C6.58135 45.5163 3.75906 40.5488 2.32959 34.8016C2.05469 33.6957 1.77979 31.2845 1.81645 29.4171C1.81645 29.2721 1.83477 29.1452 1.83477 29.0001C1.83477 28.148 1.76147 27.2778 1.87143 26.4257C2.95269 17.3245 7.40604 10.2902 15.2865 5.63084C23.9916 0.500115 33.1732 0.10126 42.2814 4.54305C50.8216 8.7129 55.9897 15.6022 57.5108 24.9572C59.3068 36.0163 53.7539 47.1661 43.8759 52.6413Z" fill="#01749C"/>
<path d="M45.7637 32.5897C47.0648 28.6556 47.0282 24.8846 44.7924 21.2767C44.1326 20.2252 43.4728 19.1737 42.9047 18.0678C42.0983 16.5267 41.8235 14.9132 42.6115 13.2815C43.3629 11.7405 44.6457 10.8702 46.4601 10.7615C34.1446 0.0286398 15.8731 4.30727 9.12891 15.4208C9.91695 15.4208 10.6867 15.4389 11.438 15.4208C13.289 15.3483 15.1583 15.2576 17.0093 15.167C17.6874 15.1307 18.1639 15.4389 18.2555 16.0916C18.3472 16.7624 17.9806 17.1794 17.3209 17.3063C16.9727 17.3788 16.5878 17.397 16.2396 17.4332C15.7081 17.5057 15.1767 17.5601 14.5352 17.6508C17.5408 26.3531 20.5097 34.9466 23.5519 43.7758C25.3662 38.4819 27.1072 33.4418 28.8116 28.3836C28.9216 28.0754 28.8483 27.6584 28.7383 27.3502C27.6204 24.3225 26.5025 21.2949 25.3296 18.2672C25.2196 17.959 24.7981 17.6689 24.4499 17.5783C23.8085 17.4151 23.1304 17.4151 22.4523 17.3063C21.7742 17.1975 21.426 16.7987 21.4993 16.1097C21.591 15.4208 22.0308 15.1307 22.7089 15.1489C22.8921 15.1489 23.0754 15.167 23.2587 15.167C26.3925 15.2214 29.5447 15.2939 32.6785 15.3302C33.6132 15.3483 34.5661 15.2214 35.5191 15.167C35.739 15.1489 36.0139 15.0764 36.1422 15.167C36.5088 15.4571 37.0219 15.7834 37.0952 16.1641C37.1502 16.4723 36.7103 17.1069 36.3621 17.1975C35.4641 17.4514 34.5112 17.4876 33.4116 17.6508C36.3988 26.3168 39.331 34.8559 42.3366 43.522C42.5015 43.0325 42.6298 42.688 42.7398 42.3435C43.7477 39.0983 44.6824 35.8349 45.7637 32.5897ZM40.4306 30.1603C40.5406 30.1603 40.6506 30.1603 40.7788 30.1603C40.8521 30.2691 40.9254 30.3779 41.0171 30.5048C40.9438 30.396 40.8521 30.2872 40.7788 30.1603C40.6689 30.1603 40.5589 30.1603 40.4306 30.1603ZM40.1374 34.6928C40.1557 34.7109 40.1741 34.729 40.2107 34.729C40.3573 34.8015 40.5956 34.8741 40.7788 34.9466C40.6139 34.8741 40.3573 34.8015 40.2107 34.729C40.1924 34.729 40.1741 34.7109 40.1374 34.6928Z" fill="#01749C"/>
<path d="M22.8008 52.4781C27.9872 53.874 32.972 53.7653 37.9935 52.0973C35.4094 45.1899 32.8621 38.355 30.2414 31.375C27.7306 38.4819 25.2749 45.4437 22.8008 52.4781Z" fill="#01749C"/>
<path d="M12.9395 35.6173C12.6646 34.8921 11.4184 31.6288 10.667 29.5439C10.0256 27.7309 9.3292 25.936 8.66944 24.1412C8.06467 22.5458 7.45989 20.9685 6.80014 19.228C4.9125 23.7423 4.08781 30.5047 5.57226 35.2185C7.07503 40.7481 10.2272 45.208 14.9005 48.6526C16.0184 49.4685 17.2463 50.1212 18.4192 50.8464C18.5291 50.5563 18.4925 50.4112 18.4375 50.2843C16.6048 45.4074 14.7905 40.4942 12.9395 35.6173ZM5.53561 33.478C5.51728 33.5687 5.49895 33.6412 5.48063 33.7318C5.48063 33.5687 5.49895 33.4599 5.53561 33.478ZM6.96508 34.9284C6.94675 34.8921 6.9101 34.8378 6.89177 34.7834C6.9101 34.8378 6.94675 34.874 6.96508 34.9284Z" fill="#01749C"/>
<path d="M52.05 18.5935C51.94 20.2977 52.0683 22.0745 51.6468 23.7061C50.8221 26.8426 49.6858 29.9065 48.6229 32.9704C47.34 36.7052 45.9839 40.4218 44.6827 44.1384C44.0229 46.0239 43.3448 47.9094 42.6484 49.8855C54.4507 43.2319 57.9328 28.3474 52.0683 17.8865C52.05 18.1947 52.0683 18.3941 52.05 18.5935Z" fill="#01749C"/>
</g>
<defs>
<clipPath id="clip0_1008_10">
<rect width="58.425" height="57" fill="white" transform="translate(0.625 0.5)"/>
</clipPath>
</defs>
</svg>
