<svg width="92" height="94" viewBox="0 0 92 94" fill="none" xmlns="http://www.w3.org/2000/svg">
<path d="M69.8897 64.1403V23.7808L88.8551 64.1403H69.8897ZM60.9469 89.1105L69.5369 66.4251H87.5522L60.9469 89.1105ZM57.527 91.7133H23.3086L66.5883 67.7837L57.527 91.7133ZM38.7088 51.4962L66.304 65.3315L21.3259 90.2031L38.7088 51.4962ZM20.448 65.8346L35.1472 53.8656L20.1082 87.3502L20.448 65.8346ZM4.47281 51.1158L34.9416 51.0889L19.334 63.7971L4.47281 51.1158ZM17.8209 7.78901L18.1727 37.8793L3.59028 47.2083L17.8209 7.78901ZM19.334 39.8471L34.0832 48.8031L5.29051 48.8301L19.334 39.8471ZM35.8417 47.2027L20.449 37.8533L20.0943 7.60674L35.8417 47.2027ZM67.6153 21.4737V63.4373L40.0645 49.6242L67.6153 21.4737ZM66.6763 19.1759L38.5662 47.8937L20.862 3.37654L66.6763 19.1759ZM69.51 17.7243L18.2005 0L0 50.2715L18.1718 65.8058L17.7134 94H58.8003L92 65.604L69.51 17.7243Z" fill="white"/>
</svg>
