<svg width="60" height="60" viewBox="0 0 60 60" fill="none" xmlns="http://www.w3.org/2000/svg">
<rect opacity="0.2" width="60" height="60" rx="15" fill="#150941"/>
<g clip-path="url(#clip0_340_9106)">
<path d="M46.6663 19.5834V40.7222C46.6366 40.8181 46.66 40.9167 46.6525 41.0131C46.6783 42.0019 46.3568 42.8876 45.8523 43.7202C45.5583 44.2029 45.196 44.6405 44.7766 45.0193C44.22 45.5233 43.5743 45.919 42.8727 46.1862C42.3429 46.3907 41.7791 46.4924 41.2113 46.4857C41.1224 46.4935 41.0318 46.4685 40.944 46.4996H18.9162C18.8545 46.4701 18.7889 46.4924 18.7256 46.4857C18.0588 46.4901 17.4326 46.3284 16.8253 46.0601C16.1038 45.7408 15.4524 45.2824 14.9084 44.7111C14.3643 44.1397 13.9382 43.4668 13.6545 42.7306C13.4485 42.2064 13.3441 41.6478 13.3469 41.0845C13.3397 41.0289 13.3622 40.9703 13.333 40.9178V19.6112C13.3622 19.5493 13.34 19.4837 13.3469 19.4203C13.3302 18.5555 13.5969 17.7687 14.0059 17.0205C14.298 16.4882 14.6712 16.0046 15.1122 15.5872C15.8156 14.9105 16.6756 14.4184 17.6154 14.1547C17.9799 14.052 18.3505 14.0289 18.7242 14.0139C18.7881 14.0069 18.8539 14.0294 18.9162 14H40.944C41.0312 14.0308 41.121 14.0061 41.2093 14.0139C42.3779 13.9953 43.39 14.4306 44.3126 15.1035C45.0981 15.6757 45.7283 16.4349 46.1463 17.3122C46.3394 17.7023 46.4846 18.1143 46.5786 18.5394C46.6397 18.8272 46.643 19.1228 46.6533 19.4151C46.6594 19.4709 46.6372 19.5293 46.6663 19.5834Z" fill="#460136"/>
<path d="M46.6667 41.0278C46.6582 41.0284 46.6497 41.0297 46.6414 41.0317C46.6456 40.9283 46.6164 40.8219 46.6667 40.7222V41.0278Z" fill="#36012A"/>
<path d="M41.2222 14C41.2227 14.0085 41.2238 14.0169 41.2255 14.0253C41.1313 14.0228 41.0346 14.0478 40.9443 14H41.2222Z" fill="#2F0124"/>
<path d="M41.2255 46.4749C41.2238 46.4832 41.2227 46.4916 41.2222 46.5001H40.9443C41.0346 46.4535 41.1313 46.4771 41.2255 46.4749Z" fill="#2D0123"/>
<path d="M18.7202 14.0244C18.7202 14.0164 18.7216 14.0081 18.7219 14H18.9164C18.855 14.0386 18.7869 14.0264 18.7202 14.0244Z" fill="#180013"/>
<path d="M13.3333 19.4167C13.3413 19.4167 13.3497 19.4167 13.3577 19.4142C13.3599 19.4811 13.373 19.5495 13.3333 19.6112V19.4167Z" fill="#23001B"/>
<path d="M18.7219 46.5001C18.7219 46.4918 18.7219 46.4837 18.7202 46.4757C18.7869 46.4734 18.855 46.4615 18.9164 46.5001H18.7219Z" fill="#180012"/>
<path d="M46.643 19.4142C46.6508 19.4142 46.6589 19.4161 46.6666 19.4167V19.5834C46.6311 19.5323 46.6391 19.4722 46.643 19.4142Z" fill="#1B0015"/>
<path d="M13.3569 41.0859C13.3491 41.0859 13.341 41.084 13.3333 41.0834V40.9167C13.3694 40.9693 13.3608 41.0279 13.3569 41.0859Z" fill="#1E0017"/>
<path d="M41.7361 28.2776C41.7361 30.1574 41.7392 32.0368 41.7361 33.9174C41.7342 34.6214 41.7639 35.3238 41.8131 36.0258C41.8281 36.2431 41.7969 36.2878 41.595 36.3703C40.0853 36.9863 38.5097 37.2424 36.8873 37.1869C35.7221 37.1469 34.6155 36.8557 33.6386 36.1962C32.4876 35.4182 31.805 34.3219 31.5608 32.9598C31.3733 31.9152 31.3427 30.8664 31.6644 29.8409C32.3218 27.7447 33.7481 26.4384 35.8518 25.868C36.7114 25.6349 37.5932 25.5788 38.4814 25.6622C38.6028 25.6738 38.6442 25.6519 38.6436 25.5163C38.6381 24.1322 38.64 22.7481 38.6403 21.3637C38.6403 21.1439 38.6564 21.1278 38.8781 21.1278H41.5175C41.7214 21.1278 41.738 21.1434 41.738 21.3501L41.7361 28.2776Z" fill="#FE61F5"/>
<path d="M24.7697 27.8034C24.7827 27.7856 24.7946 27.767 24.8055 27.7478C25.6337 26.0164 26.6031 24.3584 27.4743 22.6506C27.5963 22.4114 27.7266 22.3361 27.9916 22.3419C28.9032 22.3617 29.8153 22.3494 30.7274 22.3483C30.7899 22.3483 30.8496 22.3483 30.886 22.4081C30.9224 22.4678 30.881 22.5114 30.8521 22.5589C29.4854 24.8122 28.1181 27.0655 26.7503 29.3186C26.6995 29.402 26.7164 29.4556 26.7606 29.5278C28.1986 31.884 29.6356 34.241 31.0716 36.599C31.1216 36.6824 31.2085 36.7704 31.1588 36.863C31.1091 36.9555 30.9905 36.9024 30.9043 36.9027C29.8583 36.9049 28.812 36.8988 27.7649 36.9027C27.5221 36.9027 27.3796 36.8057 27.2707 36.5846C26.4311 34.8799 25.5073 33.2199 24.5819 31.5607C24.5644 31.5293 24.5563 31.4773 24.518 31.476C24.4666 31.4723 24.4644 31.5315 24.4471 31.5646C23.5503 33.3124 22.6213 35.0429 21.675 36.7646C21.6172 36.8699 21.5425 36.9257 21.425 36.9263C21.078 36.9282 20.7304 36.9324 20.3837 36.933C19.6939 36.9341 19.0042 36.9341 18.3144 36.933C18.1958 36.933 18.1619 36.8844 18.2061 36.7716C18.2234 36.7336 18.2439 36.6973 18.2675 36.6629C19.6666 34.3688 21.0661 32.0759 22.466 29.784C22.524 29.689 22.5263 29.6218 22.4688 29.5245C21.0982 27.2136 19.7313 24.9011 18.3681 22.587C18.3345 22.53 18.2686 22.4742 18.3081 22.3992C18.3497 22.32 18.4339 22.335 18.5067 22.335C19.5252 22.335 20.5437 22.3372 21.5628 22.3328C21.7739 22.3328 21.9037 22.4119 21.9912 22.6106C22.4871 23.7277 23.0927 24.7876 23.7037 25.8442C24.058 26.4565 24.3914 27.0798 24.7038 27.7142C24.7194 27.7434 24.7261 27.7837 24.7697 27.8034Z" fill="#FE61F5"/>
<path d="M38.6389 31.3676C38.6389 32.34 38.6372 33.3104 38.6411 34.282C38.6411 34.3881 38.6178 34.4428 38.5052 34.4556C37.6845 34.5487 36.87 34.5715 36.0965 34.2133C35.4456 33.9119 35.0408 33.389 34.8102 32.7239C34.5485 31.9702 34.5224 31.1959 34.7029 30.4269C34.9274 29.4692 35.5714 28.8588 36.4454 28.4771C37.1083 28.1873 37.8043 28.1504 38.5127 28.2771C38.6147 28.2954 38.6416 28.3376 38.6414 28.4393C38.6372 29.4145 38.6389 30.3905 38.6389 31.3676Z" fill="#470137"/>
</g>
<defs>
<clipPath id="clip0_340_9106">
<rect width="33.3333" height="32.4999" fill="white" transform="translate(13.3333 14)"/>
</clipPath>
</defs>
</svg>
